<svg id="Capa_1" enable-background="new 0 0 512 512" height="512" viewBox="0 0 512 512" width="512" xmlns="http://www.w3.org/2000/svg"><g><path d="m460.774 90.366c-12.783 1.436-25.565 43.945-38.348 45.113-113.961 10.407-227.923 10.124-341.884-.847-9.772-.941-19.544-43.167-29.316-44.265v-44.546c0-10.597 9.095-18.897 19.649-17.948 123.417 11.095 246.834 11.095 370.251 0 10.554-.949 19.649 7.351 19.649 17.948v44.545z" fill="#cbe2ff"/><g><path d="m441.125 27.874c-6.629.596-13.258 1.153-19.887 1.685 6.533 3.52 11.205 11.957 11.205 21.949v41.813c9.443-.914 18.887-1.894 28.33-2.955v-44.545c.001-10.596-9.093-18.896-19.648-17.947z" fill="#bed8fb"/></g><path d="m287.999 465.102 3.825 13.487c1.883 6.64 9.202 10.087 15.524 7.319 72.922-31.932 124.994-52.659 194.379-59.414 6.341-.617 10.939-6.327 10.194-12.655-15.116-128.488-30.357-255.652-51.147-323.473-136.516 15.339-273.032 15.339-409.549 0-20.79 67.82-36.03 194.985-51.147 323.473-.744 6.327 3.853 12.037 10.194 12.655 69.385 6.755 121.457 27.482 194.379 59.414 6.322 2.768 13.641-.679 15.524-7.319l3.825-13.487c9.148-32.247 54.852-32.247 63.999 0z" fill="#9dc6fb"/><g><path d="m511.921 413.839c-15.116-128.488-30.357-255.652-51.147-323.473-9.156 1.029-18.313 1.983-27.469 2.874 20.114 68.377 33.087 209.879 47.827 335.742 6.716-.969 13.563-1.804 20.595-2.489 6.341-.617 10.938-6.327 10.194-12.654z" fill="#80b4fb"/></g><path d="m151.244 98.853c-33.34-1.916-66.679-4.741-100.018-8.487-8.595 28.037-16.24 66.222-23.321 110.443z" fill="#61a2f9"/><path d="m460.774 90.366c-33.339 3.746-66.679 6.57-100.018 8.487l123.339 101.956c-7.081-44.221-14.726-82.406-23.321-110.443z" fill="#61a2f9"/><path d="m449.768 172.432 34.328 28.376c-7.081-44.221-14.726-82.406-23.321-110.443-9.157 1.029-18.313 1.981-27.47 2.871 6.053 20.581 11.46 47.787 16.463 79.196z" fill="#5490f9"/><g><g><g><path d="m150.757 235.534c-.441 0-.887-.037-1.337-.116-4.203-.733-7.017-4.736-6.284-8.94 2.742-15.716 10.719-22.993 17.13-28.84 5.858-5.345 10.486-9.566 12.32-20.08 1.835-10.515-1.09-16.054-4.793-23.066-4.051-7.672-9.093-17.22-6.351-32.937 2.741-15.715 10.719-22.991 17.129-28.837 5.859-5.344 10.486-9.564 12.32-20.076.733-4.203 4.726-7.018 8.94-6.284 4.204.733 7.017 4.736 6.284 8.94-2.742 15.715-10.719 22.991-17.13 28.837-5.858 5.343-10.485 9.563-12.319 20.076-1.835 10.514 1.09 16.053 4.793 23.065 4.051 7.672 9.093 17.221 6.351 32.938-2.742 15.716-10.719 22.993-17.13 28.84-5.858 5.345-10.486 9.566-12.32 20.08-.655 3.756-3.918 6.4-7.603 6.4z" fill="#f9f6f9"/></g></g><g><g><path d="m361.243 235.534c-3.685 0-6.948-2.645-7.603-6.399-1.834-10.514-6.462-14.735-12.32-20.08-6.41-5.847-14.387-13.124-17.13-28.84-2.741-15.716 2.3-25.266 6.351-32.938 3.703-7.012 6.628-12.551 4.793-23.065-1.834-10.512-6.461-14.733-12.319-20.076-6.41-5.846-14.388-13.122-17.13-28.837-.733-4.204 2.081-8.206 6.284-8.94 4.204-.734 8.206 2.08 8.94 6.284 1.834 10.512 6.461 14.733 12.319 20.076 6.41 5.846 14.388 13.122 17.13 28.837 2.741 15.716-2.3 25.265-6.351 32.937-3.703 7.012-6.628 12.551-4.793 23.066 1.834 10.514 6.462 14.735 12.32 20.08 6.41 5.847 14.387 13.124 17.13 28.84.733 4.203-2.081 8.206-6.284 8.94-.449.078-.896.115-1.337.115z" fill="#f9f6f9"/></g></g></g><g><g><path d="m119.698 103.731c-.635 0-1.28-.078-1.924-.243-4.133-1.059-6.626-5.27-5.566-9.403l16.182-63.142c1.058-4.133 5.266-6.626 9.403-5.566 4.133 1.059 6.626 5.27 5.566 9.403l-16.182 63.142c-.894 3.489-4.035 5.809-7.479 5.809z" fill="#bed8fb"/></g><g><path d="m392.301 103.731c-3.445 0-6.586-2.32-7.48-5.81l-16.181-63.142c-1.059-4.134 1.434-8.344 5.566-9.403 4.141-1.052 8.345 1.434 9.403 5.566l16.181 63.142c1.059 4.134-1.434 8.344-5.566 9.403-.643.164-1.288.244-1.923.244z" fill="#bed8fb"/></g></g><g><path d="m259.731 76.817h-7.462c-4.268 0-7.726-3.459-7.726-7.726s3.459-7.726 7.726-7.726h7.462c4.268 0 7.726 3.459 7.726 7.726s-3.458 7.726-7.726 7.726z" fill="#bed8fb"/></g><path d="m99.416 362.187c-9.278-4.586-13.729-15.332-10.411-25.135 5.484-16.203-9.98-31.667-26.183-26.183-9.804 3.318-20.549-1.133-25.135-10.411-4.466-9.034-13.889-12.74-22.43-11.13-5.202 39.976-10.197 82.171-15.178 124.511-.744 6.327 3.853 12.037 10.194 12.655 27.68 2.695 52.603 7.619 77.194 14.586 2.715-4.782 3.576-10.703 1.537-16.729-3.318-9.803 1.133-20.549 10.411-25.135 15.336-7.58 15.336-29.449.001-37.029z" fill="#b3e59f"/><path d="m453.488 421.676c4.401-13.005-8.01-25.417-21.016-21.016-7.869 2.663-16.493-.909-20.175-8.357-6.084-12.308-23.637-12.308-29.721 0-3.681 7.447-12.306 11.02-20.174 8.357-13.005-4.401-25.417 8.01-21.016 21.016 2.663 7.869-.909 16.493-8.357 20.174-12.308 6.084-12.308 23.637 0 29.721 1.095.541 2.095 1.2 3.015 1.937 42.341-17.964 78.619-31.432 118.035-39.734-1.66-3.703-1.978-8-.591-12.098z" fill="#b3e59f"/><path d="m248.273 101.843v49.046c0 4.268 3.459 7.726 7.726 7.726s7.726-3.459 7.726-7.726v-49.046c-5.15.022-10.301.022-15.452 0z" fill="#80b4fb"/></g></svg>