<svg id="Capa_1" enable-background="new 0 0 512 512" height="512" viewBox="0 0 512 512" width="512" xmlns="http://www.w3.org/2000/svg"><g><g><g><g><path d="m27.037 426.246c-4.268 0-7.726-3.459-7.726-7.726v-17.865c0-4.268 3.459-7.726 7.726-7.726s7.726 3.459 7.726 7.726v17.865c0 4.267-3.459 7.726-7.726 7.726z" fill="#cbe2ff"/></g><g><path d="m61.797 423.53c-4.268 0-7.726-3.459-7.726-7.726v-17.866c0-4.268 3.459-7.726 7.726-7.726s7.726 3.459 7.726 7.726v17.866c.001 4.267-3.458 7.726-7.726 7.726z" fill="#cbe2ff"/></g><g><path d="m96.559 421.877c-4.268 0-7.726-3.459-7.726-7.726v-17.866c0-4.268 3.459-7.726 7.726-7.726 4.268 0 7.726 3.459 7.726 7.726v17.866c0 4.267-3.459 7.726-7.726 7.726z" fill="#cbe2ff"/></g><g><path d="m131.319 424.062c-4.268 0-7.726-3.459-7.726-7.726v-17.866c0-4.268 3.459-7.726 7.726-7.726 4.268 0 7.726 3.459 7.726 7.726v17.866c.001 4.267-3.458 7.726-7.726 7.726z" fill="#cbe2ff"/></g><g><path d="m166.08 429.185c-4.268 0-7.726-3.459-7.726-7.726v-17.865c0-4.268 3.459-7.726 7.726-7.726 4.268 0 7.726 3.459 7.726 7.726v17.865c0 4.267-3.458 7.726-7.726 7.726z" fill="#cbe2ff"/></g><g><path d="m200.841 436.272c-4.268 0-7.726-3.459-7.726-7.726v-17.866c0-4.268 3.459-7.726 7.726-7.726 4.268 0 7.726 3.459 7.726 7.726v17.866c0 4.268-3.459 7.726-7.726 7.726z" fill="#cbe2ff"/></g></g><g><g><path d="m483.063 426.246c-4.268 0-7.726-3.459-7.726-7.726v-17.865c0-4.268 3.459-7.726 7.726-7.726s7.726 3.459 7.726 7.726v17.865c0 4.267-3.459 7.726-7.726 7.726z" fill="#cbe2ff"/></g><g><path d="m448.301 423.53c-4.268 0-7.726-3.459-7.726-7.726v-17.866c0-4.268 3.459-7.726 7.726-7.726s7.726 3.459 7.726 7.726v17.866c.001 4.267-3.458 7.726-7.726 7.726z" fill="#cbe2ff"/></g><g><path d="m413.541 421.877c-4.268 0-7.726-3.459-7.726-7.726v-17.866c0-4.268 3.459-7.726 7.726-7.726s7.726 3.459 7.726 7.726v17.866c0 4.267-3.459 7.726-7.726 7.726z" fill="#cbe2ff"/></g><g><path d="m378.78 424.062c-4.268 0-7.726-3.459-7.726-7.726v-17.866c0-4.268 3.459-7.726 7.726-7.726s7.726 3.459 7.726 7.726v17.866c.001 4.267-3.458 7.726-7.726 7.726z" fill="#cbe2ff"/></g><g><path d="m344.02 429.185c-4.268 0-7.726-3.459-7.726-7.726v-17.865c0-4.268 3.459-7.726 7.726-7.726s7.726 3.459 7.726 7.726v17.865c0 4.267-3.459 7.726-7.726 7.726z" fill="#cbe2ff"/></g><g><path d="m309.258 436.272c-4.268 0-7.726-3.459-7.726-7.726v-17.866c0-4.268 3.459-7.726 7.726-7.726s7.726 3.459 7.726 7.726v17.866c0 4.268-3.458 7.726-7.726 7.726z" fill="#cbe2ff"/></g></g></g><path d="m484.963 139.801h-457.926v-41.087c0-8.427 6.832-15.259 15.259-15.259h427.409c8.427 0 15.259 6.832 15.259 15.259v41.087z" fill="#cbe2ff"/><path d="m469.704 83.455h-31.936c8.427 0 15.259 6.832 15.259 15.259v41.087h31.936v-41.087c0-8.427-6.831-15.259-15.259-15.259z" fill="#bed8fb"/><path d="m484.963 139.801h-228.963-228.963c-23.977 57.07-8.148 155.455-26.837 254.357-1.45 7.672 5.212 14.383 12.889 12.964 71.644-13.24 143.244-8.184 214.801 15.107 4.282 1.394 8.898-.862 10.443-5.092l9.796-26.817c2.681-7.34 13.062-7.34 15.743 0l9.796 26.817c1.545 4.23 6.161 6.486 10.443 5.092 71.557-23.291 143.157-28.348 214.801-15.107 7.678 1.419 14.339-5.293 12.889-12.964-18.69-98.902-2.861-197.287-26.838-254.357z" fill="#9dc6fb"/><g><path d="m511.8 394.158c-18.689-98.901-2.861-197.286-26.837-254.356h-31.936c23.976 57.07 8.148 155.455 26.837 254.356.69 3.652-.471 7.074-2.692 9.518 7.246.965 14.492 2.107 21.738 3.446 7.679 1.419 14.34-5.292 12.89-12.964z" fill="#80b4fb"/></g><path d="m288.571 288.622h-32.571v-148.82h53.258v128.133c0 11.425-9.262 20.687-20.687 20.687z" fill="#61a2f9"/><g><g><path d="m282.629 180.396c-4.268 0-7.726-3.459-7.726-7.726v-5.753c0-4.268 3.459-7.726 7.726-7.726s7.726 3.459 7.726 7.726v5.753c.001 4.267-3.458 7.726-7.726 7.726z" fill="#5490f9"/></g><g><path d="m282.629 221.937c-4.268 0-7.726-3.459-7.726-7.726v-5.751c0-4.268 3.459-7.726 7.726-7.726s7.726 3.459 7.726 7.726v5.751c.001 4.268-3.458 7.726-7.726 7.726z" fill="#5490f9"/></g><g><path d="m282.629 263.48c-4.268 0-7.726-3.459-7.726-7.726v-5.753c0-4.268 3.459-7.726 7.726-7.726s7.726 3.459 7.726 7.726v5.753c.001 4.267-3.458 7.726-7.726 7.726z" fill="#5490f9"/></g></g><path d="m98.749 188.444v-48.643h-71.712c-11.057 26.318-13.645 61.434-15.061 101.323h34.093c29.095 0 52.68-23.586 52.68-52.68z" fill="#61a2f9"/><path d="m484.963 139.801h-71.713v48.643c0 29.094 23.586 52.68 52.68 52.68h34.093c-1.414-39.889-4.003-75.005-15.06-101.323z" fill="#61a2f9"/><path d="m500.024 241.124c-1.415-39.889-4.004-75.006-15.061-101.323h-31.936c11.057 26.319 13.648 61.431 15.063 101.323z" fill="#5490f9"/><path d="m55.486 192.767c-7.644 0-13.842 6.197-13.842 13.842v34.515h4.425c27.637 0 50.288-21.287 52.489-48.357z" fill="#5490f9"/><g><path d="m262.914 119.355h-13.828c-4.268 0-7.726-3.459-7.726-7.726 0-4.268 3.459-7.726 7.726-7.726h13.828c4.268 0 7.726 3.459 7.726 7.726s-3.458 7.726-7.726 7.726z" fill="#61a2f9"/></g><g><g><path d="m147.107 147.529c-.375 0-.754-.027-1.135-.083-4.221-.621-7.14-4.546-6.519-8.769l8.288-56.346c.621-4.222 4.561-7.143 8.769-6.519 4.221.621 7.14 4.546 6.519 8.769l-8.288 56.346c-.564 3.839-3.865 6.602-7.634 6.602z" fill="#bed8fb"/></g><g><path d="m364.893 147.529c-3.77 0-7.069-2.763-7.634-6.603l-8.288-56.346c-.621-4.222 2.298-8.148 6.519-8.769 4.223-.622 8.148 2.298 8.769 6.519l8.288 56.346c.621 4.222-2.298 8.148-6.519 8.769-.382.057-.761.084-1.135.084z" fill="#bed8fb"/></g></g><g><path d="m256 392.542c-4.268 0-7.726-3.459-7.726-7.726v-245.014c0-4.268 3.459-7.726 7.726-7.726 4.268 0 7.726 3.459 7.726 7.726v245.014c.001 4.267-3.458 7.726-7.726 7.726z" fill="#5490f9"/></g></g></svg>