<svg height="512" viewBox="0 0 58 50" width="512" xmlns="http://www.w3.org/2000/svg"><g id="099---Shorts" fill="none" transform="translate(-1)"><path id="Shape" d="m50 2v4h-40v-4c0-1.1045695.8954305-2 2-2h36c1.1045695 0 2 .8954305 2 2z" fill="#f29c1f"/><g fill="#e57e25"><path id="Shape" d="m15 0v6c0 .55228475-.4477153 1-1 1s-1-.44771525-1-1v-6z"/><path id="Shape" d="m23 0v6c0 .55228475-.4477153 1-1 1s-1-.44771525-1-1v-6z"/><path id="Shape" d="m19 0v6c0 .55228475-.4477153 1-1 1s-1-.44771525-1-1v-6z"/><path id="Shape" d="m27 0v6c0 .55228475-.4477153 1-1 1s-1-.44771525-1-1v-6z"/><path id="Shape" d="m31 0v6c0 .55228475-.4477153 1-1 1s-1-.44771525-1-1v-6z"/><path id="Shape" d="m39 0v6c0 .55228475-.4477153 1-1 1s-1-.44771525-1-1v-6z"/><path id="Shape" d="m35 0v6c0 .55228475-.4477153 1-1 1s-1-.44771525-1-1v-6z"/><path id="Shape" d="m43 0v6c0 .55228475-.4477153 1-1 1s-1-.44771525-1-1v-6z"/><path id="Shape" d="m47 0v6c0 .55228475-.4477153 1-1 1s-1-.44771525-1-1v-6z"/></g><path id="Shape" d="m58 45.83c-2.39 1.36-8.63 4-19.68 4.17-.8013963.0067874-1.5294587-.4654693-1.85-1.2l-5.53-12.69c-.1570883-.3687533-.5191812-.6080816-.92-.6080816s-.7629117.2393283-.92.6080816l-5.55 12.69c-.321962.7379062-1.0549858 1.2108247-1.86 1.2-11-.2-17.28-2.81-19.67-4.17-.76803552-.4204954-1.1732465-1.291699-1-2.15 6.52-30 5-20.94 9-37.67h39.98c2.09 8.77 7.3 29.88 9 37.67.1732465.858301-.2319645 1.7295046-1 2.15z" fill="#f0c419"/><path id="Shape" d="m20 6c.0049577.04319153.0049577.08680847 0 .13-1.63 11.36-9.61 13.44-13 13.8-.11575949.0205754-.23424051.0205754-.35 0l.48-2c3.62-.5 9.45-2.73 10.82-11.9z" fill="#f29c1f"/><path id="Shape" d="m53.32 19.91c-.1115049.0287904-.2284951.0287904-.34 0-3.36-.36-11.35-2.45-13-13.79.0023667-.04059894.0090716-.08082801.02-.12h2c1.37 9.17 7.21 11.4 10.83 11.9z" fill="#f29c1f"/><path id="Shape" d="m28.45 6c-.81-1.47-2.45-1.18-2.45 0-.0011098.42991591.2726883.81242788.68.95.2772597.64557985.3873167 1.35063262.32 2.05 0 2.46-3 3.75-3 8 0 .5522847.4477153 1 1 1s1-.4477153 1-1c.0281354-1.4819781.5528139-2.911639 1.49-4.06.9139124-1.116792 1.443436-2.4984628 1.51-3.94.0583574-1.02954096-.1302151-2.05811846-.55-3z" fill="#e57e25"/><path id="Shape" d="m35.34 9.75c-.2216387-1.50029249-.8434332-2.91314778-1.8-4.09-1.17-1.11-2.54-.66-2.54.34 0 .55228475.4477153 1 1 1 .14.09.82.64 1.37 3.17.81 3.76-3.09 6.36-1.79 12.3.0551486.2602165.2116976.4877389.4350201.6322417s.4950142.1940773.7549799.1377583c.2605186-.0572809.4873554-.2162702.630076-.4416185.1427207-.2253483.1894952-.498377.129924-.7583815-1.12-5.22 2.82-7.7 1.81-12.29z" fill="#e57e25"/><circle id="Oval" cx="25" cy="19" fill="#f29c1f" r="2"/><circle id="Oval" cx="33" cy="24.21" fill="#f29c1f" r="2"/><path id="Shape" d="m58 45.83c-2.39 1.36-8.63 4-19.68 4.17-.8013963.0067874-1.5294587-.4654693-1.85-1.2l-1.65-3.8c12.68-.32 20.57-4 23.2-5.4l1 4.11c.1555264.8530629-.2563745 1.7091706-1.02 2.12z" fill="#f29c1f"/><path id="Shape" d="m25.22 45-1.67 3.8c-.321962.7379062-1.0549858 1.2108247-1.86 1.2-11-.2-17.28-2.81-19.67-4.17-.76803552-.4204954-1.1732465-1.291699-1-2.15l1-4.09c2.65 1.41 10.54 5.07 23.2 5.41z" fill="#f29c1f"/></g></svg>