<svg height="512" viewBox="0 0 58 38" width="512" xmlns="http://www.w3.org/2000/svg"><g id="100---Shorts" fill="none"><path id="Shape" d="m29 33c10.1 8.42 23.76 3.37 27.82 1.56.7200252-.3236612 1.1822993-1.0405777 1.18-1.83-.13-22.52-3.71-29.83-5.28-31.95-.3775852-.49049396-.9610067-.77851216-1.58-.78h-44.27c-.62250712-.00161603-1.21027148.2867212-1.59.78-1.56 2.12-5.15 9.43-5.28 31.95-.00054095.7917764.46606538 1.5093307 1.19 1.83 4.06 1.81 17.71 6.86 27.81-1.56z" fill="#955ba5"/><path id="Shape" d="m54.24 3.64c-5.47 3.81-18.55 4.36-25.24 4.36s-19.78-.55-25.24-4.36c.39032232-1.01075632.90064442-1.97096765 1.52-2.86.37972852-.4932788.96749288-.78161603 1.59-.78h44.27c.6189933.00148784 1.2024148.28950604 1.58.78.6193556.88903235 1.1296777 1.84924368 1.52 2.86z" fill="#b49aca"/><path id="Shape" d="m58 32.73c.0022993.7894223-.4599748 1.5063388-1.18 1.83-3.93 1.75-16.82 6.53-26.82-.78-.34-.25-.67-.51-1-.78-.33.27-.66.54-1 .78-10 7.31-22.88 2.53-26.81.78-.72393462-.3206693-1.19054095-1.0382236-1.19-1.83 0-1.47 0-2.87.07-4.21.15101015.5909162.56340201 1.0806315 1.12 1.33 9.14 4 19.92 4.89 27.81-1.57.33.27.66.53 1 .78 10 7.31 22.88 2.53 26.81.79.556598-.2493685.9689899-.7390838 1.12-1.33.07 1.34.07 2.74.07 4.21z" fill="#b49aca"/><g fill="#894b9d"><path id="Shape" d="m.54 19.8c.31214658-4.3892128 1.02511676-8.740674 2.13-13 6.66 8.6-.1 12.2-2.13 13z"/><path id="Shape" d="m57.46 19.8c-2-.83-8.79-4.4-2.13-13 1.1098728 4.2582709 1.8229188 8.6101948 2.13 13z"/><path id="Shape" d="m24 17.79c-.5522847 0-1-.4477153-1-1 0-4.25 3-5.54 3-8 .0690699-.69941794-.0410551-1.40490632-.32-2.05-.4681302-.15381585-.7544396-.62571844-.6746449-1.11196736.0797947-.48624893.5019074-.84189765.9946449-.83803264.47 0 2 .29 2 4-.066564 1.4415372-.5960876 2.823208-1.51 3.94-.9371861 1.148361-1.4618646 2.5780219-1.49 4.06 0 .5522847-.4477153 1-1 1z"/><path id="Shape" d="m33.57 23c-.4766599.0116496-.8952458-.3148474-1-.78-1.3-6 2.61-8.53 1.78-12.3-.55-2.53-1.22-3.08-1.36-3.17-.4640725.0100697-.8740638-.30052975-.99-.75-.1178162-.53831307.2220607-1.07048873.76-1.19.6497997-.10375179 1.307247.13428945 1.74.63.9717754 1.16364762 1.595657 2.57777928 1.8 4.08 1 4.67-3 7-1.79 12.3.0523456.284513-.0210836.5777534-.2013325.8040233s-.4496529.3633947-.7386675.3759767z"/></g><circle id="Oval" cx="24" cy="18.79" fill="#b49aca" r="2"/><circle id="Oval" cx="34" cy="24" fill="#b49aca" r="2"/><path id="Shape" d="m30 24v9.78c-.34-.25-.67-.51-1-.78-.33.27-.66.54-1 .78v-9.78c0-.5522847.4477153-1 1-1s1 .4477153 1 1z" fill="#894b9d"/></g></svg>