<?xml version="1.0" encoding="iso-8859-1"?>
<!-- Generator: Adobe Illustrator 19.0.0, SVG Export Plug-In . SVG Version: 6.00 Build 0)  -->
<svg version="1.1" id="Layer_1" xmlns="http://www.w3.org/2000/svg" xmlns:xlink="http://www.w3.org/1999/xlink" x="0px" y="0px"
	 viewBox="0 0 512 512" style="enable-background:new 0 0 512 512;" xml:space="preserve">
<g transform="translate(0 -1)">
	<path style="fill:#285680;" d="M132.414,407.069c-44.138,0-123.586-8.828-123.586-8.828H0v61.793c0,0,88.276,8.828,132.414,8.828
		s105.931-8.828,105.931-8.828v-61.793h-8.828C229.517,398.241,176.552,407.069,132.414,407.069"/>
	<path style="fill:#4482C3;" d="M485.517,45.138c-17.655,0-185.379,26.483-229.517,26.483S44.138,45.138,26.483,45.138
		C-17.655,124.586,8.828,398.241,8.828,398.241s79.448,8.828,123.586,8.828s97.103-8.828,97.103-8.828
		c0-52.966-17.655-88.276-17.655-88.276H256h44.138c0,0-17.655,35.31-17.655,88.276c0,0,52.966,8.828,97.103,8.828
		s123.586-8.828,123.586-8.828S529.655,124.586,485.517,45.138"/>
	<g>
		<path style="fill:#285680;" d="M379.586,407.069c44.138,0,123.586-8.828,123.586-8.828H512v61.793c0,0-88.276,8.828-132.414,8.828
			s-105.931-8.828-105.931-8.828v-61.793h8.828C282.483,398.241,335.448,407.069,379.586,407.069"/>
		<path style="fill:#285680;" d="M10.326,96.574C1.913,142.115,0.253,202.275,1.207,256.944
			c67.681-0.556,122.377-55.552,122.377-123.366v-21.998C79.401,106.152,35.599,100.255,10.326,96.574"/>
		<path style="fill:#285680;" d="M501.674,96.574c8.413,45.542,10.072,105.702,9.119,160.371
			c-67.681-0.556-122.377-55.552-122.377-123.366v-21.998C432.599,106.152,476.401,100.255,501.674,96.574"/>
		<path style="fill:#285680;" d="M203.034,168.724c0,29.255,23.711,52.966,52.966,52.966v-97.218
			c-10.346,0-29.502-1.51-52.966-3.866V168.724z"/>
		<path style="fill:#285680;" d="M256,115.759c-4.882,0-8.828,3.946-8.828,8.828v185.379H256h8.828V124.586
			C264.828,119.705,260.882,115.759,256,115.759"/>
		<path style="fill:#285680;" d="M340.319,276.121c-4.078-2.692-9.543-1.589-12.235,2.489c-6.471,9.799-20.807,19.403-30.941,23.049
			c-3.593,1.298-5.747,4.687-5.756,8.307h8.748c0,0-1.412,2.869-3.416,8.042c1.086,0.459,2.225,0.786,3.416,0.786
			c0.998,0,2.004-0.168,2.993-0.521c12.977-4.67,30.764-16.446,39.68-29.917C345.501,284.286,344.389,278.813,340.319,276.121"/>
		<path style="fill:#285680;" d="M214.854,301.655c-10.125-3.637-24.461-13.25-30.941-23.04c-2.701-4.078-8.174-5.182-12.235-2.498
			c-4.07,2.692-5.182,8.166-2.489,12.235c8.916,13.48,26.712,25.256,39.68,29.926c0.998,0.353,2.004,0.512,2.993,0.512
			c1.201,0,2.339-0.318,3.416-0.777c-2.004-5.173-3.416-8.051-3.416-8.051h8.748C220.609,306.343,218.455,302.953,214.854,301.655"
			/>
	</g>
	<path style="fill:#1F4968;" d="M485.517,45.138c-17.655,0-185.379,26.483-229.517,26.483S44.138,45.138,26.483,45.138
		c-7.089,12.765-12.341,30.579-16.19,51.43C67.31,104.874,218.721,124.471,256,124.471s188.69-19.597,245.707-27.904
		C497.858,75.717,492.606,57.903,485.517,45.138"/>
</g>
<g>
</g>
<g>
</g>
<g>
</g>
<g>
</g>
<g>
</g>
<g>
</g>
<g>
</g>
<g>
</g>
<g>
</g>
<g>
</g>
<g>
</g>
<g>
</g>
<g>
</g>
<g>
</g>
<g>
</g>
</svg>
