<svg height="512" viewBox="0 0 58 58" width="512" xmlns="http://www.w3.org/2000/svg"><g id="072---Skirt" fill="none"><path id="Shape" d="m14 0h30c1.1045695 0 2 .8954305 2 2v7h-34v-7c0-1.1045695.8954305-2 2-2z" fill="#547580"/><path id="Shape" d="m58 35.38c-.8100604 3.6006685-2.2633558 7.0255674-4.29 10.11-2.3484141 3.6349241-5.5385399 6.6501075-9.3 8.79-8.78 4.95-21.9 5-30.82 0-3.7614601-2.1398925-6.95158589-5.1550759-9.3-8.79-2.02509731-3.0852601-3.47826969-6.5098691-4.29-10.11 5.0592302-4.7177853 8.73466551-10.7271047 10.63-17.38.9767438-3.2411921 1.4390291-6.615537 1.37-10h34c-.0354399 4.0662344.6414496 8.1072648 2 11.94 2.0262265 5.8842284 5.4590367 11.1844872 10 15.44z" fill="#35495e"/><path id="Shape" d="m21 8v5c0 3.8659932-3.1340068 7-7 7-3.7 0-3.74 0-4-.06.23-.66.43-1.31.61-1.94h3.39c2.7614237 0 5-2.2385763 5-5v-5z" fill="#3f5c6c"/><path id="Shape" d="m48 19.94c-.21.08 0 .06-4 .06-3.8659932 0-7-3.1340068-7-7v-5h2v5c0 2.7614237 2.2385763 5 5 5h3.37c.18.63.38 1.28.63 1.94z" fill="#3f5c6c"/><g fill="#2c3e50"><path id="Shape" d="m15.9 29.43c-2.6768244 5.911353-6.43078138 11.2726953-11.07 15.81-.1504609.1361991-.33880161.2233939-.54.25-.34-.53-.66-1.05-1-1.56.18-.27 5.73-4.83 10.76-15.36.1368464-.348435.4568405-.5912597.8292505-.6292692.37241-.0380096.7348623.1351621.9392789.4487665.2044166.3136045.2165606.7151174.0314706 1.0405027z"/><path id="Shape" d="m20 42.27c-1.29 4.53-4.21 8.94-6.29 11.92l-.08.09c-.58-.33-1.14-.67-1.67-1 .22-.67 4.42-5.6 6.12-11.53.074479-.3675347.3483281-.6625075.7093265-.7640411s.7484605.0074401 1.0036082.2822648c.2551476.2748247.3350891.669301.2070653 1.0217763z"/><path id="Shape" d="m54.66 43.93c-.29.51-.61 1-.95 1.56-.2011984-.0266061-.3895391-.1138009-.54-.25-4.6392186-4.5373047-8.3931756-9.898647-11.07-15.81-.1917647-.4882666.0263608-1.0417222.499686-1.2678664.4733253-.2261443 1.0409449-.0481004 1.300314.4078664 2.574229 5.682613 6.1782993 10.8395188 10.63 15.21.0508705.042935.0947312.0935435.13.15z"/><path id="Shape" d="m46.08 53.26c-.53.35-1.09.69-1.67 1l-.08-.09c-2.08-3-5-7.39-6.29-11.92-.143594-.541239.178761-1.0964059.72-1.2399999.541239-.1435941 1.0964059.1787609 1.24.7199999 1.64 5.87 5.91 11.03 6.08 11.53z"/></g></g></svg>