<?xml version="1.0" encoding="iso-8859-1"?>
<!-- Generator: Adobe Illustrator 19.0.0, SVG Export Plug-In . SVG Version: 6.00 Build 0)  -->
<svg version="1.1" id="Layer_1" xmlns="http://www.w3.org/2000/svg" xmlns:xlink="http://www.w3.org/1999/xlink" x="0px" y="0px"
	 viewBox="0 0 512 512" style="enable-background:new 0 0 512 512;" xml:space="preserve">
<g transform="translate(0 -1)">
	<path style="fill:#26B99A;" d="M281.6,513c-11.093,0-19.772-3.268-25.6-9.37c-5.828,6.101-14.507,9.37-25.6,9.37
		c-14.157,0-24.371-5.299-29.764-15.01c-8.781,6.323-20.412,8.363-31.343,4.523c-8.457-2.987-14.66-8.013-18.671-15.172
		c-6.025,5.342-13.952,8.593-22.622,8.593c-18.825,0-34.133-15.309-34.133-34.133c0-297.421,37.137-368.41,57.088-406.554
		c1.28-2.432,2.466-4.693,3.541-6.861c1.451-2.893,4.403-4.719,7.637-4.719h74.914c2.415,0,4.719,1.024,6.34,2.825
		c6.63,7.364,18.594,7.373,25.233-0.009c1.613-1.792,3.917-2.816,6.34-2.816h74.906c3.234,0,6.187,1.826,7.637,4.719
		c1.075,2.167,2.261,4.429,3.541,6.861c19.951,38.144,57.088,109.133,57.088,406.554c0,18.825-15.309,34.133-34.133,34.133
		c-8.67,0-16.597-3.251-22.622-8.593c-4.011,7.159-10.214,12.186-18.671,15.172c-8.602,3.029-17.869,2.534-26.095-1.399
		c-1.86-0.887-3.618-1.929-5.265-3.106C305.954,507.709,295.748,513,281.6,513"/>
	<g>
		<path style="fill:#1C8E73;" d="M153.6,470.333c-4.71,0-8.533-3.814-8.533-8.533c0-11.571,0.119-53.444,1.664-106.206
			c0.137-4.71,4.241-8.346,8.781-8.286c4.71,0.145,8.414,4.079,8.277,8.781c-1.536,52.54-1.655,94.191-1.655,105.711
			C162.133,466.519,158.31,470.333,153.6,470.333"/>
		<path style="fill:#1C8E73;" d="M157.687,301.041c-0.145,0-0.282,0-0.418-0.009c-4.71-0.222-8.337-4.224-8.115-8.934
			c1.553-32.333,3.695-58.231,6.869-92.049c7.586-80.922,17.161-130.654,29.261-152.047c2.313-4.105,7.535-5.547,11.631-3.226
			c4.105,2.313,5.547,7.526,3.226,11.622c-7.381,13.056-18.082,48.853-27.127,145.254c-3.149,33.562-5.274,59.255-6.81,91.264
			C165.982,297.483,162.21,301.041,157.687,301.041"/>
		<path style="fill:#1C8E73;" d="M256.004,325.167h-0.171c-4.71-0.094-8.457-3.985-8.363-8.695
			c1.775-94.012,4.582-155.674,8.593-188.501c0.572-4.676,4.821-8.107,9.506-7.433c4.676,0.563,8.004,4.821,7.433,9.498
			c-3.934,32.247-6.707,93.329-8.465,186.761C264.444,321.446,260.638,325.167,256.004,325.167"/>
		<path style="fill:#1C8E73;" d="M256.004,487.292h-0.119c-4.71-0.068-8.482-3.934-8.414-8.653c0,0,0.589-44.809,1.553-102.332
			c0.077-4.668,3.883-8.388,8.533-8.388h0.145c4.71,0.085,8.465,3.968,8.388,8.67c-0.964,57.498-1.553,102.289-1.553,102.289
			C264.469,483.546,260.663,487.292,256.004,487.292"/>
		<path style="fill:#1C8E73;" d="M302.292,249.909c-4.599,0-8.388-3.661-8.525-8.286c-1.596-54.716-2.816-72.849-3.558-78.43
			c-0.623-4.668,2.662-8.96,7.33-9.583c4.642-0.58,8.969,2.654,9.583,7.33c1.178,8.806,2.389,35.046,3.703,80.188
			c0.137,4.702-3.567,8.636-8.277,8.781H302.292z"/>
		<path style="fill:#1C8E73;" d="M307.196,487.4c-4.651,0-8.457-3.729-8.533-8.405c-0.009-1.058-1.613-107.537-3.806-196.54
			c-0.111-4.702,3.61-8.619,8.32-8.738c4.702-0.068,8.627,3.61,8.738,8.329c2.202,89.079,3.806,195.627,3.814,196.693
			c0.077,4.71-3.686,8.585-8.397,8.661H307.196z"/>
		<path style="fill:#1C8E73;" d="M217.821,129.883c-0.299,0-0.597-0.017-0.896-0.051c-4.685-0.486-8.09-4.685-7.603-9.37
			c3.891-37.069,8.516-60.638,14.14-72.038c2.091-4.224,7.211-5.956,11.426-3.874c4.224,2.082,5.965,7.202,3.883,11.426
			c-3.2,6.485-7.962,23.245-12.467,66.261C225.842,126.623,222.139,129.883,217.821,129.883"/>
		<path style="fill:#1C8E73;" d="M207.604,309.642h-0.256c-4.719-0.145-8.422-4.079-8.277-8.789
			c0.836-28.134,1.852-54.528,3.012-78.455c0.23-4.702,4.267-8.337,8.934-8.107c4.71,0.239,8.337,4.233,8.115,8.943
			c-1.161,23.817-2.167,50.099-3.004,78.131C215.992,305.981,212.204,309.642,207.604,309.642"/>
		<path style="fill:#1C8E73;" d="M204.8,487.4c-4.71,0-8.533-3.814-8.533-8.533c0-0.529,0.017-54.451,1.425-123.204
			c0.102-4.702,4.019-8.619,8.713-8.354c4.71,0.102,8.457,4.002,8.354,8.713c-1.408,68.565-1.425,122.317-1.425,122.846
			C213.333,483.586,209.51,487.4,204.8,487.4"/>
		<path style="fill:#1C8E73;" d="M345.279,201.675c-4.309,0-8.013-3.251-8.482-7.637c-7.535-70.869-16.486-117.342-26.598-138.095
			c-2.074-4.241-0.307-9.353,3.934-11.418c4.233-2.065,9.344-0.299,11.409,3.934c11.136,22.878,20.378,69.897,28.237,143.787
			c0.495,4.676-2.901,8.883-7.586,9.378C345.885,201.658,345.578,201.675,345.279,201.675"/>
		<path style="fill:#1C8E73;" d="M354.662,323.142c-4.531,0-8.303-3.567-8.516-8.141c-0.93-20.019-2.014-39.339-3.226-57.438
			c-0.316-4.693,3.243-8.764,7.945-9.079c4.727-0.247,8.772,3.243,9.079,7.953c1.22,18.193,2.313,37.641,3.251,57.779
			c0.213,4.702-3.422,8.704-8.132,8.917C354.935,323.142,354.799,323.142,354.662,323.142"/>
		<path style="fill:#1C8E73;" d="M358.4,470.333c-4.71,0-8.533-3.814-8.533-8.533c0-0.247-0.009-25.583-0.87-63.249
			c-0.102-4.71,3.627-8.619,8.337-8.73c4.54,0.154,8.619,3.627,8.721,8.346c0.87,37.871,0.879,63.386,0.879,63.633
			C366.933,466.519,363.11,470.333,358.4,470.333"/>
		<path style="fill:#1C8E73;" d="M237.046,60.733h-74.914c-4.71,0-8.533-3.814-8.533-8.533V18.067c0-4.719,3.823-8.533,8.533-8.533
			h74.914c3.371,0,6.426,1.98,7.799,5.069c1.365,3.072,0.794,6.673-1.459,9.182c-2.876,3.183-4.454,7.211-4.454,11.349
			s1.579,8.166,4.454,11.349c2.253,2.509,2.825,6.11,1.459,9.182C243.471,58.754,240.416,60.733,237.046,60.733"/>
		<path style="fill:#1C8E73;" d="M349.867,60.733h-74.906c-3.371,0-6.426-1.98-7.799-5.069c-1.374-3.072-0.802-6.673,1.459-9.173
			c2.867-3.191,4.446-7.219,4.446-11.358s-1.579-8.166-4.446-11.358c-2.261-2.5-2.833-6.101-1.459-9.173
			c1.374-3.089,4.429-5.069,7.799-5.069h74.906c4.71,0,8.533,3.814,8.533,8.533V52.2C358.4,56.919,354.577,60.733,349.867,60.733"/>
	</g>
	<path style="fill:#13634E;" d="M256,69.267c-18.825,0-34.133-15.309-34.133-34.133S237.175,1,256,1
		c18.825,0,34.133,15.309,34.133,34.133S274.825,69.267,256,69.267"/>
</g>
<g>
</g>
<g>
</g>
<g>
</g>
<g>
</g>
<g>
</g>
<g>
</g>
<g>
</g>
<g>
</g>
<g>
</g>
<g>
</g>
<g>
</g>
<g>
</g>
<g>
</g>
<g>
</g>
<g>
</g>
</svg>
