<?xml version="1.0" encoding="iso-8859-1"?>
<!-- Generator: Adobe Illustrator 19.0.0, SVG Export Plug-In . SVG Version: 6.00 Build 0)  -->
<svg version="1.1" id="Layer_1" xmlns="http://www.w3.org/2000/svg" xmlns:xlink="http://www.w3.org/1999/xlink" x="0px" y="0px"
	 viewBox="0 0 512.003 512.003" style="enable-background:new 0 0 512.003 512.003;" xml:space="preserve">
<g transform="translate(0 -1)">
	<path style="fill:#678399;" d="M264.863,53.966h-17.726c-9.728,0-17.62-7.892-17.62-17.62V18.62c0-9.728,7.892-17.62,17.62-17.62
		h17.726c9.728,0,17.62,7.892,17.62,17.62v17.726C282.483,46.074,274.591,53.966,264.863,53.966"/>
	<g>
		<path style="fill:#4E667C;" d="M280.049,9.828c1.51,2.595,2.436,5.57,2.436,8.792v17.726c0,3.222-0.927,6.197-2.436,8.792h81.885
			V9.828H280.049z"/>
		<path style="fill:#4E667C;" d="M229.519,36.345V18.619c0-3.222,0.927-6.197,2.436-8.792H150.07v35.31h81.885
			C230.445,42.542,229.519,39.567,229.519,36.345"/>
	</g>
	<path style="fill:#35495E;" d="M361.932,45.138h-81.885c-3.046,5.252-8.669,8.828-15.183,8.828h-17.726
		c-6.515,0-12.138-3.575-15.183-8.828H150.07c-58.315,58.439-30.323,244.762-17.655,450.207c0,0,79.448,17.655,123.586,17.655
		s123.586-17.655,123.586-17.655C392.255,289.9,420.247,103.577,361.932,45.138"/>
	<path style="fill:#21313F;" d="M325.271,64.102c-8.554-6.091-17.108-12.173-25.132-18.962h-20.092
		c-3.046,5.252-8.669,8.828-15.183,8.828h-17.726c-6.515,0-12.138-3.575-15.183-8.828h-20.092
		c-8.024,6.788-16.578,12.871-25.132,18.962c-22.36,15.925-29.608,43.114-27.833,69.314c2.207,32.547,18.759,370.75,18.759,370.75
		l0.009,0.009c25.379,4.414,56.267,8.828,78.336,8.828s52.957-4.414,78.336-8.828l0.009-0.009c0,0,16.552-338.203,18.759-370.75
		C354.879,107.216,347.632,80.027,325.271,64.102"/>
</g>
<g>
</g>
<g>
</g>
<g>
</g>
<g>
</g>
<g>
</g>
<g>
</g>
<g>
</g>
<g>
</g>
<g>
</g>
<g>
</g>
<g>
</g>
<g>
</g>
<g>
</g>
<g>
</g>
<g>
</g>
</svg>
