<?xml version="1.0" encoding="iso-8859-1"?>
<!-- Generator: Adobe Illustrator 19.0.0, SVG Export Plug-In . SVG Version: 6.00 Build 0)  -->
<svg version="1.1" id="Layer_1" xmlns="http://www.w3.org/2000/svg" xmlns:xlink="http://www.w3.org/1999/xlink" x="0px" y="0px"
	 viewBox="0 0 512 512" style="enable-background:new 0 0 512 512;" xml:space="preserve">
<g transform="translate(0 -1)">
	<path style="fill:#1B4360;" d="M141.241,53.966h229.517V9.828c0-4.873-3.955-8.828-8.828-8.828H150.069
		c-4.873,0-8.828,3.955-8.828,8.828V53.966z"/>
	<path style="fill:#285680;" d="M254.502,1h-104.43c-4.882,0-8.828,3.955-8.828,8.828v44.138h114.759
		c15.095,0,27.242-12.632,26.439-27.904C281.7,11.734,268.838,1,254.502,1"/>
	<path style="fill:#4482C3;" d="M388.414,486.517c9.154-57.635,33.351-194.207,26.483-256
		c-8.828-79.448-35.31-158.897-44.138-176.552H141.241c-8.828,17.655-35.31,97.103-44.138,176.552
		c-6.868,61.793,17.329,198.365,26.483,256c0,0,48.154,26.483,132.414,26.483S388.414,486.517,388.414,486.517"/>
	<path style="fill:#285680;" d="M359.218,498.081l-32.6-179.288l-26.13,191.629C324.976,507.545,344.67,502.681,359.218,498.081"/>
	<path style="fill:#F0C419;" d="M256,36.31h-17.655c-4.873,0-8.828-3.946-8.828-8.828s3.955-8.828,8.828-8.828H256
		c4.873,0,8.828,3.946,8.828,8.828S260.873,36.31,256,36.31"/>
</g>
<g>
</g>
<g>
</g>
<g>
</g>
<g>
</g>
<g>
</g>
<g>
</g>
<g>
</g>
<g>
</g>
<g>
</g>
<g>
</g>
<g>
</g>
<g>
</g>
<g>
</g>
<g>
</g>
<g>
</g>
</svg>
