<?xml version="1.0" encoding="iso-8859-1"?>
<!-- Generator: Adobe Illustrator 19.0.0, SVG Export Plug-In . SVG Version: 6.00 Build 0)  -->
<svg version="1.1" id="Layer_1" xmlns="http://www.w3.org/2000/svg" xmlns:xlink="http://www.w3.org/1999/xlink" x="0px" y="0px"
	 viewBox="0 0 512.003 512.003" style="enable-background:new 0 0 512.003 512.003;" xml:space="preserve">
<g transform="translate(-1 -1)">
	<path style="fill:#F9EBB0;" d="M142.243,45.138V1H371.76v44.138c8.828,17.655,28.134,60.681,26.483,127.991l-17.655,322.207
		c0,0-93.793,18.203-123.586,17.655c-29.793,0.547-123.586-17.655-123.586-17.655L115.76,173.129
		C114.101,105.819,133.415,62.793,142.243,45.138"/>
	<g>
		<polygon style="fill:#A09167;" points="142.243,1 221.691,1 221.691,80.448 142.243,45.138 		"/>
		<polygon style="fill:#A09167;" points="371.76,1 292.312,1 292.312,80.448 371.76,45.138 		"/>
		<polygon style="fill:#A09167;" points="142.243,1 221.691,1 221.691,80.448 142.243,45.138 		"/>
	</g>
	<g>
		<path style="fill:#C6B683;" d="M190.376,66.531l-48.137-21.389c-8.828,17.655-28.134,60.672-26.483,127.982l17.655,322.207
			c0,0,38.1,7.397,73.446,12.615C172.368,342.349,169.04,136.057,190.376,66.531"/>
		<path style="fill:#C6B683;" d="M323.627,66.531l48.137-21.389c8.828,17.655,28.134,60.672,26.483,127.982l-17.655,322.207
			c0,0-38.1,7.397-73.445,12.615C341.635,342.349,344.963,136.057,323.627,66.531"/>
		<path style="fill:#C6B683;" d="M257.002,512.988c2.507,0.044,5.508-0.053,8.828-0.247V398.238c0-4.873-3.946-8.828-8.828-8.828
			c-4.882,0-8.828,3.955-8.828,8.828V512.74C251.493,512.935,254.495,513.032,257.002,512.988"/>
	</g>
</g>
<g>
</g>
<g>
</g>
<g>
</g>
<g>
</g>
<g>
</g>
<g>
</g>
<g>
</g>
<g>
</g>
<g>
</g>
<g>
</g>
<g>
</g>
<g>
</g>
<g>
</g>
<g>
</g>
<g>
</g>
</svg>
