<svg height="512" viewBox="0 0 44 58" width="512" xmlns="http://www.w3.org/2000/svg"><g id="089---Vest" fill="none"><path id="Shape" d="m29.65 23c-1.22 1.3-3.49 2.65-7.65 2.65s-6.43-1.35-7.65-2.65v-14.65c1.22 1.3 3.49 2.65 7.65 2.65s6.43-1.35 7.65-2.65z" fill="#c03a2b"/><path id="Shape" d="m22 58c14 0 22-2 22-2v-22c-9.85-.9-10.08-27.45-10-33 0-.55228475-.4477153-1-1-1h-2c-.5522847 0-1 .44771525-1 1-.11 12.46-2.15 21-8 21s-7.89-8.54-8-21c0-.55228475-.4477153-1-1-1h-2c-.5522847 0-1 .44771525-1 1 .06 5.54-.17 32.09-10 33v22s8 2 22 2z" fill="#e64c3c"/><path id="Shape" d="m44 52v4s-8 2-22 2-22-2-22-2v-4s8 2 22 2 22-2 22-2z" fill="#f0c419"/></g></svg>