<svg height="512" viewBox="0 0 54 58" width="512" xmlns="http://www.w3.org/2000/svg"><g id="090---Crop-Top" fill="none"><path id="Shape" d="m14.8 14c3.8873144 1.5062388 8.0319716 2.2366498 12.2 2.15 4.1721996.0987256 8.3224686-.6320753 12.21-2.15v-13.15c-7.8836119 2.86985845-16.5263881 2.86985845-24.41 0z" fill="#d25627"/><path id="Shape" d="m27 58c19 0 27-4 27-4v-27.95c-.0028055-.6085439-.2825251-1.1827052-.76-1.56-4.14-3.55-4.34-17.31-4.24-22.49 0-1.1045695-.8954305-2-2-2h-6.19c-1.0005658-.01056674-1.8549657.71994513-2 1.71-.65 4.4-3.93 11.29-11.81 11.29s-11.16-6.89-11.85-11.29c-.1450343-.99005487-.9994342-1.72056674-2-1.71h-6.15c-1.1045695 0-2 .8954305-2 2 .07 5.19-.13 19-4.29 22.5-.45605577.3848697-.71642611.9532838-.71 1.55v27.95s8 4 27 4z" fill="#f0c419"/><path id="Shape" d="m54 50v4s-8 4-27 4-27-4-27-4v-4s8 4 27 4 27-4 27-4z" fill="#f29c1f"/></g></svg>