<?xml version="1.0" encoding="iso-8859-1"?>
<!-- Generator: Adobe Illustrator 19.0.0, SVG Export Plug-In . SVG Version: 6.00 Build 0)  -->
<svg version="1.1" id="Layer_1" xmlns="http://www.w3.org/2000/svg" xmlns:xlink="http://www.w3.org/1999/xlink" x="0px" y="0px"
	 viewBox="0 0 512.023 512.023" style="enable-background:new 0 0 512.023 512.023;" xml:space="preserve">
<g transform="translate(0 -1)">
	<g>
		<path style="fill:#9B2B23;" d="M93.886,146.077c-0.666,0-1.34-0.077-2.014-0.239c-4.582-1.109-7.398-5.726-6.289-10.3
			c15.462-63.872,7.305-93.082-2.261-106.334C76.094,19.178,67.655,18.06,67.569,18.052c-4.693-0.393-8.183-4.523-7.799-9.216
			c0.393-4.693,4.523-8.218,9.216-7.799c1.638,0.145,16.367,1.809,28.177,18.176c16.964,23.509,18.645,64,5.009,120.337
			C101.225,143.458,97.735,146.077,93.886,146.077"/>
		<path style="fill:#9B2B23;" d="M418.136,146.077c-3.849,0-7.339-2.62-8.286-6.528c-13.636-56.337-11.955-96.828,5.009-120.337
			c11.81-16.367,26.539-18.031,28.177-18.176c4.659-0.435,8.823,3.106,9.216,7.799c0.384,4.651-3.038,8.747-7.671,9.199
			c-0.597,0.077-9.088,1.357-16.299,11.759c-9.276,13.38-17.126,42.598-1.843,105.745c1.109,4.574-1.707,9.19-6.289,10.3
			C419.476,146,418.801,146.077,418.136,146.077"/>
	</g>
	<path style="fill:#C03A2B;" d="M125.957,328.727c-0.691,0-1.382-0.085-2.074-0.256c-3.652-0.913-6.272-4.113-6.451-7.876
		c-0.896-19.029-1.835-33.997-2.586-41.045c-1.041-9.762-5.564-19.567-12.74-27.605C54.593,198.748,84.929,136.36,86.243,133.724
		c0.981-1.954,2.671-3.456,4.719-4.198c81.459-29.619,145.28,20.361,165.052,38.69c19.763-18.33,83.575-68.318,165.052-38.69
		c2.048,0.742,3.738,2.244,4.71,4.198c1.314,2.637,31.659,65.024-15.863,118.221c-7.108,7.97-11.631,17.783-12.74,27.648
		c-0.777,6.912-1.775,22.195-2.671,40.866c-0.179,3.763-2.807,6.955-6.46,7.868c-3.319,0.836-6.758-0.41-8.806-3.046H132.809
		C131.188,327.464,128.628,328.727,125.957,328.727"/>
	<g>
		<path style="fill:#9B2B23;" d="M187.744,274.077c-61.491,0-80.836-17.562-82.833-19.567c-3.337-3.337-3.337-8.73,0-12.066
			c3.294-3.285,8.602-3.328,11.938-0.128c0.597,0.521,17.459,14.694,70.895,14.694c4.71,0,8.533,3.823,8.533,8.533
			S192.455,274.077,187.744,274.077"/>
		<path style="fill:#9B2B23;" d="M324.278,274.077c-4.71,0-8.533-3.823-8.533-8.533s3.823-8.533,8.533-8.533
			c54.153,0,70.75-14.558,70.912-14.703c3.422-3.123,8.789-3.004,11.989,0.341c3.2,3.354,3.209,8.585-0.068,11.861
			C405.114,256.516,385.769,274.077,324.278,274.077"/>
		<path style="fill:#9B2B23;" d="M230.411,214.344c-4.71,0-8.533-3.823-8.533-8.533s3.823-8.533,8.533-8.533
			c9.412,0,17.067-7.654,17.067-17.067c0-4.71,3.823-8.533,8.533-8.533c4.71,0,8.533,3.823,8.533,8.533
			C264.544,199.035,249.236,214.344,230.411,214.344"/>
		<path style="fill:#9B2B23;" d="M281.611,214.344c-18.825,0-34.133-15.309-34.133-34.133c0-4.71,3.823-8.533,8.533-8.533
			c4.71,0,8.533,3.823,8.533,8.533c0,9.412,7.654,17.067,17.067,17.067c4.71,0,8.533,3.823,8.533,8.533
			S286.321,214.344,281.611,214.344"/>
	</g>
	<path style="fill:#C03A2B;" d="M307.211,513.011c-2.475,0.137-4.471-0.913-6.076-2.543c-0.068-0.06-13.372-12.595-45.124-14.515
		c-31.753,1.92-45.056,14.455-45.193,14.583c-3.345,3.243-8.747,3.268-12.041-0.026c-4.13-4.13-8.994-7.458-14.455-9.916
		c-11.332-5.077-25.225-5.538-39.125-1.297c-23.859,7.262-41.114,6.255-51.294-2.97c-9.301-8.431-9.651-21.359-8.388-27.657
		c0.094-0.512,0.247-1.015,0.444-1.502l17.399-43.511c1.178-2.927,3.857-4.966,6.997-5.316c5.504-0.606,11.708-1.852,18.423-3.703
		c19.319-5.333,38.929-4.625,55.228,2.005c5.769,2.338,11.102,5.316,15.923,8.875c8.567-5.231,26.377-13.397,55.646-14.899
		c0.29-0.009,0.58-0.009,0.87,0c29.269,1.502,47.078,9.668,55.646,14.899c4.821-3.558,10.155-6.537,15.923-8.875
		c16.29-6.63,35.908-7.339,55.228-2.005c6.716,1.852,12.919,3.098,18.423,3.703c3.14,0.35,5.82,2.389,6.997,5.316l17.399,43.511
		c0.196,0.486,0.35,0.99,0.444,1.502c1.263,6.298,0.913,19.226-8.388,27.657c-10.172,9.225-27.435,10.231-51.294,2.97
		c-13.918-4.241-27.793-3.78-39.125,1.297c-5.461,2.458-10.325,5.786-14.455,9.916C311.648,512.115,309.472,513.011,307.211,513.011
		"/>
	<path style="fill:#9B2B23;" d="M439.106,392.573c4.71,7.91,5.683,16.956,2.662,24.823c-4.924,12.834-19.84,25.634-63.07,13.696
		c-15.71-4.335-31.428-3.857-44.254,1.357c-6.144,2.5-11.605,5.888-16.23,10.078c-1.63,1.476-3.686,2.219-5.734,2.219
		c-2.074,0-4.147-0.759-5.777-2.261c-0.077-0.06-15.027-12.877-50.697-14.797c-35.763,1.929-50.543,14.669-50.688,14.797
		c-3.243,2.995-8.243,3.004-11.511,0.043c-4.625-4.19-10.086-7.578-16.23-10.078c-12.834-5.214-28.544-5.7-44.254-1.357
		c-43.213,11.921-58.146-0.862-63.07-13.696c-3.021-7.868-2.048-16.913,2.662-24.823l47.761-80.196
		c1.545-2.586,4.326-4.164,7.33-4.164h256c3.012,0,5.794,1.579,7.339,4.164"/>
</g>
<g>
</g>
<g>
</g>
<g>
</g>
<g>
</g>
<g>
</g>
<g>
</g>
<g>
</g>
<g>
</g>
<g>
</g>
<g>
</g>
<g>
</g>
<g>
</g>
<g>
</g>
<g>
</g>
<g>
</g>
</svg>
