<?xml version="1.0" encoding="iso-8859-1"?>
<!-- Generator: Adobe Illustrator 19.0.0, SVG Export Plug-In . SVG Version: 6.00 Build 0)  -->
<svg version="1.1" id="Layer_1" xmlns="http://www.w3.org/2000/svg" xmlns:xlink="http://www.w3.org/1999/xlink" x="0px" y="0px"
	 viewBox="0 0 512 512" style="enable-background:new 0 0 512 512;" xml:space="preserve">
<g transform="translate(0 -1)">
	<path style="fill:#4482C3;" d="M459.034,257c-17.796-44.085-61.793-229.517-61.793-229.517L353.103,1v123.586
		c0,49.752-18.247,81.249-38.921,100.97c-32.3,30.817-84.065,30.817-116.365,0c-20.674-19.721-38.921-51.218-38.921-100.97V1
		l-44.138,26.483c0,0-43.997,185.432-61.793,229.517c-16.331,40.457-8.024,77.206,8.828,105.931
		c16.102,27.454,35.31,70.621,35.31,150.069H256h158.897c0-79.448,19.209-122.615,35.31-150.069
		C467.059,334.206,475.366,297.457,459.034,257"/>
	<path style="fill:#285680;" d="M256,80.448C167.724,80.448,158.897,1,158.897,1v91.622c58.43,52.957,65.465,112.64,64.318,149.433
		c10.452,4.361,21.601,6.612,32.786,6.612c11.185,0,22.334-2.251,32.786-6.612c-1.148-36.793,5.888-96.477,64.318-149.433V1
		C353.103,1,344.276,80.448,256,80.448"/>
	<g>
		<path style="fill:#F0C419;" d="M256,336.448c0-29.255-23.711-52.966-52.966-52.966s-52.966,23.711-52.966,52.966
			s23.711,52.966,52.966,52.966S256,365.703,256,336.448"/>
		<path style="fill:#F0C419;" d="M388.414,336.448c-53.628,0-97.103,43.476-97.103,97.103c0,32.874,16.384,61.881,41.375,79.448
			h82.211c0-79.448,19.209-122.615,35.31-150.069c0.547-0.927,1.059-1.898,1.589-2.842
			C434.776,345.391,412.663,336.448,388.414,336.448"/>
		<path style="fill:#F0C419;" d="M461.083,262.562c-0.653-1.845-1.298-3.699-2.048-5.561
			c-7.848-19.447-20.798-66.401-32.821-112.808c-26.783,6.771-46.627,30.958-46.627,59.842c0,34.127,27.666,61.793,61.793,61.793
			C448.275,265.828,454.886,264.646,461.083,262.562"/>
		<path style="fill:#F0C419;" d="M97.103,415.897c-4.122,0-8.157,0.344-12.138,0.839c7.08,24.426,12.138,55.561,12.138,96.265
			h97.103C194.207,459.372,150.731,415.897,97.103,415.897"/>
		<path style="fill:#F0C419;" d="M123.586,204.034c0-27.86-14.371-52.33-36.078-66.516C75.017,186.035,61.193,236.617,52.966,257
			c-3.637,9.004-5.994,17.814-7.362,26.412C88.797,282.618,123.586,247.422,123.586,204.034"/>
	</g>
</g>
<g>
</g>
<g>
</g>
<g>
</g>
<g>
</g>
<g>
</g>
<g>
</g>
<g>
</g>
<g>
</g>
<g>
</g>
<g>
</g>
<g>
</g>
<g>
</g>
<g>
</g>
<g>
</g>
<g>
</g>
</svg>
