<svg height="512" viewBox="0 0 36 58" width="512" xmlns="http://www.w3.org/2000/svg"><g id="021---3-4-Jeans" fill="none"><path id="Rectangle-path" d="m3 50.33h10v7.67h-10z" fill="#fdd7ad"/><path id="Rectangle-path" d="m23 50.33h10v7.67h-10z" fill="#fdd7ad"/><path id="Rectangle-path" d="m3 50.33h10v3.67h-10z" fill="#f9c795"/><path id="Rectangle-path" d="m23 50.33h10v3.67h-10z" fill="#f9c795"/><path id="Shape" d="m35 6v40.27h-14v-22.27c-.0016676-.7387322-.275843-1.4508762-.77-2-.8300978-.9224465-2.1424627-1.2385963-3.3015575-.7953478s-1.9256482 1.5543957-1.9284425 2.7953478v22.27h-14v-40.27z" fill="#3b97d3"/><path id="Rectangle-path" d="m1 6h34v3h-34z" fill="#2980ba"/><rect id="Rectangle-path" fill="#84b5cb" height="6" rx="2" width="16" y="46"/><rect id="Rectangle-path" fill="#84b5cb" height="6" rx="2" width="16" x="20" y="46"/><path id="Shape" d="m16 48c0 1.1045695-.8954305 2-2 2h-12c-1.1045695 0-2-.8954305-2-2s.8954305-2 2-2h12c1.1045695 0 2 .8954305 2 2z" fill="#9fc9d3"/><path id="Shape" d="m36 48c0 1.1045695-.8954305 2-2 2h-12c-1.1045695 0-2-.8954305-2-2s.8954305-2 2-2h12c1.1045695 0 2 .8954305 2 2z" fill="#9fc9d3"/><g fill="#2980ba"><path id="Shape" d="m5 33c0 .5522847-.44771525 1-1 1h-3v-2h3c.55228475 0 1 .4477153 1 1z"/><path id="Shape" d="m4 37c0 .5522847-.44771525 1-1 1h-2v-2h2c.55228475 0 1 .4477153 1 1z"/><path id="Shape" d="m35 32v2h-3c-.5522847 0-1-.4477153-1-1s.4477153-1 1-1z"/><path id="Shape" d="m35 36v2h-2c-.5522847 0-1-.4477153-1-1s.4477153-1 1-1z"/><path id="Shape" d="m21 17h-1c-1.6568542 0-3-1.3431458-3-3v-7c0-.55228475.4477153-1 1-1s1 .44771525 1 1v7c0 .5522847.4477153 1 1 1h1c.5522847 0 1 .4477153 1 1s-.4477153 1-1 1z"/><path id="Shape" d="m24 22h-12c-.5522847 0-1-.4477153-1-1s.4477153-1 1-1h12c.5522847 0 1 .4477153 1 1s-.4477153 1-1 1z"/></g><rect id="Rectangle-path" fill="#35495e" height="6" rx="1" width="36" y="1"/><path id="Shape" d="m6 10v-8.75c-.0589583-.61835771.38378212-1.17178324 1-1.25h2c.61621788.07821676 1.0589583.63164229 1 1.25v8.75z" fill="#3b97d3"/><path id="Shape" d="m26 10v-8.75c-.0589583-.61835771.3837821-1.17178324 1-1.25h2c.6162179.07821676 1.0589583.63164229 1 1.25v8.75z" fill="#3b97d3"/><rect id="Rectangle-path" fill="#f0c419" height="6" rx="2" width="6" x="15" y="1"/></g></svg>