<svg height="512" viewBox="0 0 40 59" width="512" xmlns="http://www.w3.org/2000/svg"><g id="025----Bootcut-Jeans" fill="none"><path id="Shape" d="m38.72 59h-17.44c-.5522847 0-1-.4477153-1-1 0-.22-.05.06 1.26-5.19 1.83-7.32 1.46-10.34 1.46-30.64.0581025-1.0038426-.3905693-1.9700365-1.1949874-2.5733501-.8044182-.6033136-1.8575924-.7635042-2.8050126-.4266499-1.1991837.4239753-2.0006668 1.5580738-2 2.83 0 25.75-.52 22.91 2.69 35.76.0751846.3035358.0040503.6247663-.1922534.8681828-.1963036.2434165-.4951725.3809901-.8077466.3718172h-17.41c-.31257407.0091729-.61144303-.1284007-.80774664-.3718172s-.267438-.564647-.19225336-.8681828c1.52-5.94 2.72-10.02 2.72-16.76v-39c0-.55228475.44771525-1 1-1h32c.5522847 0 1 .44771525 1 1v39c0 6.76 1.22 10.91 2.69 16.76.0737619.2983583.0062304.6140635-.1831338.8561373s-.4795252.3836252-.7868662.3838627z" fill="#3b97d3"/><g fill="#2980ba"><path id="Shape" d="m20 1v13h2c1.1045695 0 2-.8954305 2-2v-8z"/><path id="Shape" d="m9 10v1c0 3.3137085-2.6862915 6-6 6v-2c2.209139 0 4-1.790861 4-4v-1c0-.55228475.44771525-1 1-1s1 .44771525 1 1z"/><path id="Shape" d="m37 15v2c-3.3137085 0-6-2.6862915-6-6v-1c0-.55228475.4477153-1 1-1s1 .44771525 1 1v1c0 2.209139 1.790861 4 4 4z"/><path id="Shape" d="m20 20c-.5522847 0-1-.4477153-1-1v-14c0-.55228475.4477153-1 1-1s1 .44771525 1 1v14c0 .5522847-.4477153 1-1 1z"/><path id="Shape" d="m25 20h-10c-.5522847 0-1-.4477153-1-1s.4477153-1 1-1h10c.5522847 0 1 .4477153 1 1s-.4477153 1-1 1z"/></g><path id="Shape" d="m37 2v3h-34v-3c0-.55228475.44771525-1 1-1h32c.5522847 0 1 .44771525 1 1z" fill="#285680"/><path id="Shape" d="m12 8c-.5522847 0-1-.44771525-1-1v-6c0-.55228475.4477153-1 1-1s1 .44771525 1 1v6c0 .55228475-.4477153 1-1 1z" fill="#2980ba"/><path id="Shape" d="m28 8c-.5522847 0-1-.44771525-1-1v-6c0-.55228475.4477153-1 1-1s1 .44771525 1 1v6c0 .55228475-.4477153 1-1 1z" fill="#2980ba"/></g></svg>