<?xml version="1.0" encoding="iso-8859-1"?>
<!-- Generator: Adobe Illustrator 19.0.0, SVG Export Plug-In . SVG Version: 6.00 Build 0)  -->
<svg version="1.1" id="Layer_1" xmlns="http://www.w3.org/2000/svg" xmlns:xlink="http://www.w3.org/1999/xlink" x="0px" y="0px"
	 viewBox="0 0 512 512" style="enable-background:new 0 0 512 512;" xml:space="preserve">
<g transform="translate(0 -1)">
	<path style="fill:#4482C3;" d="M326.621,45.138h-51.015c-4.846,5.376-11.794,8.828-19.606,8.828c-7.812,0-14.76-3.452-19.606-8.828
		h-51.015c0,0-17.655,17.655-17.655,52.966s17.655,150.069,17.655,194.207V513h44.138c0,0,8.828-158.897,8.828-194.207V221.69
		c0-26.483,17.655-79.334,17.655-88.276c0,8.942,17.655,61.793,17.655,88.276v97.103c0,35.31,8.828,194.207,8.828,194.207h44.138
		V292.31c0-44.138,17.655-158.897,17.655-194.207S326.621,45.138,326.621,45.138"/>
	<path style="fill:#F29C1F;" d="M282.483,27.483C282.483,12.855,270.627,1,256,1c-14.627,0-26.483,11.855-26.483,26.483
		S241.373,53.966,256,53.966C270.627,53.966,282.483,42.11,282.483,27.483"/>
	<path style="fill:#285680;" d="M256,142.241c-10.381,0-27.171-8.13-30.429-9.754c-4.361-2.189-6.126-7.486-3.955-11.847
		c2.189-4.352,7.477-6.118,11.847-3.955c6.382,3.187,17.955,7.901,22.537,7.901c4.599,0,16.172-4.714,22.537-7.901
		c4.37-2.172,9.666-0.406,11.847,3.955c2.18,4.361,0.406,9.657-3.955,11.847C283.171,134.111,266.381,142.241,256,142.241"/>
	<g>
		<path style="fill:#F0C419;" d="M275.61,9.828c4.228,4.696,6.877,10.84,6.877,17.655s-2.648,12.959-6.877,17.655h51.015V9.828
			H275.61z"/>
		<path style="fill:#F0C419;" d="M229.517,27.483c0-6.815,2.648-12.959,6.877-17.655h-51.015v35.31h51.015
			C232.166,40.442,229.517,34.298,229.517,27.483"/>
	</g>
</g>
<g>
</g>
<g>
</g>
<g>
</g>
<g>
</g>
<g>
</g>
<g>
</g>
<g>
</g>
<g>
</g>
<g>
</g>
<g>
</g>
<g>
</g>
<g>
</g>
<g>
</g>
<g>
</g>
<g>
</g>
</svg>
