<?xml version="1.0" encoding="iso-8859-1"?>
<!-- Generator: Adobe Illustrator 19.0.0, SVG Export Plug-In . SVG Version: 6.00 Build 0)  -->
<svg version="1.1" id="Layer_1" xmlns="http://www.w3.org/2000/svg" xmlns:xlink="http://www.w3.org/1999/xlink" x="0px" y="0px"
	 viewBox="0 0 512.003 512.003" style="enable-background:new 0 0 512.003 512.003;" xml:space="preserve">
<g transform="translate(0 -1)">
	<path style="fill:#F29C1F;" d="M282.55,36.31c0-14.627-11.855-26.483-26.483-26.483c-14.627,0-26.483,11.855-26.483,26.483
		s11.855,26.483,26.483,26.483C270.694,62.793,282.55,50.938,282.55,36.31"/>
	<g>
		<path style="fill:#F0C419;" d="M282.55,36.31c0,6.63-2.525,12.623-6.55,17.267c20.604-1.103,53.071-4.864,77.171-17.267L344.343,1
			c-14.089,10.187-44.147,15.245-69.244,16.958C279.69,22.716,282.55,29.169,282.55,36.31"/>
		<path style="fill:#F0C419;" d="M229.584,36.31c0-7.142,2.86-13.594,7.45-18.353C211.938,16.245,181.88,11.187,167.791,1
			l-8.828,35.31c24.099,12.403,56.567,16.163,77.171,17.267C232.109,48.934,229.584,42.94,229.584,36.31"/>
	</g>
	<path style="fill:#4482C3;" d="M353.039,195.207c11.467-34.763,12.412-135.724,0-158.897
		c-24.09,12.394-56.461,16.154-77.038,17.267c-4.855,5.597-11.935,9.216-19.933,9.216c-7.998,0-15.078-3.619-19.933-9.216
		c-20.568-1.095-53.027-4.846-77.171-17.267c-12.412,23.172-11.467,124.134,0,158.897c11.405,34.569,8.828,44.138,8.828,61.793
		s-17.655,212.807-17.655,239.289s88.276,17.655,88.276,0V194.386c0-17.47,17.214-35.072,17.585-60.972
		c0.38,25.9,17.593,43.502,17.593,60.972v301.903c0,17.655,88.276,26.483,88.276,0S344.211,274.655,344.211,257
		S341.634,229.776,353.039,195.207"/>
	<path style="fill:#285680;" d="M255.998,142.241c-10.39,0-27.171-8.13-30.429-9.754c-4.361-2.189-6.135-7.486-3.955-11.847
		c2.18-4.343,7.477-6.126,11.847-3.955c6.382,3.187,17.955,7.901,22.537,7.901c4.599,0,16.163-4.714,22.537-7.901
		c4.37-2.172,9.649-0.406,11.847,3.955c2.18,4.361,0.406,9.657-3.955,11.847C283.17,134.111,266.388,142.241,255.998,142.241"/>
</g>
<g>
</g>
<g>
</g>
<g>
</g>
<g>
</g>
<g>
</g>
<g>
</g>
<g>
</g>
<g>
</g>
<g>
</g>
<g>
</g>
<g>
</g>
<g>
</g>
<g>
</g>
<g>
</g>
<g>
</g>
</svg>
