<?xml version="1.0" encoding="iso-8859-1"?>
<!-- Generator: Adobe Illustrator 19.0.0, SVG Export Plug-In . SVG Version: 6.00 Build 0)  -->
<svg version="1.1" id="Layer_1" xmlns="http://www.w3.org/2000/svg" xmlns:xlink="http://www.w3.org/1999/xlink" x="0px" y="0px"
	 viewBox="0 0 512 512" style="enable-background:new 0 0 512 512;" xml:space="preserve">
<g transform="translate(0 -1)">
	<path style="fill:#465F75;" d="M326.621,1C300.138,9.828,273.655,9.828,256,9.828s-44.138,0-70.621-8.828l-8.828,26.483
		C207.448,58.379,256,53.966,256,53.966s48.552,4.414,79.448-26.483L326.621,1z"/>
	<path style="fill:#35495E;" d="M176.552,27.483c-8.828,17.655-17.655,114.759,8.828,185.379
		c19.606,52.277,8.828,88.276,8.828,123.586S211.862,468.862,220.69,513H256V53.966C256,53.966,207.448,58.379,176.552,27.483"/>
	<path style="fill:#263747;" d="M335.448,27.483c8.828,17.655,17.655,114.759-8.828,185.379
		c-19.606,52.277-8.828,88.276-8.828,123.586S300.138,468.862,291.31,513H256V53.966C256,53.966,304.552,58.379,335.448,27.483"/>
</g>
<g>
</g>
<g>
</g>
<g>
</g>
<g>
</g>
<g>
</g>
<g>
</g>
<g>
</g>
<g>
</g>
<g>
</g>
<g>
</g>
<g>
</g>
<g>
</g>
<g>
</g>
<g>
</g>
<g>
</g>
</svg>
