<?xml version="1.0" encoding="iso-8859-1"?>
<!-- Generator: Adobe Illustrator 19.0.0, SVG Export Plug-In . SVG Version: 6.00 Build 0)  -->
<svg version="1.1" id="Layer_1" xmlns="http://www.w3.org/2000/svg" xmlns:xlink="http://www.w3.org/1999/xlink" x="0px" y="0px"
	 viewBox="0 0 511.024 511.024" style="enable-background:new 0 0 511.024 511.024;" xml:space="preserve">
<g transform="translate(0 -1)">
	<path style="fill:#263747;" d="M379.096,168.724c0-61.793-26.483-123.586-26.483-123.586c-27.154,6.788-54.254,8.342-77.391,8.704
		c-4.855,5.455-11.847,8.951-19.712,8.951v44.138v397.241c0,0,35.31,17.655,61.793,0c2.145,0.018,32.141-97.059,8.828-167.724
		C326.131,336.448,379.096,230.517,379.096,168.724"/>
	<path style="fill:#35495E;" d="M235.802,53.846c-23.137-0.362-50.247-1.924-77.391-8.704c0,0-26.483,61.793-26.483,123.586
		s52.966,167.724,52.966,167.724c-23.331,72.095,6.7,168.271,8.828,167.724c26.483,17.655,61.793,0,61.793,0V106.935V62.798
		C247.639,62.798,240.648,59.293,235.802,53.846"/>
	<path style="fill:#6D8699;" d="M281.993,36.31c0-14.627-11.855-26.483-26.483-26.483c-14.627,0-26.483,11.855-26.483,26.483
		s11.855,26.483,26.483,26.483C270.137,62.793,281.993,50.938,281.993,36.31"/>
	<g>
		<path style="fill:#465F75;" d="M281.993,36.31c0,6.762-2.604,12.853-6.771,17.532c23.137-0.362,50.238-1.916,77.391-8.704
			c0,0-8.828-17.655-17.655-44.138c-11.343,11.343-40.828,15.378-60.513,16.834C279.097,22.61,281.993,29.116,281.993,36.31"/>
		<path style="fill:#465F75;" d="M229.027,36.31c0-7.194,2.895-13.7,7.548-18.476c-19.686-1.457-49.17-5.491-60.513-16.834
			c-8.828,26.483-17.655,44.138-17.655,44.138c27.154,6.788,54.254,8.342,77.391,8.704C231.631,49.163,229.027,43.072,229.027,36.31
			"/>
	</g>
</g>
<g>
</g>
<g>
</g>
<g>
</g>
<g>
</g>
<g>
</g>
<g>
</g>
<g>
</g>
<g>
</g>
<g>
</g>
<g>
</g>
<g>
</g>
<g>
</g>
<g>
</g>
<g>
</g>
<g>
</g>
</svg>
