<?xml version="1.0" encoding="iso-8859-1"?>
<!-- Generator: Adobe Illustrator 19.0.0, SVG Export Plug-In . SVG Version: 6.00 Build 0)  -->
<svg version="1.1" id="Layer_1" xmlns="http://www.w3.org/2000/svg" xmlns:xlink="http://www.w3.org/1999/xlink" x="0px" y="0px"
	 viewBox="0 0 512 512" style="enable-background:new 0 0 512 512;" xml:space="preserve">
<g transform="translate(0 -1)">
	<path style="fill:#E4C05C;" d="M353.103,62.793V45.138h-77.497c-4.846,5.376-11.794,8.828-19.606,8.828
		c-7.812,0-14.76-3.452-19.606-8.828h-77.497v17.655c0,35.31-17.655,79.448-17.655,158.897S150.069,513,150.069,513h61.793
		c0-17.655,26.483-229.517,26.483-256S256,142.241,256,142.241S273.655,230.517,273.655,257s26.483,238.345,26.483,256h61.793
		c0,0,8.828-211.862,8.828-291.31S353.103,98.103,353.103,62.793"/>
	<path style="fill:#B19046;" d="M256,151.069c-10.39,0-27.171-8.13-30.429-9.754c-4.361-2.189-6.135-7.486-3.955-11.847
		c2.18-4.352,7.486-6.126,11.847-3.955c6.382,3.187,17.955,7.901,22.537,7.901c4.599,0,16.163-4.714,22.537-7.901
		c4.352-2.172,9.657-0.406,11.847,3.955c2.18,4.361,0.406,9.657-3.955,11.847C283.171,142.939,266.39,151.069,256,151.069"/>
	<path style="fill:#846932;" d="M282.483,27.483C282.483,12.855,270.627,1,256,1c-14.627,0-26.483,11.855-26.483,26.483
		S241.373,53.966,256,53.966C270.627,53.966,282.483,42.11,282.483,27.483"/>
	<g>
		<path style="fill:#B19046;" d="M229.517,27.483c0-6.815,2.648-12.959,6.877-17.655h-77.497v35.31h77.497
			C232.166,40.442,229.517,34.298,229.517,27.483"/>
		<path style="fill:#B19046;" d="M275.61,9.828c4.228,4.696,6.877,10.84,6.877,17.655s-2.648,12.959-6.877,17.655h77.497V9.828
			H275.61z"/>
		<path style="fill:#B19046;" d="M335.448,371.759c0-4.882-3.946-8.828-8.828-8.828s-8.828,3.946-8.828,8.828
			c0,35.619,2.851,64.971,5.367,90.88c1.854,19.094,3.46,35.584,3.46,50.361h17.655c0-15.634-1.642-32.521-3.54-52.065
			C338.255,435.432,335.448,406.522,335.448,371.759"/>
		<path style="fill:#B19046;" d="M194.207,371.759c0-4.882-3.946-8.828-8.828-8.828s-8.828,3.946-8.828,8.828
			c0,34.763-2.807,63.673-5.288,89.176c-1.898,19.544-3.54,36.431-3.54,52.065h17.655c0-14.777,1.607-31.267,3.46-50.361
			C191.356,436.73,194.207,407.378,194.207,371.759"/>
	</g>
</g>
<g>
</g>
<g>
</g>
<g>
</g>
<g>
</g>
<g>
</g>
<g>
</g>
<g>
</g>
<g>
</g>
<g>
</g>
<g>
</g>
<g>
</g>
<g>
</g>
<g>
</g>
<g>
</g>
<g>
</g>
</svg>
