<?xml version="1.0" encoding="iso-8859-1"?>
<!-- Generator: Adobe Illustrator 19.0.0, SVG Export Plug-In . SVG Version: 6.00 Build 0)  -->
<svg version="1.1" id="Layer_1" xmlns="http://www.w3.org/2000/svg" xmlns:xlink="http://www.w3.org/1999/xlink" x="0px" y="0px"
	 viewBox="0 0 511.998 511.998" style="enable-background:new 0 0 511.998 511.998;" xml:space="preserve">
<g transform="translate(0 -1)">
	<path style="fill:#CBB292;" d="M353.103,98.102c0-35.31-17.655-52.966-17.655-52.966h-52.966v8.828h-52.966v-8.828h-52.966
		c0,0-17.655,17.655-17.655,52.966s17.655,150.069,17.655,194.207s-17.655,220.69-17.655,220.69h79.448
		c0,0-8.828-158.897-8.828-194.207v-97.103c0-26.483,26.483-79.334,26.483-88.276c0,8.942,26.483,61.793,26.483,88.276v97.103
		c0,35.31-8.828,194.207-8.828,194.207h79.448c0,0-17.655-176.552-17.655-220.69S353.103,133.412,353.103,98.102"/>
	<path style="fill:#7F6E5D;" d="M255.999,142.24c-10.381,0-27.171-8.13-30.429-9.754c-4.361-2.189-6.126-7.486-3.955-11.847
		c2.189-4.352,7.486-6.118,11.847-3.955c6.382,3.187,17.955,7.901,22.537,7.901c4.599,0,16.172-4.714,22.537-7.901
		c4.37-2.172,9.657-0.406,11.847,3.955c2.18,4.361,0.406,9.657-3.955,11.847C283.17,134.109,266.38,142.24,255.999,142.24"/>
	<polygon style="fill:#5E4F41;" points="229.516,53.966 282.482,53.966 282.482,1 229.516,1 	"/>
	<g>
		<polygon style="fill:#7F6E5D;" points="282.482,45.138 335.447,45.138 335.447,9.828 282.482,9.828 		"/>
		<polygon style="fill:#7F6E5D;" points="176.551,45.138 229.516,45.138 229.516,9.828 176.551,9.828 		"/>
	</g>
</g>
<g>
</g>
<g>
</g>
<g>
</g>
<g>
</g>
<g>
</g>
<g>
</g>
<g>
</g>
<g>
</g>
<g>
</g>
<g>
</g>
<g>
</g>
<g>
</g>
<g>
</g>
<g>
</g>
<g>
</g>
</svg>
