<svg height="512" viewBox="0 0 58 54" width="512" xmlns="http://www.w3.org/2000/svg"><g id="098---Shorts" fill="none"><path id="Shape" d="m55.27 51.73c-.2291258 1.2756109-1.3149403 2.2199783-2.61 2.27h-19.66c-2.209139 0-4-1.790861-4-4 0 2.209139-1.790861 4-4 4h-19.66c-1.29505971-.0500217-2.38087422-.9943891-2.61-2.27-.39-3.66-.59 1.38 1.18-22.94 1.36-7.34 3.5-11.67 6.09-18.79h38c2.59 7.12 4.73 11.45 6.09 18.79 1.77 24.32 1.57 19.28 1.18 22.94z" fill="#a59078"/><path id="Shape" d="m10 10v-6c0-1.1045695.8954305-2 2-2h34c1.1045695 0 2 .8954305 2 2v6z" fill="#5f5346"/><path id="Shape" d="m30 10v42.64c-.6431109-.7292169-.9986009-1.6677104-1-2.64-.0013991.9722896-.3568891 1.9107831-1 2.64v-42.64c0-.55228475.4477153-1 1-1s1 .44771525 1 1z" fill="#7f6e5d"/><path id="Shape" d="m36 10v8c0 2.7614237-2.2385763 5-5 5h-2v-13z" fill="#7f6e5d"/><circle id="Oval" cx="30" cy="6" fill="#35495e" r="1"/><path id="Shape" d="m10.55 36c-.3476713 1.644467-.5319007 3.31928-.55 5 0 5 0 8-4 8-6.5 0-7 2.27-4.85-14.66z" fill="#5f5346"/><path id="Shape" d="m10.27 36.09c-5.64.61-9.19-1.41-10.06-2.6-.15278937-.2255228-.20696341-.5036162-.15-.77l.73-3.67c.05484121-.2645338.21438158-.4956236.442304-.6406651.22792243-.1450416.50483265-.191693.767696-.1293349l9.07 2.47c.5123023.1373444.828258.6507723.72 1.17l-.68 3.37c-.0809272.4184147-.4181375.7395673-.84.8z" fill="#7f6e5d"/><path id="Shape" d="m56.85 34.34c2.15 16.93 1.65 14.66-4.85 14.66-4 0-4-3-4-8-.0180993-1.68072-.2023287-3.355533-.55-5z" fill="#5f5346"/><g fill="#7f6e5d"><path id="Shape" d="m47.73 36.09c5.64.61 9.19-1.41 10.06-2.6.1527894-.2255228.2069634-.5036162.15-.77l-.73-3.67c-.0548412-.2645338-.2143816-.4956236-.442304-.6406651-.2279224-.1450416-.5048326-.191693-.767696-.1293349l-9.1 2.47c-.5123023.1373444-.828258.6507723-.72 1.17l.68 3.37c.0845267.4278481.436579.7515744.87.8z"/><path id="Shape" d="m6.4 20.48c-.44879274-.2700473-.61317193-.8406385-.3768341-1.3080622s.79330693-.6732882 1.2768341-.4719378c3.52 1.78 6.15.81 7.6-3.05.54-1.42 1-2.75 1.34-3.94.1546397-.5301933.7098066-.8346397 1.24-.68.5301933.1546398.8346397.7098067.68 1.24-.37 1.25-.83 2.62-1.38 4.08-1.95 5.18-6 6.35-10.38 4.13z"/><path id="Shape" d="m41.06 16.35c-.5564935-1.4225295-1.0338891-2.874747-1.43-4.35-.0607513-.5522847.3377153-1.0492486.89-1.1099999.5522847-.0607514 1.0492486.3377152 1.11.8899999.31 1.07.76 2.38 1.33 3.9 1.46 3.92 4.17 4.85 7.73 3 .3179664-.1643422.6994549-.1465676 1.0007626.0466283.3013077.1931958.4766588.5324619.4600001.89s-.2227963.6790295-.5407627.8433717c-4.39 2.24-8.56 1.19-10.55-4.11z"/><path id="Shape" d="m26 2v8h-16v-6c0-1.1045695.8954305-2 2-2z"/></g><path id="Shape" d="m17 12c-1.1045695 0-2-.8954305-2-2v-8c0-1.1045695.8954305-2 2-2s2 .8954305 2 2v8c0 1.1045695-.8954305 2-2 2z" fill="#a59078"/><path id="Shape" d="m41 12c-1.1045695 0-2-.8954305-2-2v-8c0-1.1045695.8954305-2 2-2s2 .8954305 2 2v8c0 1.1045695-.8954305 2-2 2z" fill="#a59078"/></g></svg>