<?xml version="1.0" encoding="iso-8859-1"?>
<!-- Generator: Adobe Illustrator 19.0.0, SVG Export Plug-In . SVG Version: 6.00 Build 0)  -->
<svg version="1.1" id="Layer_1" xmlns="http://www.w3.org/2000/svg" xmlns:xlink="http://www.w3.org/1999/xlink" x="0px" y="0px"
	 viewBox="0 0 512.004 512.004" style="enable-background:new 0 0 512.004 512.004;" xml:space="preserve">
<g transform="translate(-1 -1)">
	<path style="fill:#4482C3;" d="M490.756,158.68c-56.85,9.295-189.034,23.287-233.754,23.287
		c-44.712,0-176.896-13.992-233.746-23.287C13.193,210.737,1.011,297.247,1.011,411.485c-1.465-2.339,146.644-38.532,238.345,0
		l-0.018-62.87l0,0c6.356,0.706,12.367,1.077,17.664,1.077c5.297,0,11.317-0.371,17.664-1.077h0.009l-0.026,62.87
		c91.71-38.532,239.81-2.339,238.345,0C512.993,297.247,500.82,210.737,490.756,158.68"/>
	<g>
		<path style="fill:#285680;" d="M257.005,358.517c-20.524,0-51.094-7.601-74.337-18.485c-4.414-2.074-6.321-7.327-4.246-11.741
			c2.057-4.414,7.309-6.321,11.732-4.255c20.815,9.755,48.931,16.825,66.851,16.825s46.036-7.071,66.851-16.825
			c4.414-2.066,9.666-0.159,11.732,4.255c2.074,4.414,0.168,9.666-4.246,11.741C308.099,350.916,277.529,358.517,257.005,358.517"/>
		<path style="fill:#285680;" d="M490.756,158.68c-7.062-36.582-13.074-56.161-13.074-56.161
			c-35.31,8.828-176.543,26.483-220.681,26.483c-44.147,0-185.379-17.655-220.69-26.483c0,0-6.012,19.571-13.074,56.161
			c56.85,9.295,189.052,23.287,233.763,23.287C301.723,181.967,433.907,167.976,490.756,158.68"/>
	</g>
	<g>
		<path style="fill:#F0C419;" d="M503.184,239.396l-8.121-56.885c-73.304,39.415-126.72,118.29-138.469,212.039
			c19.783-1.165,55.031,0.265,53.433,0.168C419.993,328.564,454.941,272.27,503.184,239.396"/>
		<path style="fill:#F0C419;" d="M10.541,238.849l8.121-56.885c73.304,39.415,129.483,118.837,141.241,212.586
			c-19.791-1.165-55.04,0.265-53.442,0.168C96.495,328.564,58.784,271.723,10.541,238.849"/>
	</g>
</g>
<g>
</g>
<g>
</g>
<g>
</g>
<g>
</g>
<g>
</g>
<g>
</g>
<g>
</g>
<g>
</g>
<g>
</g>
<g>
</g>
<g>
</g>
<g>
</g>
<g>
</g>
<g>
</g>
<g>
</g>
</svg>
