<svg height="512" viewBox="0 0 58 58" width="512" xmlns="http://www.w3.org/2000/svg"><g id="073---Skirt" fill="none"><path id="Shape" d="m7 0h44c.5522847 0 1 .44771525 1 1v8h-46v-8c0-.55228475.44771525-1 1-1z" fill="#67b9cc"/><path id="Shape" d="m58 54s-7 4-29 4-29-4-29-4c0-15.52 3-34.4 6-46h46c3.7417112 15.0554758 5.7547103 30.4884692 6 46z" fill="#3b97d3"/><path id="Shape" d="m29 8v12h2c2.209139 0 4-1.790861 4-4v-8z" fill="#2980ba"/><path id="Shape" d="m31 5h-2c-.5522847 0-1-.44771525-1-1s.4477153-1 1-1h2c.5522847 0 1 .44771525 1 1s-.4477153 1-1 1z" fill="#2fa8cc"/><g fill="#2980ba"><path id="Shape" d="m14 8v7c0 4.9705627-4.02943725 9-9 9h-2.27c-.10666667.6666667-.21666667 1.3333333-.33 2 .86591429.0510709 1.73408571.0510709 2.6 0 6.0751322 0 11-4.9248678 11-11v-7z"/><path id="Shape" d="m55.6 26c-.8659143.0510709-1.7340857.0510709-2.6 0-6.0751322 0-11-4.9248678-11-11v-7h2v7c0 4.9705627 4.0294373 9 9 9h2.27c.1133333.6666667.2233333 1.3333333.33 2z"/><path id="Shape" d="m52.71 11h-47.42c.43-1.92.71-3 .71-3h46s.28 1.08.71 3z"/></g></g></svg>