<svg height="512" viewBox="0 0 58 59" width="512" xmlns="http://www.w3.org/2000/svg"><g id="074---Skirt" fill="none"><path id="Shape" d="m9 0h40c.5522847 0 1 .44771525 1 1v6h-42v-6c0-.55228475.44771525-1 1-1z" fill="#f3d55b"/><path id="Shape" d="m58 52c-2.3303364 1.4302431-4.8476041 2.5307064-7.48 3.27-13 3.95-34.87 3.87-47.47-1.63-1.06913291-.4429145-2.09095314-.9923523-3.05-1.64 5.27-11.3 7.59-33.63 8-46h42c.39 12 2.64 34.52 8 46z" fill="#f29c1f"/><path id="Shape" d="m55 53.64c-13.11 5.73-38.27 6-51.9 0 4.7-11.9 6.72-35.32 7.07-47.64h37.66c.34 12.26 2.34 35.65 7.17 47.64z" fill="#f0c419"/><path id="Shape" d="m7.27 17h10.73v-4h-10.37z" fill="#e64c3c"/><path id="Shape" d="m50.73 17h-10.73v-4h10.37c.1 1.22.21 2.56.36 4z" fill="#e64c3c"/><g fill="#f29c1f"><path id="Shape" d="m13 34.07c0 .55-1 13.59-5.52 21.2-.69-.21-1.33-.42-1.91-.63.01961083-.0708714.04996288-.1383204.09-.2 4.52-7.08 5.34-20.38 5.34-20.51.03866-.5522847.5177153-.9686599 1.07-.93.5522847.03866.9686599.5177153.93 1.07z"/><path id="Shape" d="m23 42.14c-.3882397 5.2335069-1.248401 10.42125-2.57 15.5l-2-.2c1.3191621-5.0589251 2.1793138-10.2265293 2.57-15.44.0285812-.3572656.2455903-.6721447.569282-.8260254s.7048896-.1233849 1 .08c.2951105.2033849.4592992.5487598.430718.9060254z"/><path id="Shape" d="m52.43 54.65c-.58.2-1.22.41-1.91.62-4.52-7.61-5.52-20.65-5.52-21.2-.0192293-.2653698.0680874-.5274621.2426275-.728277.1745401-.200815.4219117-.3237942.6873725-.341723.2653698-.0192293.5274621.0680874.728277.2426275.200815.1745401.3237942.4219117.341723.6873725 0 .13 1 13.35 5.34 20.51.0423529.0640352.0728386.1351684.09.21z"/><path id="Shape" d="m39.57 57.44-2 .2c-1.321599-5.07875-2.1817603-10.2664931-2.57-15.5-.0250086-.3572656.1424814-.7007345.4393782-.9010254s.6780946-.2269747 1-.07.5356132.4737598.5606218.8310254c.3811495 5.2146149 1.2414448 10.3830815 2.57 15.44z"/></g><path id="Shape" d="m33 12.07 5.3-1.94c.6134931-.229222 1.3003437-.14355593 1.8387397.2293331.5383959.3728891.8601148.9857508.8612603 1.6406669v6c-.0140363.6478187-.3410499 1.2486929-.8774277 1.6122378s-1.2156428.444704-1.8225723.2177622l-5.3-1.9h-8l-5.3 1.94c-.6134931.229222-1.3003437.1435559-1.8387397-.2293331-.5383959-.3728891-.8601148-.9857508-.8612603-1.6406669v-6c.0140363-.6478187.3410499-1.2486929.8774277-1.6122378s1.2156428-.44470399 1.8225723-.2177622l5.3 1.9z" fill="#c03a2b"/><rect id="Rectangle-path" fill="#e64c3c" height="8" rx="2" width="8" x="25" y="11"/></g></svg>