<svg id="Capa_1" enable-background="new 0 0 512 512" height="512" viewBox="0 0 512 512" width="512" xmlns="http://www.w3.org/2000/svg"><g><path d="m506.925 468.701-58.391-377.13c-4.982-32.178-27.61-58.832-58.552-68.972l-68.959-22.599c-43.349 23.554-86.697 23.554-130.046 0l-68.96 22.599c-30.942 10.14-53.57 36.795-58.552 68.972l-58.39 377.13c-.226 1.459.902 2.775 2.379 2.775h76.676c1.144 0 2.13-.805 2.358-1.927l41.763-205.079v187.83h255.499v-187.83l41.763 205.079c.228 1.121 1.214 1.927 2.358 1.927h76.676c1.476 0 2.604-1.317 2.378-2.775z" fill="#9dc6fb"/><g><path d="m506.925 468.701-58.391-377.13c-4.982-32.178-27.61-58.832-58.552-68.972l-68.959-22.599c-43.349 23.554-68.227 36.947-24.878 13.392l68.96 22.599c30.942 10.14 53.57 36.795 58.552 68.972l56.747 366.513h24.143c1.476 0 2.604-1.317 2.378-2.775z" fill="#80b4fb"/></g><path d="m65.432 512h-52.975c-4.104 0-7.238-3.663-6.604-7.718l5.133-32.806h66.506l-5.456 34.873c-.509 3.253-3.312 5.651-6.604 5.651z" fill="#86a0af"/><path d="m446.568 512h52.975c4.104 0 7.238-3.663 6.604-7.718l-5.133-32.806h-66.507l5.456 34.873c.51 3.253 3.313 5.651 6.605 5.651z" fill="#86a0af"/><path d="m501.015 471.476h-22.078l6.34 40.524h14.266c4.104 0 7.238-3.663 6.604-7.718z" fill="#738b95"/><path d="m369.435 486.697h-226.87c-7.906 0-14.315-6.409-14.315-14.315v-20.082h255.499v20.082c0 7.906-6.408 14.315-14.314 14.315z" fill="#86a0af"/><g><g><path d="m128.25 272.196c-4.268 0-7.726-3.459-7.726-7.726v-90.937c0-4.268 3.459-7.726 7.726-7.726 4.268 0 7.726 3.459 7.726 7.726v90.937c.001 4.268-3.458 7.726-7.726 7.726z" fill="#80b4fb"/></g><g><path d="m383.749 272.196c-4.268 0-7.726-3.459-7.726-7.726v-90.937c0-4.268 3.459-7.726 7.726-7.726s7.726 3.459 7.726 7.726v90.937c.001 4.268-3.458 7.726-7.726 7.726z" fill="#80b4fb"/></g></g><path d="m256 107.377 65.023-107.377c-43.349 23.554-86.697 23.554-130.046 0z" fill="#cbe2ff"/><path d="m277.609 15.7c-5.228 16.239-15.874 39.537-37.505 65.427l15.896 26.25 65.023-107.377c-14.471 7.863-28.943 13.087-43.414 15.7z" fill="#bed8fb"/><g><path d="m259.592 50.773h-7.185c-4.268 0-7.726-3.459-7.726-7.726s3.459-7.726 7.726-7.726h7.185c4.268 0 7.726 3.459 7.726 7.726s-3.458 7.726-7.726 7.726z" fill="#9dc6fb"/></g><path d="m248.206 120.249 72.817-120.249 34.349 11.256-90.684 141.325z" fill="#738b95"/><path d="m268.326 124.916-12.326-17.539-65.023-107.377-34.349 11.256 73.295 124.652c4.172 7.096 6.372 15.178 6.372 23.41v292.982h39.408v-304.054c.001-8.351-2.576-16.498-7.377-23.33z" fill="#86a0af"/><g><g><path d="m256 219.284c-4.268 0-7.726-3.459-7.726-7.726v-6.377c0-4.268 3.459-7.726 7.726-7.726 4.268 0 7.726 3.459 7.726 7.726v6.377c0 4.267-3.459 7.726-7.726 7.726z" fill="#cbe2ff"/></g><g><path d="m256 284.963c-4.268 0-7.726-3.459-7.726-7.726v-6.376c0-4.268 3.459-7.726 7.726-7.726 4.268 0 7.726 3.459 7.726 7.726v6.376c0 4.267-3.459 7.726-7.726 7.726z" fill="#cbe2ff"/></g><g><path d="m256 350.643c-4.268 0-7.726-3.459-7.726-7.726v-6.377c0-4.268 3.459-7.726 7.726-7.726 4.268 0 7.726 3.459 7.726 7.726v6.377c0 4.267-3.459 7.726-7.726 7.726z" fill="#cbe2ff"/></g><g><path d="m256 416.323c-4.268 0-7.726-3.459-7.726-7.726v-6.377c0-4.268 3.459-7.726 7.726-7.726 4.268 0 7.726 3.459 7.726 7.726v6.377c0 4.267-3.459 7.726-7.726 7.726z" fill="#cbe2ff"/></g></g></g></svg>