<svg height="512" viewBox="0 0 58 59" width="512" xmlns="http://www.w3.org/2000/svg"><g id="083---Poncho" fill="none"><g fill="#f3d55b"><path id="Shape" d="m29 59c-.5522847 0-1-.4477153-1-1v-4c0-.5522847.4477153-1 1-1s1 .4477153 1 1v4c0 .5522847-.4477153 1-1 1z"/><path id="Shape" d="m25 58c-.5522847 0-1-.4477153-1-1v-4.39c0-.5522847.4477153-1 1-1s1 .4477153 1 1v4.39c0 .5522847-.4477153 1-1 1z"/><path id="Shape" d="m21 56c-.5522847 0-1-.4477153-1-1v-4.21c0-.5522847.4477153-1 1-1s1 .4477153 1 1v4.21c0 .5522847-.4477153 1-1 1z"/><path id="Shape" d="m17 54c-.5522847 0-1-.4477153-1-1v-4.39c0-.5522847.4477153-1 1-1s1 .4477153 1 1v4.39c0 .5522847-.4477153 1-1 1z"/><path id="Shape" d="m13 51c-.5522847 0-1-.4477153-1-1v-3.9c0-.5522847.4477153-1 1-1s1 .4477153 1 1v3.9c0 .5522847-.4477153 1-1 1z"/><path id="Shape" d="m9 48c-.55228475 0-1-.4477153-1-1v-3.68c0-.5522847.44771525-1 1-1s1 .4477153 1 1v3.68c0 .5522847-.44771525 1-1 1z"/><path id="Shape" d="m5 45c-.55228475 0-1-.4477153-1-1v-3.75c0-.5522847.44771525-1 1-1s1 .4477153 1 1v3.75c0 .5522847-.44771525 1-1 1z"/><path id="Shape" d="m1 42c-.55228475 0-1-.4477153-1-1v-4.11c0-.5522847.44771525-1 1-1s1 .4477153 1 1v4.11c0 .5522847-.44771525 1-1 1z"/><path id="Shape" d="m33 58c-.5522847 0-1-.4477153-1-1v-4.39c0-.5522847.4477153-1 1-1s1 .4477153 1 1v4.39c0 .5522847-.4477153 1-1 1z"/><path id="Shape" d="m37 56c-.5522847 0-1-.4477153-1-1v-4.21c0-.5522847.4477153-1 1-1s1 .4477153 1 1v4.21c0 .5522847-.4477153 1-1 1z"/><path id="Shape" d="m41 54c-.5522847 0-1-.4477153-1-1v-4.39c0-.5522847.4477153-1 1-1s1 .4477153 1 1v4.39c0 .5522847-.4477153 1-1 1z"/><path id="Shape" d="m45 51c-.5522847 0-1-.4477153-1-1v-3.9c0-.5522847.4477153-1 1-1s1 .4477153 1 1v3.9c0 .5522847-.4477153 1-1 1z"/><path id="Shape" d="m49 48c-.5522847 0-1-.4477153-1-1v-3.68c0-.5522847.4477153-1 1-1s1 .4477153 1 1v3.68c0 .5522847-.4477153 1-1 1z"/><path id="Shape" d="m53 45c-.5522847 0-1-.4477153-1-1v-3.75c0-.5522847.4477153-1 1-1s1 .4477153 1 1v3.75c0 .5522847-.4477153 1-1 1z"/><path id="Shape" d="m57 42c-.5522847 0-1-.4477153-1-1v-4.11c0-.5522847.4477153-1 1-1s1 .4477153 1 1v4.11c0 .5522847-.4477153 1-1 1z"/></g><path id="Shape" d="m38 8.33c-2.6469118 1.8490012-5.7730698 2.8910538-9 3-3.2269302-.1089462-6.3530882-1.1509988-9-3v-8.33c2.6469118 1.84900118 5.7730698 2.89105384 9 3 3.2269302-.10894616 6.3530882-1.15099882 9-3z" fill="#e57e25"/><path id="Shape" d="m58 36s-15 14-29 18c-14-4-29-18-29-18s0-12 5-20 15-16 15-16c0 10.69 18 10.7 18 0 0 0 10 8 15 16s5 20 5 20z" fill="#f29c1f"/><path id="Shape" d="m56 36s-14 14-27 18c-13-4-27-18-27-18s0-12 4.66-20c3.94-6.78 11.24-13.57 13.34-15.46.59 10 17.37 10 18 0 2.1 1.89 9.4 8.68 13.34 15.46 4.66 8 4.66 20 4.66 20z" fill="#f0c419"/><path id="Shape" d="m50.74 12.78c-2.23 3.82-8.02 10.22-21.74 10.22s-19.51-6.4-21.74-10.22c1.07-1.38 2.22-2.72 3.39-4 2.28 3.85 7.42 9.22 18.35 9.22s16.07-5.37 18.35-9.21c1.17 1.27 2.32 2.61 3.39 3.99z" fill="#c03a2b"/><path id="Shape" d="m57.13 27.57c-4.4 5.43-12.77 11.43-28.13 11.43s-23.73-6-28.13-11.43c.34307858-1.887462.81756643-3.7486573 1.42-5.57 3.98 5.5 11.83 12 26.71 12s22.73-6.5 26.71-12c.6024336 1.8213427 1.0769214 3.682538 1.42 5.57z" fill="#c03a2b"/></g></svg>