<?xml version="1.0" encoding="iso-8859-1"?>
<!-- Generator: Adobe Illustrator 19.0.0, SVG Export Plug-In . SVG Version: 6.00 Build 0)  -->
<svg version="1.1" id="Capa_1" xmlns="http://www.w3.org/2000/svg" xmlns:xlink="http://www.w3.org/1999/xlink" x="0px" y="0px"
	 viewBox="0 0 512 512" style="enable-background:new 0 0 512 512;" xml:space="preserve">
<path style="fill:#AC7119;" d="M331.131,1.69V480H180.868V1.69C195.63,24.548,223.733,40,255.999,40S316.371,24.548,331.131,1.69z"
	/>
<path style="fill:#976019;" d="M274.492,480h-93.623V1.69c10.178,15.762,26.703,28,46.56,34.081
	c9.272,55.99,28.632,112.563,30.047,169.312L274.492,480z"/>
<path style="fill:#E2A737;" d="M234.141,205.082l7.137,286.42C241.559,502.74,232.51,512,221.249,512h-13.326
	c-8.351,0-15.827-5.171-18.759-12.978L182.02,480l-7.146,19.022C171.94,506.829,164.465,512,156.115,512h-13.393
	c-11.488,0-20.623-9.623-20.006-21.074l18.606-345.467c0.182-3.379-1.455-6.598-4.294-8.447c-5.352-3.484-12.554-0.802-14.312,5.33
	L87.238,266.084c-4.548,15.864-11.324,31.004-20.126,44.971l-1.771,2.811c-2.306,3.659-6.707,5.425-10.909,4.376l-25.728-6.421
	c-4.324-1.079-7.414-4.88-7.581-9.326c-0.561-14.935,0.799-29.88,4.048-44.469L63.674,85.107
	c4.972-22.329,19.281-41.465,39.311-52.573l54.126-30.017C160.087,0.866,163.436,0,166.841,0h28.175
	c9.683,0,17.98,6.913,19.712,16.422l0,0C226.074,78.714,232.564,141.789,234.141,205.082z M486.829,258.026L448.325,85.107
	c-3.333-14.967-10.861-28.5-21.495-39.142c-0.166-0.166-0.333-0.332-0.501-0.497c-5.11-5.025-10.921-9.389-17.315-12.935
	L354.888,2.517C351.911,0.866,348.563,0,345.158,0h-28.175c-9.683,0-17.98,6.913-19.712,16.422l0,0
	c-11.345,62.291-17.836,125.367-19.413,188.66l-7.137,286.42C270.441,502.74,279.49,512,290.75,512h13.326
	c8.351,0,15.827-5.171,18.759-12.978L329.98,480l7.146,19.022c2.932,7.806,10.408,12.978,18.759,12.978h13.393
	c11.488,0,20.623-9.623,20.006-21.074L370.678,145.46c-0.182-3.379,1.455-6.598,4.294-8.447c5.352-3.484,12.554-0.802,14.312,5.33
	l35.476,123.741c4.548,15.864,11.324,31.004,20.126,44.971l1.772,2.811c2.306,3.659,6.707,5.425,10.909,4.376l25.728-6.421
	c4.324-1.079,7.414-4.88,7.581-9.326C491.438,287.56,490.078,272.615,486.829,258.026z"/>
<path style="fill:#CE9022;" d="M141.8,134.188c0.114,4.963-0.311,9.703-0.488,11.43l0.009-0.158
	c0.182-3.379-1.455-6.598-4.294-8.447c-5.352-3.484-12.554-0.802-14.312,5.33L87.238,266.084
	c-4.548,15.864-11.324,31.004-20.126,44.971l-1.771,2.811c-2.306,3.659-6.707,5.425-10.909,4.376l-25.728-6.421
	c-0.068-0.017-0.133-0.041-0.2-0.059c-0.066-0.02-0.133-0.039-0.2-0.059c33.07,9.909,73.672-125.666,84.529-169.454
	C119.8,114.148,141.549,123.25,141.8,134.188z M181.986,294c-4.194,0-7.655,3.276-7.877,7.456l-11.166,209.333
	c5.405-1.959,9.833-6.182,11.931-11.766L182.02,480l7.146,19.022c1.838,4.893,5.462,8.75,9.968,10.948l-9.266-208.444
	C189.679,297.316,186.206,294,181.986,294z M486.829,258.026L448.325,85.107c-3.278-14.723-10.636-28.039-20.997-38.6
	c0,0,2.999,7.652,5.506,20.857c11.828,62.302,57.583,237.254,23.055,251.145c0.559-0.042,1.12-0.128,1.678-0.267l25.728-6.421
	c4.324-1.079,7.414-4.88,7.581-9.326C491.438,287.56,490.078,272.615,486.829,258.026z M389.285,490.926L370.678,145.46
	c-0.182-3.379,1.455-6.598,4.294-8.447c4.314-2.808,9.826-1.606,12.724,2.176c0.011,0,0.022-0.002,0.033-0.002
	c0,0-2.597-6.598-9.016-11.938c-5.782-4.809-18.691,1.241-19.659,9.25c-5.844,48.333,12.778,351.954,12.778,352.001
	c0.034,6.273-5.148,11.332-11.422,11.332h-0.881c-14.53-0.582-15.456-83.572-15.456-83.572l-6.183-114.803
	c-0.223-4.18-3.684-7.456-7.878-7.456c-4.221,0-7.694,3.316-7.881,7.526l-9.266,208.444c4.505-2.198,8.129-6.054,9.968-10.948
	L329.98,480l7.146,19.022c0.105,0.279,0.426,1.062,0.486,1.193c0.107,0.236,0.652,1.452,0.846,1.763
	c3.524,6.153,10.166,10.021,17.427,10.021h13.393c7.534,0,14.042-4.146,17.465-10.225c0.101-0.177,0.21-0.345,0.306-0.529
	c0.231-0.442,0.442-0.896,0.64-1.356c0.008-0.019,0.018-0.037,0.027-0.056h-0.004C388.875,497.113,389.454,494.091,389.285,490.926z
	"/>
<g>
</g>
<g>
</g>
<g>
</g>
<g>
</g>
<g>
</g>
<g>
</g>
<g>
</g>
<g>
</g>
<g>
</g>
<g>
</g>
<g>
</g>
<g>
</g>
<g>
</g>
<g>
</g>
<g>
</g>
</svg>
