<?xml version="1.0" encoding="iso-8859-1"?>
<!-- Generator: Adobe Illustrator 19.0.0, SVG Export Plug-In . SVG Version: 6.00 Build 0)  -->
<svg version="1.1" id="Layer_1" xmlns="http://www.w3.org/2000/svg" xmlns:xlink="http://www.w3.org/1999/xlink" x="0px" y="0px"
	 viewBox="0 0 512 512" style="enable-background:new 0 0 512 512;" xml:space="preserve">
<g transform="translate(-1 -1)">
	<path style="fill:#C03A2B;" d="M423.383,513c-22.596,0-41.882-7.356-55.407-20.932C354.51,505.644,335.447,513,313.217,513
		c-22.639,0-42.505-7.518-56.107-20.932C243.713,505.798,225.23,513,203.052,513c-23.049,0-43.179-7.518-56.849-20.941
		C132.874,505.798,114.647,513,92.895,513c-24.815,0-48.162-12.203-62.464-32.64c-11.972-17.126-15.454-39.458-9.54-61.278
		c0.085-0.316,0.188-0.631,0.307-0.939l27.836-69.478c1.297-3.226,4.412-5.35,7.893-5.359h0.034c3.465,0,6.579,2.091,7.893,5.299
		c1.63,3.985,3.678,7.654,6.101,10.914C82.8,375.477,102.145,385,122.728,385c26.94,0,49.195-14.259,58.078-37.214
		c1.28-3.285,4.437-5.453,7.962-5.453c3.524,0,6.682,2.167,7.953,5.453C205.339,370.041,229.65,385,257.213,385
		c27.776,0,51.379-14.609,60.126-37.214c1.28-3.285,4.437-5.453,7.962-5.453c3.524,0,6.682,2.167,7.953,5.453
		C342.137,370.741,364.537,385,391.698,385c14.959,0,29.474-5.035,40.866-14.182c7.313-5.862,12.868-13.508,16.512-22.716
		c1.271-3.226,4.378-5.359,7.859-5.393c3.473-0.111,6.613,2.039,7.945,5.257l26.351,63.309c0.06,0.128,0.111,0.247,0.154,0.375
		c8.09,22.4,5.265,47.795-7.561,67.925c-12.126,19.055-31.633,31.121-53.504,33.109C428.05,512.889,425.721,513,423.383,513"/>
	<path style="fill:#9B2B23;" d="M391.7,402.067c-28.134,0-52.318-12.348-66.475-33.101c-14.421,20.514-39.543,33.101-68.011,33.101
		c-28.646,0-53.888-12.587-68.361-33.101c-14.114,20.753-38.178,33.101-66.133,33.101c-25.958,0-50.432-12.1-65.459-32.375
		c-12.169-16.384-16.41-38.067-11.648-59.503l17.365-101.316c0.674-3.942,3.985-6.878,7.979-7.083
		c4.019-0.102,7.586,2.415,8.653,6.255c1.536,5.589,4.011,10.624,7.347,14.976c10.726,14.003,28.288,22.366,46.967,22.366
		c26.155,0,47.923-12.186,55.45-31.053c1.289-3.243,4.437-5.367,7.927-5.367c3.49,0,6.63,2.125,7.919,5.367
		c7.876,19.738,26.82,31.053,51.977,31.053c24.943,0,43.767-11.315,51.644-31.053c1.289-3.243,4.437-5.367,7.927-5.367
		c3.49,0,6.63,2.125,7.919,5.367c7.535,18.859,29.44,31.053,55.791,31.053c13.594,0,26.778-4.437,37.111-12.476
		c8.183-6.366,13.978-15.172,16.768-25.455c1.041-3.857,4.582-6.451,8.636-6.289c3.994,0.188,7.322,3.132,8.004,7.074
		l17.365,100.668c6.605,28.681-3.004,57.481-25.114,75.221C428.837,395.701,410.525,402.067,391.7,402.067"/>
	<g>
		<path d="M120.5,103.4c-2.185,0-4.369-0.836-6.033-2.5l-25.6-25.6c-3.337-3.337-3.337-8.73,0-12.066
			c3.337-3.337,8.73-3.337,12.066,0l25.6,25.6c3.337,3.337,3.337,8.73,0,12.066C124.869,102.564,122.684,103.4,120.5,103.4"/>
		<path d="M393.566,103.4c-2.185,0-4.369-0.836-6.033-2.5c-3.337-3.337-3.337-8.73,0-12.066l25.6-25.6
			c3.337-3.337,8.73-3.337,12.066,0c3.337,3.337,3.337,8.73,0,12.066l-25.6,25.6C397.936,102.564,395.751,103.4,393.566,103.4"/>
	</g>
	<g>
		<path style="fill:#C03A2B;" d="M380.475,262.45c-26.718,0-50.065-10.505-63.514-27.725c-12.8,17.596-34.142,27.725-59.759,27.725
			c-25.779,0-47.232-10.129-60.075-27.725c-13.414,17.22-36.642,27.725-63.206,27.725c-23.953,0-46.583-10.854-60.51-29.047
			c-11.341-14.839-15.3-34.449-10.863-53.828L86.561,67.481c0.836-3.942,4.309-6.75,8.337-6.75h123.068
			c3.396,0,6.46,2.014,7.817,5.111c5.453,12.45,17.715,20.489,31.249,20.489c13.534,0,25.805-8.038,31.249-20.489
			c1.357-3.098,4.429-5.111,7.817-5.111h123.068c4.019,0,7.492,2.807,8.346,6.733l23.902,110.848
			c6.101,25.566-3.046,52.275-23.339,68.062C414.762,256.741,397.857,262.45,380.475,262.45"/>
		<path style="fill:#C03A2B;" d="M188.766,385c-4.719,0-8.533-3.814-8.533-8.533v-34.133c0-4.719,3.814-8.533,8.533-8.533
			c4.719,0,8.533,3.814,8.533,8.533v34.133C197.3,381.186,193.485,385,188.766,385"/>
		<path style="fill:#C03A2B;" d="M325.3,385c-4.719,0-8.533-3.814-8.533-8.533v-25.6c0-4.719,3.814-8.533,8.533-8.533
			c4.719,0,8.533,3.814,8.533,8.533v25.6C333.833,381.186,330.019,385,325.3,385"/>
	</g>
	<g>
		<path style="fill:#9B2B23;" d="M316.766,204.835c-4.719,0-8.533,3.814-8.533,8.533v34.133c0,0.341,0.154,0.631,0.196,0.964
			c3.115-2.842,6.033-5.905,8.525-9.335c2.432,3.098,5.282,5.905,8.311,8.55c0-0.068,0.034-0.119,0.034-0.179v-34.133
			C325.3,208.649,321.485,204.835,316.766,204.835"/>
		<path style="fill:#9B2B23;" d="M205.645,248.428c0.034-0.316,0.188-0.597,0.188-0.93v-34.133c0-4.71-3.814-8.533-8.533-8.533
			s-8.533,3.823-8.533,8.533v34.133c0,0.077,0.043,0.137,0.043,0.213c3.038-2.654,5.888-5.47,8.311-8.585
			C199.621,242.549,202.531,245.587,205.645,248.428"/>
		<path style="fill:#9B2B23;" d="M367.975,492.067c2.611,2.62,5.504,4.941,8.525,7.091v-20.292c0-4.719-3.814-8.533-8.533-8.533
			s-8.533,3.814-8.533,8.533v20.343C362.462,497.042,365.355,494.712,367.975,492.067"/>
		<path style="fill:#9B2B23;" d="M257.108,492.067c2.577,2.543,5.453,4.804,8.457,6.912v-20.113c0-4.719-3.814-8.533-8.533-8.533
			c-4.719,0-8.533,3.814-8.533,8.533v20.514C251.544,497.178,254.454,494.789,257.108,492.067"/>
		<path style="fill:#9B2B23;" d="M146.2,492.058c2.569,2.517,5.436,4.762,8.431,6.852v-20.045c0-4.719-3.814-8.533-8.533-8.533
			c-4.71,0-8.533,3.814-8.533,8.533v20.582C140.619,497.221,143.529,494.806,146.2,492.058"/>
	</g>
	<g>
		<path style="fill:#F0C419;" d="M419.166,77.8H296.099c-2.884,0-5.564-1.451-7.142-3.866c-1.57-2.406-1.835-5.453-0.674-8.09
			c1.92-4.369,2.884-8.96,2.884-13.645c0-7.313-2.423-14.396-6.997-20.454c-1.954-2.586-2.278-6.05-0.836-8.943
			c1.442-2.901,4.412-4.736,7.646-4.736h119.654c4.07,0,7.569,2.876,8.363,6.861l8.533,42.667c0.503,2.509-0.145,5.103-1.766,7.083
			C424.141,76.648,421.726,77.8,419.166,77.8"/>
		<path style="fill:#F0C419;" d="M217.967,77.8H94.899c-2.56,0-4.975-1.152-6.596-3.123c-1.621-1.98-2.27-4.574-1.766-7.083
			l8.533-42.667c0.794-3.985,4.301-6.861,8.363-6.861h119.663c3.226,0,6.195,1.835,7.637,4.736c1.442,2.893,1.118,6.357-0.836,8.943
			c-4.574,6.059-6.997,13.141-6.997,20.454c0,4.668,0.973,9.259,2.893,13.662c1.152,2.628,0.887,5.675-0.683,8.081
			C223.53,76.349,220.842,77.8,217.967,77.8"/>
	</g>
	<path style="fill:#BF9717;" d="M257.033,103.4c-28.237,0-51.2-22.963-51.2-51.2S228.796,1,257.033,1s51.2,22.963,51.2,51.2
		S285.27,103.4,257.033,103.4"/>
</g>
<g>
</g>
<g>
</g>
<g>
</g>
<g>
</g>
<g>
</g>
<g>
</g>
<g>
</g>
<g>
</g>
<g>
</g>
<g>
</g>
<g>
</g>
<g>
</g>
<g>
</g>
<g>
</g>
<g>
</g>
</svg>
