<?xml version="1.0" encoding="iso-8859-1"?>
<!-- Generator: Adobe Illustrator 19.0.0, SVG Export Plug-In . SVG Version: 6.00 Build 0)  -->
<svg version="1.1" id="Layer_1" xmlns="http://www.w3.org/2000/svg" xmlns:xlink="http://www.w3.org/1999/xlink" x="0px" y="0px"
	 viewBox="0 0 512 512" style="enable-background:new 0 0 512 512;" xml:space="preserve">
<g transform="translate(0 -1)">
	<path style="fill:#C03A2B;" d="M361.931,84.86h-68.67c-4.846,5.376-11.794,8.828-19.606,8.828h-35.31
		c-7.812,0-14.76-3.452-19.606-8.828h-68.67C141.241,93.687,26.483,217.274,0,340.86c0,0,52.966,132.414,256,132.414
		S512,340.86,512,340.86C485.517,217.274,370.759,93.687,361.931,84.86"/>
	<g>
		<path style="fill:#9B2B23;" d="M218.735,84.86h-24.532c-8.527,8.527-115.942,181.901-123.18,336.949
			c20.648,14.371,46.68,27.719,79.113,37.235c1.359-153.265,59.939-333.603,76.138-368.393
			C223.414,89.177,220.871,87.226,218.735,84.86"/>
		<path style="fill:#9B2B23;" d="M317.793,84.86h-24.532c-2.127,2.366-4.679,4.317-7.539,5.791
			c16.199,34.79,74.779,215.128,76.138,368.393c32.441-9.516,58.465-22.863,79.113-37.235
			C433.735,266.761,326.321,93.387,317.793,84.86"/>
	</g>
	<path style="fill:#BF9717;" d="M273.655,93.687h-35.31c-14.627,0-26.483-11.855-26.483-26.483s11.855-26.483,26.483-26.483h35.31
		c14.627,0,26.483,11.855,26.483,26.483S288.283,93.687,273.655,93.687"/>
	<g>
		<path style="fill:#F0C419;" d="M211.862,67.205c0-6.815,2.648-12.959,6.877-17.655h-68.67v35.31h68.67
			C214.51,80.164,211.862,74.02,211.862,67.205"/>
		<path style="fill:#F0C419;" d="M293.265,49.55c4.228,4.696,6.877,10.84,6.877,17.655s-2.648,12.959-6.877,17.655h68.67V49.55
			H293.265z"/>
	</g>
	<path style="fill:#9B2B23;" d="M247.172,473.093c2.948,0.062,5.817,0.185,8.828,0.185c3.01,0,5.879-0.124,8.828-0.185V93.692
		h-17.655V473.093z"/>
</g>
<g>
</g>
<g>
</g>
<g>
</g>
<g>
</g>
<g>
</g>
<g>
</g>
<g>
</g>
<g>
</g>
<g>
</g>
<g>
</g>
<g>
</g>
<g>
</g>
<g>
</g>
<g>
</g>
<g>
</g>
</svg>
