<?xml version="1.0" encoding="iso-8859-1"?>
<!-- Generator: Adobe Illustrator 19.0.0, SVG Export Plug-In . SVG Version: 6.00 Build 0)  -->
<svg version="1.1" id="Layer_1" xmlns="http://www.w3.org/2000/svg" xmlns:xlink="http://www.w3.org/1999/xlink" x="0px" y="0px"
	 viewBox="0 0 512.001 512.001" style="enable-background:new 0 0 512.001 512.001;" xml:space="preserve">
<g transform="translate(0 -1)">
	<path style="fill:#4482C3;" d="M370.759,137.828h-86.325c-4.846,5.376-11.794,8.828-19.606,8.828h-17.655
		c-7.812,0-14.76-3.452-19.606-8.828h-86.325C123.586,173.138,70.621,287.897,0,340.862c-0.115,4.379,34.675,67.955,97.103,35.31
		c3.028,1.095,36.326,56.514,123.586,26.483c0,0,8.828,17.655,35.31,17.655s35.31-17.655,35.31-17.655
		c87.261,30.031,120.558-25.388,123.586-26.483c62.429,32.644,97.218-30.932,97.103-35.31
		C441.38,287.897,388.414,173.138,370.759,137.828"/>
	<path style="fill:#E57E25;" d="M264.828,146.655h-17.655c-14.627,0-26.483-11.855-26.483-26.483s11.855-26.483,26.483-26.483
		h17.655c14.627,0,26.483,11.855,26.483,26.483S279.455,146.655,264.828,146.655"/>
	<g>
		<path style="fill:#F0C419;" d="M220.69,120.173c0-6.815,2.648-12.959,6.877-17.655h-86.325v35.31h86.325
			C223.338,133.132,220.69,126.988,220.69,120.173"/>
		<path style="fill:#F0C419;" d="M284.437,102.518c4.228,4.696,6.877,10.84,6.877,17.655s-2.648,12.959-6.877,17.655h86.325v-35.31
			H284.437z"/>
	</g>
	<g>
		<path style="fill:#285680;" d="M361.931,279.069c0-4.882-3.955-8.828-8.828-8.828s-8.828,3.946-8.828,8.828
			c0,39,37.085,84.718,64.538,103.601c3.434-3.646,5.455-6.268,6.082-6.497c2.684,1.404,5.288,2.56,7.865,3.619
			c1.774-3.875,0.689-8.519-2.966-10.964C395.635,352.727,361.931,310.787,361.931,279.069"/>
		<path style="fill:#285680;" d="M296.608,388.647c-2.957-10.222-5.297-18.308-5.297-30.129c0-4.882-3.955-8.828-8.828-8.828
			s-8.828,3.946-8.828,8.828c0,14.327,2.913,24.391,5.994,35.046c1.024,3.522,2.083,7.203,3.099,11.229
			c0.477,1.933,1.589,3.531,3.019,4.687c3.822-3.637,5.544-6.824,5.544-6.824c2.887,0.989,5.553,1.651,8.324,2.463
			c0.433-1.465,0.636-3.01,0.238-4.599C298.815,396.256,297.694,392.381,296.608,388.647"/>
		<path style="fill:#285680;" d="M226.233,409.484c1.43-1.165,2.542-2.754,3.019-4.687c1.015-4.025,2.074-7.706,3.098-11.238
			c3.081-10.655,5.994-20.71,5.994-35.037c0-4.882-3.955-8.828-8.828-8.828s-8.828,3.946-8.828,8.828
			c0,11.811-2.339,19.897-5.297,30.129c-1.086,3.734-2.207,7.609-3.266,11.864c-0.397,1.598-0.194,3.143,0.238,4.608
			c2.772-0.812,5.438-1.474,8.324-2.463C220.689,402.66,222.41,405.838,226.233,409.484"/>
		<path style="fill:#285680;" d="M158.897,270.242c-4.873,0-8.828,3.946-8.828,8.828c0,31.718-33.704,73.657-57.865,89.759
			c-3.655,2.445-4.74,7.089-2.966,10.964c2.578-1.059,5.182-2.216,7.865-3.619c0.627,0.23,2.648,2.851,6.082,6.497
			c27.454-18.882,64.538-64.6,64.538-103.601C167.724,274.188,163.77,270.242,158.897,270.242"/>
	</g>
</g>
<g>
</g>
<g>
</g>
<g>
</g>
<g>
</g>
<g>
</g>
<g>
</g>
<g>
</g>
<g>
</g>
<g>
</g>
<g>
</g>
<g>
</g>
<g>
</g>
<g>
</g>
<g>
</g>
<g>
</g>
</svg>
