<svg id="Capa_1" enable-background="new 0 0 512 512" height="512" viewBox="0 0 512 512" width="512" xmlns="http://www.w3.org/2000/svg"><g><path d="m284.697 59.79h-57.394v-31.093c0-15.849 12.848-28.697 28.697-28.697 15.849 0 28.697 12.848 28.697 28.697z" fill="#86a0af"/><path d="m420.445 359.039-12.471-78.89-151.974-8.318-151.974 8.317-12.471 78.89-17.357 111.019c-.101.648-.186 1.295-.254 1.939-2.885 27.248 25.13 47.612 50.499 37.259 87.705-35.793 175.409-35.793 263.114 0 25.369 10.354 53.384-10.01 50.499-37.259-.068-.644-.153-1.291-.254-1.939z" fill="#b3e59f"/><path d="m420.445 398.474c2.088.512 4.199.779 6.299.856l-6.299-40.291-12.471-78.89-151.974-8.318-151.974 8.317-12.471 78.89-6.299 40.291c2.101-.077 4.211-.344 6.299-.856 109.63-26.87 219.259-26.87 328.89.001z" fill="#95d6a4"/><path d="m300.782 39.186h-89.564c-82.875 0-152.67 62.786-160.45 145.295-5.21 55.25-5.027 110.5 4.097 165.75.604 3.655 1.849 7.065 3.609 10.125 6.573 11.429 20.276 16.646 33.082 13.507 109.63-26.871 219.259-26.871 328.89 0 12.805 3.139 26.509-2.078 33.082-13.507 1.76-3.06 3.005-6.47 3.608-10.125 9.124-55.25 9.307-110.5 4.097-165.75-7.781-82.509-77.576-145.295-160.451-145.295z" fill="#b3e59f"/><g><path d="m461.232 184.481c-7.781-82.509-77.575-145.295-160.45-145.295h-28.697c82.875 0 152.67 62.786 160.45 145.295 5.21 55.25 5.027 110.5-4.097 165.75-.604 3.655-1.849 7.065-3.608 10.125-2.996 5.21-7.483 9.112-12.683 11.537 2.766.644 5.532 1.292 8.298 1.97 12.806 3.139 26.509-2.078 33.082-13.507 1.76-3.06 3.005-6.47 3.609-10.125 9.123-55.25 9.306-110.5 4.096-165.75z" fill="#95d6a4"/></g><path d="m141.847 201.448c-2.534 53.959-2.774 107.917.6 161.876 75.702-12.813 151.403-12.813 227.105 0 3.374-53.958 3.134-107.917.6-161.876-4.328-92.144-43.148-162.261-89.244-162.261h-49.817c-46.096-.001-84.916 70.117-89.244 162.261z" fill="#d6f6b2"/><path d="m243.392 261.423-20.696-34.242c-2.832-4.686-2.832-10.555 0-15.241l20.696-34.242c5.731-9.482 19.485-9.482 25.217 0l20.696 34.242c2.832 4.686 2.832 10.555 0 15.241l-20.696 34.242c-5.732 9.483-19.486 9.483-25.217 0z" fill="#86a0af"/><path d="m289.304 211.94-20.696-34.242c-5.606-9.275-18.868-9.453-24.81-.583.133.198.282.375.407.583l20.696 34.242c2.832 4.686 2.832 10.555 0 15.241l-20.696 34.242c-.125.207-.274.384-.407.582 5.941 8.87 19.203 8.693 24.81-.582l20.696-34.242c2.832-4.686 2.832-10.555 0-15.241z" fill="#738b95"/></g></svg>