<svg height="512" viewBox="0 0 58 58" width="512" xmlns="http://www.w3.org/2000/svg"><g id="047---Jumper" fill="none"><path id="Shape" d="m58 32.64v19.36c0 .5522847-.4477153 1-1 1h-7c-.5522847 0-1-.4477153-1-1v-14.7c.0036122-2.1865543-.503163-4.3437734-1.48-6.3l-3.52-7 1 30.83c-4 2.11-8 3.17-16 3.17s-12-1.06-16-3.17l1-30.83-3.52 7c-.97683696 1.9562266-1.48361223 4.1134457-1.48 6.3v14.7c0 .5522847-.44771525 1-1 1h-7c-.55228475 0-1-.4477153-1-1v-19.36c.01583313-1.7471361.35487591-3.4762543 1-5.1l6.7-15.12c.89394119-2.2615707 2.665038-4.06513167 4.91-5 2.3837445-1.03201654 4.8575428-1.84211019 7.39-2.42l.84-4.2c.0964736-.47312322.5172392-.80973571 1-.8h14.34c.4827608-.00973571.9035264.32687678 1 .8l.82 4.2c2.5454076.56905512 5.0326827 1.3724818 7.43 2.4 2.244962.93486833 4.0160588 2.7384293 4.91 5l6.66 15.14c.6451241 1.6237457.9841669 3.3528639 1 5.1z" fill="#f0c419"/><g fill="#f29c1f"><path id="Shape" d="m22.55 7.89c-.4761403-.25533767-.6633673-.84270502-.4228266-1.32648918.2405408-.48378417.8218583-.68902604 1.3128266-.46351082 1.7722743.67710661 3.6646186.98342133 5.56.9 1.895315.08228616 3.7874305-.22399153 5.56-.9.4944641-.23735317 1.0878371-.03212644 1.33.46.2402449.48916396.0445734 1.08062554-.44 1.33-2.97 1.47-9.92 1.47-12.9 0z"/><path id="Shape" d="m26 0v4c0 .55228475-.4477153 1-1 1s-1-.44771525-1-1v-4z"/><path id="Shape" d="m30 0v5c0 .55228475-.4477153 1-1 1s-1-.44771525-1-1v-5z"/><path id="Shape" d="m34 0v4c0 .55228475-.4477153 1-1 1s-1-.44771525-1-1v-4z"/></g><path id="Shape" d="m58 49v3c0 .5522847-.4477153 1-1 1h-7c-.5522847 0-1-.4477153-1-1v-3z" fill="#e64c3c"/><path id="Shape" d="m9 49v3c0 .5522847-.44771525 1-1 1h-7c-.55228475 0-1-.4477153-1-1v-3z" fill="#e64c3c"/><path id="Shape" d="m44.3 33.1-2.52-3.1c-.1897968-.2365713-.4767035-.3742205-.78-.3742205s-.5902032.1376492-.78.3742205l-2.44 3c-.1897968.2365713-.4767035.3742205-.78.3742205s-.5902032-.1376492-.78-.3742205l-2.44-3c-.1897968-.2365713-.4767035-.3742205-.78-.3742205s-.5902032.1376492-.78.3742205l-2.44 3c-.1897968.2365713-.4767035.3742205-.78.3742205s-.5902032-.1376492-.78-.3742205l-2.44-3c-.1897968-.2365713-.4767035-.3742205-.78-.3742205s-.5902032.1376492-.78.3742205l-2.44 3c-.1897968.2365713-.4767035.3742205-.78.3742205s-.5902032-.1376492-.78-.3742205l-2.44-3c-.1897968-.2365713-.4767035-.3742205-.78-.3742205s-.5902032.1376492-.78.3742205l-2.52 3.1.21-6.23 2.31-2.87c.1897968-.2365713.4767035-.3742205.78-.3742205s.5902032.1376492.78.3742205l2.44 3c.1897968.2365713.4767035.3742205.78.3742205s.5902032-.1376492.78-.3742205l2.44-3c.1897968-.2365713.4767035-.3742205.78-.3742205s.5902032.1376492.78.3742205l2.44 3c.1897968.2365713.4767035.3742205.78.3742205s.5902032-.1376492.78-.3742205l2.44-3c.1897968-.2365713.4767035-.3742205.78-.3742205s.5902032.1376492.78.3742205l2.44 3c.1897968.2365713.4767035.3742205.78.3742205s.5902032-.1376492.78-.3742205l2.44-3c.1897968-.2365713.4767035-.3742205.78-.3742205s.5902032.1376492.78.3742205l2.31 2.89z" fill="#e64c3c"/><path id="Shape" d="m44.87 50.84-3.09-3.84c-.1897968-.2365713-.4767035-.3742205-.78-.3742205s-.5902032.1376492-.78.3742205l-2.44 3c-.1897968.2365713-.4767035.3742205-.78.3742205s-.5902032-.1376492-.78-.3742205l-2.44-3c-.1897968-.2365713-.4767035-.3742205-.78-.3742205s-.5902032.1376492-.78.3742205l-2.44 3c-.1897968.2365713-.4767035.3742205-.78.3742205s-.5902032-.1376492-.78-.3742205l-2.44-3c-.1897968-.2365713-.4767035-.3742205-.78-.3742205s-.5902032.1376492-.78.3742205l-2.44 3c-.1897968.2365713-.4767035.3742205-.78.3742205s-.5902032-.1376492-.78-.3742205l-2.44-3c-.1897968-.2365713-.4767035-.3742205-.78-.3742205s-.5902032.1376492-.78.3742205c-2.94 3.66-2.33 2.9-3.09 3.86l.2-6.26 2.89-3.6c.1897968-.2365713.4767035-.3742205.78-.3742205s.5902032.1376492.78.3742205l2.44 3c.1897968.2365713.4767035.3742205.78.3742205s.5902032-.1376492.78-.3742205l2.44-3c.1897968-.2365713.4767035-.3742205.78-.3742205s.5902032.1376492.78.3742205l2.44 3c.1897968.2365713.4767035.3742205.78.3742205s.5902032-.1376492.78-.3742205l2.44-3c.1897968-.2365713.4767035-.3742205.78-.3742205s.5902032.1376492.78.3742205l2.44 3c.1897968.2365713.4767035.3742205.78.3742205s.5902032-.1376492.78-.3742205l2.44-3c.1897968-.2365713.4767035-.3742205.78-.3742205s.5902032.1376492.78.3742205l2.89 3.61z" fill="#e64c3c"/></g></svg>