<svg id="Capa_1" enable-background="new 0 0 512 512" height="512" viewBox="0 0 512 512" width="512" xmlns="http://www.w3.org/2000/svg"><g><path d="m365.055 35.901h-218.11v-29.079c0-3.768 3.055-6.822 6.823-6.822h204.465c3.768 0 6.822 3.054 6.822 6.822z" fill="#eab14d"/><path d="m344.664 0v35.901h20.391v-29.079c0-3.768-3.054-6.822-6.822-6.822z" fill="#e49542"/><path d="m381.323 503.53c-4.831-190.958-8.907-389.942-20.389-467.629h-213.989c-11.481 77.687-15.557 276.67-20.389 467.629-.118 4.646 3.616 8.47 8.264 8.47h92.78c4.378 0 7.997-3.413 8.253-7.784l17.217-293.919c.216-3.686 5.646-3.686 5.862 0l17.217 293.919c.256 4.37 3.875 7.784 8.253 7.784h88.659c4.646 0 8.379-3.824 8.262-8.47z" fill="#eab14d"/><path d="m362.001 43.628c-.348-2.693-.704-5.272-1.066-7.727h-213.99c-.363 2.455-.718 5.033-1.066 7.727z" fill="#e49542"/><g><path d="m365.055 35.901h-20.391c11.481 77.687 15.557 276.67 20.389 467.629.118 4.646-3.616 8.47-8.264 8.47h20.391c4.648 0 8.381-3.824 8.264-8.47-4.832-190.959-8.908-389.942-20.389-467.629z" fill="#e49542"/></g><path d="m274.17 113.637h-18.17v-77.736h29.396v66.511c0 6.199-5.026 11.225-11.226 11.225z" fill="#ffe07d"/><path d="m256 35.901h29.396v7.727h-29.396z" fill="#ffd064"/><path d="m185.602 80.493v-44.592h-38.657c-2.329 15.761-4.353 36.525-6.141 61.19h28.199c9.168 0 16.599-7.431 16.599-16.598z" fill="#ffe07d"/><path d="m185.602 43.628v-7.727h-38.657c-.362 2.451-.716 5.038-1.064 7.727z" fill="#ffd064"/><path d="m365.055 35.901h-38.656v44.592c0 9.167 7.431 16.598 16.598 16.598h28.199c-1.788-24.665-3.812-45.429-6.141-61.19z" fill="#ffe07d"/><path d="m371.196 97.091c-1.36-18.759-3.377-42.488-6.14-61.184 0-.002-.001-.005-.001-.007h-38.656v7.727h9.502c5.642 0 10.382 4.231 11.011 9.838 1.416 12.608 2.707 27.25 3.894 43.626z" fill="#ffd064"/><path d="m134.542 219.623h59.386c3.228 0 5.846-2.617 5.846-5.846v-15.517c0-3.228-2.617-5.846-5.846-5.846h-58.305c-.373 8.867-.732 17.95-1.081 27.209z" fill="#ffe07d"/><path d="m131.798 302.382h25.534c13.511 0 24.464-10.953 24.464-24.464v-58.296h-47.253c-.992 26.275-1.896 54.033-2.745 82.76z" fill="#ffe07d"/><path d="m134.199 228.864h47.596v-9.241h-47.253c-.116 3.059-.23 6.142-.343 9.241z" fill="#ffd064"/><path d="m376.377 192.415h-58.305c-3.228 0-5.846 2.617-5.846 5.846v15.517c0 3.228 2.617 5.846 5.846 5.846h38.996l18.617-3.525c-.349-9.259 1.065-14.818.692-23.684z" fill="#ffe07d"/><path d="m357.068 219.623h20.39c-.349-9.259-.709-18.342-1.081-27.208h-20.393c.374 8.873.735 17.942 1.084 27.208z" fill="#ffd064"/><path d="m375.471 222.237-45.266-2.615v58.296c0 13.511 10.953 24.464 24.464 24.464h25.534c-.849-28.727-3.741-53.871-4.732-80.145z" fill="#ffe07d"/><path d="m380.203 302.382c-.849-28.727-1.753-56.486-2.744-82.76h-20.39-26.863v9.241h21.835c2.997 0 5.457 2.366 5.564 5.361.784 21.886 1.514 44.7 2.207 68.158z" fill="#ffd064"/><g><path d="m257.506 25.677h-3.012c-4.267 0-7.726-3.459-7.726-7.726s3.459-7.726 7.726-7.726h3.012c4.268 0 7.726 3.459 7.726 7.726s-3.459 7.726-7.726 7.726z" fill="#738b95"/></g><g><path d="m384.948 491.569h-109.994c-4.268 0-7.726-3.459-7.726-7.726 0-4.268 3.459-7.726 7.726-7.726h109.994c4.268 0 7.726 3.459 7.726 7.726.001 4.267-3.458 7.726-7.726 7.726z" fill="#ffe07d"/></g><g><path d="m237.046 491.569h-109.994c-4.267 0-7.726-3.459-7.726-7.726 0-4.268 3.459-7.726 7.726-7.726h109.994c4.267 0 7.726 3.459 7.726 7.726s-3.459 7.726-7.726 7.726z" fill="#ffe07d"/></g><g><path d="m256 215.26c-4.267 0-7.726-3.459-7.726-7.726v-171.633c0-4.268 3.459-7.726 7.726-7.726s7.727 3.459 7.727 7.726v171.633c0 4.267-3.46 7.726-7.727 7.726z" fill="#e49542"/></g></g></svg>