<svg height="512" viewBox="0 0 36 58" width="512" xmlns="http://www.w3.org/2000/svg"><g id="022---Cargo-Trousers" fill="none"><path id="Shape" d="m5 0h26c1.1045695 0 2 .8954305 2 2v5h-30v-5c0-1.1045695.8954305-2 2-2z" fill="#4c8056"/><path id="Shape" d="m35 8v48c0 1.1045695-.8954305 2-2 2h-10c-1.1045695 0-2-.8954305-2-2v-31.83c.0403444-1.6194238-1.1691655-2.9986132-2.78-3.17-.8330296-.0612568-1.6538821.2275584-2.2650218.7969432-.6111397.5693849-.9572274 1.367781-.9549782 2.2030568v32c0 1.1045695-.8954305 2-2 2h-10c-1.1045695 0-2-.8954305-2-2v-48c0-1.1045695.8954305-2 2-2h30c1.1045695 0 2 .8954305 2 2z" fill="#4fba6f"/><path id="Shape" d="m10 30v10c0 2.209139-1.790861 4-4 4h-4c-1.1045695 0-2-.8954305-2-2v-12c0-1.1045695.8954305-2 2-2h6c1.1045695 0 2 .8954305 2 2z" fill="#7ed09e"/><path id="Shape" d="m10 32v2h-6c-.55228475 0-1-.4477153-1-1s.44771525-1 1-1z" fill="#4c8056"/><path id="Shape" d="m36 30v12c0 1.1045695-.8954305 2-2 2h-4c-2.209139 0-4-1.790861-4-4v-10c0-1.1045695.8954305-2 2-2h6c1.1045695 0 2 .8954305 2 2z" fill="#7ed09e"/><path id="Shape" d="m33 33c0 .5522847-.4477153 1-1 1h-6v-2h6c.5522847 0 1 .4477153 1 1z" fill="#4c8056"/><g fill="#24ae5f"><path id="Shape" d="m22 15c0 .5522847-.4477153 1-1 1h-1c-1.6568542 0-3-1.3431458-3-3v-7h2v7c0 .5522847.4477153 1 1 1h1c.5522847 0 1 .4477153 1 1z"/><path id="Shape" d="m9 10v2c0 3.3137085-2.6862915 6-6 6h-2v-2h2c2.209139 0 4-1.790861 4-4v-2c0-.55228475.44771525-1 1-1s1 .44771525 1 1z"/><path id="Shape" d="m35 16v2h-2c-3.3137085 0-6-2.6862915-6-6v-2c0-.55228475.4477153-1 1-1s1 .44771525 1 1v2c0 2.209139 1.790861 4 4 4z"/><path id="Shape" d="m23 22h-10c-.5522847 0-1-.4477153-1-1s.4477153-1 1-1h10c.5522847 0 1 .4477153 1 1s-.4477153 1-1 1z"/></g></g></svg>