<svg height="512" viewBox="0 0 47 59" width="512" xmlns="http://www.w3.org/2000/svg"><g id="027---Flares" fill="none"><path id="Shape" d="m41.11 40.88c-1.3-4.78-1.11-4.52-1.11-38.88 0-.55228475-.4477153-1-1-1h-32c-.55228475 0-1 .44771525-1 1v31c0 5.35-.87 7.19-6 26h46.06zm-18.11 7.23c-3.46-12.69-3-9.3-3-26.11.0303675-1.0717968.6302251-2.045977 1.5736121-2.5555763.9433871-.5095993 2.0869806-.4771975 3.0000001.085.9130194.5621975 1.4567554 1.5687795 1.4263878 2.6405763 0 16.05.77 12.24-3 25.94z" fill="#3b97d3"/><g fill="#2980ba"><path id="Shape" d="m23 1v13h2c1.1045695 0 2-.8954305 2-2v-7z"/><path id="Shape" d="m23 20c-.5522847 0-1-.4477153-1-1v-15c0-.55228475.4477153-1 1-1s1 .44771525 1 1v15c0 .5522847-.4477153 1-1 1z"/><path id="Shape" d="m28 20h-10c-.5522847 0-1-.4477153-1-1s.4477153-1 1-1h10c.5522847 0 1 .4477153 1 1s-.4477153 1-1 1z"/><path id="Shape" d="m27.97 59h-1.97l-2.97-10.89.96-3.52z"/></g><path id="Shape" d="m40 2v3h-34v-3c0-.55228475.44771525-1 1-1h32c.5522847 0 1 .44771525 1 1z" fill="#285680"/><path id="Shape" d="m15 8c-.5522847 0-1-.44771525-1-1v-6c0-.55228475.4477153-1 1-1s1 .44771525 1 1v6c0 .55228475-.4477153 1-1 1z" fill="#2980ba"/><path id="Shape" d="m31 8c-.5522847 0-1-.44771525-1-1v-6c0-.55228475.4477153-1 1-1s1 .44771525 1 1v6c0 .55228475-.4477153 1-1 1z" fill="#2980ba"/></g></svg>