<svg id="Capa_1" enable-background="new 0 0 512 512" height="512" viewBox="0 0 512 512" width="512" xmlns="http://www.w3.org/2000/svg"><g><path d="m362.874 46.494h-213.748c-31.224 113.173 7.092 212.206-17.915 434.06l7.992 10.149h47.32l11.131-10.149 58.346-262.596 58.346 262.596 11.383 14.245 41.127-1.393 6.825-12.852c-25.007-221.855 20.417-320.887-10.807-434.06z" fill="#9dc6fb"/><g><path d="m384.026 507.258c-31.375-240.824 11.299-343.145-21.152-460.764h-25.653c32.048 116.16-9.176 217.398 20.018 451.862.902 7.247-4.763 13.644-12.066 13.644h34.702c2.531 0 4.478-2.233 4.151-4.742z" fill="#80b4fb"/></g><path d="m149.126 46.494h213.748v-29.79c0-5.022-4.071-9.093-9.093-9.093h-195.562c-5.022 0-9.093 4.071-9.093 9.093z" fill="#cbe2ff"/><path d="m337.221 7.612v38.882h25.653v-29.79c0-5.022-4.071-9.093-9.093-9.093h-16.56z" fill="#bed8fb"/><path d="m271.024 141.059h-15.024v-94.565h29.163v80.426c0 7.809-6.33 14.139-14.139 14.139z" fill="#61a2f9"/><path d="m312.867 46.494v38.934c0 17.39 14.098 31.488 31.488 31.488h30.199c-1.661-23.69-5.149-46.747-11.681-70.422z" fill="#61a2f9"/><path d="m374.501 116.916c-1.661-23.69-5.095-46.747-11.627-70.422h-25.653c6.532 23.676 10.019 46.732 11.679 70.422z" fill="#5490f9"/><g><path d="m149.126 46.494c-3.753 13.603-7.473 33.944-6.902 30.698l33.997 38.532c13.22-3.736 22.912-15.88 22.912-30.296v-38.934z" fill="#61a2f9"/></g><g><path d="m257.928 34.664h-3.857c-4.204 0-7.611-3.407-7.611-7.611s3.407-7.611 7.611-7.611h3.857c4.204 0 7.612 3.407 7.612 7.611s-3.408 7.611-7.612 7.611z" fill="#5490f9"/></g><path d="m324.694 512h55.181c2.531 0 4.478-2.232 4.151-4.742-1.184-9.098-2.258-17.991-3.241-26.704h-66.44l6.258 28.165c.427 1.917 2.127 3.281 4.091 3.281z" fill="#cbe2ff"/><path d="m384.026 507.258c-1.184-9.098-2.258-17.991-3.241-26.704h-25.65c.66 5.855 1.353 11.774 2.103 17.802.902 7.247-4.763 13.644-12.066 13.644h34.702c2.532 0 4.479-2.232 4.152-4.742z" fill="#bed8fb"/><path d="m197.654 480.554h-66.44c-.982 8.714-2.057 17.606-3.241 26.704-.327 2.509 1.62 4.742 4.151 4.742h55.181c1.964 0 3.664-1.364 4.09-3.281z" fill="#cbe2ff"/><g><g><path d="m211.049 54.106c-.277 0-.558-.016-.841-.047-4.178-.46-7.193-4.22-6.733-8.398l4.278-38.882c.46-4.178 4.208-7.187 8.398-6.733 4.178.46 7.193 4.22 6.733 8.398l-4.277 38.882c-.429 3.896-3.727 6.78-7.558 6.78z" fill="#bed8fb"/></g><g><path d="m300.951 54.106c-3.832 0-7.128-2.884-7.557-6.78l-4.278-38.882c-.46-4.178 2.555-7.939 6.733-8.398 4.19-.456 7.938 2.555 8.398 6.733l4.277 38.882c.46 4.178-2.555 7.939-6.733 8.398-.281.031-.562.047-.84.047z" fill="#bed8fb"/></g></g><g><path d="m256 225.569c-4.204 0-7.611-3.407-7.611-7.611v-171.464c0-4.204 3.407-7.611 7.611-7.611s7.611 3.407 7.611 7.611v171.464c0 4.204-3.407 7.611-7.611 7.611z" fill="#5490f9"/></g><path d="m137.445 116.916h30.2c2.974 0 5.849-.421 8.576-1.192v-32.085c0-3.561-2.887-6.448-6.448-6.448h-27.549c-2.318 13.19-3.842 26.357-4.779 39.725z" fill="#5490f9"/></g></svg>