<svg height="512" viewBox="0 0 36 59" width="512" xmlns="http://www.w3.org/2000/svg"><g id="030---Ripped-Jeans" fill="none"><g fill="#9fc9d3"><path id="Shape" d="m11 58c-.5522847 0-1-.4477153-1-1v-3c0-.5522847.4477153-1 1-1s1 .4477153 1 1v3c0 .5522847-.4477153 1-1 1z"/><path id="Shape" d="m5 59c-.55228475 0-1-.4477153-1-1v-5c0-.5522847.44771525-1 1-1s1 .4477153 1 1v5c0 .5522847-.44771525 1-1 1z"/><path id="Shape" d="m8 58c-.55228475 0-1-.4477153-1-1v-3c0-.5522847.44771525-1 1-1s1 .4477153 1 1v3c0 .5522847-.44771525 1-1 1z"/><path id="Shape" d="m25 58c-.5522847 0-1-.4477153-1-1v-3c0-.5522847.4477153-1 1-1s1 .4477153 1 1v3c0 .5522847-.4477153 1-1 1z"/><path id="Shape" d="m31 59c-.5522847 0-1-.4477153-1-1v-6c0-.5522847.4477153-1 1-1s1 .4477153 1 1v6c0 .5522847-.4477153 1-1 1z"/><path id="Shape" d="m28 58c-.5522847 0-1-.4477153-1-1v-4c0-.5522847.4477153-1 1-1s1 .4477153 1 1v4c0 .5522847-.4477153 1-1 1z"/><path id="Shape" d="m14 59c-.5522847 0-1-.4477153-1-1v-5c0-.5522847.4477153-1 1-1s1 .4477153 1 1v5c0 .5522847-.4477153 1-1 1z"/><path id="Shape" d="m22 59c-.5522847 0-1-.4477153-1-1v-3c0-.5522847.4477153-1 1-1s1 .4477153 1 1v3c0 .5522847-.4477153 1-1 1z"/><path id="Shape" d="m34 59c-.5522847 0-1-.4477153-1-1v-5c0-.5522847.4477153-1 1-1s1 .4477153 1 1v5c0 .5522847-.4477153 1-1 1z"/><path id="Shape" d="m2 59c-.55228475 0-1-.4477153-1-1v-4c0-.5522847.44771525-1 1-1s1 .4477153 1 1v4c0 .5522847-.44771525 1-1 1z"/></g><path id="Shape" d="m35 5v51l-3-2-1 2-2-1-2 1-1-1-2 1-1-2-2 2v-31.83c.0715568-1.2437189-.632973-2.4022432-1.7701834-2.9108783-1.1372103-.508635-2.4704313-.2615266-3.3498166.6208783-.5627699.5620694-.8792998 1.3246186-.88 2.12v32l-2-2-1 2-2-1-1 1-2-1-2 1-1-2-3 2v-51z" fill="#3b97d3"/><path id="Shape" d="m21 17h-1c-1.6568542 0-3-1.3431458-3-3v-7c0-.55228475.4477153-1 1-1s1 .44771525 1 1v7c0 .5522847.4477153 1 1 1h1c.5522847 0 1 .4477153 1 1s-.4477153 1-1 1z" fill="#2980ba"/><path id="Shape" d="m7 12v1c0 3.3137085-2.6862915 6-6 6v-2c2.209139 0 4-1.790861 4-4v-1c0-.5522847.44771525-1 1-1s1 .4477153 1 1z" fill="#2980ba"/><path id="Shape" d="m35 17v2c-3.3137085 0-6-2.6862915-6-6v-1c0-.5522847.4477153-1 1-1s1 .4477153 1 1v1c0 2.209139 1.790861 4 4 4z" fill="#2980ba"/><path id="Shape" d="m9 37h-1.47l-1.43-2.15.62-1.85h.28c.55228475 0 1-.4477153 1-1s-.44771525-1-1-1c-1.44 0-.21-.09-6 .56v7.44h8c.55228475 0 1-.4477153 1-1s-.44771525-1-1-1z" fill="#9fc9d3"/><path id="Shape" d="m11 35h-1c-.55228475 0-1-.4477153-1-1s.44771525-1 1-1h1c.5522847 0 1 .4477153 1 1s-.4477153 1-1 1z" fill="#9fc9d3"/><path id="Shape" d="m29 31c-.5522847 0-1 .4477153-1 1s.4477153 1 1 1h.28l.62 1.85-1.43 2.15h-1.47c-.5522847 0-1 .4477153-1 1s.4477153 1 1 1h8v-7.44c-6-.67-4.64-.56-6-.56z" fill="#9fc9d3"/><path id="Shape" d="m26 35h-1c-.5522847 0-1-.4477153-1-1s.4477153-1 1-1h1c.5522847 0 1 .4477153 1 1s-.4477153 1-1 1z" fill="#9fc9d3"/><path id="Shape" d="m6 43h-1c-.55228475 0-1-.4477153-1-1s.44771525-1 1-1h1c.55228475 0 1 .4477153 1 1s-.44771525 1-1 1z" fill="#9fc9d3"/><path id="Shape" d="m31 43h-1c-.5522847 0-1-.4477153-1-1s.4477153-1 1-1h1c.5522847 0 1 .4477153 1 1s-.4477153 1-1 1z" fill="#9fc9d3"/><path id="Shape" d="m23 22h-10c-.5522847 0-1-.4477153-1-1s.4477153-1 1-1h10c.5522847 0 1 .4477153 1 1s-.4477153 1-1 1z" fill="#2980ba"/><path id="Rectangle-path" d="m1 5h34v4h-34z" fill="#2980ba"/><rect id="Rectangle-path" fill="#35495e" height="6" rx="1" width="36" y="1"/><path id="Shape" d="m6 10v-8.75c-.0589583-.61835771.38378212-1.17178324 1-1.25h2c.61621788.07821676 1.0589583.63164229 1 1.25v8.75z" fill="#3b97d3"/><path id="Shape" d="m26 10v-8.75c-.0589583-.61835771.3837821-1.17178324 1-1.25h2c.6162179.07821676 1.0589583.63164229 1 1.25v8.75z" fill="#3b97d3"/><rect id="Rectangle-path" fill="#f0c419" height="6" rx="2" width="6" x="15" y="1"/></g></svg>