<svg id="Capa_1" enable-background="new 0 0 512 512" height="512" viewBox="0 0 512 512" width="512" xmlns="http://www.w3.org/2000/svg"><g><path d="m147.513 39.469h216.973v-27.594c.001-6.558-5.316-11.875-11.874-11.875h-193.224c-6.558 0-11.875 5.317-11.875 11.875z" fill="#d6f6b2"/><path d="m338.446 0v39.469h26.04v-27.594c.001-6.558-5.316-11.875-11.874-11.875z" fill="#ccf49f"/><path d="m176.746 512h-39.052c-5.062 0-9.166-4.104-9.166-9.166v-33.893h57.384v33.893c-.001 5.062-4.104 9.166-9.166 9.166z" fill="#d6f6b2"/><path d="m335.254 512h39.052c5.062 0 9.166-4.104 9.166-9.166v-33.893h-57.384v33.893c.001 5.062 4.104 9.166 9.166 9.166z" fill="#d6f6b2"/><g><path d="m147.513 39.469c-31.577 114.451 4.881 186.433-19.954 407.344-.255 2.27-1.342 4.374-3.044 5.897-6.361 5.692-2.335 16.23 6.201 16.23h56.243c6.793 0 10.771-7.669 6.828-13.227-1.415-1.994-1.805-4.541-1.169-6.902l60.754-225.539c.723-2.684 4.531-2.684 5.254 0l60.754 225.539c.636 2.361.245 4.908-1.169 6.901-3.944 5.558.034 13.227 6.828 13.227h56.243c8.536 0 12.563-10.538 6.201-16.23-1.702-1.523-2.788-3.628-3.044-5.897-24.835-220.911 11.622-292.893-19.954-407.344h-216.972z" fill="#b3e59f"/></g><g><path d="m387.484 452.711c-1.702-1.523-2.788-3.628-3.044-5.897-24.835-220.911 11.622-292.893-19.954-407.344h-26.115c31.577 114.451-4.881 186.433 19.954 407.344.255 2.27 1.342 4.374 3.043 5.897 6.361 5.692 2.335 16.23-6.201 16.23h26.115c8.537 0 12.564-10.538 6.202-16.23z" fill="#95d6a4"/></g><path d="m248.273 39.469v181.791c0 4.268 3.459 7.726 7.726 7.726s7.726-3.459 7.726-7.726v-181.791z" fill="#95d6a4"/><g><g><path d="m232.047 97.465c-2.414 0-4.79-1.128-6.296-3.245-7.363-10.359-16.46-31.257-3.846-43.871 18.822-18.822 17.785-29.052 17.773-29.154.037.304.096.454.096.454l14.972-3.827c.732 2.865 3.117 18.424-21.912 43.454-5.001 5.001 1.698 18.578 5.522 24.004 2.456 3.483 1.632 8.302-1.847 10.764-1.358.959-2.918 1.421-4.462 1.421z" fill="#f9f6f9"/></g><g><path d="m279.944 97.47c-1.548 0-3.112-.465-4.47-1.43-3.478-2.473-4.293-7.296-1.821-10.775 3.816-5.412 10.515-18.99 5.514-23.992-25.029-25.029-22.645-40.588-21.912-43.453l14.972 3.827s.058-.15.096-.454c-.012.102-1.049 10.332 17.773 29.153 12.614 12.616 3.517 33.513-3.846 43.872-1.508 2.121-3.888 3.252-6.306 3.252z" fill="#f9f6f9"/></g></g><path d="m147.513 39.469c-8.077 29.278-11.697 55.777-13.036 82.7 27.332-22.921 49.415-53.88 62.281-82.7z" fill="#eab14d"/><path d="m315.241 39.469c12.866 28.82 34.949 59.779 62.281 82.7-1.339-26.924-4.958-53.423-13.036-82.7z" fill="#eab14d"/><path d="m377.522 122.169c-1.428-28.751-5.439-55.171-13.036-82.7h-26.115c5.186 18.797 8.528 36.447 10.617 53.801 8.62 10.415 18.2 20.233 28.534 28.899z" fill="#e49542"/><g><path d="m270.471 27.461h-28.943c-4.268 0-7.726-3.459-7.726-7.726s3.459-7.726 7.726-7.726h28.943c4.268 0 7.726 3.459 7.726 7.726s-3.458 7.726-7.726 7.726z" fill="#ccf49f"/></g></g></svg>