<?xml version="1.0" encoding="iso-8859-1"?>
<!-- Generator: Adobe Illustrator 19.0.0, SVG Export Plug-In . SVG Version: 6.00 Build 0)  -->
<svg version="1.1" id="Layer_1" xmlns="http://www.w3.org/2000/svg" xmlns:xlink="http://www.w3.org/1999/xlink" x="0px" y="0px"
	 viewBox="0 0 512.158 512.158" style="enable-background:new 0 0 512.158 512.158;" xml:space="preserve">
<g transform="translate(0 -1)">
	<path style="fill:#13A085;" d="M362.01,407.066c-6.082-26.721-29.908-180.083-8.828-238.345
		c22.546-62.314-0.009-114.997-8.828-132.414c-17.655,17.655-71.177,17.382-88.276,17.382c-17.108,0-70.621,0.274-88.276-17.382
		c-8.819,17.417-31.373,70.1-8.828,132.414c21.08,58.262-2.745,211.624-8.828,238.345c-6.762,29.705-17.655,88.276-17.655,88.276
		c25.106,19.588,75.591,27.586,105.931,0c0,0-8.828-132.414-8.828-167.724s26.483-141.135,26.483-167.724
		c0,26.589,26.483,132.414,26.483,167.724s-8.828,167.724-8.828,167.724c30.349,27.586,80.825,19.588,105.931,0
		C379.665,495.342,368.772,436.771,362.01,407.066"/>
	<g>
		<path style="fill:#0F7C67;" d="M326.7,1.274L256.079,1l-70.621,0.274c-11.864,20.966-17.655,35.037-17.655,35.037
			c17.655,17.655,71.168,17.373,88.276,17.373s70.621,0.282,88.276-17.373C344.355,36.31,338.564,22.239,326.7,1.274"/>
		<path style="fill:#0F7C67;" d="M256.079,168.721c-10.39,0-27.171-8.13-30.429-9.754c-4.361-2.189-6.135-7.486-3.955-11.847
			c2.18-4.352,7.495-6.118,11.847-3.955c6.382,3.187,17.955,7.901,22.537,7.901c4.599,0,16.163-4.714,22.537-7.901
			c4.361-2.163,9.649-0.415,11.847,3.955c2.18,4.361,0.406,9.657-3.955,11.847C283.25,160.591,266.469,168.721,256.079,168.721"/>
	</g>
</g>
<g>
</g>
<g>
</g>
<g>
</g>
<g>
</g>
<g>
</g>
<g>
</g>
<g>
</g>
<g>
</g>
<g>
</g>
<g>
</g>
<g>
</g>
<g>
</g>
<g>
</g>
<g>
</g>
<g>
</g>
</svg>
