<?xml version="1.0" encoding="iso-8859-1"?>
<!-- Generator: Adobe Illustrator 19.0.0, SVG Export Plug-In . SVG Version: 6.00 Build 0)  -->
<svg version="1.1" id="Layer_1" xmlns="http://www.w3.org/2000/svg" xmlns:xlink="http://www.w3.org/1999/xlink" x="0px" y="0px"
	 viewBox="0 0 512 512" style="enable-background:new 0 0 512 512;" xml:space="preserve">
<g transform="translate(0 -1)">
	<path style="fill:#B19046;" d="M326.621,45.138h-51.015c-4.846,5.376-11.794,8.828-19.606,8.828c-7.812,0-14.76-3.452-19.606-8.828
		h-51.015c0,0-26.483,35.31-26.483,88.276s17.655,141.241,17.655,185.379c0,0-8.828,165.199-8.828,194.207h70.621
		c0-88.276-8.828-220.69-8.828-264.828S256,177.437,256,133.414c0,44.023,26.483,70.621,26.483,114.759S273.655,424.724,273.655,513
		h70.621c0-29.007-8.828-194.207-8.828-194.207c0-44.138,17.655-132.414,17.655-185.379S326.621,45.138,326.621,45.138"/>
	<path style="fill:#937438;" d="M256,142.241c-10.999,0-22.246-3.725-31.638-10.487c-3.955-2.851-4.855-8.369-2.013-12.323
		c2.851-3.955,8.36-4.864,12.323-2.013c6.329,4.555,14.106,7.168,21.327,7.168c6.162,0,15.236-3.09,21.557-7.327
		c4.052-2.745,9.543-1.642,12.253,2.401c2.719,4.052,1.642,9.534-2.401,12.253C278.06,138.19,265.737,142.241,256,142.241"/>
	<path style="fill:#E4C05C;" d="M282.483,27.483C282.483,12.855,270.627,1,256,1c-14.627,0-26.483,11.855-26.483,26.483
		S241.373,53.966,256,53.966C270.627,53.966,282.483,42.11,282.483,27.483"/>
	<g>
		<path style="fill:#937438;" d="M229.517,27.483c0-6.815,2.648-12.959,6.877-17.655h-51.015v35.31h51.015
			C232.166,40.442,229.517,34.298,229.517,27.483"/>
		<path style="fill:#937438;" d="M275.61,9.828c4.228,4.696,6.877,10.84,6.877,17.655s-2.648,12.959-6.877,17.655h51.015V9.828
			H275.61z"/>
	</g>
</g>
<g>
</g>
<g>
</g>
<g>
</g>
<g>
</g>
<g>
</g>
<g>
</g>
<g>
</g>
<g>
</g>
<g>
</g>
<g>
</g>
<g>
</g>
<g>
</g>
<g>
</g>
<g>
</g>
<g>
</g>
</svg>
