<?xml version="1.0" encoding="iso-8859-1"?>
<!-- Generator: Adobe Illustrator 19.0.0, SVG Export Plug-In . SVG Version: 6.00 Build 0)  -->
<svg version="1.1" id="Layer_1" xmlns="http://www.w3.org/2000/svg" xmlns:xlink="http://www.w3.org/1999/xlink" x="0px" y="0px"
	 viewBox="0 0 511.019 511.019" style="enable-background:new 0 0 511.019 511.019;" xml:space="preserve">
<g transform="translate(0 -1)">
	<path style="fill:#E6E7E8;" d="M158.406,1c35.31,8.828,70.621,8.828,97.103,8.828v97.103v397.241c0,0-35.31,17.655-61.793,0
		c0,0-26.483-97.103-8.828-167.724c0,0-52.966-105.931-52.966-167.724S158.406,1,158.406,1"/>
	<path style="fill:#939FA5;" d="M194.653,7.306C182.806,6,170.616,4.049,158.407,1.004c0,0-12.544,50.185-20.365,101.623
		c20.03-16.719,55.676-68.979,55.676-92.796L194.653,7.306z"/>
	<path style="fill:#BDC3C7;" d="M352.613,1c-35.31,8.828-70.621,8.828-97.103,8.828v97.103v397.241c0,0,35.31,17.655,61.793,0
		c0,0,26.483-97.103,8.828-167.724c0,0,52.966-105.931,52.966-167.724S352.613,1,352.613,1"/>
	<g>
		<path style="fill:#939FA5;" d="M316.366,7.306C328.213,6,340.404,4.049,352.612,1.004c0,0,12.544,50.185,20.365,101.623
			c-20.03-16.719-55.676-68.979-55.676-92.796L316.366,7.306z"/>
		<path style="fill:#939FA5;" d="M220.199,80.448c0,19.5,15.81,35.31,35.31,35.31v-8.828V9.828c-10.54,0-22.528-0.026-35.31-0.583
			V80.448z"/>
	</g>
</g>
<g>
</g>
<g>
</g>
<g>
</g>
<g>
</g>
<g>
</g>
<g>
</g>
<g>
</g>
<g>
</g>
<g>
</g>
<g>
</g>
<g>
</g>
<g>
</g>
<g>
</g>
<g>
</g>
<g>
</g>
</svg>
