<?xml version="1.0" encoding="iso-8859-1"?>
<!-- Generator: Adobe Illustrator 19.0.0, SVG Export Plug-In . SVG Version: 6.00 Build 0)  -->
<svg version="1.1" id="Layer_1" xmlns="http://www.w3.org/2000/svg" xmlns:xlink="http://www.w3.org/1999/xlink" x="0px" y="0px"
	 viewBox="0 0 512 512" style="enable-background:new 0 0 512 512;" xml:space="preserve">
<g transform="translate(0 -1)">
	<path style="fill:#285680;" d="M326.621,36.31c0,0,26.483,35.31,26.483,88.276s-26.483,150.069-26.483,194.207v14.742
		c0,7.733-0.494,15.413-1.483,23.084c-4.255,32.812-16.172,127.373-16.172,156.381h-35.31c0-88.276,8.828-220.69,8.828-264.828
		S256,177.437,256,133.414c0,44.023-26.483,70.621-26.483,114.759s8.828,176.552,8.828,264.828h-35.31
		c0-29.007-11.917-123.569-16.172-156.381c-0.989-7.671-1.483-15.351-1.483-23.084v-14.742c0-44.138-26.483-141.241-26.483-194.207
		s26.483-88.276,26.483-88.276H326.621z"/>
	<g>
		<polygon style="fill:#4482C3;" points="256,1 185.379,1 185.379,36.31 256,36.31 326.621,36.31 326.621,1 		"/>
		<path style="fill:#4482C3;" d="M256,142.241c-11.008,0-22.246-3.725-31.638-10.487c-3.964-2.851-4.855-8.369-2.013-12.323
			c2.851-3.946,8.369-4.855,12.323-2.013c6.329,4.555,14.098,7.168,21.327,7.168c6.17,0,15.236-3.09,21.566-7.327
			c4.043-2.745,9.525-1.642,12.244,2.401c2.719,4.052,1.642,9.534-2.41,12.253C278.06,138.19,265.737,142.241,256,142.241"/>
	</g>
	<polygon style="fill:#6CA7DD;" points="229.517,36.312 282.483,36.312 282.483,1.002 229.517,1.002 	"/>
</g>
<g>
</g>
<g>
</g>
<g>
</g>
<g>
</g>
<g>
</g>
<g>
</g>
<g>
</g>
<g>
</g>
<g>
</g>
<g>
</g>
<g>
</g>
<g>
</g>
<g>
</g>
<g>
</g>
<g>
</g>
</svg>
