<?xml version="1.0" encoding="iso-8859-1"?>
<!-- Generator: Adobe Illustrator 19.0.0, SVG Export Plug-In . SVG Version: 6.00 Build 0)  -->
<svg version="1.1" id="Layer_1" xmlns="http://www.w3.org/2000/svg" xmlns:xlink="http://www.w3.org/1999/xlink" x="0px" y="0px"
	 viewBox="0 0 503.415 503.415" style="enable-background:new 0 0 503.415 503.415;" xml:space="preserve">
<g>
	<path style="fill:#95A5A5;" d="M312.364,0c-26.034,8.678-43.39,7.706-60.746,7.706S216.906,8.678,190.872,0l-17.356,34.712
		c17.356,8.678,78.102,7.706,78.102,7.706s60.746,0.972,78.102-7.706L312.364,0z"/>
	<path style="fill:#ECF0F1;" d="M156.25,68.452c1.354-12.748,17.356-33.74,17.356-33.74c17.356,8.678,78.102,7.706,78.102,7.706
		s60.746,0.972,78.102-7.706c0,0,16.002,20.992,17.356,33.74c1.354,12.748-13.017,143.889-17.356,175.069
		c-4.339,31.189-7.229,240.171-17.356,251.123c-13.286,14.371-60.746,8.678-60.746,0c0,8.678-47.46,14.371-60.746,0
		c-10.127-10.952-13.017-219.934-17.356-251.123C169.267,212.341,154.896,81.2,156.25,68.452"/>
	<g>
		<path style="fill:#BDC3C7;" d="M199.59,40.361c-10.787-1.154-20.532-2.924-25.982-5.649c0,0-16.002,20.992-17.356,33.74
			c-0.686,6.396,2.603,42.644,6.595,81.104C187.129,122.741,199.504,83.786,199.59,40.361"/>
		<path style="fill:#BDC3C7;" d="M303.776,40.365c0,43.659,12.375,82.501,36.786,109.308c3.992-38.495,7.281-74.813,6.604-81.217
			c-1.354-12.748-17.356-33.749-17.356-33.749C324.352,37.44,314.589,39.211,303.776,40.365"/>
		<path style="fill:#BDC3C7;" d="M251.709,42.418c0,0-3.428,0.052-8.765,0.017v452.209c0,2.057,0.816,3.862,2.005,5.346
			c4.113-1.484,6.76-3.324,6.76-5.346c0,1.996,2.586,3.818,6.621,5.294c1.163-1.484,1.97-3.263,1.97-5.294V42.435
			C255.067,42.47,251.709,42.418,251.709,42.418"/>
	</g>
</g>
<g>
</g>
<g>
</g>
<g>
</g>
<g>
</g>
<g>
</g>
<g>
</g>
<g>
</g>
<g>
</g>
<g>
</g>
<g>
</g>
<g>
</g>
<g>
</g>
<g>
</g>
<g>
</g>
<g>
</g>
</svg>
