<svg id="Capa_1" enable-background="new 0 0 512 512" height="512" viewBox="0 0 512 512" width="512" xmlns="http://www.w3.org/2000/svg"><g><path d="m379.061 499.919c.594 7.083-6.803 12.147-13.139 8.925-8.348-4.245-12.711-11.266-27.149-11.266-20.691 0-20.691 14.423-41.383 14.423s-20.692-14.423-41.385-14.423c-20.692 0-20.692 14.423-41.383 14.423-20.695 0-20.695-14.423-41.389-14.423-14.441 0-18.805 7.023-27.156 11.268-6.336 3.22-13.733-1.843-13.139-8.925 16.279-194.104-32.461-355.118-1.094-467.548h248.311c31.367 112.429-17.372 273.443-1.094 467.546z" fill="#eab14d"/><path d="m256.006 497.577c11.851 0 16.917 4.73 22.968 8.772v-473.977h-45.948v473.986c6.057-4.044 11.121-8.781 22.98-8.781z" fill="#ffe07d"/><g><g><path d="m256 82.74c-4.268 0-7.726-3.459-7.726-7.726v-3.55c0-4.268 3.459-7.726 7.726-7.726s7.726 3.459 7.726 7.726v3.55c0 4.267-3.459 7.726-7.726 7.726z" fill="#738b95"/></g><g><path d="m256 150.535c-4.268 0-7.726-3.459-7.726-7.726v-3.55c0-4.268 3.459-7.726 7.726-7.726s7.726 3.459 7.726 7.726v3.55c0 4.268-3.459 7.726-7.726 7.726z" fill="#738b95"/></g><g><path d="m256 218.33c-4.268 0-7.726-3.459-7.726-7.726v-3.55c0-4.268 3.459-7.726 7.726-7.726s7.726 3.459 7.726 7.726v3.55c0 4.267-3.459 7.726-7.726 7.726z" fill="#738b95"/></g><g><path d="m256 286.125c-4.268 0-7.726-3.459-7.726-7.726v-3.55c0-4.268 3.459-7.726 7.726-7.726s7.726 3.459 7.726 7.726v3.55c0 4.267-3.459 7.726-7.726 7.726z" fill="#738b95"/></g><g><path d="m256 353.921c-4.268 0-7.726-3.459-7.726-7.726v-3.55c0-4.268 3.459-7.726 7.726-7.726s7.726 3.459 7.726 7.726v3.55c0 4.267-3.459 7.726-7.726 7.726z" fill="#738b95"/></g><g><path d="m256 421.715c-4.268 0-7.726-3.459-7.726-7.726v-3.55c0-4.268 3.459-7.726 7.726-7.726s7.726 3.459 7.726 7.726v3.55c0 4.268-3.459 7.726-7.726 7.726z" fill="#738b95"/></g></g><g><g><g><path d="m174.345 51.626c-1.53 0-3.075-.454-4.424-1.397-3.496-2.448-4.346-7.265-1.899-10.761 3.842-5.488 2.45-10.906 2.388-11.135l.037.124 14.773-4.531c.391 1.276 3.588 12.796-4.538 24.403-1.503 2.147-3.901 3.297-6.337 3.297z" fill="#e49542"/></g><g><path d="m191.59 64.771c-1.221 0-2.46-.291-3.615-.903-3.77-2-5.203-6.677-3.203-10.447 7.594-14.311 3.26-23.212 3.071-23.584l.076.14 13.471-7.571c.423.752 2.557 4.836 3.147 11.533.523 5.948-.113 15.411-6.116 26.725-1.386 2.615-4.063 4.106-6.831 4.107z" fill="#e49542"/></g></g><g><g><path d="m337.656 51.626c-2.437 0-4.834-1.149-6.337-3.297-8.126-11.608-4.93-23.128-4.538-24.403l14.773 4.531.037-.124c-.061.228-1.454 5.647 2.388 11.135 2.447 3.496 1.597 8.313-1.899 10.761-1.349.943-2.895 1.397-4.424 1.397z" fill="#e49542"/></g><g><path d="m320.41 64.771c-2.769 0-5.445-1.492-6.832-4.107-6.003-11.314-6.639-20.778-6.116-26.725.59-6.697 2.724-10.782 3.147-11.533l13.471 7.571.076-.14c-.188.371-4.522 9.273 3.071 23.584 2 3.77.566 8.447-3.203 10.447-1.153.612-2.393.902-3.614.903z" fill="#e49542"/></g></g></g><path d="m380.156 32.372h-248.312v-25.073c0-4.031 3.268-7.299 7.299-7.299h233.714c4.031 0 7.299 3.268 7.299 7.299z" fill="#eab14d"/><path d="m380.156 32.372h-24.004-224.308c-.667 2.392-1.285 4.814-1.882 7.249h222.318c3.402 0 6.343 2.369 7.074 5.692 24.566 111.694-19.962 267.826-4.298 454.605.056.662.02 1.299-.056 1.92 3.77 2.245 6.879 4.95 10.921 7.005 6.336 3.222 13.733-1.842 13.139-8.925-16.277-194.102 32.462-355.116 1.096-467.546z" fill="#e49542"/><path d="m356.152 0v32.372h24.004v-25.073c0-4.031-3.268-7.299-7.299-7.299z" fill="#e49542"/><path d="m233.026 32.372h45.948v7.249h-45.948z" fill="#ffd064"/></g></svg>