<svg height="512" viewBox="0 0 54 58" width="512" xmlns="http://www.w3.org/2000/svg"><g id="071---Skirt" fill="none" transform="translate(-1)"><path id="Shape" d="m10 0h36c.5522847 0 1 .44771525 1 1v7h-38v-7c0-.55228475.44771525-1 1-1z" fill="#3d324c"/><path id="Shape" d="m55 24c0 10.84-8.16 29.83-9.74 33.41-.1610883.358359-.5171006.5891802-.91.59h-32.7c-.3928994-.0008198-.7489117-.231641-.91-.59-1.58-3.58-9.74-22.57-9.74-33.41-.14065352-6.8906993 2.79100179-13.4869237 8-18h38c5.2089982 4.5130763 8.1406535 11.1093007 8 18z" fill="#955ba5"/><g fill="#894b9d"><path id="Shape" d="m23 6c-.33 0-8.1.2-9 11.08-.0441828.5522847-.5277153.9641827-1.08.92-.5522847-.0441828-.9641828-.5277153-.92-1.08.5-6 2.92-9.19 5.36-10.92z"/><path id="Shape" d="m44 16.92c.0285813.3572656-.1356075.7026406-.4307179.9060255-.2951105.2033849-.6763084.2338807-1.0000001.08-.3236917-.1538808-.5407008-.4687599-.569282-.8260255-.91-10.95-8.67-11.08-9-11.08h5.64c2.44 1.73 4.86 4.94 5.36 10.92z"/><path id="Shape" d="m22.93 58h-5.2c-1.4586917-1.3025121-2.4230083-3.0686597-2.73-5l-2-12.84c-.0571625-.3572656.0806161-.7178884.3614359-.9460254.2808199-.228137.6620177-.2891286 1-.16.3379824.1291286.5814016.4287598.6385641.7860254l2 12.83c.3853519 2.9993138 2.906719 5.2655679 5.93 5.33z"/></g></g></svg>