<svg height="512" viewBox="0 0 36 58" width="512" xmlns="http://www.w3.org/2000/svg"><g id="076---Skirt" fill="none"><path id="Shape" d="m5 0h26c.5522847 0 1 .44771525 1 1v4h-28v-4c0-.55228475.44771525-1 1-1z" fill="#547580"/><path id="Shape" d="m35 55c-2.7469731 1.0621276-5.599963 1.8265009-8.51 2.28-5.6257888.9625819-11.3742112.9625819-17 0-2.90340498-.454141-5.7496976-1.2185164-8.49-2.28 3-4 4-10 4-10l13-4 13 4s1 6 4 10z" fill="#35495e"/><path id="Shape" d="m12 50.17c-.4520471 2.4845067-1.2887658 4.8833251-2.48 7.11-.71-.12-1.38-.24-2-.37 1.14994306-2.2340254 1.98455733-4.6167146 2.48-7.08.0938884-.5522847.6177153-.9238884 1.17-.83.5522847.0938885.9238884.6177153.83 1.17z" fill="#2c3e50"/><path id="Shape" d="m28.5 56.91c-.63.13-1.3.25-2 .37-1.1981798-2.2254941-2.0416642-4.6243638-2.5-7.11-.0607352-.3572656.0737421-.7197945.3527756-.9510255.2790336-.231231.6602314-.2960346 1.0000001-.17.3397687.1260347.5864892.4237599.6472243.7810255.4947763 2.4662263 1.336474 4.8499141 2.5 7.08z" fill="#2c3e50"/><path id="Shape" d="m32 4s0 2 2 6c2.625778 5.7127204 2.625778 12.2872796 0 18-3 6-3 15-3 17 0 0-9 1-13-2-4 3-13 2-13 2 0-2 0-11-3-17-2.62980752-5.711838-2.62980752-12.288162 0-18 2-4 2-6 2-6z" fill="#3f5c6c"/></g></svg>