<?xml version="1.0" encoding="iso-8859-1"?>
<!-- Generator: Adobe Illustrator 19.0.0, SVG Export Plug-In . SVG Version: 6.00 Build 0)  -->
<svg version="1.1" id="Layer_1" xmlns="http://www.w3.org/2000/svg" xmlns:xlink="http://www.w3.org/1999/xlink" x="0px" y="0px"
	 viewBox="0 0 512 512" style="enable-background:new 0 0 512 512;" xml:space="preserve">
<g transform="translate(-1 -1)">
	<polygon style="fill:#21313F;" points="195.207,71.621 151.069,71.621 168.724,36.31 345.276,36.31 362.931,71.621 	"/>
	<g>
		<path style="fill:#35495E;" d="M151.069,71.621c-32.044,71.062-45.727,116.559-26.483,220.69
			c19.518,105.604,35.31,194.207,35.31,194.207S195.207,513,257,513s97.103-26.483,97.103-26.483s15.793-88.602,35.31-194.207
			c19.244-104.13,5.561-149.628-26.483-220.69H151.069z"/>
		<polygon style="fill:#35495E;" points="345.276,36.31 168.724,36.31 159.897,1 354.103,1 		"/>
	</g>
	<path style="fill:#21313F;" d="M131.92,118.107c-4.555,12.782-8.271,25.344-10.955,38.329
		c69.756,37.367,189.793,76.288,273.805,100.555c-66.198,55.517-178.697,125.943-249.203,149.954
		c2.357,12.994,4.484,24.788,6.338,35.081c64.715-21.372,164.988-80.958,234.319-132.414c1.05-5.711,2.11-11.476,3.187-17.302
		c5.094-27.569,7.821-50.944,8.572-71.857C314.907,195.401,198.736,155.924,131.92,118.107"/>
</g>
<g>
</g>
<g>
</g>
<g>
</g>
<g>
</g>
<g>
</g>
<g>
</g>
<g>
</g>
<g>
</g>
<g>
</g>
<g>
</g>
<g>
</g>
<g>
</g>
<g>
</g>
<g>
</g>
<g>
</g>
</svg>
