<?xml version="1.0" encoding="iso-8859-1"?>
<!-- Generator: Adobe Illustrator 19.0.0, SVG Export Plug-In . SVG Version: 6.00 Build 0)  -->
<svg version="1.1" id="Layer_1" xmlns="http://www.w3.org/2000/svg" xmlns:xlink="http://www.w3.org/1999/xlink" x="0px" y="0px"
	 viewBox="0 0 511.998 511.998" style="enable-background:new 0 0 511.998 511.998;" xml:space="preserve">
<g transform="translate(0 -1)">
	<polygon style="fill:#95A5A5;" points="220.689,53.966 291.309,53.966 291.309,1 220.689,1 	"/>
	<g>
		<polygon style="fill:#BDC3C7;" points="167.723,45.138 220.689,45.138 220.689,9.828 167.723,9.828 		"/>
		<polygon style="fill:#BDC3C7;" points="291.309,45.138 344.275,45.138 344.275,9.828 291.309,9.828 		"/>
	</g>
	<path style="fill:#ECF0F1;" d="M344.275,45.136h-52.966v8.828h-26.483h-17.655h-26.483v-8.828h-52.966
		c-8.828,8.828-35.31,70.621-35.31,123.586s26.483,220.69,26.483,256v61.793c0,0,35.31,26.483,97.103,26.483
		s97.103-26.483,97.103-26.483v-61.793c0-35.31,26.483-203.035,26.483-256S353.103,53.964,344.275,45.136"/>
	<g>
		<path style="fill:#BDC3C7;" d="M316.9,503.625l-16.764-176.004l-17.487,183.623C295.802,509.54,307.26,506.759,316.9,503.625"/>
		<path style="fill:#BDC3C7;" d="M229.349,511.241l-17.487-183.623l-16.764,176.004
			C204.737,506.756,216.196,509.537,229.349,511.241"/>
	</g>
</g>
<g>
</g>
<g>
</g>
<g>
</g>
<g>
</g>
<g>
</g>
<g>
</g>
<g>
</g>
<g>
</g>
<g>
</g>
<g>
</g>
<g>
</g>
<g>
</g>
<g>
</g>
<g>
</g>
<g>
</g>
</svg>
