<?xml version="1.0" encoding="iso-8859-1"?>
<!-- Generator: Adobe Illustrator 19.0.0, SVG Export Plug-In . SVG Version: 6.00 Build 0)  -->
<svg version="1.1" id="Layer_1" xmlns="http://www.w3.org/2000/svg" xmlns:xlink="http://www.w3.org/1999/xlink" x="0px" y="0px"
	 viewBox="0 0 512 512" style="enable-background:new 0 0 512 512;" xml:space="preserve">
<g transform="translate(0 -1)">
	<path style="fill:#ECF0F1;" d="M361.931,36.31V1H256H150.069v35.31c0,0-26.483,79.448-26.483,123.586
		s26.483,335.448,26.483,335.448S211.862,513,256,513s105.931-17.655,105.931-17.655s26.483-291.31,26.483-335.448
		S361.931,36.31,361.931,36.31"/>
	<path style="fill:#BDC3C7;" d="M325.174,1h-69.173H150.07v35.31c0,0-16.914,50.794-23.693,93.722
		C181.964,111.115,278.758,71.268,325.174,1"/>
	<path style="fill:#A0A7AA;" d="M256,68.066c44.447,30.287,95.02,50.185,129.624,61.97c-6.78-42.929-23.693-93.722-23.693-93.722
		V1.003h-36.758C307.659,27.521,282.951,49.704,256,68.066"/>
</g>
<g>
</g>
<g>
</g>
<g>
</g>
<g>
</g>
<g>
</g>
<g>
</g>
<g>
</g>
<g>
</g>
<g>
</g>
<g>
</g>
<g>
</g>
<g>
</g>
<g>
</g>
<g>
</g>
<g>
</g>
</svg>
