<?xml version="1.0" encoding="iso-8859-1"?>
<!-- Generator: Adobe Illustrator 19.0.0, SVG Export Plug-In . SVG Version: 6.00 Build 0)  -->
<svg version="1.1" id="Layer_1" xmlns="http://www.w3.org/2000/svg" xmlns:xlink="http://www.w3.org/1999/xlink" x="0px" y="0px"
	 viewBox="0 0 511.998 511.998" style="enable-background:new 0 0 511.998 511.998;" xml:space="preserve">
<g transform="translate(0 -1)">
	<polygon style="fill:#937438;" points="150.068,468.86 353.103,512.998 238.344,415.895 	"/>
	<polygon style="fill:#E4C05C;" points="220.689,53.966 291.309,53.966 291.309,1 220.689,1 	"/>
	<g>
		<polygon style="fill:#937438;" points="167.723,45.138 220.689,45.138 220.689,9.828 167.723,9.828 		"/>
		<polygon style="fill:#937438;" points="291.309,45.138 344.275,45.138 344.275,9.828 291.309,9.828 		"/>
	</g>
	<path style="fill:#B19046;" d="M344.275,45.136h-52.966v8.828h-70.621v-8.828h-52.966c-8.828,8.828-35.31,70.621-35.31,123.586
		s17.655,264.828,17.655,300.138l88.276-52.966l114.759,97.103v-88.276c0-35.31,26.483-203.035,26.483-256
		S353.103,53.964,344.275,45.136"/>
</g>
<g>
</g>
<g>
</g>
<g>
</g>
<g>
</g>
<g>
</g>
<g>
</g>
<g>
</g>
<g>
</g>
<g>
</g>
<g>
</g>
<g>
</g>
<g>
</g>
<g>
</g>
<g>
</g>
<g>
</g>
</svg>
