<?xml version="1.0" encoding="iso-8859-1"?>
<!-- Generator: Adobe Illustrator 19.0.0, SVG Export Plug-In . SVG Version: 6.00 Build 0)  -->
<svg version="1.1" id="Layer_1" xmlns="http://www.w3.org/2000/svg" xmlns:xlink="http://www.w3.org/1999/xlink" x="0px" y="0px"
	 viewBox="0 0 512 512" style="enable-background:new 0 0 512 512;" xml:space="preserve">
<g transform="translate(-1 -1)">
	<path style="fill:#A09167;" d="M283.483,27.483C283.483,12.855,271.627,1,257,1c-14.627,0-26.483,11.855-26.483,26.483
		S242.373,53.966,257,53.966C271.627,53.966,283.483,42.11,283.483,27.483"/>
	<g>
		<path style="fill:#C6B683;" d="M283.483,27.483c0,6.815-2.648,12.959-6.877,17.655h86.325l-17.655-35.31h-68.67
			C280.834,14.524,283.483,20.668,283.483,27.483"/>
		<path style="fill:#C6B683;" d="M230.517,27.483c0-6.815,2.648-12.959,6.877-17.655h-68.67l-17.655,35.31h44.138h42.187
			C233.166,40.442,230.517,34.298,230.517,27.483"/>
	</g>
	<path style="fill:#F9EBB0;" d="M362.931,45.138h-86.325c-4.846,5.376-11.794,8.828-19.606,8.828c-7.812,0-14.76-3.452-19.606-8.828
		h-86.325c-32.044,71.062-45.727,116.559-26.483,220.69c19.518,105.604,35.31,220.69,35.31,220.69S195.207,513,257,513
		s97.103-26.483,97.103-26.483s15.793-115.085,35.31-220.69C408.658,161.697,394.975,116.2,362.931,45.138"/>
	<path style="fill:#C6B683;" d="M331.847,498.439l-30.711-179.641L276.26,512.069C299.962,509.879,318.694,504.027,331.847,498.439"
		/>
</g>
<g>
</g>
<g>
</g>
<g>
</g>
<g>
</g>
<g>
</g>
<g>
</g>
<g>
</g>
<g>
</g>
<g>
</g>
<g>
</g>
<g>
</g>
<g>
</g>
<g>
</g>
<g>
</g>
<g>
</g>
</svg>
