<?xml version="1.0" encoding="iso-8859-1"?>
<!-- Generator: Adobe Illustrator 19.0.0, SVG Export Plug-In . SVG Version: 6.00 Build 0)  -->
<svg version="1.1" id="Layer_1" xmlns="http://www.w3.org/2000/svg" xmlns:xlink="http://www.w3.org/1999/xlink" x="0px" y="0px"
	 viewBox="0 0 512 512" style="enable-background:new 0 0 512 512;" xml:space="preserve">
<g transform="translate(0 -1)">
	<path style="fill:#39435B;" d="M264.828,71.621h-17.655c-19.5,0-35.31-15.81-35.31-35.31S227.672,1,247.172,1h17.655
		c19.5,0,35.31,15.81,35.31,35.31S284.328,71.621,264.828,71.621"/>
	<g>
		<path style="fill:#556080;" d="M211.862,36.31c0-10.611,4.776-20.012,12.182-26.483h-73.975c-4.873,0-8.828,3.955-8.828,8.828
			v44.138h82.803C216.638,56.322,211.862,46.921,211.862,36.31"/>
		<path style="fill:#556080;" d="M361.931,9.828h-73.975c7.406,6.471,12.182,15.872,12.182,26.483s-4.776,20.012-12.182,26.483
			h82.803V18.655C370.759,13.782,366.804,9.828,361.931,9.828"/>
	</g>
	<path style="fill:#8697CB;" d="M414.897,239.345c-8.828-79.448-35.31-158.897-44.138-176.552h-82.803
		c-6.206,5.429-14.23,8.828-23.128,8.828h-17.655c-8.898,0-16.922-3.399-23.128-8.828h-82.803
		c-8.828,17.655-35.31,97.103-44.138,176.552c-6.868,61.793,17.329,189.537,26.483,247.172c0,0,48.154,26.483,132.414,26.483
		s132.414-26.483,132.414-26.483C397.568,428.882,421.764,301.138,414.897,239.345"/>
	<path style="fill:#556080;" d="M359.218,498.081l-32.6-179.288l-26.13,191.629C324.976,507.545,344.67,502.681,359.218,498.081"/>
</g>
<g>
</g>
<g>
</g>
<g>
</g>
<g>
</g>
<g>
</g>
<g>
</g>
<g>
</g>
<g>
</g>
<g>
</g>
<g>
</g>
<g>
</g>
<g>
</g>
<g>
</g>
<g>
</g>
<g>
</g>
</svg>
