<?xml version="1.0" encoding="iso-8859-1"?>
<!-- Generator: Adobe Illustrator 19.0.0, SVG Export Plug-In . SVG Version: 6.00 Build 0)  -->
<svg version="1.1" id="Layer_1" xmlns="http://www.w3.org/2000/svg" xmlns:xlink="http://www.w3.org/1999/xlink" x="0px" y="0px"
	 viewBox="0 0 512.001 512.001" style="enable-background:new 0 0 512.001 512.001;" xml:space="preserve">
<g transform="translate(-1 -1)">
	<polygon style="fill:#667E91;" points="195.207,36.31 318.794,36.31 318.794,1 195.207,1 	"/>
	<path style="fill:#2C3E50;" d="M477.01,435.371C450.351,317.62,318.794,36.311,318.794,36.311H195.207
		c0,0-131.558,281.309-158.217,399.06c-3.893,17.196,8.218,32.283,25.803,33.492c16.084,1.103,39.609,26.483,76.818,26.483
		c16.508,0,32.636,3.01,48.384,7.715c22.378,6.691,45.647,9.94,69.005,9.94s46.627-3.249,69.005-9.94
		c15.748-4.705,31.876-7.715,48.384-7.715c37.208,0,60.734-25.379,76.818-26.483C468.792,467.654,480.903,452.567,477.01,435.371"/>
	<polygon style="fill:#4B6275;" points="230.518,36.31 283.483,36.31 283.483,1 230.518,1 	"/>
	<g>
		<path style="fill:#1E2C38;" d="M361.363,251.973c-2.781-4.008-8.271-5.005-12.288-2.233c-4.008,2.781-5.005,8.28-2.233,12.288
			c12.844,18.538,64.026,180.568,69.332,219.454c0.141,1.024,0.486,1.969,0.936,2.842c5.87-2.887,11.202-5.897,16.04-8.501
			C425.734,431.676,376.617,274.006,361.363,251.973"/>
		<path style="fill:#1E2C38;" d="M301.919,489.697c1.633-45.427,5.014-139.97-9.869-199.53c-1.183-4.732-5.994-7.609-10.708-6.418
			c-4.732,1.183-7.601,5.976-6.426,10.699c14.292,57.132,10.964,149.998,9.357,194.622c-0.344,9.587-0.6,16.984-0.6,21.38
			c0,0.327,0.15,0.618,0.185,0.936c5.862-0.636,11.688-1.492,17.487-2.56C301.389,504.474,301.619,497.995,301.919,489.697"/>
		<path style="fill:#1E2C38;" d="M220.716,283.533c-4.846,0.547-8.333,4.908-7.795,9.746c6.497,58.536-1.298,135.601-5.959,181.645
			c-1.501,14.83-2.578,25.644-2.842,32.3c5.729,1.271,11.502,2.339,17.302,3.187c0.062-0.406,0.256-0.768,0.265-1.192
			c0.132-5.756,1.324-17.567,2.842-32.512c4.732-46.742,12.641-124.972,5.932-185.37
			C229.923,286.482,225.509,283.021,220.716,283.533"/>
		<path style="fill:#1E2C38;" d="M145.893,266.619c-4.414-2.022-9.666-0.062-11.688,4.378
			C87.101,374.625,81.125,454.7,80.375,475.568c4.952,2.648,10.425,5.764,16.463,8.731c0.627-1.201,1.059-2.507,1.068-3.946
			c0.062-9.031,2.039-91.33,52.374-202.046C152.293,273.867,150.333,268.641,145.893,266.619"/>
	</g>
</g>
<g>
</g>
<g>
</g>
<g>
</g>
<g>
</g>
<g>
</g>
<g>
</g>
<g>
</g>
<g>
</g>
<g>
</g>
<g>
</g>
<g>
</g>
<g>
</g>
<g>
</g>
<g>
</g>
<g>
</g>
</svg>
