<?xml version="1.0" encoding="iso-8859-1"?>
<!-- Generator: Adobe Illustrator 19.0.0, SVG Export Plug-In . SVG Version: 6.00 Build 0)  -->
<svg version="1.1" id="Layer_1" xmlns="http://www.w3.org/2000/svg" xmlns:xlink="http://www.w3.org/1999/xlink" x="0px" y="0px"
	 viewBox="0 0 512.003 512.003" style="enable-background:new 0 0 512.003 512.003;" xml:space="preserve">
<g transform="translate(0 -1)">
	<path style="fill:#B19046;" d="M72.176,238.809c7.45-79.298,36.193-118.087,50.538-139.396c0.565-0.839,1.483-1.306,2.498-1.306
		h106.611c0.68,0,1.324,0.247,1.845,0.68c6.091,5.032,13.815,8.148,22.334,8.148c8.519,0,16.243-3.116,22.334-8.148
		c0.521-0.433,1.165-0.68,1.845-0.68h106.611c1.015,0,1.933,0.468,2.498,1.306c14.345,21.31,43.087,60.098,50.538,139.396
		c3.354,35.69,0.989,71.618-5.685,106.831c-4.396,23.234-10.187,55.967-19.244,96.742l-8.466,50.812
		c-0.221,1.289-1.165,2.286-2.454,2.498c-15.069,2.463-107.502,17.311-147.977,17.311s-132.908-14.848-147.977-17.311
		c-1.289-0.212-2.233-1.209-2.454-2.498l-8.466-50.812c-9.057-40.775-14.848-73.507-19.244-96.742
		C71.187,310.427,68.821,274.499,72.176,238.809"/>
	<g>
		<path style="fill:#937438;" d="M158.897,98.103h-35.31c-11.555,17.337-33.818,46.76-45.55,101.914
			C136.846,185.179,158.897,177.552,158.897,98.103"/>
		<path style="fill:#937438;" d="M353.104,98.103h35.31c11.555,17.337,33.818,46.76,45.55,101.923
			C375.155,185.179,353.104,177.552,353.104,98.103"/>
		<path style="fill:#937438;" d="M256,106.931L256,106.931c-19.5,0-35.31-15.81-35.31-35.31V36.31C220.69,16.81,236.5,1,256,1
			c19.5,0,35.31,15.81,35.31,35.31v35.31C291.311,91.121,275.501,106.931,256,106.931"/>
	</g>
	<g>
		<path style="fill:#705628;" d="M220.69,71.621V36.31c0-10.611,4.776-20.012,12.182-26.483H123.587v88.276h109.286
			C225.466,91.633,220.69,82.231,220.69,71.621"/>
		<path style="fill:#705628;" d="M279.133,9.828c7.406,6.471,12.182,15.872,12.182,26.483v35.31
			c0,10.611-4.776,20.012-12.182,26.483h109.285V9.828H279.133z"/>
	</g>
	<path style="fill:#B19046;" d="M256,80.448c-4.873,0-8.828-3.946-8.828-8.828V36.31c0-4.882,3.955-8.828,8.828-8.828
		c4.873,0,8.828,3.946,8.828,8.828v35.31C264.828,76.502,260.873,80.448,256,80.448"/>
</g>
<g>
</g>
<g>
</g>
<g>
</g>
<g>
</g>
<g>
</g>
<g>
</g>
<g>
</g>
<g>
</g>
<g>
</g>
<g>
</g>
<g>
</g>
<g>
</g>
<g>
</g>
<g>
</g>
<g>
</g>
</svg>
