<?xml version="1.0" encoding="iso-8859-1"?>
<!-- Generator: Adobe Illustrator 19.0.0, SVG Export Plug-In . SVG Version: 6.00 Build 0)  -->
<svg version="1.1" id="Layer_1" xmlns="http://www.w3.org/2000/svg" xmlns:xlink="http://www.w3.org/1999/xlink" x="0px" y="0px"
	 viewBox="0 0 512 512" style="enable-background:new 0 0 512 512;" xml:space="preserve">
<g transform="translate(0 -1)">
	<path style="fill:#E57E25;" d="M264.862,53.966h-17.726c-9.728,0-17.62-7.892-17.62-17.62V18.62c0-9.728,7.892-17.62,17.62-17.62
		h17.726c9.728,0,17.62,7.892,17.62,17.62v17.726C282.482,46.074,274.59,53.966,264.862,53.966"/>
	<g>
		<path style="fill:#F0C419;" d="M229.517,36.345V18.619c0-3.222,0.927-6.197,2.436-8.792h-99.54v35.31h99.54
			C230.444,42.542,229.517,39.567,229.517,36.345"/>
		<path style="fill:#F0C419;" d="M280.048,9.828c1.51,2.595,2.436,5.57,2.436,8.792v17.726c0,3.222-0.927,6.197-2.436,8.792h99.54
			V9.828H280.048z"/>
	</g>
	<path style="fill:#4482C3;" d="M423.724,327.621c-26.483-79.448-17.655-256-44.138-282.483h-99.54
		c-3.046,5.252-8.669,8.828-15.183,8.828h-17.726c-6.471,0-12.067-3.522-15.13-8.722h-99.593
		c-26.483,26.483-17.655,203.034-44.138,282.483c0,0-44.138,123.586-61.793,141.241c0,0,132.414,44.032,229.517,44.032v-0.106
		c97.103,0,229.517-44.032,229.517-44.032C467.862,451.207,423.724,327.621,423.724,327.621"/>
	<g>
		<path style="fill:#285680;" d="M26.483,468.862c0,0,58.659,19.491,126.517,32.538c63.47-227.505,22.925-386.251-20.586-456.263
			c-26.483,26.483-17.655,203.034-44.138,282.483C88.276,327.621,44.138,451.207,26.483,468.862"/>
		<path style="fill:#285680;" d="M485.517,468.862c0,0-58.659,19.491-126.517,32.538c-63.47-227.505-22.925-386.251,20.586-456.263
			c26.483,26.483,17.655,203.034,44.138,282.483C423.724,327.621,467.862,451.207,485.517,468.862"/>
	</g>
</g>
<g>
</g>
<g>
</g>
<g>
</g>
<g>
</g>
<g>
</g>
<g>
</g>
<g>
</g>
<g>
</g>
<g>
</g>
<g>
</g>
<g>
</g>
<g>
</g>
<g>
</g>
<g>
</g>
<g>
</g>
</svg>
