<?xml version="1.0" encoding="iso-8859-1"?>
<!-- Generator: Adobe Illustrator 19.0.0, SVG Export Plug-In . SVG Version: 6.00 Build 0)  -->
<svg version="1.1" id="Layer_1" xmlns="http://www.w3.org/2000/svg" xmlns:xlink="http://www.w3.org/1999/xlink" x="0px" y="0px"
	 viewBox="0 0 512 512" style="enable-background:new 0 0 512 512;" xml:space="preserve">
<g transform="translate(0 -1)">
	<g>
		<path style="fill:#805333;" d="M512,442.379c-26.483-44.138-97.103-132.414-97.103-238.345S370.759,45.138,370.759,45.138h-35.31
			c0,40.633,9.145,356.529,26.483,442.306C463.272,472.684,512,442.379,512,442.379"/>
		<path style="fill:#805333;" d="M176.552,45.138h-35.31c0,0-44.138,52.966-44.138,158.897S26.483,398.241,0,442.379
			c0,0,48.728,30.305,150.069,45.065C167.406,401.666,176.552,85.771,176.552,45.138"/>
	</g>
	<path style="fill:#231208;" d="M264.862,53.966h-17.726c-9.728,0-17.62-7.892-17.62-17.62V18.62c0-9.728,7.892-17.62,17.62-17.62
		h17.726c9.728,0,17.62,7.892,17.62,17.62v17.726C282.482,46.074,274.59,53.966,264.862,53.966"/>
	<g>
		<path style="fill:#3A2113;" d="M229.517,36.345V18.619c0-3.222,0.927-6.197,2.436-8.792h-90.712v35.31h90.712
			C230.444,42.542,229.517,39.567,229.517,36.345"/>
		<path style="fill:#3A2113;" d="M280.048,9.828c1.51,2.595,2.436,5.57,2.436,8.792v17.726c0,3.222-0.927,6.197-2.436,8.792h90.712
			V9.828H280.048z"/>
	</g>
	<path style="fill:#5B3821;" d="M335.448,45.138h-55.402c-3.046,5.252-8.669,8.828-15.183,8.828h-17.726
		c-6.515,0-12.138-3.575-15.183-8.828h-55.402c0,44.138-26.483,414.897-44.138,459.034c0,0,97.103,8.828,123.586,8.828
		s123.586-8.828,123.586-8.828C361.931,460.034,335.448,89.276,335.448,45.138"/>
	<g>
		<path style="fill:#805333;" d="M308.966,468.862c0-4.882-3.946-8.828-8.828-8.828c-4.882,0-8.828,3.946-8.828,8.828v41.825
			c0,0.221,0.106,0.397,0.124,0.609c5.641-0.38,11.555-0.812,17.532-1.254V468.862z"/>
		<path style="fill:#805333;" d="M220.568,511.294c0.018-0.212,0.124-0.388,0.124-0.6v-41.834c0-4.873-3.946-8.828-8.828-8.828
			c-4.882,0-8.828,3.955-8.828,8.828v41.181C209.004,510.49,214.918,510.914,220.568,511.294"/>
	</g>
</g>
<g>
</g>
<g>
</g>
<g>
</g>
<g>
</g>
<g>
</g>
<g>
</g>
<g>
</g>
<g>
</g>
<g>
</g>
<g>
</g>
<g>
</g>
<g>
</g>
<g>
</g>
<g>
</g>
<g>
</g>
</svg>
