<svg id="Layer_1" height="512" viewBox="0 0 128 128" width="512" xmlns="http://www.w3.org/2000/svg" data-name="Layer 1"><path d="m128 83.61a17.118 17.118 0 0 0 -13.25-16.47 14.354 14.354 0 0 0 -3.93-6.7 17.808 17.808 0 0 0 1.37-6.87 18.253 18.253 0 0 0 -18.23-18.23c-.22 0-.44.01-.66.02a13.277 13.277 0 0 0 -24.55.77 13.268 13.268 0 0 0 -3.77-.54c-4.51 0-9.53 3.49-12.35 7.03a14.473 14.473 0 0 0 -4.52.66 14.614 14.614 0 0 0 -27.13-.92c-.29-.01-.57-.02-.86-.02a20.125 20.125 0 0 0 0 40.25h41.75c-.02.34-.04.68-.04 1.02a16.894 16.894 0 0 0 16.87 16.88h32.42a17.052 17.052 0 0 0 16.88-16.88zm-63.02-44.52a9.653 9.653 0 0 1 4.17.94 1.727 1.727 0 0 0 1.52-.02 1.753 1.753 0 0 0 .94-1.21 9.782 9.782 0 0 1 18.87-1.06 1.749 1.749 0 0 0 1.85 1.2 13.44 13.44 0 0 1 1.63-.1 14.749 14.749 0 0 1 14.73 14.73 14.274 14.274 0 0 1 -.78 4.68 14.637 14.637 0 0 0 -19.52 5.03 11.715 11.715 0 0 0 -2.96-.76 16.724 16.724 0 0 0 -20.3-12.52 14.7 14.7 0 0 0 -8.37-6.73c2.33-2.27 5.56-4.18 8.22-4.18zm-44.86 40a16.625 16.625 0 0 1 0-33.25 17.1 17.1 0 0 1 1.84.11 1.742 1.742 0 0 0 1.85-1.19 11.117 11.117 0 0 1 21.44 1.2 1.735 1.735 0 0 0 2.45 1.22 11.113 11.113 0 0 1 12.67 2.28 10.8 10.8 0 0 1 1.35 1.68 12.856 12.856 0 0 0 1.29 2.22 1.782 1.782 0 0 0 1.16.5 14.284 14.284 0 0 0 2.82-.68 12.89 12.89 0 0 1 3.04-.19 13.079 13.079 0 0 1 11.82 9.69 11.521 11.521 0 0 0 -6.99 4.5 17.076 17.076 0 0 0 -12.42 11.91zm91 17.9h-32.42a13.39 13.39 0 0 1 -13.37-13.38 13.677 13.677 0 0 1 2.62-7.94 13.521 13.521 0 0 1 4.39-3.81 13.11 13.11 0 0 1 3.89-1.39c.85-.16 1.16-.86 1.64-1.47a8.214 8.214 0 0 1 2-1.81 8.821 8.821 0 0 1 4.42-1.24 7.109 7.109 0 0 1 3.2.76c.71.33 1.34.81 2.16.56a1.755 1.755 0 0 0 1.08-.95 11.051 11.051 0 0 1 9.21-6.44 11.765 11.765 0 0 1 7.76 2.45 10.971 10.971 0 0 1 3.87 6.63 1.752 1.752 0 0 0 1.47 1.43 13.368 13.368 0 0 1 -1.92 26.6z"/></svg>