<svg id="Capa_1" enable-background="new 0 0 512 512" height="512" viewBox="0 0 512 512" width="512" xmlns="http://www.w3.org/2000/svg"><g><path d="m95.648 461.173h-24.475c-5.181 0-9.38-4.2-9.38-9.38v-38.247h43.235v38.247c0 5.181-4.2 9.38-9.38 9.38z" fill="#d0e2e7"/><path d="m416.352 461.173h24.474c5.181 0 9.38-4.2 9.38-9.38v-38.247h-43.235v38.247c0 5.181 4.2 9.38 9.381 9.38z" fill="#d0e2e7"/><path d="m402.699 136.925c-13.106-28.73-39.53-49.161-70.595-54.837l-31.274-5.714h-44.83-44.831l-31.274 5.714c-31.064 5.676-57.488 26.106-70.595 54.837-40.725 89.273-48.998 198.271-51.867 288.079-.115 3.585 2.766 6.55 6.353 6.55h40.17c2.996 0 5.585-2.092 6.214-5.021l32.209-149.929v217.375c0 9.953 8.068 18.021 18.021 18.021h191.199c9.953 0 18.021-8.068 18.021-18.021v-217.375l32.21 149.929c.629 2.929 3.218 5.021 6.214 5.021h40.17c3.587 0 6.467-2.965 6.353-6.55-2.87-89.808-11.143-198.806-51.868-288.079z" fill="#86a0af"/><g><g><path d="m114.988 212.28c-18.194 0-29.38-7.081-30.066-7.528-3.576-2.328-4.588-7.115-2.26-10.69 2.318-3.561 7.071-4.579 10.643-2.291.879.548 19.124 11.52 47.415-.597 3.925-1.681 8.465.139 10.145 4.06 1.68 3.923-.138 8.465-4.06 10.145-12.045 5.159-22.793 6.901-31.817 6.901z" fill="#738b95"/></g><g><path d="m105.48 287.263c-21.555 0-34.731-6.741-35.542-7.168-3.776-1.987-5.226-6.659-3.238-10.436 1.981-3.763 6.63-5.219 10.4-3.258 1.068.545 24.796 12.259 61.485-.445 4.034-1.397 8.434.741 9.829 4.773 1.396 4.032-.74 8.434-4.773 9.829-14.485 5.016-27.373 6.705-38.161 6.705z" fill="#738b95"/></g><g><path d="m93.141 362.243c-20.299 0-32.732-6.848-33.496-7.281-3.713-2.103-5.018-6.818-2.914-10.53 2.096-3.699 6.787-5.006 10.492-2.937 1.015.555 22.724 12.021 56.311-.496 4-1.488 8.449.544 9.939 4.542 1.49 3.999-.544 8.448-4.542 9.939-13.574 5.058-25.661 6.763-35.79 6.763z" fill="#738b95"/></g></g><g><path d="m402.699 136.925c-13.106-28.73-39.53-49.161-70.595-54.837l-31.274-5.714h-44.83l44.83 4.348 10.949 7.27c31.065 5.675 57.488 26.106 70.595 54.837 40.725 89.273 48.998 198.271 51.867 288.079.007.218.002.433-.013.646h13.985c3.586 0 6.467-2.965 6.353-6.55-2.869-89.808-11.142-198.806-51.867-288.079z" fill="#738b95"/></g><g><path d="m142.388 284.331c-.197 0-.395-.007-.595-.022-4.255-.325-7.442-4.036-7.118-8.291.079-1.036 7.692-104.356-8.802-169.545-1.047-4.137 1.458-8.339 5.595-9.385 4.133-1.045 8.339 1.458 9.385 5.595 7.207 28.483 10.949 66.53 11.122 113.085.128 34.514-1.871 61.16-1.891 61.426-.309 4.052-3.695 7.137-7.696 7.137z" fill="#738b95"/></g><g><path d="m369.612 284.331c-4.001 0-7.387-3.083-7.696-7.139-.02-.266-2.019-26.911-1.891-61.426.173-46.554 3.914-84.602 11.122-113.085 1.046-4.138 5.254-6.644 9.385-5.595 4.137 1.046 6.642 5.248 5.595 9.385-16.494 65.189-8.881 168.509-8.802 169.545.324 4.255-2.863 7.966-7.118 8.291-.199.016-.399.024-.595.024z" fill="#738b95"/></g><g><path d="m397.012 212.28c-9.024 0-19.77-1.741-31.817-6.9-3.923-1.68-5.74-6.222-4.06-10.145 1.681-3.922 6.218-5.74 10.145-4.06 28.816 12.344 47.184.746 47.367.628 3.574-2.326 8.362-1.316 10.69 2.26s1.317 8.362-2.26 10.69c-.686.446-11.874 7.527-30.065 7.527z" fill="#738b95"/></g><g><path d="m406.52 287.263c-10.789 0-23.673-1.688-38.161-6.704-4.032-1.395-6.169-5.797-4.773-9.829 1.395-4.03 5.796-6.166 9.829-4.773 36.751 12.724 60.498.951 61.49.443 3.786-1.937 8.44-.46 10.396 3.312s.52 8.404-3.239 10.383c-.811.427-13.991 7.168-35.542 7.168z" fill="#738b95"/></g><g><path d="m418.859 362.243c-10.13 0-22.213-1.704-35.789-6.763-3.998-1.491-6.032-5.94-4.542-9.939 1.49-3.998 5.939-6.029 9.939-4.542 34.099 12.708 56.054.642 56.273.518 3.71-2.104 8.428-.799 10.53 2.914 2.104 3.712.799 8.428-2.914 10.53-.765.434-13.202 7.282-33.497 7.282z" fill="#738b95"/></g><g><g><path d="m193.397 159.433c-16.912 0-34.66-1.933-53.484-5.798-4.18-.858-6.872-4.943-6.014-9.123.858-4.179 4.94-6.872 9.123-6.014 35.442 7.277 66.635 7.303 95.364.075 4.142-1.041 8.337 1.47 9.378 5.608 1.041 4.139-1.47 8.337-5.608 9.378-15.565 3.916-31.739 5.874-48.759 5.874z" fill="#738b95"/></g><g><path d="m192.906 226.858c-15.435 0-31.565-1.594-48.589-4.779-4.194-.785-6.958-4.821-6.173-9.016.785-4.194 4.821-6.951 9.016-6.173 33.741 6.314 63.582 6.003 91.225-.953 4.142-1.04 8.337 1.47 9.378 5.608 1.041 4.139-1.47 8.337-5.608 9.378-15.729 3.958-32.058 5.935-49.249 5.935z" fill="#738b95"/></g><g><path d="m193.957 294.178c-16.613 0-34.066-1.939-52.946-5.816-4.18-.858-6.872-4.943-6.014-9.123.858-4.179 4.948-6.866 9.123-6.014 35.521 7.296 65.476 7.32 94.266.075 4.137-1.037 8.337 1.47 9.378 5.608 1.041 4.139-1.47 8.337-5.608 9.378-15.612 3.928-31.479 5.892-48.199 5.892z" fill="#738b95"/></g><g><path d="m192.896 361.585c-15.963 0-32.663-1.703-50.319-5.111-4.19-.809-6.932-4.86-6.123-9.05.809-4.188 4.859-6.934 9.05-6.123 34.403 6.64 64.786 6.433 92.881-.638 4.137-1.039 8.337 1.47 9.378 5.608 1.041 4.139-1.47 8.337-5.608 9.378-15.729 3.958-32.066 5.936-49.259 5.936z" fill="#738b95"/></g><g><path d="m192.898 428.948c-15.964 0-32.666-1.704-50.322-5.111-4.19-.809-6.932-4.86-6.123-9.05.81-4.188 4.86-6.934 9.05-6.123 34.407 6.64 64.789 6.432 92.882-.637 4.142-1.044 8.337 1.469 9.378 5.608s-1.47 8.337-5.608 9.378c-15.729 3.957-32.064 5.935-49.257 5.935z" fill="#738b95"/></g><g><path d="m318.602 159.433c-17.022 0-33.192-1.958-48.76-5.873-4.138-1.041-6.649-5.239-5.608-9.378s5.246-6.648 9.378-5.608c28.727 7.227 59.923 7.203 95.364-.075 4.18-.858 8.266 1.834 9.123 6.014.858 4.18-1.834 8.265-6.014 9.123-18.821 3.865-36.572 5.797-53.483 5.797z" fill="#738b95"/></g><g><path d="m319.094 226.858c-17.194 0-33.518-1.977-49.251-5.935-4.138-1.041-6.649-5.239-5.608-9.378s5.246-6.644 9.378-5.608c27.644 6.955 57.487 7.268 91.225.953 4.195-.779 8.231 1.978 9.016 6.173s-1.979 8.231-6.173 9.016c-17.02 3.185-33.154 4.779-48.587 4.779z" fill="#738b95"/></g><g><path d="m317.482 294.194c-16.42 0-31.985-1.969-47.64-5.907-4.138-1.041-6.649-5.239-5.608-9.378 1.041-4.138 5.246-6.646 9.378-5.608 28.842 7.258 57.575 7.233 93.168-.075 4.179-.852 8.266 1.834 9.123 6.014.858 4.18-1.834 8.265-6.014 9.123-18.929 3.886-36.09 5.831-52.407 5.831z" fill="#738b95"/></g><g><path d="m319.104 361.585c-17.196 0-33.529-1.978-49.262-5.936-4.138-1.041-6.649-5.239-5.608-9.378 1.041-4.138 5.246-6.648 9.378-5.608 28.097 7.068 58.48 7.276 92.882.638 4.193-.813 8.242 1.933 9.05 6.123.809 4.19-1.933 8.241-6.123 9.05-17.652 3.407-34.356 5.111-50.317 5.111z" fill="#738b95"/></g><g><path d="m319.102 428.948c-17.195 0-33.527-1.977-49.26-5.935-4.138-1.041-6.649-5.239-5.608-9.378s5.246-6.645 9.378-5.608c28.095 7.067 58.477 7.276 92.882.637 4.193-.812 8.242 1.933 9.05 6.123.809 4.19-1.933 8.241-6.123 9.05-17.651 3.407-34.357 5.111-50.319 5.111z" fill="#738b95"/></g></g><g><g><path d="m187.995 188.52c-.665 0-1.339-.087-2.012-.268-4.121-1.108-6.562-5.347-5.454-9.468 3.192-11.904 6.424-32.533 3.215-38.994-7.272-14.643-1.081-32.901-.352-34.936 1.441-4.015 5.866-6.1 9.882-4.663 4.01 1.439 6.097 5.851 4.67 9.862-1.352 3.839-4.052 15.428-.359 22.864 6.965 14.028-.556 44.012-2.135 49.88-.925 3.449-4.046 5.723-7.455 5.723z" fill="#f9f6f9"/></g><g><path d="m324.004 188.519c-3.408 0-6.527-2.272-7.455-5.72-1.578-5.868-9.101-35.853-2.135-49.88 3.718-7.486.922-19.297-.352-22.844-1.441-4.016.647-8.441 4.663-9.882 4.016-1.438 8.442.647 9.882 4.663.729 2.034 6.92 20.293-.352 34.937-3.208 6.461.022 27.089 3.216 38.996 1.106 4.12-1.338 8.358-5.458 9.465-.67.178-1.345.265-2.009.265z" fill="#f9f6f9"/></g></g><path d="m158.448 85.235c4.23 6.624 9.166 13.482 14.866 21.261 3.882 5.298 10.363 8.047 16.87 7.15 7.208-.993 13.095-6.255 14.889-13.306l6.097-23.965 44.83-20.555 44.83 20.554 6.096 23.965c1.794 7.051 7.681 12.313 14.889 13.306 6.507.897 12.988-1.852 16.87-7.15 5.7-7.779 10.637-14.636 14.866-21.261 18.45-28.893 3.223-67.599-29.928-76.33-45.083-11.873-90.165-11.873-135.248 0-33.15 8.732-48.377 47.438-29.927 76.331z" fill="#d0e2e7"/><g><path d="m323.624 8.905c-26.58-7-53.16-9.869-79.74-8.615 18.503.873 37.005 3.742 55.508 8.615 33.151 8.731 48.377 47.437 29.928 76.33-4.23 6.624-9.166 13.482-14.866 21.261-.692.943-1.469 1.802-2.31 2.578 2.629 2.423 5.974 4.062 9.673 4.572 6.507.897 12.987-1.852 16.87-7.15 5.7-7.779 10.637-14.637 14.866-21.261 18.448-28.893 3.222-67.599-29.929-76.33z" fill="#b4d0d5"/></g><path d="m300.83 76.374h-89.661v-35.796c0-2.933 2.378-5.311 5.311-5.311h79.038c2.933 0 5.311 2.378 5.311 5.311v35.796z" fill="#f9f6f9"/><path d="m295.519 35.266h-20.3c2.933 0 5.311 2.378 5.311 5.311v35.797h20.3v-35.796c0-2.934-2.378-5.312-5.311-5.312z" fill="#dddaec"/><path d="m240.486 76.374h31.029v435.626h-31.029z" fill="#b4d0d5"/></g></svg>