<svg id="Capa_1" enable-background="new 0 0 512 512" height="512" viewBox="0 0 512 512" width="512" xmlns="http://www.w3.org/2000/svg"><g><g><path d="m396.088 46.568-79.561-28.605-60.527-2.915-60.527 2.916-79.561 28.605c-14.751 5.303-25.599 18.01-28.525 33.41l-69.164 364.11h54.775l48.287-249.713 19.08 36.555c7.978 15.286 10.672 32.778 7.652 49.754-11.777 66.21-27.901 151.764-16.341 218.927.475 2.758 2.863 4.776 5.662 4.776h118.662v-20.297h118.669c2.8 0 5.18-2.024 5.661-4.783 11.551-66.271-4.584-132.501-16.359-198.69-3.016-16.951-.302-34.423 7.664-49.686l19.079-36.555 48.287 249.713h54.775l-69.164-364.112c-2.925-15.4-13.773-28.106-28.524-33.41z" fill="#eab14d"/></g><g><path d="m233.971 27.713 60.527 2.916 79.561 28.605c14.751 5.303 25.599 18.009 28.525 33.41l66.759 351.446h24.434l-69.165-364.112c-2.925-15.4-13.774-28.106-28.525-33.41l-79.561-28.605-60.526-2.915z" fill="#e49542"/></g><path d="m61.311 476.38h-31.106c-4.161 0-7.534-3.373-7.534-7.534v-24.756h46.174v24.756c0 4.161-3.373 7.534-7.534 7.534z" fill="#f9f6f9"/><path d="m450.689 476.38h31.105c4.161 0 7.534-3.373 7.534-7.534v-24.756h-46.174v24.756c.001 4.161 3.374 7.534 7.535 7.534z" fill="#f9f6f9"/><path d="m471.181 444.089v32.291h10.614c4.161 0 7.534-3.373 7.534-7.534v-24.756h-18.148z" fill="#dddaec"/><path d="m311.634 79.488 31.349-8.331c2.728-.725 4.193-3.693 3.109-6.299-9.85-23.69-22.598-44.779-40.18-61.527-2.258-2.15-5.271-3.331-8.389-3.331h-41.523-41.523c-3.118 0-6.131 1.181-8.389 3.332-17.582 16.748-30.33 37.836-40.18 61.527-1.083 2.606.382 5.574 3.109 6.299l31.349 8.331c2.977.791 4.381 4.201 2.823 6.859l-12.036 20.54c-.896 1.529-.847 3.434.126 4.915l64.72 98.47v-29.044l63.968-69.307c1.391-1.507 1.633-3.746.596-5.516l-11.753-20.059c-1.557-2.658-.153-6.068 2.824-6.859z" fill="#ffe07d"/><path d="m258.855 82.393 32.886-40.368c1.96-2.406.248-6.009-2.855-6.009h-65.773c-3.104 0-4.816 3.603-2.855 6.009l32.886 40.368c1.474 1.809 4.238 1.809 5.711 0z" fill="#86a0af"/><g><path d="m256 217.883c-4.204 0-7.611-3.407-7.611-7.611v-124.373c0-4.204 3.407-7.611 7.611-7.611s7.611 3.407 7.611 7.611v124.373c0 4.204-3.407 7.611-7.611 7.611z" fill="#e49542"/></g><g><path d="m121.327 202.015c-2.838 0-5.572-1.597-6.891-4.318-.614-1.269-5.958-12.964-4.275-32.835.356-4.189 4.057-7.281 8.227-6.943 4.189.356 7.297 4.039 6.943 8.227-1.334 15.735 2.792 24.883 2.833 24.973 1.833 3.783.239 8.304-3.544 10.139-1.061.514-2.185.757-3.293.757z" fill="#e49542"/></g><g><path d="m390.709 201.99c-1.114 0-2.244-.246-3.314-.764-3.763-1.825-5.347-6.341-3.557-10.112.128-.283 4.15-9.402 2.831-24.968-.355-4.188 2.753-7.871 6.943-8.227 4.171-.342 7.871 2.752 8.227 6.943 1.684 19.871-3.659 31.567-4.274 32.835-1.316 2.712-4.03 4.293-6.856 4.293z" fill="#e49542"/></g><g><path d="m256 512c-4.204 0-7.611-3.407-7.611-7.611v-294.117c0-4.204 3.407-7.611 7.611-7.611s7.611 3.407 7.611 7.611v294.117c0 4.204-3.407 7.611-7.611 7.611z" fill="#e49542"/></g><path d="m365.153 287.187c-.398-2.19-.793-4.379-1.182-6.569-1.241-6.975-1.496-14.038-.83-21-71.43 10.553-142.859 10.553-214.289-.001.667 6.984.409 14.069-.836 21.068-.382 2.146-.769 4.317-1.159 6.503 72.766 10.951 145.531 10.951 218.296-.001z" fill="#ffe07d"/><path d="m213.383 309.813h-17.713c-4.899 0-8.87-3.971-8.87-8.87v-42.69c0-4.899 3.971-8.87 8.87-8.87h17.713c4.899 0 8.87 3.971 8.87 8.87v42.69c-.001 4.899-3.972 8.87-8.87 8.87z" fill="#dd636e"/><g><g><g><path d="m198.25 217.883h-1.6c-4.204 0-7.611-3.407-7.611-7.611s3.407-7.611 7.611-7.611h1.6c4.204 0 7.611 3.407 7.611 7.611s-3.406 7.611-7.611 7.611z" fill="#738b95"/></g><g><path d="m225.002 217.883h-1.6c-4.204 0-7.611-3.407-7.611-7.611s3.407-7.611 7.611-7.611h1.6c4.204 0 7.611 3.407 7.611 7.611s-3.407 7.611-7.611 7.611z" fill="#738b95"/></g></g><g><g><path d="m198.25 349.536h-1.6c-4.204 0-7.611-3.407-7.611-7.612s3.407-7.611 7.611-7.611h1.6c4.204 0 7.611 3.407 7.611 7.611s-3.406 7.612-7.611 7.612z" fill="#738b95"/></g><g><path d="m225.002 349.536h-1.6c-4.204 0-7.611-3.407-7.611-7.612s3.407-7.611 7.611-7.611h1.6c4.204 0 7.611 3.407 7.611 7.611s-3.407 7.612-7.611 7.612z" fill="#738b95"/></g></g><g><g><path d="m198.25 389.776h-1.6c-4.204 0-7.611-3.407-7.611-7.612s3.407-7.611 7.611-7.611h1.6c4.204 0 7.611 3.407 7.611 7.611s-3.406 7.612-7.611 7.612z" fill="#738b95"/></g><g><path d="m225.002 389.776h-1.6c-4.204 0-7.611-3.407-7.611-7.612s3.407-7.611 7.611-7.611h1.6c4.204 0 7.611 3.407 7.611 7.611s-3.407 7.612-7.611 7.612z" fill="#738b95"/></g></g><g><g><path d="m198.25 430.016h-1.6c-4.204 0-7.611-3.407-7.611-7.611s3.407-7.612 7.611-7.612h1.6c4.204 0 7.611 3.407 7.611 7.612s-3.406 7.611-7.611 7.611z" fill="#738b95"/></g><g><path d="m225.002 430.016h-1.6c-4.204 0-7.611-3.407-7.611-7.611s3.407-7.612 7.611-7.612h1.6c4.204 0 7.611 3.407 7.611 7.612s-3.407 7.611-7.611 7.611z" fill="#738b95"/></g></g></g><path d="m12.771 444.089h66.349c2.535 0 4.745-1.725 5.36-4.185l4.317-17.273c.872-3.487-1.766-6.865-5.36-6.865h-66.348c-2.535 0-4.745 1.725-5.36 4.185l-4.317 17.273c-.872 3.488 1.765 6.865 5.359 6.865z" fill="#ffe07d"/><path d="m499.229 444.089h-66.349c-2.535 0-4.745-1.725-5.36-4.185l-4.317-17.273c-.872-3.487 1.766-6.865 5.36-6.865h66.348c2.535 0 4.745 1.725 5.36 4.185l4.317 17.273c.872 3.488-1.765 6.865-5.359 6.865z" fill="#ffe07d"/><path d="m504.588 437.224-4.318-17.273c-.615-2.46-2.825-4.185-5.36-4.185h-21.65c2.535 0 4.745 1.725 5.36 4.185l4.318 17.273c.872 3.487-1.766 6.865-5.36 6.865h21.651c3.594 0 6.231-3.377 5.359-6.865z" fill="#ffd064"/></g></svg>