<svg height="512" viewBox="0 0 46 59" width="512" xmlns="http://www.w3.org/2000/svg"><g id="094---Coat" fill="none"><path id="Shape" d="m45.76 42.06-8.06-31.34c-.4661001-1.76989048-1.5249826-3.3264478-3-4.41-3.55-2.7-8.58-6.19-8.7-6.31h-6c-.1.1 0-.14-7 5-2 1.47-3.91 2.65-4.7 5.72l-8.06 31.34c-.13413671.5265249.17669218 1.0638149.7 1.21l5.06 1.45c.25730606.073538.5333516.0408769.7663915-.0906779.23303989-.1315548.40362831-.3510257.4736085-.6093221l5.27-19.56c.33 11.94-2.17 25.13-3.15 29.79-.21980145 1.0265474.39151746 2.0483233 1.4 2.34 4.9923024 1.2858692 10.1522837 1.7984948 15.3 1.52.4052565-.0166809.7958635-.1561834 1.12-.4 2.7067849.015319 5.4014882-.3619395 8-1.12 1.0084825-.2916767 1.6198014-1.3134526 1.4-2.34-1-4.67-3.48-17.85-3.15-29.79l5.31 19.54c.0699802.2582964.2405686.4777673.4736085.6093221s.5090854.1642159.7663915.0906779l5.08-1.45c.5136506-.1461231.8218461-.6700553.7-1.19zm-20.6-25.39.17.2c-.0628051-.0611956-.1197219-.1281565-.17-.2z" fill="#35495e"/><path id="Shape" d="m45.06 43.27-5.06 1.45c-.2573061.073538-.5333516.0408769-.7663915-.0906779s-.4036283-.3510257-.4736085-.6093221l-5.29-19.56c-.33 11.94 2.17 25.12 3.15 29.79.2198014 1.0265474-.3915175 2.0483233-1.4 2.34-2.5977624.7615456-5.2929786 1.1388759-8 1.12.5036117-.3777088.8-.9704854.8-1.6 0-33.37 0-31.33 0-31.64.0114745-2.0203639-.4653897-4.0135875-1.39-5.81-.4025564-.7191468-.8856663-1.3901328-1.44-2 8.48-4.31 7.81-11.66 7.81-11.66 2 1.49 3.91 2.65 4.7 5.72l8.06 31.34c.1341367.5265249-.1766922 1.0638149-.7 1.21z" fill="#35495e"/><path id="Shape" d="m29.79 25.08v31c-.0003646.57953-.2520902 1.1304079-.69 1.51l-1.9.09c.5036117-.3777088.8-.9704854.8-1.6 0-33.79 0-31.06 0-31.64-.2197162-3.0515708-2.1606122-5.7105982-5-6.85-6.34-2.48-9.52-6.85-10-11.31l1.79-1.28s-.67 7.35 7.84 11.67c.7032258.3535123 1.4241793.6705983 2.16.95 3.0368515 1.2284099 5.0179163 4.1841586 5 7.46z" fill="#2c3e50"/><path id="Shape" d="m25.16 16.67c-.83-1.06-1.55-2.08-2.16-3 5.53-8.67 3.16-13.38 3-13.67l7 5s.67 7.35-7.84 11.67z" fill="#bdc3c7"/><path id="Shape" d="m23 13.63c-5.53-8.63-3.16-13.34-3-13.63h6c.16.29 2.53 5-3 13.63z" fill="#547580"/><path id="Shape" d="m28 24.47c-.2197162-3.0515708-2.1606122-5.7105982-5-6.85-.7358207-.2794017-1.4567742-.5964877-2.16-.95-8.51-4.32-7.84-11.67-7.84-11.67l7-5c-.15.28-2.52 5 3 13.62.61 1 1.33 2 2.16 3 .51.7 2.67 2.61 2.84 7.85z" fill="#ecf0f1"/><path id="Shape" d="m28 25.08v31c.0008596 1.0740671-.8467922 1.9570376-1.92 2-5.1476843.2770739-10.3074495-.2355302-15.3-1.52-1.00848254-.2916767-1.61980145-1.3134526-1.4-2.34 1-4.66 3.48-17.85 3.15-29.79l-5.27 19.57c-.06998019.2582964-.24056861.4777673-.4736085.6093221-.2330399.1315548-.50908544.1642159-.7663915.0906779l-5.08-1.43c-.52330782-.1461851-.83413671-.6834751-.7-1.21l8.06-31.34c.79-3.1 2.81-4.3 4.7-5.72 0 0-.67 7.35 7.84 11.67.7032258.3535123 1.4241793.6705983 2.16.95 3.0368515 1.2284099 5.0179163 4.1841586 5 7.46z" fill="#35495e"/><g fill="#547580"><circle id="Oval" cx="24" cy="24" r="1"/><circle id="Oval" cx="24" cy="29" r="1"/><circle id="Oval" cx="24" cy="34" r="1"/><circle id="Oval" cx="24" cy="39" r="1"/><circle id="Oval" cx="24" cy="45" r="1"/></g></g></svg>