<svg height="512" viewBox="0 0 50 59" width="512" xmlns="http://www.w3.org/2000/svg"><g id="095---Coat" fill="none"><path id="Shape" d="m50 41.1c.006376.4953928-.3509422.9207716-.84 1l-4.34.72c-.4586684.0779046-.910474-.1707958-1.09-.6-.91-2.05-3.35-13.52-4.43-20.22-.41 7.24-.53 25-.35 34 0 1.1045695-.8954305 2-2 2h-9.95v-36l7.39-5.54c.3616346-.2706997.4968868-.7502301.33-1.17l-1.38-3.44c-.1897837-.4809329.0183329-1.0272389.48-1.26l2.63-1.31c.3395038-.17106553.5526457-.51984313.55-.9 0-4.24 0-4 0-3.92 1.6188959.65724119 3.2918595 1.17251396 5 1.54 5.09 10.19 7.4 23.71 8 35.1z" fill="#35495e"/><path id="Shape" d="m29 28v27c-.0033353 1.1216649-.6321175 2.1477757-1.63 2.66-.9.49-.62.34-14.33.34-1.1045695 0-2-.8954305-2-2 .28-13-.04-29.81-.31-34-1.07 6.76-3.55 18.16-4.42 20.27-.17952599.4292042-.63133156.6779046-1.09.6l-4.34-.72c-.4890578-.0792284-.84637602-.5046072-.84-1 1.13-23.45 7.96-35.15 7.96-35.15 2.070284-.43361282 4.0836051-1.10471983 6-2v4.32c-.0003967.40980385.249279.7783727.63.93l3.28 1.31c.2718873.1081732.4827535.3300048.5770164.6070222.0942628.2770174.0624634.5814228-.0870164.8329778l-2 3.29c-.2439735.4066399-.1687942.9287186.18 1.25z" fill="#35495e"/><path id="Shape" d="m31 28v27c-.0033353 1.1216649-.6321175 2.1477757-1.63 2.66-.81.44-1.45.34-3.33.34 1.6568542 0 3-1.3431458 3-3v-27l-12.44-11.45c-.3487942-.3212814-.4239735-.8433601-.18-1.25l2-3.29c.1531735-.2523228.1870464-.5594272.0925472-.8390677s-.3077154-.5032458-.5825472-.6109323l-3.28-1.31c-.3885864-.14517765-.6471965-.51518913-.65-.93v-3.5c.72-.27 1.37-.55 2-.83v4.33c-.0003967.40980385.249279.7783727.63.93l3.28 1.31c.2649423.1161828.4665863.3414103.5528764.6175386s.0487692.5760949-.1028764.8224614l-2 3.29c-.2439735.4066399-.1687942.9287186.18 1.25z" fill="#2c3e50"/><path id="Shape" d="m31 17.67h-12v-17.67h12z" fill="#2c3e50"/><path id="Shape" d="m29 28c-2.8-2.59-.28-.31-12.4-11.45-.3487942-.3212814-.4239735-.8433601-.18-1.25l2-3.29c.1531735-.2523228.1870464-.5594272.0925472-.8390677s-.3077154-.5032458-.5825472-.6109323l-3.28-1.31c-.3885864-.14517765-.6471965-.51518913-.65-.93v-4.32c4-1.91 5-4 5-4z" fill="#547580"/><path id="Shape" d="m37 4.44v3.94c.0026457.38015687-.2104962.72893447-.55.9l-2.63 1.31c-.4616671.2327611-.6697837.7790671-.48 1.26l1.38 3.44c.1668868.4197699.0316346.8993003-.33 1.17l-7.39 5.54c0 .56.41 1.54-2-5.2l6-16.8s1.21 2.42 6 4.44z" fill="#3f5c6c"/><path id="Shape" d="m35 43h4c.5522847 0 1 .4477153 1 1v4c0 .5522847-.4477153 1-1 1h-4z" fill="#3f5c6c"/><g fill="#547580"><path id="Shape" d="m35 49h-24c-.5522847 0-1-.4477153-1-1v-4c0-.5522847.4477153-1 1-1h24z"/><circle id="Oval" cx="19" cy="33" r="1"/><circle id="Oval" cx="24" cy="33" r="1"/><circle id="Oval" cx="19" cy="38" r="1"/><circle id="Oval" cx="24" cy="38" r="1"/></g></g></svg>