<?xml version="1.0" encoding="iso-8859-1"?>
<!-- Generator: Adobe Illustrator 19.0.0, SVG Export Plug-In . SVG Version: 6.00 Build 0)  -->
<svg version="1.1" id="Layer_1" xmlns="http://www.w3.org/2000/svg" xmlns:xlink="http://www.w3.org/1999/xlink" x="0px" y="0px"
	 viewBox="0 0 512.003 512.003" style="enable-background:new 0 0 512.003 512.003;" xml:space="preserve">
<g transform="translate(0 -1)">
	<path style="fill:#C03A2B;" d="M167.496,274.66c-1.121-35.584-8.713-71.724-17.611-96.918c0,0-18.573,43.405-24.647,61.608
		c-6.065,18.211-45.789,238.345-45.789,238.345l-61.793-8.828C38.622,366.802,86.07,90.384,105.932,71.625
		c7.142-6.744,30.199-19.076,52.966-26.483c-1.51,1.88,28.478,38.841,40.483,42.717c11.485,3.708,21.954,0.547,32.433-4.378
		c8.077-3.805,15.969-8.422,24.188-11.953c8.21,3.531,16.102,8.148,24.179,11.953c10.478,4.926,20.948,8.086,32.441,4.378
		c11.997-3.875,41.984-40.836,40.483-42.717c22.758,7.406,45.824,19.738,52.966,26.483c19.862,18.759,67.31,295.177,88.276,397.241
		l-61.793,8.828c0,0-39.724-220.134-45.798-238.345c-6.065-18.202-24.638-61.608-24.638-61.608
		c-8.898,25.194-16.49,61.334-17.62,96.918l10.231,52.966c10.417,46.654,24.859,119.958,24.859,167.724h-1.315
		c-69.8-0.486-122.271-40.466-122.271-105.931c0,65.474-52.489,105.419-122.297,105.931h-1.289
		c0-47.766,14.442-121.07,24.85-167.724L167.496,274.66z"/>
	<g>
		<path style="fill:#9B2B23;" d="M132.785,495.392C203.061,495.321,256,455.182,256,389.416
			c0,65.783,52.957,105.966,123.251,105.975h0.009l0.327-0.044c-35.31,17.655-88.276,17.655-123.586,17.655
			s-88.276,0-123.586-17.655l0.318,0.044H132.785"/>
		<path style="fill:#9B2B23;" d="M255.999,442.384c-4.873,0-8.828-3.946-8.828-8.828V71.625c0-4.882,3.955-8.828,8.828-8.828
			c4.873,0,8.828,3.946,8.828,8.828v361.931C264.826,438.438,260.871,442.384,255.999,442.384"/>
	</g>
	<polygon style="fill:#7A1F1C;" points="255.999,71.524 194.206,1 317.792,1 	"/>
	<g>
		<path style="fill:#9B2B23;" d="M317.792,1.004l-61.793,70.515c8.218,3.54,16.11,8.166,24.188,11.961
			c10.47,4.926,20.948,8.086,32.433,4.378c11.997-3.875,41.984-40.836,40.483-42.717L317.792,1.004z"/>
		<path style="fill:#9B2B23;" d="M194.206,1.004l61.793,70.515c-8.218,3.54-16.11,8.166-24.188,11.961
			c-10.47,4.926-20.948,8.086-32.433,4.378c-11.997-3.875-41.984-40.836-40.483-42.717L194.206,1.004z"/>
	</g>
	<g>
		<path style="fill:#F0C419;" d="M282.481,168.729c0-4.873,3.955-8.828,8.828-8.828s8.828,3.955,8.828,8.828
			s-3.955,8.828-8.828,8.828S282.481,173.601,282.481,168.729"/>
		<path style="fill:#F0C419;" d="M211.861,168.729c0-4.873,3.955-8.828,8.828-8.828c4.873,0,8.828,3.955,8.828,8.828
			s-3.955,8.828-8.828,8.828C215.816,177.556,211.861,173.601,211.861,168.729"/>
		<path style="fill:#F0C419;" d="M282.481,221.694c0-4.873,3.955-8.828,8.828-8.828s8.828,3.955,8.828,8.828
			s-3.955,8.828-8.828,8.828S282.481,226.567,282.481,221.694"/>
		<path style="fill:#F0C419;" d="M211.861,221.694c0-4.873,3.955-8.828,8.828-8.828c4.873,0,8.828,3.955,8.828,8.828
			s-3.955,8.828-8.828,8.828C215.816,230.522,211.861,226.567,211.861,221.694"/>
		<path style="fill:#F0C419;" d="M282.481,274.66c0-4.873,3.955-8.828,8.828-8.828s8.828,3.955,8.828,8.828
			c0,4.873-3.955,8.828-8.828,8.828S282.481,279.532,282.481,274.66"/>
		<path style="fill:#F0C419;" d="M211.861,274.66c0-4.873,3.955-8.828,8.828-8.828c4.873,0,8.828,3.955,8.828,8.828
			c0,4.873-3.955,8.828-8.828,8.828C215.816,283.487,211.861,279.532,211.861,274.66"/>
		<path style="fill:#F0C419;" d="M282.481,327.625c0-4.873,3.955-8.828,8.828-8.828s8.828,3.955,8.828,8.828
			c0,4.873-3.955,8.828-8.828,8.828S282.481,332.498,282.481,327.625"/>
		<path style="fill:#F0C419;" d="M211.861,327.625c0-4.873,3.955-8.828,8.828-8.828c4.873,0,8.828,3.955,8.828,8.828
			c0,4.873-3.955,8.828-8.828,8.828C215.816,336.453,211.861,332.498,211.861,327.625"/>
		<path style="fill:#F0C419;" d="M282.481,380.591c0-4.873,3.955-8.828,8.828-8.828s8.828,3.955,8.828,8.828
			c0,4.873-3.955,8.828-8.828,8.828S282.481,385.463,282.481,380.591"/>
		<path style="fill:#F0C419;" d="M211.861,380.591c0-4.873,3.955-8.828,8.828-8.828c4.873,0,8.828,3.955,8.828,8.828
			c0,4.873-3.955,8.828-8.828,8.828C215.816,389.418,211.861,385.463,211.861,380.591"/>
	</g>
</g>
<g>
</g>
<g>
</g>
<g>
</g>
<g>
</g>
<g>
</g>
<g>
</g>
<g>
</g>
<g>
</g>
<g>
</g>
<g>
</g>
<g>
</g>
<g>
</g>
<g>
</g>
<g>
</g>
<g>
</g>
</svg>
