<?xml version="1.0" encoding="iso-8859-1"?>
<!-- Generator: Adobe Illustrator 19.0.0, SVG Export Plug-In . SVG Version: 6.00 Build 0)  -->
<svg version="1.1" id="Layer_1" xmlns="http://www.w3.org/2000/svg" xmlns:xlink="http://www.w3.org/1999/xlink" x="0px" y="0px"
	 viewBox="0 0 511.755 511.755" style="enable-background:new 0 0 511.755 511.755;" xml:space="preserve">
<g>
	<path style="fill:#CE995B;" d="M405.946,70.621c-7.106-6.709-30.72-16.419-53.389-23.817c3.513,19.527-8.925,41.295-34.887,41.472
		c-6.268,0.044-9.454,0-17.655,0l31.311,23.066c14.23,10.134,17.152,30.517,5.614,43.635c-0.177,0.194-0.353,0.397-0.538,0.6
		c-18.211,20.136-56.806,65.112-80.525,65.112s-62.314-44.977-80.525-65.112c-0.185-0.203-0.362-0.406-0.538-0.6
		c-11.538-13.118-8.616-33.501,5.614-43.635l31.311-23.066c-8.201,0-11.388,0.044-17.655,0c-25.962-0.177-38.4-21.945-34.887-41.472
		c-22.669,7.398-46.283,17.108-53.389,23.817c-19.862,18.759-67.31,295.177-88.276,397.241l61.793,8.828
		c0,0,39.724-220.142,45.798-238.345c6.065-18.211,24.638-61.608,24.638-61.608c8.898,25.194,16.49,61.334,17.611,96.918h-8.598
		c-3.293,15.819-5.455,34.004-8.828,52.966h7.751c-10.443,49.117-25.406,118.872-25.406,167.477
		c70.294-0.009,123.586-40.148,123.586-105.931c0,65.783,53.292,105.922,123.586,105.931c0-48.605-14.963-118.36-25.406-167.477
		h7.751c-3.372-18.962-5.535-37.146-8.828-52.966h-8.598c1.121-35.584,8.713-71.724,17.611-96.918c0,0,18.573,43.396,24.638,61.608
		c6.073,18.202,45.798,238.345,45.798,238.345l61.793-8.828C473.257,365.798,425.808,89.379,405.946,70.621"/>
	<g>
		<path style="fill:#AA7948;" d="M194.084,8.828c-9.251,3.743-17.346,11.555-24.55,18.591c-0.088,0.088-0.177,0.177-0.265,0.265
			c-20.895,20.18-10.487,60.354,24.814,60.593c6.268,0.044,9.454,0,17.655,0l-31.311,23.066
			c-14.23,10.134-17.152,30.517-5.614,43.635c0.177,0.194,0.353,0.397,0.538,0.6c18.211,20.136,56.797,65.112,80.525,65.112v-44.138
			C217.813,153.565,194.084,8.828,194.084,8.828"/>
		<path style="fill:#AA7948;" d="M317.67,8.828c9.251,3.743,17.346,11.555,24.549,18.591c0.088,0.088,0.177,0.177,0.265,0.265
			c20.895,20.18,10.487,60.354-24.814,60.593c-6.268,0.044-9.454,0-17.655,0l31.311,23.066c14.23,10.134,17.152,30.517,5.614,43.635
			c-0.177,0.194-0.353,0.397-0.538,0.6c-18.211,20.136-56.797,65.112-80.525,65.112v-44.138
			C293.942,153.565,317.67,8.828,317.67,8.828"/>
	</g>
	<path style="fill:#CE995B;" d="M255.877,0c-26.483,0-50.158,4.361-61.793,8.828l8.828,44.138h52.966h52.966l8.828-44.138
		C306.036,4.361,282.36,0,255.877,0"/>
	<path style="fill:#895C34;" d="M255.877,52.966h-52.93c10.169,44.579,28.61,108.906,52.93,123.586
		c24.32-14.68,42.761-79.007,52.93-123.586H255.877z"/>
	<g>
		<path style="fill:#AA7948;" d="M255.877,388.168c0,65.783-53.292,105.922-123.586,105.931
			c35.31,17.655,88.276,17.655,123.586,17.655s88.276,0,123.586-17.655C309.169,494.091,255.877,453.952,255.877,388.168"/>
		<path style="fill:#AA7948;" d="M229.395,308.966V291.31c0-6.815,2.648-12.959,6.877-17.655h-77.497
			c-3.293,15.819-5.455,34.004-8.828,52.966h86.325C232.043,321.924,229.395,315.78,229.395,308.966"/>
		<path style="fill:#AA7948;" d="M282.36,308.966V291.31c0-6.815-2.648-12.959-6.877-17.655h77.497
			c3.293,15.819,5.455,34.004,8.828,52.966h-86.325C279.712,321.924,282.36,315.78,282.36,308.966"/>
		<path style="fill:#AA7948;" d="M255.877,273.66c-4.873,0-8.828-3.946-8.828-8.828v-44.138c0-4.882,3.955-8.828,8.828-8.828
			c4.873,0,8.828,3.946,8.828,8.828v44.138C264.705,269.714,260.75,273.66,255.877,273.66"/>
		<path style="fill:#AA7948;" d="M255.877,441.134c-4.873,0-8.828-3.946-8.828-8.828V335.45c0-4.873,3.955-8.828,8.828-8.828
			c4.873,0,8.828,3.955,8.828,8.828v96.856C264.705,437.188,260.75,441.134,255.877,441.134"/>
	</g>
	<path style="fill:#F9EBB0;" d="M255.877,335.448L255.877,335.448c-14.627,0-26.483-11.855-26.483-26.483V291.31
		c0-14.627,11.855-26.483,26.483-26.483c14.627,0,26.483,11.855,26.483,26.483v17.655
		C282.36,323.593,270.505,335.448,255.877,335.448"/>
	<path style="fill:#CE995B;" d="M264.705,300.138c0-4.873-3.955-8.828-8.828-8.828c-4.873,0-8.828,3.955-8.828,8.828
		c0,4.873,3.955,8.828,8.828,8.828C260.75,308.966,264.705,305.011,264.705,300.138"/>
</g>
<g>
</g>
<g>
</g>
<g>
</g>
<g>
</g>
<g>
</g>
<g>
</g>
<g>
</g>
<g>
</g>
<g>
</g>
<g>
</g>
<g>
</g>
<g>
</g>
<g>
</g>
<g>
</g>
<g>
</g>
</svg>
