<?xml version="1.0" encoding="iso-8859-1"?>
<!-- Generator: Adobe Illustrator 19.0.0, SVG Export Plug-In . SVG Version: 6.00 Build 0)  -->
<svg version="1.1" id="Layer_1" xmlns="http://www.w3.org/2000/svg" xmlns:xlink="http://www.w3.org/1999/xlink" x="0px" y="0px"
	 viewBox="0 0 512.003 512.003" style="enable-background:new 0 0 512.003 512.003;" xml:space="preserve">
<g transform="translate(0 -1)">
	<path style="fill:#CBB292;" d="M344.507,274.66c1.121-35.584,8.713-71.724,17.611-96.918c0,0,18.573,43.405,24.647,61.608
		c6.065,18.211,45.789,238.345,45.789,238.345l61.793-8.828C473.381,366.802,425.932,90.384,406.07,71.625
		c-7.142-6.744-30.199-19.076-52.966-26.483c1.51,1.88-28.478,38.841-40.483,42.717c-11.485,3.708-21.954,0.547-32.433-4.378
		c-8.077-3.805-15.969-8.422-24.188-11.953c-8.21,3.531-16.102,8.148-24.179,11.953c-10.478,4.926-20.948,8.086-32.441,4.378
		c-11.997-3.875-41.984-40.836-40.483-42.717c-22.758,7.406-45.824,19.738-52.966,26.483
		C86.07,90.384,38.622,366.802,17.657,468.866l61.793,8.828c0,0,39.724-220.134,45.798-238.345
		c6.065-18.202,24.638-61.608,24.638-61.608c8.898,25.194,16.49,61.334,17.62,96.918l-10.231,52.966
		c-10.417,46.654-24.858,119.958-24.858,167.724h1.315c69.8-0.486,122.271-40.466,122.271-105.931
		c0,65.474,52.489,105.419,122.297,105.931h1.289c0-47.766-14.442-121.07-24.85-167.724L344.507,274.66z"/>
	<path style="fill:#7F6E5D;" d="M379.218,495.392c-70.276-0.071-123.215-40.21-123.215-105.975
		c0,65.783-52.957,105.966-123.251,105.975h-0.009l-0.327-0.044c35.31,17.655,88.276,17.655,123.586,17.655s88.276,0,123.586-17.655
		l-0.318,0.044H379.218"/>
	<polygon style="fill:#5E4F41;" points="256.004,71.524 317.797,1 194.211,1 	"/>
	<g>
		<path style="fill:#7F6E5D;" d="M194.211,1.004l61.793,70.515c-8.218,3.54-16.11,8.166-24.188,11.961
			c-10.47,4.926-20.948,8.086-32.433,4.378c-11.997-3.875-41.984-40.836-40.483-42.717L194.211,1.004z"/>
		<path style="fill:#7F6E5D;" d="M317.797,1.004l-61.793,70.515c8.219,3.54,16.11,8.166,24.188,11.961
			c10.47,4.926,20.948,8.086,32.433,4.378c11.997-3.875,41.984-40.836,40.483-42.717L317.797,1.004z"/>
		<polygon style="fill:#7F6E5D;" points="176.556,354.108 176.556,389.418 203.038,415.901 229.521,389.418 229.521,354.108 		"/>
		<polygon style="fill:#7F6E5D;" points="335.452,354.108 335.452,389.418 308.97,415.901 282.487,389.418 282.487,354.108 		"/>
		<path style="fill:#7F6E5D;" d="M344.507,274.66c0.088-2.94,0.291-5.888,0.468-8.828h-62.49v52.966h70.55L344.507,274.66z"/>
		<path style="fill:#7F6E5D;" d="M167.501,274.66l-8.527,44.138h70.55v-52.966h-62.49C167.21,268.772,167.413,271.72,167.501,274.66
			"/>
		<path style="fill:#7F6E5D;" d="M256.004,265.832c-4.873,0-8.828-3.946-8.828-8.828V80.453c0-4.882,3.955-8.828,8.828-8.828
			c4.873,0,8.828,3.946,8.828,8.828v176.552C264.832,261.886,260.877,265.832,256.004,265.832"/>
		<path style="fill:#7F6E5D;" d="M256.004,451.211c-4.873,0-8.828-3.946-8.828-8.828V327.625c0-4.882,3.955-8.828,8.828-8.828
			c4.873,0,8.828,3.946,8.828,8.828v114.759C264.832,447.265,260.877,451.211,256.004,451.211"/>
	</g>
	<polygon style="fill:#5E4F41;" points="229.521,327.627 282.487,327.627 282.487,257.006 229.521,257.006 	"/>
	<path style="fill:#CBB292;" d="M264.832,292.315c0-4.873-3.955-8.828-8.828-8.828c-4.873,0-8.828,3.955-8.828,8.828
		c0,4.873,3.955,8.828,8.828,8.828C260.877,301.142,264.832,297.188,264.832,292.315"/>
</g>
<g>
</g>
<g>
</g>
<g>
</g>
<g>
</g>
<g>
</g>
<g>
</g>
<g>
</g>
<g>
</g>
<g>
</g>
<g>
</g>
<g>
</g>
<g>
</g>
<g>
</g>
<g>
</g>
<g>
</g>
</svg>
