<?xml version="1.0" encoding="iso-8859-1"?>
<!-- Generator: Adobe Illustrator 19.0.0, SVG Export Plug-In . SVG Version: 6.00 Build 0)  -->
<svg version="1.1" id="Layer_1" xmlns="http://www.w3.org/2000/svg" xmlns:xlink="http://www.w3.org/1999/xlink" x="0px" y="0px"
	 viewBox="0 0 512.004 512.004" style="enable-background:new 0 0 512.004 512.004;" xml:space="preserve">
<g transform="translate(0 -1)">
	<path style="fill:#633E25;" d="M326.623,262.544L326.623,262.544c13.515-27.039,25.962-55.225,34.198-84.109l101.985,184.497
		l40.369-17.832L378.909,68.478c-0.053-0.441-0.097-0.847-0.15-1.28c2.11-12.482-4.29-24.611-15.351-30.146L291.313,1
		l-70.621,158.897L271.133,513h108.456v-44.138c0-43.529-12.394-86.157-35.725-122.906l-0.132-0.221
		c-11.176-17.593-17.108-32.574-17.108-53.425V262.544z"/>
	<g>
		<path style="fill:#805333;" d="M185.382,292.315c0,20.842-5.932,35.831-17.108,53.425l-0.132,0.221
			c-23.331,36.749-35.725,79.378-35.725,122.906v44.138h138.717l-50.441-353.103l35.31-79.448l-35.31-79.448l-72.095,36.043
			c-11.061,5.535-17.461,17.673-15.351,30.146c-0.053,0.441-0.097,0.847-0.15,1.28L8.83,345.095l40.369,17.841l101.985-184.497
			c8.236,28.884,20.683,57.07,34.198,84.109l0,0V292.315z"/>
		<polygon style="fill:#805333;" points="220.692,1.004 291.313,1.004 256.002,80.453 		"/>
	</g>
	<polygon style="fill:#472C19;" points="220.692,159.901 256.002,80.453 291.313,1.004 326.623,53.97 291.313,62.798 
		308.968,80.453 	"/>
	<path style="fill:#633E25;" d="M220.692,415.901v26.483c0,14.627-11.855,26.483-26.483,26.483
		c-14.627,0-26.483-11.855-26.483-26.483v-26.483H220.692z"/>
	<g>
		<path style="fill:#805333;" d="M344.278,415.901v26.483c0,14.627-11.855,26.483-26.483,26.483
			c-14.627,0-26.483-11.855-26.483-26.483v-26.483H344.278z"/>
		<polygon style="fill:#805333;" points="503.175,345.097 486.773,308.586 443.032,327.159 462.806,362.937 		"/>
	</g>
	<g>
		<polygon style="fill:#633E25;" points="25.797,307.326 8.831,345.099 49.199,362.94 69.644,325.943 		"/>
		<polygon style="fill:#633E25;" points="246.372,102.12 256.003,80.448 220.693,1 185.382,53.966 220.693,62.793 203.038,80.448 		
			"/>
	</g>
	<g>
		<path style="fill:#472C19;" d="M335.45,301.142H176.554c-4.873,0-8.828-3.946-8.828-8.828s3.955-8.828,8.828-8.828H335.45
			c4.873,0,8.828,3.946,8.828,8.828S340.323,301.142,335.45,301.142"/>
		<path style="fill:#472C19;" d="M211.869,371.763h-0.177c-4.873-0.097-8.748-4.122-8.651-9.004
			c1.209-62.614,48.296-78.23,50.3-78.857c2.304-0.733,4.802-0.468,6.921,0.689c2.119,1.165,3.663,3.151,4.281,5.491
			c0.115,0.45,12.173,44.871,44.835,46.38c4.864,0.221,8.633,4.352,8.413,9.225c-0.23,4.882-4.211,8.916-9.234,8.413
			c-34.269-1.589-51.165-32.971-57.724-49.567c-10.929,6.585-29.458,22.969-30.137,58.58
			C220.599,367.914,216.662,371.763,211.869,371.763"/>
	</g>
	<path style="fill:#805333;" d="M317.795,177.556h-35.31c-4.873,0-8.828-3.946-8.828-8.828c0-4.882,3.955-8.828,8.828-8.828h35.31
		c4.873,0,8.828,3.946,8.828,8.828C326.623,173.61,322.668,177.556,317.795,177.556"/>
</g>
<g>
</g>
<g>
</g>
<g>
</g>
<g>
</g>
<g>
</g>
<g>
</g>
<g>
</g>
<g>
</g>
<g>
</g>
<g>
</g>
<g>
</g>
<g>
</g>
<g>
</g>
<g>
</g>
<g>
</g>
</svg>
