<?xml version="1.0" encoding="iso-8859-1"?>
<!-- Generator: Adobe Illustrator 19.0.0, SVG Export Plug-In . SVG Version: 6.00 Build 0)  -->
<svg version="1.1" id="Layer_1" xmlns="http://www.w3.org/2000/svg" xmlns:xlink="http://www.w3.org/1999/xlink" x="0px" y="0px"
	 viewBox="0 0 511.755 511.755" style="enable-background:new 0 0 511.755 511.755;" xml:space="preserve">
<g>
	<path style="fill:#2C3E50;" d="M157.697,326.621c-10.24,48.154-25.406,118.731-25.406,167.477
		c70.294-0.009,123.586-40.148,123.586-105.931c0,65.783,53.292,105.922,123.586,105.931c0-48.605-14.963-118.36-25.406-167.477
		l-9.675-52.966c1.121-35.584,8.713-71.724,17.611-96.918c0,0,18.573,43.396,24.638,61.608
		c6.073,18.211,45.798,238.345,45.798,238.345l61.793-8.828c-20.966-102.073-68.414-378.483-88.276-397.241
		c-7.106-6.709-30.72-16.419-53.389-23.817c3.513,19.527-8.925,41.295-34.887,41.472c-6.268,0.044-9.454,0-17.655,0l31.303,23.066
		c14.23,10.134,17.161,30.517,5.623,43.635c-0.177,0.194-0.362,0.397-0.539,0.6c-18.211,20.136-56.806,65.112-80.525,65.112
		c-23.729,0-62.323-44.977-80.525-65.112c-0.185-0.203-0.362-0.406-0.538-0.6c-11.538-13.118-8.616-33.501,5.614-43.635
		l31.311-23.066c-8.201,0-11.388,0.044-17.655,0c-25.962-0.177-38.4-21.945-34.887-41.472
		c-22.669,7.398-46.283,17.108-53.389,23.817c-19.862,18.759-67.31,295.168-88.276,397.241l61.793,8.828
		c0,0,39.724-220.134,45.789-238.345c6.073-18.211,24.647-61.608,24.647-61.608c8.898,25.194,16.49,61.334,17.611,96.918
		L157.697,326.621z"/>
	<g>
		<path style="fill:#1E2D3A;" d="M194.082,8.828c-9.251,3.743-17.346,11.555-24.55,18.591c-0.088,0.088-0.177,0.177-0.265,0.265
			c-20.895,20.18-10.487,60.354,24.814,60.593c6.268,0.044,9.454,0,17.655,0l-31.311,23.066
			c-14.23,10.134-17.152,30.517-5.614,43.635c0.177,0.194,0.353,0.397,0.538,0.6c18.211,20.136,56.797,65.112,80.525,65.112v-44.138
			C217.811,153.565,194.082,8.828,194.082,8.828"/>
		<path style="fill:#1E2D3A;" d="M317.669,8.828c9.251,3.743,17.346,11.555,24.549,18.591c0.088,0.088,0.177,0.177,0.265,0.265
			c20.895,20.18,10.487,60.354-24.814,60.593c-6.268,0.044-9.454,0-17.655,0l31.311,23.066c14.23,10.134,17.152,30.517,5.614,43.635
			c-0.177,0.194-0.353,0.397-0.538,0.6c-18.211,20.136-56.797,65.112-80.525,65.112v-44.138
			C293.94,153.565,317.669,8.828,317.669,8.828"/>
	</g>
	<path style="fill:#2C3E50;" d="M255.876,0c-26.483,0-50.158,4.361-61.793,8.828l8.828,44.138h52.966h52.966l8.828-44.138
		C306.034,4.361,282.358,0,255.876,0"/>
	<path style="fill:#0D161C;" d="M255.876,52.966h-52.93c10.169,44.579,28.61,108.906,52.93,123.586
		c24.32-14.68,42.761-79.007,52.93-123.586H255.876z"/>
	<g>
		<path style="fill:#1E2D3A;" d="M255.876,388.168c0,65.783-53.292,105.922-123.586,105.931
			c35.31,17.655,88.276,17.655,123.586,17.655s88.276,0,123.586-17.655C309.168,494.091,255.876,453.952,255.876,388.168"/>
		<path style="fill:#1E2D3A;" d="M255.876,449.961c-4.882,0-8.828-3.946-8.828-8.828V220.691c0-4.873,3.946-8.828,8.828-8.828
			c4.882,0,8.828,3.955,8.828,8.828v220.442C264.703,446.016,260.757,449.961,255.876,449.961"/>
	</g>
</g>
<g>
</g>
<g>
</g>
<g>
</g>
<g>
</g>
<g>
</g>
<g>
</g>
<g>
</g>
<g>
</g>
<g>
</g>
<g>
</g>
<g>
</g>
<g>
</g>
<g>
</g>
<g>
</g>
<g>
</g>
</svg>
