<?xml version="1.0" encoding="iso-8859-1"?>
<!-- Generator: Adobe Illustrator 19.0.0, SVG Export Plug-In . SVG Version: 6.00 Build 0)  -->
<svg version="1.1" id="Layer_1" xmlns="http://www.w3.org/2000/svg" xmlns:xlink="http://www.w3.org/1999/xlink" x="0px" y="0px"
	 viewBox="0 0 511.998 511.998" style="enable-background:new 0 0 511.998 511.998;" xml:space="preserve">
<g transform="translate(0 -1)">
	<path style="fill:#CBB292;" d="M406.068,71.621c-7.998-7.548-36.873-18.909-61.793-26.483l-13.374,72.448
		c-5.791,33.333-22.06,64.335-47.642,86.466c-9.092,7.865-18.538,14.151-27.26,17.638c-8.722-3.487-18.167-9.772-27.26-17.638
		c-25.582-22.131-41.852-53.133-47.643-86.466l-13.374-72.448c-24.92,7.574-53.795,18.935-61.793,26.483
		C86.068,90.379,38.62,366.798,17.654,468.862l61.793,8.828c0,0,39.724-220.142,45.789-238.345
		c6.073-18.211,24.647-61.608,24.647-61.608c8.898,25.194,16.49,61.334,17.611,96.918h-8.598
		c-3.293,15.819-5.455,34.004-8.828,52.966h7.203c-10.417,46.654-24.858,119.958-24.858,167.724h1.315
		c69.8-0.486,122.271-40.466,122.271-105.931c0,65.474,52.489,105.419,122.297,105.931h1.289c0-47.766-14.442-121.07-24.858-167.724
		h7.203c-3.372-18.962-5.535-37.146-8.828-52.966h-8.598c1.121-35.584,8.713-71.724,17.611-96.918c0,0,18.573,43.396,24.638,61.608
		c6.073,18.202,45.798,238.345,45.798,238.345l61.793-8.828C473.378,366.798,425.93,90.379,406.068,71.621"/>
	<g>
		<path style="fill:#7F6E5D;" d="M229.516,309.966V292.31c0-6.815,2.648-12.959,6.877-17.655h-77.497
			c-3.293,15.819-5.455,34.004-8.828,52.966h86.325C232.165,322.924,229.516,316.78,229.516,309.966"/>
		<path style="fill:#7F6E5D;" d="M282.482,309.966V292.31c0-6.815-2.648-12.959-6.877-17.655h77.497
			c3.293,15.819,5.455,34.004,8.828,52.966h-86.325C279.834,322.924,282.482,316.78,282.482,309.966"/>
	</g>
	<path style="fill:#CBB292;" d="M317.792,9.828C308.965,1,282.482,1,255.999,1s-52.966,0-61.793,8.828l8.828,44.138h52.966h52.966
		L317.792,9.828z"/>
	<g>
		<path style="fill:#7F6E5D;" d="M228.738,204.052c9.092,7.865,18.538,14.151,27.26,17.638v-44.138
			c-17.655-17.655-52.966-105.931-52.966-123.586l-8.828-44.138l-26.483,35.31l13.383,72.448
			C186.886,150.919,203.155,181.921,228.738,204.052"/>
		<path style="fill:#7F6E5D;" d="M283.26,204.052c-9.092,7.865-18.538,14.151-27.26,17.638v-44.138
			c17.655-17.655,52.966-105.931,52.966-123.586l8.828-44.138l26.483,35.31l-13.383,72.448
			C325.112,150.919,308.843,181.921,283.26,204.052"/>
	</g>
	<path style="fill:#5E4F41;" d="M255.999,53.966h-52.966c0,17.655,35.31,105.931,52.966,123.586
		c17.655-17.655,52.966-105.931,52.966-123.586H255.999z"/>
	<g>
		<path style="fill:#7F6E5D;" d="M379.213,495.387c-70.276-0.071-123.215-40.21-123.215-105.975
			c0,65.783-52.957,105.966-123.251,105.975h-0.009l-0.327-0.044c35.31,17.655,88.276,17.655,123.586,17.655
			s88.276,0,123.586-17.655l-0.318,0.044H379.213"/>
		<path style="fill:#7F6E5D;" d="M255.999,442.379c-4.873,0-8.828-3.946-8.828-8.828v-97.103c0-4.882,3.955-8.828,8.828-8.828
			c4.873,0,8.828,3.946,8.828,8.828v97.103C264.827,438.433,260.872,442.379,255.999,442.379"/>
		<path style="fill:#7F6E5D;" d="M255.999,274.655c-4.873,0-8.828-3.946-8.828-8.828V221.69c0-4.882,3.955-8.828,8.828-8.828
			c4.873,0,8.828,3.946,8.828,8.828v44.138C264.827,270.709,260.872,274.655,255.999,274.655"/>
	</g>
	<path style="fill:#5E4F41;" d="M255.999,336.448L255.999,336.448c-14.627,0-26.483-11.855-26.483-26.483V292.31
		c0-14.627,11.855-26.483,26.483-26.483c14.627,0,26.483,11.855,26.483,26.483v17.655
		C282.482,324.593,270.626,336.448,255.999,336.448"/>
	<path style="fill:#CBB292;" d="M264.827,301.138c0-4.873-3.955-8.828-8.828-8.828c-4.873,0-8.828,3.955-8.828,8.828
		s3.955,8.828,8.828,8.828C260.872,309.966,264.827,306.011,264.827,301.138"/>
</g>
<g>
</g>
<g>
</g>
<g>
</g>
<g>
</g>
<g>
</g>
<g>
</g>
<g>
</g>
<g>
</g>
<g>
</g>
<g>
</g>
<g>
</g>
<g>
</g>
<g>
</g>
<g>
</g>
<g>
</g>
</svg>
