<?xml version="1.0" encoding="iso-8859-1"?>
<!-- Generator: Adobe Illustrator 19.0.0, SVG Export Plug-In . SVG Version: 6.00 Build 0)  -->
<svg version="1.1" id="Layer_1" xmlns="http://www.w3.org/2000/svg" xmlns:xlink="http://www.w3.org/1999/xlink" x="0px" y="0px"
	 viewBox="0 0 512 512" style="enable-background:new 0 0 512 512;" xml:space="preserve">
<g transform="translate(0 -1)">
	<path style="fill:#8697CB;" d="M256,221.69c-23.729,0-62.314-44.977-80.525-65.112c-0.185-0.203-0.362-0.406-0.538-0.6
		c-11.538-13.118-8.616-33.501,5.614-43.635l31.311-23.066c-8.201,0-11.388,0.044-17.655,0c-25.962-0.177-38.4-21.945-34.887-41.472
		c-22.669,7.398-46.283,17.108-53.389,23.817c-19.862,18.759-67.31,295.168-88.276,397.241l61.793,8.828
		c0,0,39.724-220.142,45.789-238.345c6.073-18.202,24.647-61.608,24.647-61.608c9.631,27.277,17.841,67.407,17.841,105.746
		c0,0-35.31,146.026-35.31,220.69c0,0,61.793,8.828,123.586,8.828s123.586-8.828,123.586-8.828c0-74.664-35.31-220.69-35.31-220.69
		c0-38.338,8.21-78.468,17.841-105.746c0,0,18.573,43.405,24.647,61.608c6.065,18.202,45.789,238.345,45.789,238.345l61.793-8.828
		c-20.966-102.073-68.414-378.483-88.276-397.241c-7.106-6.709-30.72-16.419-53.389-23.817c3.513,19.527-8.925,41.295-34.887,41.472
		c-6.268,0.044-9.454,0-17.655,0l31.311,23.066c14.23,10.134,17.152,30.517,5.614,43.635c-0.177,0.194-0.353,0.397-0.538,0.6
		C318.314,176.713,279.729,221.69,256,221.69"/>
	<g>
		<path style="fill:#556080;" d="M264.828,274.655c0-4.873-3.955-8.828-8.828-8.828s-8.828,3.955-8.828,8.828
			s3.955,8.828,8.828,8.828S264.828,279.528,264.828,274.655"/>
		<path style="fill:#556080;" d="M264.828,327.621c0-4.873-3.955-8.828-8.828-8.828s-8.828,3.955-8.828,8.828
			s3.955,8.828,8.828,8.828S264.828,332.494,264.828,327.621"/>
		<path style="fill:#556080;" d="M264.828,380.586c0-4.873-3.955-8.828-8.828-8.828s-8.828,3.955-8.828,8.828
			s3.955,8.828,8.828,8.828S264.828,385.459,264.828,380.586"/>
		<path style="fill:#556080;" d="M264.828,433.552c0-4.873-3.955-8.828-8.828-8.828s-8.828,3.955-8.828,8.828
			s3.955,8.828,8.828,8.828S264.828,438.425,264.828,433.552"/>
		<path style="fill:#556080;" d="M194.207,9.828c-9.251,3.743-17.346,11.555-24.55,18.591c-0.088,0.088-0.177,0.177-0.265,0.265
			c-20.895,20.18-10.487,60.354,24.814,60.593c6.268,0.044,9.454,0,17.655,0l-31.311,23.066
			c-14.23,10.134-17.152,30.517-5.614,43.635c0.177,0.194,0.353,0.397,0.538,0.6c18.211,20.136,56.797,65.112,80.525,65.112v-44.138
			C217.935,154.565,194.207,9.828,194.207,9.828"/>
		<path style="fill:#556080;" d="M317.793,9.828c9.251,3.743,17.346,11.555,24.549,18.591c0.088,0.088,0.177,0.177,0.265,0.265
			c20.895,20.18,10.487,60.354-24.814,60.593c-6.268,0.044-9.454,0-17.655,0l31.311,23.066c14.23,10.134,17.152,30.517,5.614,43.635
			c-0.177,0.194-0.353,0.397-0.538,0.6C318.314,176.713,279.729,221.69,256,221.69v-44.138
			C294.065,154.565,317.793,9.828,317.793,9.828"/>
	</g>
	<path style="fill:#8697CB;" d="M256,1c-26.483,0-50.158,4.361-61.793,8.828l8.828,44.138H256h52.966l8.828-44.138
		C306.158,5.361,282.483,1,256,1"/>
	<path style="fill:#424B63;" d="M256,53.966h-52.93c10.169,44.579,28.61,108.906,52.93,123.586
		c24.32-14.68,42.761-79.007,52.93-123.586H256z"/>
</g>
<g>
</g>
<g>
</g>
<g>
</g>
<g>
</g>
<g>
</g>
<g>
</g>
<g>
</g>
<g>
</g>
<g>
</g>
<g>
</g>
<g>
</g>
<g>
</g>
<g>
</g>
<g>
</g>
<g>
</g>
</svg>
