<?xml version="1.0" encoding="iso-8859-1"?>
<!-- Generator: Adobe Illustrator 19.0.0, SVG Export Plug-In . SVG Version: 6.00 Build 0)  -->
<svg version="1.1" id="Layer_1" xmlns="http://www.w3.org/2000/svg" xmlns:xlink="http://www.w3.org/1999/xlink" x="0px" y="0px"
	 viewBox="0 0 511.998 511.998" style="enable-background:new 0 0 511.998 511.998;" xml:space="preserve">
<g transform="translate(0 -1)">
	<g>
		<path style="fill:#B19046;" d="M167.494,274.655c-1.121-35.584-8.713-71.724-17.611-96.918c0,0-18.573,43.405-24.647,61.608
			c-6.065,18.211-45.789,238.345-45.789,238.345l-61.793-8.828C38.62,366.798,86.068,90.379,105.93,71.621
			c7.989-7.548,36.864-18.909,61.793-26.483l13.374,72.448c5.782,33.333,22.06,64.335,47.634,86.466
			c9.101,7.865,18.547,14.151,27.268,17.638c8.722-3.487,18.167-9.772,27.26-17.638c25.582-22.131,41.852-53.133,47.634-86.466
			l13.383-72.448c24.92,7.574,53.795,18.935,61.793,26.483c19.862,18.759,67.31,295.177,88.276,397.241l-61.793,8.828
			c0,0-39.724-220.134-45.798-238.345c-6.065-18.202-24.638-61.608-24.638-61.608c-8.898,25.194-16.49,61.334-17.62,96.918
			l10.231,52.966c10.417,46.654,24.858,119.958,24.858,167.724h-1.315c-69.8-0.486-122.271-40.466-122.271-105.931
			c0,65.474-52.489,105.419-122.297,105.931h-1.289c0-47.766,14.442-121.07,24.85-167.724L167.494,274.655z"/>
		<path style="fill:#B19046;" d="M317.79,9.828C308.962,1,282.479,1,255.996,1s-52.966,0-61.793,8.828l8.828,44.138h52.966h52.966
			L317.79,9.828z"/>
	</g>
	<g>
		<path style="fill:#937438;" d="M255.996,53.966h-52.966c0,17.655,35.31,105.931,52.966,123.586
			c17.655-17.655,52.966-105.931,52.966-123.586H255.996z"/>
		<path style="fill:#937438;" d="M379.21,495.387c-70.276-0.071-123.215-40.21-123.215-105.975
			c0,65.783-52.957,105.966-123.251,105.975h-0.009l-0.327-0.044c35.31,17.655,88.276,17.655,123.586,17.655
			s88.276,0,123.586-17.655l-0.318,0.044H379.21"/>
	</g>
	<g>
		<polygon style="fill:#E4C05C;" points="176.548,354.103 176.548,389.414 203.031,415.897 229.514,389.414 229.514,354.103 		"/>
		<polygon style="fill:#E4C05C;" points="335.445,354.103 335.445,389.414 308.962,415.897 282.479,389.414 282.479,354.103 		"/>
		<path style="fill:#E4C05C;" d="M344.499,274.655c0.088-2.94,0.291-5.888,0.468-8.828h-62.49v52.966h70.55L344.499,274.655z"/>
		<path style="fill:#E4C05C;" d="M167.494,274.655l-8.527,44.138h70.55v-52.966h-62.49
			C167.202,268.767,167.405,271.716,167.494,274.655"/>
	</g>
	<g>
		<path style="fill:#937438;" d="M255.996,265.828c-4.873,0-8.828-3.946-8.828-8.828v-44.138c0-4.882,3.955-8.828,8.828-8.828
			c4.873,0,8.828,3.946,8.828,8.828V257C264.824,261.882,260.869,265.828,255.996,265.828"/>
		<path style="fill:#937438;" d="M255.996,433.552c-4.873,0-8.828-3.946-8.828-8.828v-97.103c0-4.882,3.955-8.828,8.828-8.828
			c4.873,0,8.828,3.946,8.828,8.828v97.103C264.824,429.606,260.869,433.552,255.996,433.552"/>
		<polygon style="fill:#937438;" points="229.514,327.622 282.479,327.622 282.479,257.002 229.514,257.002 		"/>
	</g>
	<g>
		<path style="fill:#E4C05C;" d="M264.824,292.31c0-4.873-3.955-8.828-8.828-8.828c-4.873,0-8.828,3.955-8.828,8.828
			c0,4.873,3.955,8.828,8.828,8.828C260.869,301.138,264.824,297.183,264.824,292.31"/>
		<path style="fill:#E4C05C;" d="M228.735,204.052c9.092,7.865,18.538,14.151,27.26,17.638v-44.138
			c-17.655-17.655-52.966-105.931-52.966-123.586l-8.828-44.138l-26.483,35.31l13.383,72.448
			C186.884,150.919,203.153,181.921,228.735,204.052"/>
		<path style="fill:#E4C05C;" d="M283.258,204.052c-9.092,7.865-18.538,14.151-27.26,17.638v-44.138
			c17.655-17.655,52.966-105.931,52.966-123.586l8.828-44.138l26.483,35.31l-13.383,72.448
			C325.109,150.919,308.84,181.921,283.258,204.052"/>
	</g>
</g>
<g>
</g>
<g>
</g>
<g>
</g>
<g>
</g>
<g>
</g>
<g>
</g>
<g>
</g>
<g>
</g>
<g>
</g>
<g>
</g>
<g>
</g>
<g>
</g>
<g>
</g>
<g>
</g>
<g>
</g>
</svg>
