<?xml version="1.0" encoding="iso-8859-1"?>
<!-- Generator: Adobe Illustrator 19.0.0, SVG Export Plug-In . SVG Version: 6.00 Build 0)  -->
<svg version="1.1" id="Layer_1" xmlns="http://www.w3.org/2000/svg" xmlns:xlink="http://www.w3.org/1999/xlink" x="0px" y="0px"
	 viewBox="0 0 512.004 512.004" style="enable-background:new 0 0 512.004 512.004;" xml:space="preserve">
<g transform="translate(0 -1)">
	<path style="fill:#8697CB;" d="M167.497,274.66c-1.121-35.584-8.713-71.724-17.611-96.918c0,0-18.573,43.405-24.647,61.608
		c-6.065,18.211-45.789,238.345-45.789,238.345l-61.793-8.828C38.623,366.802,86.071,90.384,105.933,71.625
		c7.133-6.744,30.199-19.076,52.966-26.483c-1.51,1.88,28.478,38.841,40.483,42.717c11.485,3.708,21.954,0.547,32.433-4.378
		c8.077-3.805,15.969-8.422,24.188-11.953c8.21,3.531,16.102,8.148,24.179,11.953c10.478,4.926,20.948,8.086,32.433,4.378
		c12.006-3.875,41.993-40.836,40.492-42.717c22.758,7.406,45.824,19.738,52.966,26.483c19.862,18.759,67.31,295.177,88.276,397.241
		l-61.793,8.828c0,0-39.724-220.134-45.798-238.345c-6.065-18.202-24.647-61.608-24.647-61.608
		c-8.889,25.194-16.49,61.334-17.611,96.918l10.231,52.966c10.417,46.654,24.858,119.958,24.858,167.724
		c-35.31,17.655-88.276,17.655-123.586,17.655s-88.276,0-123.586-17.655c0-47.766,14.442-121.07,24.85-167.724L167.497,274.66z"/>
	<polygon style="fill:#424B63;" points="255.999,71.524 317.792,1 194.206,1 	"/>
	<g>
		<path style="fill:#556080;" d="M194.206,1.004l61.793,70.515c-8.218,3.54-16.11,8.166-24.188,11.961
			c-10.47,4.926-20.948,8.086-32.433,4.378c-11.997-3.875-41.984-40.836-40.483-42.717L194.206,1.004z"/>
		<path style="fill:#556080;" d="M317.792,1.004l-61.793,70.515c8.218,3.54,16.11,8.166,24.188,11.961
			c10.47,4.926,20.948,8.086,32.433,4.378c11.997-3.875,41.984-40.836,40.483-42.717L317.792,1.004z"/>
		<path style="fill:#556080;" d="M273.559,265.832h-35.31c-4.873,0-8.828-3.946-8.828-8.828c0-4.882,3.955-8.828,8.828-8.828h35.31
			c4.873,0,8.828,3.946,8.828,8.828C282.387,261.886,278.432,265.832,273.559,265.832"/>
		<path style="fill:#556080;" d="M273.559,318.798h-35.31c-4.873,0-8.828-3.946-8.828-8.828s3.955-8.828,8.828-8.828h35.31
			c4.873,0,8.828,3.946,8.828,8.828S278.432,318.798,273.559,318.798"/>
		<path style="fill:#556080;" d="M273.559,371.763h-35.31c-4.873,0-8.828-3.946-8.828-8.828s3.955-8.828,8.828-8.828h35.31
			c4.873,0,8.828,3.946,8.828,8.828S278.432,371.763,273.559,371.763"/>
		<path style="fill:#556080;" d="M273.559,159.901h-35.31c-4.873,0-8.828-3.946-8.828-8.828c0-4.882,3.955-8.828,8.828-8.828h35.31
			c4.873,0,8.828,3.946,8.828,8.828C282.387,155.955,278.432,159.901,273.559,159.901"/>
		<path style="fill:#556080;" d="M273.559,212.866h-35.31c-4.873,0-8.828-3.946-8.828-8.828c0-4.882,3.955-8.828,8.828-8.828h35.31
			c4.873,0,8.828,3.946,8.828,8.828C282.387,208.921,278.432,212.866,273.559,212.866"/>
		<path style="fill:#556080;" d="M273.559,424.729h-35.31c-4.873,0-8.828-3.946-8.828-8.828s3.955-8.828,8.828-8.828h35.31
			c4.873,0,8.828,3.946,8.828,8.828S278.432,424.729,273.559,424.729"/>
		<path style="fill:#556080;" d="M273.559,477.694h-35.31c-4.873,0-8.828-3.946-8.828-8.828s3.955-8.828,8.828-8.828h35.31
			c4.873,0,8.828,3.946,8.828,8.828S278.432,477.694,273.559,477.694"/>
		<path style="fill:#556080;" d="M358.58,345.298c-0.212,0-0.424-0.018-0.636-0.018h-48.887c0,35.972,26.924,65.598,61.705,69.994
			c0.309,0,0.636-0.062,0.953-0.071C367.84,390.848,363.073,366.414,358.58,345.298"/>
		<path style="fill:#556080;" d="M141.24,415.276c34.781-4.396,61.696-34.022,61.696-69.994h-48.887
			c-0.212,0-0.424,0.018-0.627,0.018c-4.493,21.116-9.269,45.55-13.135,69.906C140.604,415.214,140.922,415.276,141.24,415.276"/>
		<path style="fill:#556080;" d="M247.171,75.798v437.186c2.984,0.009,6.047,0.018,8.828,0.018c2.781,0,5.844-0.009,8.828-0.018
			V75.798c-2.922-1.483-5.844-2.993-8.828-4.273C253.015,72.805,250.093,74.315,247.171,75.798"/>
	</g>
</g>
<g>
</g>
<g>
</g>
<g>
</g>
<g>
</g>
<g>
</g>
<g>
</g>
<g>
</g>
<g>
</g>
<g>
</g>
<g>
</g>
<g>
</g>
<g>
</g>
<g>
</g>
<g>
</g>
<g>
</g>
</svg>
