<?xml version="1.0" encoding="iso-8859-1"?>
<!-- Generator: Adobe Illustrator 19.0.0, SVG Export Plug-In . SVG Version: 6.00 Build 0)  -->
<svg version="1.1" id="Layer_1" xmlns="http://www.w3.org/2000/svg" xmlns:xlink="http://www.w3.org/1999/xlink" x="0px" y="0px"
	 viewBox="0 0 512 512" style="enable-background:new 0 0 512 512;" xml:space="preserve">
<g transform="translate(0 -1)">
	<g>
		<path style="fill:#AA7948;" d="M123.591,362.931h-0.177c-4.873-0.097-8.748-4.122-8.651-9.004
			c0.971-50.564,45.356-73.825,68.687-79.06c4.714-1.112,9.472,1.924,10.54,6.682c1.068,4.749-1.916,9.472-6.656,10.549
			c-2.207,0.494-53.972,12.932-54.916,62.182C132.321,359.082,128.384,362.931,123.591,362.931"/>
		<path style="fill:#AA7948;" d="M397.25,345.276c-0.141,0-0.274,0-0.415-0.009c-43.926-2.03-76.412-54.969-77.771-57.212
			c-2.516-4.175-1.183-9.596,2.984-12.111c4.175-2.551,9.596-1.192,12.12,2.966c0.291,0.468,28.99,47.122,63.479,48.719
			c4.873,0.221,8.633,4.352,8.413,9.225C405.839,341.586,401.938,345.276,397.25,345.276"/>
	</g>
	<g>
		<path style="fill:#CE995B;" d="M220.69,1l-72.095,36.043c-11.061,5.535-17.461,17.673-15.351,30.146
			c-0.053,0.441-0.097,0.847-0.15,1.28L8.828,345.09l40.369,17.841l101.985-184.497c8.236,28.884,34.198,87.393,34.198,87.393
			v20.798c0,21.01-5.976,41.587-17.24,59.321c-23.331,36.758-35.725,79.387-35.725,122.915V513h93.475
			c7.918-62.632,12.456-134.868,12.456-211.862c0-75.891-4.414-147.121-12.129-209.099l-23.181-11.591l17.655-17.655l-35.31-8.828
			l28.01-42.01L220.69,1z"/>
		<path style="fill:#CE995B;" d="M291.31,1l72.095,36.043c11.061,5.535,17.461,17.673,15.351,30.146
			c0.053,0.441,0.097,0.847,0.15,1.28L503.172,345.09l-40.369,17.841L360.819,178.434c-8.236,28.884-34.198,87.393-34.198,87.393
			v20.798c0,21.01,5.976,41.587,17.24,59.321c23.331,36.758,35.725,79.387,35.725,122.915V513h-93.475
			c-7.918-62.632-12.456-134.868-12.456-211.862c0-75.891,4.414-147.121,12.129-209.099l23.181-11.591L291.31,62.793l35.31-8.828
			l-28.01-42.01L291.31,1z"/>
	</g>
	<polygon style="fill:#AA7948;" points="220.69,1 291.31,1 256,80.448 	"/>
	<g>
		<polygon style="fill:#895C34;" points="256,106.931 256,80.448 291.31,1 326.621,53.966 291.31,62.793 308.966,80.448 		"/>
		<polygon style="fill:#895C34;" points="256,106.931 256,80.448 220.69,1 185.379,53.966 220.69,62.793 203.034,80.448 		"/>
	</g>
	<g>
		<polygon style="fill:#AA7948;" points="503.172,345.092 486.771,308.581 443.03,327.155 462.804,362.933 		"/>
		<polygon style="fill:#AA7948;" points="25.795,307.322 8.828,345.095 49.197,362.935 69.642,325.939 		"/>
		<path style="fill:#AA7948;" d="M203.034,442.379h-35.31c-4.873,0-8.828-3.946-8.828-8.828s3.955-8.828,8.828-8.828h35.31
			c4.873,0,8.828,3.946,8.828,8.828S207.907,442.379,203.034,442.379"/>
		<path style="fill:#AA7948;" d="M344.276,442.379h-35.31c-4.873,0-8.828-3.946-8.828-8.828s3.955-8.828,8.828-8.828h35.31
			c4.873,0,8.828,3.946,8.828,8.828S349.149,442.379,344.276,442.379"/>
		<path style="fill:#AA7948;" d="M211.862,301.138c-4.873,0-8.828-3.946-8.828-8.828v-8.828c0-4.882,3.955-8.828,8.828-8.828
			c4.873,0,8.828,3.946,8.828,8.828v8.828C220.69,297.192,216.735,301.138,211.862,301.138"/>
		<path style="fill:#AA7948;" d="M300.138,301.138c-4.873,0-8.828-3.946-8.828-8.828v-8.828c0-4.882,3.955-8.828,8.828-8.828
			c4.873,0,8.828,3.946,8.828,8.828v8.828C308.966,297.192,305.011,301.138,300.138,301.138"/>
		<path style="fill:#AA7948;" d="M286.108,513c-7.918-62.632-12.456-134.868-12.456-211.862c0-75.891,4.423-147.121,12.129-209.099
			l-29.784,14.892l-29.784-14.892c7.715,61.978,12.129,133.208,12.129,209.099c0,76.994-4.537,149.23-12.447,211.862H286.108z"/>
	</g>
</g>
<g>
</g>
<g>
</g>
<g>
</g>
<g>
</g>
<g>
</g>
<g>
</g>
<g>
</g>
<g>
</g>
<g>
</g>
<g>
</g>
<g>
</g>
<g>
</g>
<g>
</g>
<g>
</g>
<g>
</g>
</svg>
