<svg height="512" viewBox="0 0 54 59" width="512" xmlns="http://www.w3.org/2000/svg"><g id="079---Skirt" fill="none"><path id="Shape" d="m43 2v6h-32v-6c0-.55228475.4477153-1 1-1h30c.5522847 0 1 .44771525 1 1z" fill="#2fa8cc"/><path id="Shape" d="m54 52s-8 6.22-24 6.93c-13.91.64-25.45-3.39-30-6.93.45628469-10.8822215 2.4079247-21.6498905 5.8-32 1.39812754-4.4600101 3.13656814-8.8061116 5.2-13h32c2.3236149 4.8413809 4.2661697 9.8565825 5.81 15 3.014403 9.7348431 4.7588336 19.818257 5.19 30z" fill="#3b97d3"/><path id="Shape" d="m30 1v57.93c-.65 0-1.32 0-2 .06v-57.99z" fill="#2980ba"/><g fill="#35495e"><circle id="Oval" cx="25" cy="12" r="1"/><circle id="Oval" cx="25" cy="20" r="1"/><circle id="Oval" cx="25" cy="28" r="1"/><circle id="Oval" cx="25" cy="36" r="1"/><circle id="Oval" cx="25" cy="44" r="1"/><circle id="Oval" cx="25" cy="52" r="1"/></g><path id="Shape" d="m17 9c-.5522847 0-1-.44771525-1-1v-7c0-.55228475.4477153-1 1-1s1 .44771525 1 1v7c0 .55228475-.4477153 1-1 1z" fill="#2980ba"/><path id="Shape" d="m37 9c-.5522847 0-1-.44771525-1-1v-7c0-.55228475.4477153-1 1-1s1 .44771525 1 1v7c0 .55228475-.4477153 1-1 1z" fill="#2980ba"/><path id="Shape" d="m15 12v5c0 2.7614237-2.2385763 5-5 5-5 0-4.6 0-4.81 0 .19-.67.4-1.32.61-1.95h4.2c1.6568542 0 3-1.3431458 3-3v-5.05c0-.5522847.4477153-1 1-1s1 .4477153 1 1z" fill="#2980ba"/><path id="Shape" d="m48.81 22c-.22.07.08.05-4.81.05-2.7614237 0-5-2.2385763-5-5v-5.05c0-.5522847.4477153-1 1-1s1 .4477153 1 1v5c0 1.6568542 1.3431458 3 3 3h4.2c.21.63.42 1.28.61 2z" fill="#2980ba"/></g></svg>