<svg height="512" viewBox="0 0 46 58" width="512" xmlns="http://www.w3.org/2000/svg"><g id="080---Skirt" fill="none"><path id="Shape" d="m34.77 58c.758944-.0004027 1.45227-.4303423 1.79-1.11 2.11-4.28 9.44-20.19 9.44-33.89 0-13.23-5.47-20.31-7.37-22.36-.3769436-.40644632-.9056699-.63821676-1.46-.64h-28.34c-.55433012.00178324-1.08305643.23355368-1.46.64-1.9 2.05-7.37 9.13-7.37 22.36 0 13.7 7.33 29.61 9.44 33.89.33773001.6796577 1.031056 1.1095973 1.79 1.11z" fill="#2c3e50"/><path id="Shape" d="m33.23 58c.6969053-.0196413 1.3130203-.4580308 1.56-1.11 1.83-4.28 8.21-20.19 8.21-33.89 0-13.23-4.76-20.31-6.4-22.36-.306175-.39805718-.7778493-.63389432-1.28-.64h-24.64c-.5021507.00610568-.97382501.24194282-1.28.64-1.64 2.05-6.4 9.13-6.4 22.36 0 13.7 6.38 29.61 8.21 33.89.2469797.6519692.8630947 1.0903587 1.56 1.11z" fill="#35495e"/><path id="Shape" d="m35 6h-25c-.55228475 0-1-.44771525-1-1s.44771525-1 1-1h25c.5522847 0 1 .44771525 1 1s-.4477153 1-1 1z" fill="#547580"/><path id="Shape" d="m12 12v4h-11.45c.22254766-1.3487504.51966989-2.6841312.89-4z" fill="#df4d60"/><path id="Shape" d="m45.45 16h-11.45v-4h10.56c.3703301 1.3158688.6674523 2.6512496.89 4z" fill="#df4d60"/><path id="Shape" d="m27 11.07 5.3-1.94c.6134931-.229222 1.3003437-.14355593 1.8387397.22933313.5383959.37288905.8601148.98575077.8612603 1.64066687v6c-.0140363.6478187-.3410499 1.2486929-.8774277 1.6122378s-1.2156428.444704-1.8225723.2177622l-5.3-1.9h-8l-5.3 1.94c-.6134931.229222-1.3003437.1435559-1.8387397-.2293331-.5383959-.3728891-.8601148-.9857508-.8612603-1.6406669v-6c.0140363-.6478187.3410499-1.24869288.8774277-1.61223781s1.2156428-.44470398 1.8225723-.21776219l5.3 1.9z" fill="#ff5364"/><rect id="Rectangle-path" fill="#fb7b76" height="8" rx="2" width="8" x="19" y="10"/></g></svg>