<?xml version="1.0" encoding="iso-8859-1"?>
<!-- Generator: Adobe Illustrator 19.0.0, SVG Export Plug-In . SVG Version: 6.00 Build 0)  -->
<svg version="1.1" id="Layer_1" xmlns="http://www.w3.org/2000/svg" xmlns:xlink="http://www.w3.org/1999/xlink" x="0px" y="0px"
	 viewBox="0 0 512 512" style="enable-background:new 0 0 512 512;" xml:space="preserve">
<g transform="translate(0 -1)">
	<path style="fill:#3A2113;" d="M264.828,53.966h-17.655c-14.627,0-26.483-11.855-26.483-26.483S232.545,1,247.172,1h17.655
		c14.627,0,26.483,11.855,26.483,26.483S279.455,53.966,264.828,53.966"/>
	<g>
		<path style="fill:#5B3821;" d="M220.69,27.483c0-6.815,2.648-12.959,6.877-17.655h-59.842v35.31h59.842
			C223.338,40.442,220.69,34.298,220.69,27.483"/>
		<path style="fill:#5B3821;" d="M284.437,9.828c4.228,4.696,6.877,10.84,6.877,17.655s-2.648,12.959-6.877,17.655h59.842V9.828
			H284.437z"/>
	</g>
	<path style="fill:#805333;" d="M158.897,486.517c0,0,35.31,26.483,97.103,26.483s97.103-26.483,97.103-26.483v-61.793
		c0-35.31,26.483-203.034,26.483-256s-26.483-114.759-35.31-123.586h-59.842c-4.846,5.376-11.794,8.828-19.606,8.828h-17.655
		c-7.812,0-14.76-3.452-19.606-8.828h-59.842c-8.828,8.828-35.31,70.621-35.31,123.586s26.483,220.69,26.483,256V486.517z"/>
	<path style="fill:#5B3821;" d="M232.909,511.708c7.23,0.803,14.91,1.289,23.093,1.289c8.174,0,15.854-0.485,23.093-1.289
		l-23.093-184.09L232.909,511.708z"/>
</g>
<g>
</g>
<g>
</g>
<g>
</g>
<g>
</g>
<g>
</g>
<g>
</g>
<g>
</g>
<g>
</g>
<g>
</g>
<g>
</g>
<g>
</g>
<g>
</g>
<g>
</g>
<g>
</g>
<g>
</g>
</svg>
