<?xml version="1.0" encoding="iso-8859-1"?>
<!-- Generator: Adobe Illustrator 19.0.0, SVG Export Plug-In . SVG Version: 6.00 Build 0)  -->
<svg version="1.1" id="Layer_1" xmlns="http://www.w3.org/2000/svg" xmlns:xlink="http://www.w3.org/1999/xlink" x="0px" y="0px"
	 viewBox="0 0 511.998 511.998" style="enable-background:new 0 0 511.998 511.998;" xml:space="preserve">
<g transform="translate(-1 -1)">
	<g>
		<polygon style="fill:#7C4B8C;" points="195.206,53.966 230.516,53.966 230.516,1 195.206,1 		"/>
		<polygon style="fill:#7C4B8C;" points="283.482,53.966 318.792,53.966 318.792,1 283.482,1 		"/>
	</g>
	<g>
		<polygon style="fill:#4D2E59;" points="195.206,9.826 168.723,9.826 151.068,45.136 195.206,45.136 		"/>
		<polygon style="fill:#4D2E59;" points="318.792,45.136 362.93,45.136 345.275,9.826 318.792,9.826 		"/>
		<polygon style="fill:#4D2E59;" points="283.482,9.826 256.999,9.826 230.516,9.826 230.516,45.136 283.482,45.136 		"/>
	</g>
	<path style="fill:#955BA5;" d="M362.93,45.136h-44.138v8.828h-35.31v-8.828h-52.966v8.828h-35.31v-8.828h-44.138
		c-32.044,71.062-45.727,116.559-26.483,220.69c19.518,105.604,35.31,220.69,35.31,220.69s35.31,26.483,97.103,26.483
		s97.103-26.483,97.103-26.483s15.793-115.085,35.31-220.69C408.657,161.696,394.974,116.198,362.93,45.136"/>
	<g>
		<path style="fill:#F0C419;" d="M301.137,292.309c0-29.255-23.711-52.965-52.966-52.965s-52.966,23.711-52.966,52.965
			c0,29.255,23.711,52.966,52.966,52.966S301.137,321.563,301.137,292.309"/>
		<path style="fill:#F0C419;" d="M336.447,186.378c0,29.255,23.711,52.966,52.966,52.966c1.465,0,2.895-0.106,4.326-0.221
			c6.144-43.123,5.703-75.67-0.009-105.49c-1.43-0.115-2.86-0.221-4.317-0.221C360.158,133.412,336.447,157.123,336.447,186.378"/>
		<path style="fill:#F0C419;" d="M379.929,319.392c-2.684-0.353-5.394-0.6-8.174-0.6c-34.127,0-61.793,27.666-61.793,61.793
			c0,30.314,21.848,55.481,50.644,60.734C365.231,410.052,372.019,365.861,379.929,319.392"/>
		<path style="fill:#F0C419;" d="M159.896,486.515c0,0,19.076,14.23,53.61,21.822c5.182-9.039,8.183-19.482,8.183-30.649
			c0-34.127-27.666-61.793-61.793-61.793c-3.478,0-6.859,0.353-10.178,0.909C156.012,458.205,159.896,486.515,159.896,486.515"/>
		<path style="fill:#F0C419;" d="M115.805,180.155c-0.194,24.32,2.534,51.88,8.783,85.672c1.633,8.863,3.249,17.796,4.82,26.721
			c18.229-10.743,30.49-30.517,30.49-53.204C159.899,211.369,141.299,187.773,115.805,180.155"/>
		<path style="fill:#F0C419;" d="M252.43,45.136h-21.91v8.828h-35.31v-8.828h-44.138c-14.451,32.026-25.114,58.898-30.764,88.249
			c14.257,21.301,38.515,35.337,66.074,35.337c43.873,0,79.448-35.575,79.448-79.448C265.83,72.934,260.887,57.76,252.43,45.136"/>
	</g>
</g>
<g>
</g>
<g>
</g>
<g>
</g>
<g>
</g>
<g>
</g>
<g>
</g>
<g>
</g>
<g>
</g>
<g>
</g>
<g>
</g>
<g>
</g>
<g>
</g>
<g>
</g>
<g>
</g>
<g>
</g>
</svg>
