<?xml version="1.0" encoding="iso-8859-1"?>
<!-- Generator: Adobe Illustrator 19.0.0, SVG Export Plug-In . SVG Version: 6.00 Build 0)  -->
<svg version="1.1" id="Layer_1" xmlns="http://www.w3.org/2000/svg" xmlns:xlink="http://www.w3.org/1999/xlink" x="0px" y="0px"
	 viewBox="0 0 512 512" style="enable-background:new 0 0 512 512;" xml:space="preserve">
<g transform="translate(0 -1)">
	<g>
		<path style="fill:#F0C419;" d="M220.69,36.31c0-10.611,4.776-20.012,12.182-26.483h-82.803c-4.873,0-8.828,3.955-8.828,8.828
			v44.138h91.63C225.465,56.322,220.69,46.921,220.69,36.31"/>
		<path style="fill:#F0C419;" d="M361.931,9.828h-82.803c7.406,6.471,12.182,15.872,12.182,26.483s-4.776,20.012-12.182,26.483
			h91.63V18.655C370.759,13.782,366.804,9.828,361.931,9.828"/>
	</g>
	<g>
		<path style="fill:#CBB292;" d="M185.379,495.345c-9.154-57.635-33.351-194.207-26.483-256
			c8.828-79.448,35.31-158.897,44.138-176.552h-61.793c-8.828,17.655-35.31,97.103-44.138,176.552
			c-6.868,61.793,17.329,180.71,26.483,238.345c0,0,24.011,13.127,67.646,20.895C187.436,496.678,185.379,495.345,185.379,495.345"
			/>
		<path style="fill:#CBB292;" d="M414.897,239.345c-8.828-79.448-35.31-158.897-44.138-176.552h-61.793
			c8.828,17.655,35.31,97.103,44.138,176.552c6.868,61.793-17.329,198.365-26.483,256c0,0-2.057,1.333-5.853,3.24
			c43.635-7.768,67.646-20.895,67.646-20.895C397.568,420.054,421.764,301.138,414.897,239.345"/>
	</g>
	<path style="fill:#7F6E5D;" d="M353.103,239.345c-8.828-79.448-35.31-158.897-44.138-176.552h-29.837
		c-6.206,5.429-14.23,8.828-23.128,8.828c-8.898,0-16.922-3.399-23.128-8.828h-29.837c-8.828,17.655-35.31,97.103-44.138,176.552
		c-6.868,61.793,17.329,198.365,26.483,256c0,0,26.854,17.655,70.621,17.655s70.621-17.655,70.621-17.655
		C335.775,437.71,359.971,301.138,353.103,239.345"/>
	<path style="fill:#E57E25;" d="M291.31,36.31C291.31,16.81,275.5,1,256,1s-35.31,15.81-35.31,35.31s15.81,35.31,35.31,35.31
		S291.31,55.81,291.31,36.31"/>
	<path style="fill:#FFFFFF;" d="M264.828,36.31c0-4.873-3.955-8.828-8.828-8.828s-8.828,3.955-8.828,8.828s3.955,8.828,8.828,8.828
		S264.828,41.183,264.828,36.31"/>
	<path style="fill:#938374;" d="M256,513c3.028,0,5.959-0.097,8.828-0.256V71.621c0-0.433-0.185-0.803-0.247-1.218
		c-2.754,0.715-5.597,1.218-8.58,1.218c-2.984,0-5.826-0.503-8.58-1.218c-0.062,0.415-0.247,0.786-0.247,1.218v441.123
		C250.041,512.903,252.972,513,256,513"/>
</g>
<g>
</g>
<g>
</g>
<g>
</g>
<g>
</g>
<g>
</g>
<g>
</g>
<g>
</g>
<g>
</g>
<g>
</g>
<g>
</g>
<g>
</g>
<g>
</g>
<g>
</g>
<g>
</g>
<g>
</g>
</svg>
