<svg height="512" viewBox="0 0 59 59" width="512" xmlns="http://www.w3.org/2000/svg"><g id="005---Leather-Jacket" fill="none" transform="translate(-1)"><path id="Shape" d="m50 49.75c.7565939.2918505 1.586024.3373467 2.37.13 3.83-1 4.54-1 5.54-2.05 1.0001735-1.0190527 1.3812916-2.4939796 1-3.87l-6.73-28.14c-.6249029-2.1591273-2.4041868-3.7878861-4.61-4.22h-35.14c-2.2058132.4321139-3.98509714 2.0608727-4.61 4.22l-6.66 28.18c-.30497992 1.0414667-.17371472 2.162152.36368112 3.1049518.53739584.9427997 1.43479502 1.6267887 2.48631888 1.8950482 3.52.9 4.44 1.34 5.85.87.23-.15-1.64-.12 40.14-.12z" fill="#2c3e50"/><path id="Shape" d="m42.17 8.82c1.8.49 4 1 5.4 2.78.9290567 1.1254842 1.4349621 2.5406041 1.43 4-.33 13.9-.42 23.71-.81 39.46-.0810469 1.6871674-1.501836 2.9966094-3.19 2.94h-30c-1.6767888.0456462-3.083765-1.2548082-3.17-2.93-.29-10.93-.83-39.28-.83-39.46-.0049621-1.4593959.5009433-2.8745158 1.43-4 1.47-1.88 3.9-2.37 5.4-2.78z" fill="#35495e"/><path id="Shape" d="m42 7-6-7h-12l-6 7-1 11 8-4 5 4.5 5-4.5 8 4c-1-10.7-.77-8.57-1-11z" fill="#547580"/><path id="Shape" d="m38.64 3.08-1.4 4.21c-4.6752577-1.70973755-9.8047423-1.70973755-14.48 0l-1.4-4.21 2.64-3.08h12z" fill="#3f5c6c"/><path id="Shape" d="m37 21-12 2c9.71-8.77 9.89-8.9 10-9z" fill="#547580"/><path id="Shape" d="m43 18-8-4 3.64-10.92 3.36 3.92c.22 2.35 0 .26 1 11z" fill="#547580"/><path id="Shape" d="m30 18.5-3.43 3.09c-.1 0 .2 0-3.57-.59l2-7z" fill="#3f5c6c"/><path id="Shape" d="m37.24 7.29-2.24 6.71-5 4.5-5-4.5-2.24-6.71c4.6752577-1.70973755 9.8047423-1.70973755 14.48 0z" fill="#2c3e50"/><path id="Shape" d="m25 14-8 4 1-11 3.36-3.92c1.76 5.3.95 2.86 3.64 10.92z" fill="#547580"/><g fill="#f29c1f"><path id="Shape" d="m27 59c-.5296773.0009542-.9682202-.4112761-1-.94l-.23-4c-.0331371-.5522847.3877153-1.0268629.94-1.06s1.0268629.3877153 1.06.94l.23 4c.0165573.2754504-.0814438.5454995-.2708046.746222-.1893609.2007226-.4532483.3142752-.7291954.313778z"/><path id="Shape" d="m26.43 49c-.5260642.0012903-.963177-.4052246-1-.93 0-.47.19 3.38-1.14-20-.0214359-.3572656.1493554-.6988286.4480385-.8960254.2986831-.1971969.6798809-.2200687 1-.06.320119.1600687.5305256.4787598.5519615.8360254l1.14 20c.0137058.2737686-.0855689.5411614-.2746112.739656-.1890424.1984945-.4512775.3106869-.7253888.310344z"/><path id="Shape" d="m34 29c-.5522847 0-1-.4477153-1-1s.4477153-1 1-1c2.9465508-.0322977 5.8819777-.3673921 8.76-1 .3572656-.0857438.7331364.0256247.9860254.2921539.2528891.2665292.3443766.6477271.24 1-.1043765.352273-.3887598.6221024-.7460254.7078461-3.0364294.6563175-6.1334611.991494-9.24 1z"/></g><path id="Shape" d="m39 45c-.4503352-.0001324-.8450264-.3012616-.96411-.7355666s.0668217-.8946301.45411-1.1244334c4.25-2.55 3.57-5.77 3.54-5.91-.1252036-.535421.2053656-1.0714792.74-1.2.532333-.1258212 1.0669773.1994207 1.2.73.05.19 1.12 4.75-4.46 8.1-.1543557.0915893-.3305167.1399472-.51.14z" fill="#2c3e50"/><path id="Shape" d="m21.08 45c-.1790982-.0028268-.3545593-.0509926-.51-.14-5.57-3.35-4.51-7.86-4.46-8.1.0571305-.2626905.2176224-.4913149.445273-.6343021.2276507-.1429872.5032848-.1882931.764727-.1256979.5305793.1330227.8558212.667667.73 1.2 0 .16-.69 3.37 3.55 5.91.4245795.2147361.6390668.6988891.5128507 1.1576362-.1262161.458747-.5581807.7650403-1.0328507.7323638z" fill="#2c3e50"/><rect id="Rectangle-path" fill="#3f5c6c" height="6" rx="2" width="40" x="10" y="48"/><rect id="Rectangle-path" fill="#f0c419" height="6" rx="2" width="8" x="23" y="48"/><path id="Shape" d="m26.1 28h-2.2c-.3431211-.0302669-.646512-.2349932-.8029901-.5418528-.156478-.3068595-.1440135-.6726511.0329901-.9681472l1.87-3.49 1.87 3.49c.1770036.2954961.1894681.6612877.0329901.9681472-.1564781.3068596-.459869.5115859-.8029901.5418528z" fill="#f0c419"/><path id="Shape" d="m35.1 33h-2.2c-.3431211-.0302669-.646512-.2349932-.8029901-.5418528-.156478-.3068595-.1440135-.6726511.0329901-.9681472l1.87-3.49 1.87 3.49c.1770036.2954961.1894681.6612877.0329901.9681472-.1564781.3068596-.459869.5115859-.8029901.5418528z" fill="#f0c419"/></g></svg>