<svg id="Capa_1" enable-background="new 0 0 512 512" height="512" viewBox="0 0 512 512" width="512" xmlns="http://www.w3.org/2000/svg"><g><path d="m506.901 468.701-58.391-377.13c-4.982-32.178-27.61-58.832-58.552-68.972l-68.96-22.599c-43.349 23.554-86.697 23.554-130.046 0l-68.96 22.599c-30.942 10.14-53.57 36.795-58.552 68.972l-58.39 377.13c-.226 1.459.902 2.775 2.379 2.775h76.676c1.144 0 2.13-.805 2.358-1.927l41.763-205.079v187.83h255.499v-187.83l41.763 205.079c.228 1.121 1.214 1.927 2.358 1.927h76.676c1.476 0 2.604-1.317 2.379-2.775z" fill="#f9f6f9"/><g><path d="m506.901 468.701-58.391-377.13c-4.982-32.178-27.61-58.832-58.552-68.972l-68.96-22.599c-43.349 23.554-68.227 36.947-24.878 13.392l68.96 22.599c30.942 10.14 53.57 36.795 58.552 68.972l56.747 366.513h24.143c1.476 0 2.604-1.317 2.379-2.775z" fill="#dddaec"/></g><path d="m320.998 0c-43.349 23.554-86.697 23.554-130.046 0l-29.725 9.741 2.61 16.004c3.562 21.843 14.81 41.767 31.672 56.102 16.861 14.334 38.335 22.228 60.467 22.228s43.605-7.894 60.466-22.229c16.862-14.334 28.11-34.258 31.671-56.1l2.61-16.005z" fill="#e28086"/><path d="m64.187 512h-50.088c-4.979 0-8.783-4.445-8.013-9.364l4.875-31.16h66.507l-5.268 33.667c-.618 3.947-4.018 6.857-8.013 6.857z" fill="#86a0af"/><path d="m447.764 512h50.088c4.979 0 8.783-4.445 8.013-9.364l-4.875-31.16h-66.507l5.267 33.667c.619 3.947 4.019 6.857 8.014 6.857z" fill="#86a0af"/><path d="m500.99 471.476h-22.078l6.34 40.524h12.6c4.979 0 8.783-4.445 8.013-9.364z" fill="#738b95"/><path d="m369.41 486.697h-226.869c-7.906 0-14.315-6.409-14.315-14.315v-20.082h255.499v20.082c0 7.906-6.409 14.315-14.315 14.315z" fill="#86a0af"/><path d="m86.463 469.55 41.763-205.079c1.087-84.443-15.832-153.911-50.759-208.407-7.136 10.457-12.017 22.532-14.026 35.507l-58.391 377.13c-.226 1.458.902 2.775 2.379 2.775h76.676c1.143 0 2.129-.805 2.358-1.926z" fill="#e28086"/><path d="m425.537 469.55-41.763-205.08c-1.087-84.443 15.832-153.911 50.759-208.407 7.135 10.459 12.017 22.533 14.026 35.509l58.391 377.13c.226 1.458-.902 2.775-2.379 2.775h-76.676c-1.143-.001-2.129-.806-2.358-1.927z" fill="#e28086"/><path d="m506.901 468.701-58.391-377.13c-2.007-12.96-6.879-25.021-14.001-35.47-5.973 9.323-11.407 19.096-16.326 29.296 2.544 6.207 4.395 12.762 5.449 19.567l56.747 366.513h24.143c1.476-.001 2.605-1.318 2.379-2.776z" fill="#dd636e"/><path d="m255.975 73.169c30.611 0 56.709-22.187 61.636-52.399l3.387-20.77c-43.349 23.554-86.697 23.554-130.046 0l3.387 20.771c4.927 30.211 31.026 52.398 61.636 52.398z" fill="#86a0af"/><path d="m253.945 73.123c.676.022 1.351.046 2.031.046 30.611 0 56.709-22.187 61.636-52.399l3.386-20.77c-11.969 6.504-23.938 11.202-35.907 14.114 2.38 22.471-4.882 38.013-31.146 59.009z" fill="#738b95"/><g><path d="m259.849 46.239h-7.747c-4.268 0-7.726-3.459-7.726-7.726s3.459-7.726 7.726-7.726h7.747c4.268 0 7.726 3.459 7.726 7.726s-3.458 7.726-7.726 7.726z" fill="#f9f6f9"/></g><path d="m263.701 452.3v-379.131c0-4.268-3.459-7.726-7.726-7.726-4.268 0-7.726 3.458-7.726 7.726v379.131z" fill="#dddaec"/><g><g><path d="m277.732 152.189c-4.268 0-7.726-3.459-7.726-7.726v-5.887c0-4.268 3.459-7.726 7.726-7.726s7.726 3.459 7.726 7.726v5.887c.001 4.268-3.458 7.726-7.726 7.726z" fill="#738b95"/></g><g><path d="m277.732 202.377c-4.268 0-7.726-3.459-7.726-7.726v-5.886c0-4.268 3.459-7.726 7.726-7.726s7.726 3.459 7.726 7.726v5.886c.001 4.267-3.458 7.726-7.726 7.726z" fill="#738b95"/></g><g><path d="m277.732 252.564c-4.268 0-7.726-3.459-7.726-7.726v-5.886c0-4.268 3.459-7.726 7.726-7.726s7.726 3.459 7.726 7.726v5.886c.001 4.267-3.458 7.726-7.726 7.726z" fill="#738b95"/></g><g><path d="m277.732 302.751c-4.268 0-7.726-3.459-7.726-7.726v-5.886c0-4.268 3.459-7.726 7.726-7.726s7.726 3.459 7.726 7.726v5.886c.001 4.267-3.458 7.726-7.726 7.726z" fill="#738b95"/></g><g><path d="m277.732 352.939c-4.268 0-7.726-3.459-7.726-7.726v-5.887c0-4.268 3.459-7.726 7.726-7.726s7.726 3.459 7.726 7.726v5.887c.001 4.267-3.458 7.726-7.726 7.726z" fill="#738b95"/></g><g><path d="m277.732 403.126c-4.268 0-7.726-3.459-7.726-7.726v-5.887c0-4.268 3.459-7.726 7.726-7.726s7.726 3.459 7.726 7.726v5.887c.001 4.267-3.458 7.726-7.726 7.726z" fill="#738b95"/></g></g><g><g><path d="m166.38 412.629c-.767 0-1.547-.115-2.318-.357-4.071-1.279-6.334-5.616-5.055-9.687l14.802-47.112c1.28-4.069 5.615-6.335 9.687-5.055 4.071 1.279 6.334 5.616 5.055 9.687l-14.802 47.112c-1.037 3.299-4.083 5.412-7.369 5.412z" fill="#dddaec"/></g><g><path d="m345.57 412.629c-3.286 0-6.332-2.112-7.369-5.412l-14.802-47.112c-1.279-4.071.984-8.408 5.055-9.687 4.073-1.281 8.408.985 9.687 5.055l14.802 47.112c1.279 4.071-.984 8.408-5.055 9.687-.77.242-1.551.357-2.318.357z" fill="#dddaec"/></g></g></g></svg>