<svg height="512" viewBox="0 0 34 58" width="512" xmlns="http://www.w3.org/2000/svg"><g id="028---Trousers" fill="none"><path id="Shape" d="m2 0h30c.5522847 0 1 .44771525 1 1v4h-32v-4c0-.55228475.44771525-1 1-1z" fill="#2c3e50"/><path id="Shape" d="m34 6v50c0 1.1045695-.8954305 2-2 2h-10c-1.1045695 0-2-.8954305-2-2v-32.83c.0403444-1.6194238-1.1691655-2.9986132-2.78-3.17-.8330296-.0612568-1.6538821.2275584-2.2650218.7969432-.6111397.5693849-.9572274 1.367781-.9549782 2.2030568v33c0 1.1045695-.8954305 2-2 2h-10c-1.1045695 0-2-.8954305-2-2v-50c0-1.1045695.8954305-2 2-2h30c1.1045695 0 2 .8954305 2 2z" fill="#35495e"/><path id="Shape" d="m17 0v15h1c1.6568542 0 3-1.3431458 3-3v-8z" fill="#2c3e50"/><path id="Shape" d="m8 4.12c-2.23 17.88-2 35.99-2 53.88h-2c0-18-.23-36.12 2-54h2c.00535725.03982062.00535725.08017938 0 .12z" fill="#ecf0f1"/><path id="Shape" d="m30 58h-2c0-17.89.23-36.06-2-53.88-.0053573-.03982062-.0053573-.08017938 0-.12h2c2.23 17.88 2 36 2 54z" fill="#ecf0f1"/><path id="Shape" d="m22 21h-10c-.5522847 0-1-.4477153-1-1s.4477153-1 1-1h10c.5522847 0 1 .4477153 1 1s-.4477153 1-1 1z" fill="#2c3e50"/></g></svg>