<svg height="512" viewBox="0 0 34 58" width="512" xmlns="http://www.w3.org/2000/svg"><g id="026---Joggers" fill="none"><path id="Shape" d="m3 53h8v4c0 .5522847-.4477153 1-1 1h-6c-.55228475 0-1-.4477153-1-1z" fill="#7f8c8d"/><path id="Shape" d="m23 53h8v4c0 .5522847-.4477153 1-1 1h-6c-.5522847 0-1-.4477153-1-1z" fill="#7f8c8d"/><path id="Shape" d="m2 0h30c.5522847 0 1 .44771525 1 1v4h-32v-4c0-.55228475.44771525-1 1-1z" fill="#7f8c8d"/><path id="Shape" d="m34 6v46c0 1.1045695-.8954305 2-2 2h-10c-1.1045695 0-2-.8954305-2-2v-28.83c-.0035157-.7984013-.2946326-1.5687961-.82-2.17-.836417-.8852454-2.1250186-1.1769792-3.2611634-.7383132-1.1361448.4386659-1.8943454 1.5206708-1.9188366 2.7383132v29c0 1.1045695-.8954305 2-2 2h-10c-1.1045695 0-2-.8954305-2-2v-46c.00073215-.71379839.38183192-1.37310099 1-1.73.66-.39-1.8-.27 31-.27 1.1045695 0 2 .8954305 2 2z" fill="#95a5a5"/><g fill="#7f8c8d"><path id="Shape" d="m8 9v2c0 3.8659932-3.13400675 7-7 7h-1v-2h1c2.76142375 0 5-2.2385763 5-5v-2c0-.55228475.44771525-1 1-1s1 .44771525 1 1z"/><path id="Shape" d="m34 16v2h-1c-3.8659932 0-7-3.1340068-7-7v-2c0-.55228475.4477153-1 1-1s1 .44771525 1 1v2c0 2.7614237 2.2385763 5 5 5z"/><path id="Shape" d="m3 31c0 .5522847-.44771525 1-1 1h-2v-2h2c.55228475 0 1 .4477153 1 1z"/><path id="Shape" d="m2 35c0 .5522847-.44771525 1-1 1h-1v-2h1c.55228475 0 1 .4477153 1 1z"/><path id="Shape" d="m34 30v2h-2c-.5522847 0-1-.4477153-1-1s.4477153-1 1-1z"/><path id="Shape" d="m34 34v2h-1c-.5522847 0-1-.4477153-1-1s.4477153-1 1-1z"/></g><path id="Shape" d="m14 17c-.5522847 0-1-.4477153-1-1v-8c0-.55228475.4477153-1 1-1s1 .44771525 1 1v8c0 .5522847-.4477153 1-1 1z" fill="#547580"/><path id="Shape" d="m15 9h-2c-.5522847 0-1-.44771525-1-1s.4477153-1 1-1h2c.5522847 0 1 .44771525 1 1s-.4477153 1-1 1z" fill="#7f8c8d"/><path id="Shape" d="m20 17c-.5522847 0-1-.4477153-1-1v-8c0-.55228475.4477153-1 1-1s1 .44771525 1 1v8c0 .5522847-.4477153 1-1 1z" fill="#547580"/><path id="Shape" d="m21 9h-2c-.5522847 0-1-.44771525-1-1s.4477153-1 1-1h2c.5522847 0 1 .44771525 1 1s-.4477153 1-1 1z" fill="#7f8c8d"/><path id="Shape" d="m22 21h-10c-.5522847 0-1-.4477153-1-1s.4477153-1 1-1h10c.5522847 0 1 .4477153 1 1s-.4477153 1-1 1z" fill="#7f8c8d"/></g></svg>