<?xml version="1.0" encoding="iso-8859-1"?>
<!-- Generator: Adobe Illustrator 19.0.0, SVG Export Plug-In . SVG Version: 6.00 Build 0)  -->
<svg version="1.1" id="Layer_1" xmlns="http://www.w3.org/2000/svg" xmlns:xlink="http://www.w3.org/1999/xlink" x="0px" y="0px"
	 viewBox="0 0 512 512" style="enable-background:new 0 0 512 512;" xml:space="preserve">
<g transform="translate(0 -1)">
	<polygon style="fill:#F0C419;" points="185.367,1 326.609,1 335.436,36.31 176.54,36.31 	"/>
	<path style="fill:#4482C3;" d="M176.181,36.31h79.448h79.448c9.772,18.397,14.557,72.81,0,185.379c0,0-8.828,247.172-8.828,291.31
		h-44.138c0,0,0-238.345-8.828-282.483c-8.828-44.138-17.655-88.152-17.655-114.759c0,26.606-8.828,70.621-17.655,114.759
		C229.147,274.655,229.147,513,229.147,513h-44.138c0-44.138-8.828-291.31-8.828-291.31
		C162.666,108.308,167.354,53.966,176.181,36.31"/>
	<g>
		<path style="fill:#285680;" d="M220.677,36.31h-44.5c-4.643,9.295-8.113,28.902-8.413,61.793
			C211.85,98.103,220.677,80.448,220.677,36.31"/>
		<path style="fill:#285680;" d="M290.941,36.31h44.5c4.643,9.295,8.113,28.902,8.413,61.793
			C299.768,98.103,290.941,80.448,290.941,36.31"/>
	</g>
	<polygon style="fill:#F29C1F;" points="238.333,36.312 273.643,36.312 273.643,1.002 238.333,1.002 	"/>
</g>
<g>
</g>
<g>
</g>
<g>
</g>
<g>
</g>
<g>
</g>
<g>
</g>
<g>
</g>
<g>
</g>
<g>
</g>
<g>
</g>
<g>
</g>
<g>
</g>
<g>
</g>
<g>
</g>
<g>
</g>
</svg>
