<?xml version="1.0" encoding="iso-8859-1"?>
<!-- Generator: Adobe Illustrator 19.0.0, SVG Export Plug-In . SVG Version: 6.00 Build 0)  -->
<svg version="1.1" id="Layer_1" xmlns="http://www.w3.org/2000/svg" xmlns:xlink="http://www.w3.org/1999/xlink" x="0px" y="0px"
	 viewBox="0 0 511.998 511.998" style="enable-background:new 0 0 511.998 511.998;" xml:space="preserve">
<g transform="translate(0 -1)">
	<path style="fill:#805333;" d="M353.103,62.791V45.136h-35.31v8.828h-35.31v-8.828h-26.483h-26.483v8.828h-35.31v-8.828h-35.31
		v17.655c0,35.31-17.655,79.448-17.655,158.897s8.828,291.31,8.828,291.31h61.793c0-17.655,26.483-229.517,26.483-256
		s17.655-114.759,17.655-114.759s17.655,88.276,17.655,114.759s26.483,238.345,26.483,256h61.793c0,0,8.828-211.862,8.828-291.31
		S353.103,98.102,353.103,62.791"/>
	<path style="fill:#5B3821;" d="M255.999,151.067c-10.39,0-27.171-8.13-30.429-9.754c-4.361-2.189-6.135-7.486-3.955-11.847
		c2.18-4.352,7.495-6.126,11.847-3.955c6.382,3.187,17.955,7.901,22.537,7.901c4.599,0,16.163-4.714,22.537-7.901
		c4.361-2.172,9.649-0.406,11.847,3.955c2.18,4.361,0.406,9.657-3.955,11.847C283.17,142.937,266.389,151.067,255.999,151.067"/>
	<g>
		<polygon style="fill:#3A2113;" points="194.206,53.966 229.516,53.966 229.516,1 194.206,1 		"/>
		<polygon style="fill:#3A2113;" points="282.482,53.966 317.792,53.966 317.792,1 282.482,1 		"/>
	</g>
	<g>
		<polygon style="fill:#5B3821;" points="158.896,45.138 194.206,45.138 194.206,9.828 158.896,9.828 		"/>
		<polygon style="fill:#5B3821;" points="229.516,45.138 282.482,45.138 282.482,9.828 229.516,9.828 		"/>
		<polygon style="fill:#5B3821;" points="317.792,45.138 353.103,45.138 353.103,9.828 317.792,9.828 		"/>
		<path style="fill:#5B3821;" d="M335.447,283.481c0-35.725-2.86-59.471-5.385-80.419c-1.845-15.298-3.443-28.495-3.443-43.167
			c0-4.882-3.946-8.828-8.828-8.828s-8.828,3.946-8.828,8.828c0,15.731,1.651,29.422,3.558,45.277
			c2.481,20.454,5.27,43.644,5.27,78.31c0,35.407,2.834,92.963,5.332,143.74c1.871,37.985,3.496,70.797,3.496,85.778h17.655
			c0-15.422-1.633-48.419-3.505-86.643C338.272,375.773,335.447,318.456,335.447,283.481"/>
		<path style="fill:#5B3821;" d="M194.206,283.481c0-34.666,2.79-57.856,5.27-78.31c1.898-15.854,3.558-29.546,3.558-45.277
			c0-4.882-3.946-8.828-8.828-8.828s-8.828,3.946-8.828,8.828c0,14.671-1.598,27.869-3.443,43.167
			c-2.525,20.948-5.385,44.694-5.385,80.419c0,34.975-2.825,92.292-5.323,142.874c-1.871,38.223-3.505,71.221-3.505,86.643h17.655
			c0-14.98,1.624-47.793,3.496-85.778C191.372,376.444,194.206,318.888,194.206,283.481"/>
	</g>
</g>
<g>
</g>
<g>
</g>
<g>
</g>
<g>
</g>
<g>
</g>
<g>
</g>
<g>
</g>
<g>
</g>
<g>
</g>
<g>
</g>
<g>
</g>
<g>
</g>
<g>
</g>
<g>
</g>
<g>
</g>
</svg>
