<svg height="512" viewBox="0 0 59 58" width="512" xmlns="http://www.w3.org/2000/svg"><g id="088---Top" fill="none"><path id="Shape" d="m39.07 8c-6.624877 1.32011021-13.445123 1.32011021-20.07 0v-8c6.6243828 1.32510982 13.4456172 1.32510982 20.07 0z" fill="#3d324c"/><path id="Shape" d="m58.07 32s-5 1-7 5c-1.1685274 2.1436779-3.3050208 3.5866499-5.73 3.87h-32.61c-2.4249792-.2833501-4.56147257-1.7263221-5.73-3.87-2-4-7-5-7-5s1-13 4-20 15-12 15-12c1 4 4 6 10 6 4.92 0 8.88-1.23 10.07-6 0 0 12 5 15 12s4 20 4 20z" fill="#955ba5"/><path id="Shape" d="m47.77 28c-.7073182 4.1131718-.9655008 8.2910361-.77 12.46-.5254435.1774641-1.0636761.3145295-1.61.41h-32.66c-.5463239-.0954705-1.0845565-.2325359-1.61-.41.1837983-4.1708301-.0911846-8.3492296-.82-12.46-.59611986-2.8818354-.2014611-5.8805372 1.12-8.51.5351805-.9187862 1.5167186-1.4856435 2.58-1.49h30.07c1.0668547.0008099 2.0530166.5681386 2.59 1.49 1.3157982 2.6313313 1.7068241 5.6291962 1.11 8.51z" fill="#894b9d"/><path id="Shape" d="m44.07 17s3 4 2 11-2 17 3 28c-5.21 1.49-14.59 2-20.07 2-13 0-20-2-20-2 5-11 4-21 3-28s2-11 2-11z" fill="#955ba5"/></g></svg>