<?xml version="1.0" encoding="iso-8859-1"?>
<!-- Generator: Adobe Illustrator 19.0.0, SVG Export Plug-In . SVG Version: 6.00 Build 0)  -->
<svg version="1.1" id="Layer_1" xmlns="http://www.w3.org/2000/svg" xmlns:xlink="http://www.w3.org/1999/xlink" x="0px" y="0px"
	 viewBox="0 0 512 512" style="enable-background:new 0 0 512 512;" xml:space="preserve">
<g transform="translate(0 -1)">
	<path style="fill:#C03A2B;" d="M450.207,45.138L335.448,1c0,28.372-11.264,46.707-23.164,60.919
		c-30.543,36.476-81.991,36.476-112.569,0C187.816,47.716,176.552,29.372,176.552,1L61.793,45.138L0,195.207l88.276,26.483
		l26.483-61.793l18.812,111.722c10.884,54.396,10.284,110.451-1.748,164.599L114.759,513H256h141.241l-17.064-76.782
		c-12.032-54.148-12.632-110.204-1.748-164.599l18.812-111.722l26.483,61.793L512,195.207L450.207,45.138z"/>
	<g>
		<path style="fill:#9B2B23;" d="M264.828,186.379h-17.655c-4.882,0-8.828-3.946-8.828-8.828c0-4.882,3.946-8.828,8.828-8.828
			h17.655c4.882,0,8.828,3.946,8.828,8.828C273.655,182.433,269.709,186.379,264.828,186.379"/>
		<path style="fill:#9B2B23;" d="M264.828,221.69h-17.655c-4.882,0-8.828-3.946-8.828-8.828c0-4.882,3.946-8.828,8.828-8.828h17.655
			c4.882,0,8.828,3.946,8.828,8.828C273.655,217.744,269.709,221.69,264.828,221.69"/>
		<path style="fill:#9B2B23;" d="M264.828,151.069h-17.655c-4.882,0-8.828-3.946-8.828-8.828c0-4.882,3.946-8.828,8.828-8.828
			h17.655c4.882,0,8.828,3.946,8.828,8.828C273.655,147.123,269.709,151.069,264.828,151.069"/>
		<path style="fill:#9B2B23;" d="M247.333,88.729l0.018-0.044c-17.523-2.216-34.507-11.105-47.634-26.765
			C187.809,47.716,176.553,29.372,176.553,1l-70.25,27.021l61.422,87.737L247.333,88.729z"/>
		<path style="fill:#9B2B23;" d="M265.042,88.729l-0.018-0.044c17.523-2.216,34.507-11.105,47.634-26.765
			C324.566,47.716,335.822,29.372,335.822,1l70.25,27.021l-61.422,87.737L265.042,88.729z"/>
	</g>
</g>
<g>
</g>
<g>
</g>
<g>
</g>
<g>
</g>
<g>
</g>
<g>
</g>
<g>
</g>
<g>
</g>
<g>
</g>
<g>
</g>
<g>
</g>
<g>
</g>
<g>
</g>
<g>
</g>
<g>
</g>
</svg>
