<?xml version="1.0" encoding="iso-8859-1"?>
<!-- Generator: Adobe Illustrator 19.0.0, SVG Export Plug-In . SVG Version: 6.00 Build 0)  -->
<svg version="1.1" id="Layer_1" xmlns="http://www.w3.org/2000/svg" xmlns:xlink="http://www.w3.org/1999/xlink" x="0px" y="0px"
	 viewBox="0 0 512.003 512.003" style="enable-background:new 0 0 512.003 512.003;" xml:space="preserve">
<g transform="translate(0 -1)">
	<path style="fill:#F9EBB0;" d="M101.519,36.313c15.078-9.56,83.862-30.897,97.103-35.31c0,0-6.621,86.802,52.966,123.586
		C311.174,87.804,304.553,1.003,304.553,1.003c13.241,4.414,82.026,25.75,97.103,35.31s55.614,76.138,61.793,123.586
		c0,0-26.483,35.31-70.621,35.31l-17.655-52.966c0,0-35.31,71.724-35.31,141.241c0,0,35.31,137.198,35.31,211.862
		c0,0-76.871,17.655-123.586,17.655s-123.586-17.655-123.586-17.655c0-74.664,35.31-211.862,35.31-211.862
		c0-69.517-35.31-141.241-35.31-141.241l-17.655,52.966c-44.138,0-70.621-35.31-70.621-35.31
		C45.905,112.451,86.441,45.873,101.519,36.313"/>
	<path style="fill:#A09065;" d="M304.553,1.003c-14.716,0-34.207,8.828-52.966,8.828s-38.25-8.828-52.966-8.828
		c0,0-6.621,86.802,52.966,123.586C311.174,87.804,304.553,1.003,304.553,1.003"/>
	<g>
		<path style="fill:#C6B683;" d="M156.173,14.895L156.173,14.895c-1.095,31.144,7.609,61.846,24.903,87.782l8.722,13.082
			l23.517-35.284C195.464,42.649,198.625,1,198.625,1C192.578,3.013,174.967,8.565,156.173,14.895"/>
		<path style="fill:#C6B683;" d="M347.002,14.895L347.002,14.895c1.095,31.144-7.609,61.846-24.903,87.782l-8.722,13.082
			l-23.517-35.284C307.711,42.649,304.55,1,304.55,1C310.597,3.013,328.208,8.565,347.002,14.895"/>
	</g>
	<path style="fill:#E6E7E8;" d="M436.967,239.347c-4.882,0-8.828-3.946-8.828-8.828v-47.872c0-4.882,3.946-8.828,8.828-8.828
		c4.882,0,8.828,3.946,8.828,8.828v47.872C445.794,235.402,441.849,239.347,436.967,239.347"/>
	<path style="fill:#F0C419;" d="M463.45,336.451h-52.966c-4.882,0-8.828-3.946-8.828-8.828V265.83c0-1.916,0.618-3.769,1.766-5.297
		l26.483-35.31c3.328-4.449,10.796-4.449,14.124,0l26.483,35.31c1.148,1.527,1.766,3.381,1.766,5.297v61.793
		C472.277,332.505,468.331,336.451,463.45,336.451"/>
</g>
<g>
</g>
<g>
</g>
<g>
</g>
<g>
</g>
<g>
</g>
<g>
</g>
<g>
</g>
<g>
</g>
<g>
</g>
<g>
</g>
<g>
</g>
<g>
</g>
<g>
</g>
<g>
</g>
<g>
</g>
</svg>
