<?xml version="1.0" encoding="iso-8859-1"?>
<!-- Generator: Adobe Illustrator 19.0.0, SVG Export Plug-In . SVG Version: 6.00 Build 0)  -->
<svg version="1.1" id="Layer_1" xmlns="http://www.w3.org/2000/svg" xmlns:xlink="http://www.w3.org/1999/xlink" x="0px" y="0px"
	 viewBox="0 0 512.003 512.003" style="enable-background:new 0 0 512.003 512.003;" xml:space="preserve">
<g transform="translate(0 -1)">
	<path style="fill:#4482C3;" d="M105.932,36.313c15.078-9.56,83.862-30.897,97.103-35.31c0,0-6.621,86.802,52.966,123.586
		C315.588,87.804,308.967,1.003,308.967,1.003c13.241,4.414,82.026,25.75,97.103,35.31s55.614,76.138,61.793,123.586
		c0,0-26.483,35.31-70.621,35.31l-17.655-52.966c0,0-35.31,71.724-35.31,141.241c0,0,35.31,137.198,35.31,211.862
		c0,0-76.871,17.655-123.586,17.655s-123.586-17.655-123.586-17.655c0-74.664,35.31-211.862,35.31-211.862
		c0-69.517-35.31-141.241-35.31-141.241L114.76,195.21c-44.138,0-70.621-35.31-70.621-35.31
		C50.319,112.451,90.855,45.873,105.932,36.313"/>
	<path style="fill:#1F4460;" d="M308.967,1.003c-14.716,0-34.207,8.828-52.966,8.828c-18.759,0-38.25-8.828-52.966-8.828
		c0,0-6.621,86.802,52.966,123.586C315.588,87.804,308.967,1.003,308.967,1.003"/>
	<g>
		<path style="fill:#285680;" d="M160.587,14.895L160.587,14.895c-1.095,31.144,7.609,61.846,24.903,87.782l8.722,13.082
			l23.517-35.284C199.878,42.649,203.038,1,203.038,1C196.992,3.013,179.381,8.565,160.587,14.895"/>
		<path style="fill:#285680;" d="M351.416,14.895L351.416,14.895c1.095,31.144-7.609,61.846-24.903,87.782l-8.722,13.082
			l-23.517-35.284C312.124,42.649,308.964,1,308.964,1C315.011,3.013,332.622,8.565,351.416,14.895"/>
	</g>
	<path style="fill:#F0C419;" d="M256.001,214.332c0-15.281,12.385-27.674,27.674-27.674c1.086,0,2.163,0.062,3.222,0.185
		c18.194,2.119,26.898,23.808,16.737,39.053l-47.634,57.618l-47.634-57.618c-10.161-15.245-1.457-36.935,16.737-39.053
		c1.059-0.124,2.136-0.185,3.222-0.185C243.616,186.657,256.001,199.051,256.001,214.332"/>
</g>
<g>
</g>
<g>
</g>
<g>
</g>
<g>
</g>
<g>
</g>
<g>
</g>
<g>
</g>
<g>
</g>
<g>
</g>
<g>
</g>
<g>
</g>
<g>
</g>
<g>
</g>
<g>
</g>
<g>
</g>
</svg>
