<?xml version="1.0" encoding="iso-8859-1"?>
<!-- Generator: Adobe Illustrator 19.0.0, SVG Export Plug-In . SVG Version: 6.00 Build 0)  -->
<svg version="1.1" id="Layer_1" xmlns="http://www.w3.org/2000/svg" xmlns:xlink="http://www.w3.org/1999/xlink" x="0px" y="0px"
	 viewBox="0 0 512.003 512.003" style="enable-background:new 0 0 512.003 512.003;" xml:space="preserve">
<g transform="translate(0 -1)">
	<path style="fill:#E6E7E8;" d="M105.932,36.313c15.078-9.56,83.862-30.897,97.103-35.31c0,0-6.621,86.802,52.966,123.586
		C315.588,87.804,308.967,1.003,308.967,1.003c13.241,4.414,82.026,25.75,97.103,35.31s55.614,76.138,61.793,123.586
		c0,0-26.483,35.31-70.621,35.31l-17.655-52.966c0,0-35.31,71.724-35.31,141.241c0,0,35.31,137.198,35.31,211.862
		c0,0-76.871,17.655-123.586,17.655s-123.586-17.655-123.586-17.655c0-74.664,35.31-211.862,35.31-211.862
		c0-69.517-35.31-141.241-35.31-141.241L114.76,195.21c-44.138,0-70.621-35.31-70.621-35.31
		C50.319,112.451,90.855,45.873,105.932,36.313"/>
	<path style="fill:#9BA2A5;" d="M308.967,1.003c-14.716,0-34.207,8.828-52.966,8.828c-18.759,0-38.25-8.828-52.966-8.828
		c0,0-6.621,86.802,52.966,123.586C315.588,87.804,308.967,1.003,308.967,1.003"/>
	<g>
		<path style="fill:#BDC3C7;" d="M160.587,14.895L160.587,14.895c-1.095,31.144,7.609,61.846,24.903,87.782l8.722,13.082
			l23.517-35.284C199.878,42.649,203.038,1,203.038,1C196.992,3.013,179.381,8.565,160.587,14.895"/>
		<path style="fill:#BDC3C7;" d="M351.416,14.895L351.416,14.895c1.095,31.144-7.609,61.846-24.903,87.782l-8.722,13.082
			l-23.517-35.284C312.124,42.649,308.964,1,308.964,1C315.011,3.013,332.622,8.565,351.416,14.895"/>
	</g>
	<polygon style="fill:#F0C419;" points="256.001,259.588 225.529,280.554 229.792,242.321 198.34,216.616 240.279,211.354 
		256.001,177.306 271.723,211.354 313.663,216.616 282.21,242.321 286.668,280.554 	"/>
</g>
<g>
</g>
<g>
</g>
<g>
</g>
<g>
</g>
<g>
</g>
<g>
</g>
<g>
</g>
<g>
</g>
<g>
</g>
<g>
</g>
<g>
</g>
<g>
</g>
<g>
</g>
<g>
</g>
<g>
</g>
</svg>
