<svg id="Capa_1" enable-background="new 0 0 511.5 511.5" height="512" viewBox="0 0 511.5 511.5" width="512" xmlns="http://www.w3.org/2000/svg"><g><g><g><path d="m215.912 511.5c-4.219 0-7.638-3.419-7.638-7.638v-33.672c0-4.219 3.419-7.638 7.638-7.638s7.638 3.419 7.638 7.638v33.672c0 4.219-3.419 7.638-7.638 7.638z" fill="#dddaec"/></g><g><path d="m242.471 511.5c-4.219 0-7.638-3.419-7.638-7.638v-33.672c0-4.219 3.419-7.638 7.638-7.638s7.638 3.419 7.638 7.638v33.672c0 4.219-3.419 7.638-7.638 7.638z" fill="#dddaec"/></g><g><path d="m269.029 511.5c-4.219 0-7.638-3.419-7.638-7.638v-33.672c0-4.219 3.419-7.638 7.638-7.638s7.638 3.419 7.638 7.638v33.672c0 4.219-3.419 7.638-7.638 7.638z" fill="#dddaec"/></g><g><path d="m295.589 511.5c-4.219 0-7.638-3.419-7.638-7.638v-33.672c0-4.219 3.419-7.638 7.638-7.638s7.638 3.419 7.638 7.638v33.672c-.001 4.219-3.42 7.638-7.638 7.638z" fill="#dddaec"/></g></g><g><g><g><path d="m67.007 339.535c-4.219 0-7.638-3.419-7.638-7.638v-18.975c0-4.219 3.419-7.638 7.638-7.638s7.638 3.419 7.638 7.638v18.975c0 4.219-3.419 7.638-7.638 7.638z" fill="#dddaec"/></g><g><path d="m91.253 349.023c-4.219 0-7.638-3.419-7.638-7.638v-17.957c0-4.219 3.419-7.638 7.638-7.638s7.638 3.419 7.638 7.638v17.957c-.001 4.219-3.42 7.638-7.638 7.638z" fill="#dddaec"/></g><g><path d="m114.711 352.864c-4.219 0-7.638-3.419-7.638-7.638v-18.975c0-4.219 3.419-7.638 7.638-7.638s7.638 3.419 7.638 7.638v18.975c0 4.219-3.419 7.638-7.638 7.638z" fill="#dddaec"/></g></g><g><g><path d="m156.891 425.665c-4.219 0-7.638-3.419-7.638-7.638v-18.975c0-4.219 3.419-7.638 7.638-7.638s7.638 3.419 7.638 7.638v18.975c0 4.219-3.419 7.638-7.638 7.638z" fill="#dddaec"/></g><g><path d="m181.136 431.08c-4.219 0-7.638-3.419-7.638-7.638v-18.975c0-4.219 3.419-7.638 7.638-7.638s7.638 3.419 7.638 7.638v18.975c0 4.218-3.419 7.638-7.638 7.638z" fill="#dddaec"/></g></g><g><g><path d="m444.492 339.535c-4.219 0-7.638-3.419-7.638-7.638v-18.975c0-4.219 3.419-7.638 7.638-7.638s7.638 3.419 7.638 7.638v18.975c0 4.219-3.419 7.638-7.638 7.638z" fill="#dddaec"/></g><g><path d="m420.248 349.023c-4.219 0-7.638-3.419-7.638-7.638v-17.957c0-4.219 3.419-7.638 7.638-7.638s7.638 3.419 7.638 7.638v17.957c0 4.219-3.419 7.638-7.638 7.638z" fill="#dddaec"/></g><g><path d="m396.789 352.864c-4.219 0-7.638-3.419-7.638-7.638v-18.975c0-4.219 3.419-7.638 7.638-7.638s7.638 3.419 7.638 7.638v18.975c-.001 4.219-3.42 7.638-7.638 7.638z" fill="#dddaec"/></g></g><g><g><path d="m354.61 425.665c-4.219 0-7.638-3.419-7.638-7.638v-18.975c0-4.219 3.419-7.638 7.638-7.638s7.638 3.419 7.638 7.638v18.975c-.001 4.219-3.42 7.638-7.638 7.638z" fill="#dddaec"/></g><g><path d="m330.365 431.08c-4.219 0-7.638-3.419-7.638-7.638v-18.975c0-4.219 3.419-7.638 7.638-7.638s7.638 3.419 7.638 7.638v18.975c-.001 4.218-3.42 7.638-7.638 7.638z" fill="#dddaec"/></g></g></g><path d="m374.748 335.971 61.335-12.81c13.428-2.804 21.834-16.208 18.513-29.517l-62.1-239.634c-4.188-16.16-15.482-29.547-30.706-36.397l-37.905-17.055c-2.397-1.079-5.21-.564-7.083 1.28-40.701 40.085-81.403 40.085-122.104 0-1.873-1.844-4.685-2.359-7.083-1.28l-37.905 17.054c-15.224 6.85-26.518 20.237-30.706 36.397l-62.1 239.634c-3.322 13.309 5.085 26.713 18.513 29.517l61.335 12.81-9.63 36.232c-3.754 14.125 5.787 28.325 20.284 30.187l59.975 7.702-8.185 43.203c-2.821 14.89 8.597 28.674 23.752 28.674h65.605c15.155 0 26.573-13.784 23.752-28.674l-8.185-43.203 59.975-7.702c14.497-1.862 24.038-16.062 20.284-30.187z" fill="#eab14d"/><g><path d="m454.595 293.644-62.1-239.634c-4.188-16.16-15.482-29.547-30.706-36.397l-37.904-17.055c-2.398-1.079-5.21-.563-7.084 1.281-3.565 3.51-7.129 6.71-10.694 9.606l31.815 14.314c15.224 6.85 26.518 20.237 30.706 36.397l62.1 239.634c2.278 9.128-.961 18.299-7.553 24.066l12.909-2.696c13.427-2.804 21.833-16.207 18.511-29.516z" fill="#e49542"/></g><path d="m348.032 11.423-24.147-10.865c-2.397-1.079-5.21-.564-7.083 1.28-40.701 40.085-81.403 40.085-122.104 0-1.873-1.844-4.685-2.359-7.083-1.28l-24.147 10.864c28.923 29.735 59.963 54.612 92.282 54.612 32.321.001 63.36-24.877 92.282-54.611z" fill="#dd636e"/><g><path d="m334.886 24.394c4.427-4.171 8.811-8.515 13.146-12.971l-24.147-10.865c-2.398-1.079-5.21-.563-7.084 1.281-3.565 3.509-7.129 6.71-10.694 9.606z" fill="#da4a54"/></g><g fill="#dd636e"><path d="m144.719 295.896c-13.723-3.622-11.644-11.5-25.367-15.122s-15.803 4.255-29.526.632c-13.721-3.622-11.642-11.499-25.364-15.121l6.728-29.611c13.721 3.622 11.642 11.499 25.364 15.121 13.723 3.623 15.803-4.255 29.526-.632 13.723 3.622 11.644 11.5 25.367 15.122z"/><path d="m211.453 375.17c-13.167-2.752-11.501-10.727-24.668-13.478-13.167-2.752-14.834 5.223-28.001 2.471-13.165-2.751-11.499-10.726-24.664-13.478l6.485-32.785c13.165 2.751 11.499 10.726 24.664 13.478 13.167 2.752 14.834-5.223 28.001-2.471s11.501 10.727 24.668 13.478z"/><path d="m366.782 295.896c13.723-3.622 11.644-11.5 25.367-15.122s15.803 4.255 29.526.632c13.721-3.622 11.642-11.499 25.364-15.121l-6.728-29.611c-13.721 3.622-11.642 11.499-25.364 15.121-13.723 3.623-15.803-4.255-29.526-.632-13.723 3.622-11.644 11.5-25.367 15.122z"/></g><path d="m425.152 280.279c9.992-3.938 9.455-10.712 21.886-13.994l-6.728-29.611c-12.776 3.372-11.86 10.432-22.749 14.313z" fill="#da4a54"/><path d="m300.047 375.17c13.167-2.752 11.501-10.727 24.668-13.478 13.167-2.752 14.834 5.223 28.001 2.471 13.165-2.751 11.499-10.726 24.664-13.478l-6.485-32.785c-13.165 2.751-11.499 10.726-24.664 13.478-13.167 2.752-14.834-5.223-28.001-2.471s-11.501 10.727-24.668 13.478z" fill="#dd636e"/><path d="m308.998 435.842c-17.493 0-18.993-8.147-36.485-8.147-17.493 0-17.493 8.147-34.985 8.147-17.49 0-15.99-8.147-33.481-8.147l5.762-32.896c15.528 0 14.881 8.147 30.409 8.147 15.53 0 15.53-8.147 31.06-8.147s16.177 8.147 31.707 8.147z" fill="#dd636e"/><g><path d="m136.76 343.611c-.529 0-1.065-.056-1.603-.17-4.125-.881-6.756-4.94-5.875-9.065l26.716-125.099c.881-4.126 4.941-6.751 9.065-5.875 4.125.881 6.756 4.94 5.875 9.065l-26.716 125.099c-.767 3.587-3.936 6.045-7.462 6.045z" fill="#e49542"/></g><g><path d="m207.39 417.73c-.398 0-.801-.031-1.206-.095-4.166-.661-7.007-4.575-6.346-8.741l17.062-107.495c.66-4.166 4.573-7.013 8.741-6.346 4.166.661 7.007 4.575 6.346 8.741l-17.062 107.495c-.597 3.76-3.844 6.441-7.535 6.441z" fill="#e49542"/></g><g><path d="m374.739 343.611c-3.527 0-6.695-2.457-7.462-6.045l-26.715-125.099c-.88-4.125 1.749-8.184 5.875-9.065 4.121-.881 8.184 1.749 9.065 5.875l26.715 125.099c.88 4.125-1.749 8.184-5.875 9.065-.537.114-1.074.17-1.603.17z" fill="#e49542"/></g><g><path d="m304.11 417.73c-3.692 0-6.938-2.681-7.534-6.441l-17.061-107.495c-.661-4.166 2.18-8.079 6.346-8.741 4.17-.664 8.08 2.18 8.741 6.346l17.061 107.495c.661 4.166-2.18 8.079-6.346 8.741-.407.064-.81.095-1.207.095z" fill="#e49542"/></g></g></svg>