<svg height="512" viewBox="0 0 26 58" width="512" xmlns="http://www.w3.org/2000/svg"><g id="059---Dress" fill="none" transform="translate(-1)"><path id="Shape" d="m21.81 20c-.1938815-2.0730972.2195887-4.1578208 1.19-6 1.55-3.1 2.89-5.79 2.1-13.11-.0563151-.50893494-.4879683-.89310623-1-.89h-3.1s-1.16 5.79-7 13l4 8.82z" fill="#f29c1f"/><path id="Shape" d="m27 35c0 6-2 17-6 23h-14c-4-6-6-17-6-23-.06883365-4.1172419 1.41654307-8.1091918 4.16-11.18h17.68c2.7425999 3.071325 4.2278472 7.0629272 4.16 11.18z" fill="#f29c1f"/><g fill="#e57e25"><path id="Shape" d="m14 32c-.5522847 0-1-.4477153-1-1v-6c0-.5522847.4477153-1 1-1s1 .4477153 1 1v6c0 .5522847-.4477153 1-1 1z"/><path id="Shape" d="m9 29c-.36246563.0021183-.69769995-.1920712-.8761936-.5075484-.17849366-.3154771-.17229794-.7028442.0161936-1.0124516l1.86-3.16c.1572029-.3478371.4987108-.5758412.8802382-.5876816.3815275-.0118403.7365164.1945486.9149856.5319684.1784693.3374198.1492845.7470071-.0752238 1.0557132l-1.9 3.16c-.1651954.3033074-.47520884.4999013-.82.52z"/><path id="Shape" d="m19 29c-.3510473.0020443-.6774583-.1801386-.86-.48l-1.9-3.16c-.2111896-.4672916-.0346812-1.0186013.408637-1.2763444.4433181-.2577431 1.0097539-.1383777 1.311363.2763444l1.9 3.16c.1681171.3071351.1633521.6798285-.0125624.9825651-.1759145.3027365-.4973532.4914169-.8474376.4974349z"/></g><path id="Shape" d="m21 20.17c-4.8787941 1.1324918-9.9584871 1.0741833-14.81-.17.1938815-2.0730972-.21958868-4.1578208-1.19-6-1.55-3.1-2.89-5.79-2.1-13.11.05631511-.50893494.48796825-.89310623 1-.89h3.1s1.16 5.79 7 13c2.1024476 2.5533284 4.4466716 4.8975524 7 7z" fill="#f0c419"/><path id="Shape" d="m23.6 24.71c-.2760112.3627041-.6676287.6202544-1.11.73-5.563557 1.5287749-11.436443 1.5287749-17 0-.44237127-.1097456-.83398884-.3672959-1.11-.73.28-.35.53-.65.76-.89h17.7c.23.24.48.54.76.89z" fill="#e57e25"/><path id="Shape" d="m22.49 23.94c-5.5785402 1.4133413-11.4214598 1.4133413-17 0-1.08800093-.1932997-1.81329959-1.2319991-1.61999993-2.32.19329965-1.0880009 1.23199899-1.8132996 2.31999993-1.62 1.2 0 6.34 2.22 15.32 0 1.0714324-.2761423 2.1638576.3685676 2.4399999 1.44.2761424 1.0714324-.3685675 2.1638576-1.4399999 2.44z" fill="#d25627"/></g></svg>