<?xml version="1.0" encoding="iso-8859-1"?>
<!-- Generator: Adobe Illustrator 19.0.0, SVG Export Plug-In . SVG Version: 6.00 Build 0)  -->
<svg version="1.1" id="Layer_1" xmlns="http://www.w3.org/2000/svg" xmlns:xlink="http://www.w3.org/1999/xlink" x="0px" y="0px"
	 viewBox="0 0 512.005 512.005" style="enable-background:new 0 0 512.005 512.005;" xml:space="preserve">
<g transform="translate(-1 -1)">
	<path style="fill:#E080BC;" d="M343.509,202.23c-9.702-11.458-15.642-25.609-15.642-40.625v-0.45
		c0-10.673,2.807-21.08,8.157-30.314c9.675-16.693,26.906-54.943,26.906-121.009c-29.519-15.898-77.453-13.692-105.931,34.86
		C228.53-3.859,180.596-6.065,151.068,9.833c0,66.066,17.24,104.316,26.915,121.009c5.35,9.234,8.148,19.641,8.148,30.314v0.45
		c0,15.016-5.932,29.166-15.634,40.625c-71.583,84.551-60.504,197.976-37.085,293.12c0,0,69.138,17.655,123.586,17.655
		c54.457,0,123.586-17.655,123.586-17.655C404.014,400.207,415.092,286.781,343.509,202.23"/>
	<g>
		<path style="fill:#804169;" d="M257.003,44.691C228.525-3.861,180.6-6.068,151.072,9.83c0,31.214,3.866,56.143,8.942,75.599
			c5.641,3.354,12.668,6.7,20.268,9.816C216.007,109.882,256.552,83.294,257.003,44.691"/>
		<path style="fill:#804169;" d="M257.003,44.691C285.48-3.861,333.405-6.068,362.934,9.83c0,31.214-3.866,56.143-8.942,75.599
			c-5.641,3.354-12.668,6.7-20.268,9.816C297.998,109.882,257.453,83.294,257.003,44.691"/>
	</g>
	<g>
		<path style="fill:#B7699D;" d="M256.966,45.159c-0.644,32-28.849,55.534-58.845,53.99c5.879,11.697,12.553,24.029,14.733,28.257
			c6.056,11.697,9.048,24.691,9.048,37.87l0,0c0,12.694-2.56,25.362-8.492,36.582c-45.1,85.354-41.216,213.354-21.954,303.484
			l0.397,1.73c20.674,3.257,43.997,5.932,65.148,5.932V45.142L256.966,45.159z"/>
		<path style="fill:#B7699D;" d="M257.039,45.159c0.644,32,28.849,55.534,58.845,53.99c-5.879,11.697-12.553,24.029-14.733,28.257
			c-6.056,11.697-9.048,24.691-9.048,37.87l0,0c0,12.694,2.56,25.362,8.492,36.582c45.1,85.354,41.216,213.354,21.954,303.484
			l-0.397,1.73c-20.674,3.257-43.997,5.932-65.148,5.932V45.142L257.039,45.159z"/>
	</g>
</g>
<g>
</g>
<g>
</g>
<g>
</g>
<g>
</g>
<g>
</g>
<g>
</g>
<g>
</g>
<g>
</g>
<g>
</g>
<g>
</g>
<g>
</g>
<g>
</g>
<g>
</g>
<g>
</g>
<g>
</g>
</svg>
