<?xml version="1.0" encoding="iso-8859-1"?>
<!-- Generator: Adobe Illustrator 19.0.0, SVG Export Plug-In . SVG Version: 6.00 Build 0)  -->
<svg version="1.1" id="Layer_1" xmlns="http://www.w3.org/2000/svg" xmlns:xlink="http://www.w3.org/1999/xlink" x="0px" y="0px"
	 viewBox="0 0 512.05 512.05" style="enable-background:new 0 0 512.05 512.05;" xml:space="preserve">
<g transform="translate(0 -1)">
	<path style="fill:#E080BC;" d="M339.639,4.747c-25.476,17.673-83.615,13.798-83.615,13.798s-58.138,3.875-83.615-13.798
		c-4.74-3.293-10.611-4.599-16.207-3.178c-11.944,3.028-29.246,14.795-32.168,57.017c-0.697,10.196,2.595,20.409,9.295,28.125
		c6.003,6.921,15.395,15.228,29.802,22.775c13.436,7.036,24.329,18.353,29.007,32.777c4.546,14.001,5.482,32.477-6.735,52.833
		c0,0,8.828,17.655,70.621,17.655s70.621-17.655,70.621-17.655c-12.209-20.356-11.282-38.833-6.735-52.833
		c4.679-14.424,15.572-25.741,29.007-32.777c14.407-7.548,23.808-15.854,29.802-22.775c6.7-7.715,10.002-17.929,9.295-28.125
		c-2.922-42.222-20.224-53.99-32.168-57.017C350.25,0.148,344.388,1.454,339.639,4.747"/>
	<g>
		<path style="fill:#B7699D;" d="M349.895,359.493c2.286-11.555,3.328-23.322,2.639-35.081
			c-4.573-78.495-34.383-111.793-41.843-118.952c-10.434,3.84-27.374,7.292-54.669,7.292c-27.295,0-44.226-3.452-54.66-7.292
			c-7.459,7.159-37.27,40.457-41.852,118.952c-0.68,11.758,0.362,23.526,2.648,35.081c5.791,29.299,14.963,97.271-12.067,144.569
			c0,0,57.379,20.224,105.931,0c48.552,20.224,105.931,0,105.931,0C334.932,456.764,344.104,388.791,349.895,359.493"/>
		<path style="fill:#B7699D;" d="M124.037,58.59c-0.309,4.423,0.282,8.81,1.43,13.03h261.12c1.148-4.22,1.73-8.607,1.43-13.03
			c-0.115-1.615-0.283-3.098-0.441-4.626H124.469C124.319,55.492,124.152,56.975,124.037,58.59"/>
		<path style="fill:#B7699D;" d="M339.094,106.931H172.959c-3.081,0-5.65,1.668-7.23,4.052c6.241,3.619,11.829,8.192,16.41,13.603
			h147.774c4.573-5.411,10.169-9.984,16.41-13.612C344.744,108.599,342.166,106.931,339.094,106.931"/>
		<path style="fill:#B7699D;" d="M317.241,177.552c0.627,0,1.183-0.23,1.774-0.362c-1.633-6.056-2.339-11.864-2.189-17.293h-121.6
			c0.15,5.429-0.556,11.246-2.189,17.302c0.583,0.124,1.121,0.353,1.739,0.353H317.241z"/>
	</g>
	<g>
		<path style="fill:#E080BC;" d="M347.214,283.106c-1.28-6.179-2.719-11.917-4.264-17.276H169.1
			c-1.545,5.358-2.984,11.096-4.264,17.276c0.618,0.141,1.209,0.38,1.871,0.38h178.635
			C346.005,283.485,346.596,283.247,347.214,283.106"/>
		<path style="fill:#E080BC;" d="M352.537,324.407c-0.115-1.942-0.309-3.725-0.45-5.614H159.963
			c-0.141,1.889-0.335,3.672-0.45,5.614c-0.238,4.017-0.203,8.033-0.053,12.041h193.13
			C352.74,332.44,352.775,328.424,352.537,324.407"/>
		<path style="fill:#E080BC;" d="M347.67,372.011c-0.424-0.062-0.803-0.256-1.245-0.256H165.627c-0.441,0-0.821,0.194-1.245,0.256
			c0.83,5.244,1.624,11.123,2.295,17.399h178.697C346.045,383.134,346.84,377.255,347.67,372.011"/>
		<path style="fill:#E080BC;" d="M343.878,442.379c0.221,0,0.406-0.106,0.627-0.124c-0.503-5.897-0.812-11.776-0.883-17.532H168.43
			c-0.071,5.756-0.38,11.635-0.883,17.532c0.212,0.018,0.397,0.124,0.627,0.124H343.878z"/>
	</g>
</g>
<g>
</g>
<g>
</g>
<g>
</g>
<g>
</g>
<g>
</g>
<g>
</g>
<g>
</g>
<g>
</g>
<g>
</g>
<g>
</g>
<g>
</g>
<g>
</g>
<g>
</g>
<g>
</g>
<g>
</g>
</svg>
