<?xml version="1.0" encoding="iso-8859-1"?>
<!-- Generator: Adobe Illustrator 19.0.0, SVG Export Plug-In . SVG Version: 6.00 Build 0)  -->
<svg version="1.1" id="Layer_1" xmlns="http://www.w3.org/2000/svg" xmlns:xlink="http://www.w3.org/1999/xlink" x="0px" y="0px"
	 viewBox="0 0 512 512" style="enable-background:new 0 0 512 512;" xml:space="preserve">
<g transform="translate(0 -1)">
	<path style="fill:#FDD7AD;" d="M291.31,36.31c-9.754,0-17.655-7.91-17.655-17.655V1H256h-17.655v17.655
		c0,9.746-7.901,17.655-17.655,17.655c-61.793,0-79.484,14.892-79.484,35.31c0,8.457,16.808,26.386,26.518,35.31
		c22.298-15.89,64.689-12.606,88.276,26.483c23.587-39.089,65.977-42.372,88.276-26.483c9.71-8.925,26.518-26.854,26.518-35.31
		C370.794,51.202,353.103,36.31,291.31,36.31"/>
	<path style="fill:#26B99A;" d="M317.793,248.172v-35.31c0,0,26.483-26.483,26.483-105.931
		c-22.298-15.89-64.689-12.606-88.276,26.483c-23.587-39.089-65.977-42.372-88.276-26.483c0,79.448,26.483,105.931,26.483,105.931
		v35.31C121.053,315.642,88.276,477.69,88.276,477.69S211.862,513,256,513s167.724-35.31,167.724-35.31
		S390.947,315.642,317.793,248.172"/>
	<path style="fill:#136852;" d="M264.708,265.828h-17.417c-4.943,0-8.942-4.008-8.942-8.951v-52.718
		c0-4.943,3.999-8.951,8.942-8.951h17.417c4.943,0,8.951,4.008,8.951,8.951v52.718C273.659,261.82,269.651,265.828,264.708,265.828"
		/>
	<g>
		<polygon style="fill:#1C8E73;" points="194.207,248.174 238.345,248.174 238.345,212.864 194.207,212.864 		"/>
		<polygon style="fill:#1C8E73;" points="273.655,248.174 317.793,248.174 317.793,212.864 273.655,212.864 		"/>
		<path style="fill:#1C8E73;" d="M317.313,37.431c-0.018,0.141-0.097,0.247-0.106,0.388l-3.814,60.16
			c0,0.026,0.009,0.035,0.009,0.062c6.065-0.097,11.9,0.733,17.276,2.366c0.097-0.45,0.309-0.839,0.335-1.306l3.752-59.171
			C329.636,38.87,323.819,38.032,317.313,37.431"/>
		<path style="fill:#1C8E73;" d="M180.983,99.104c0.026,0.468,0.238,0.856,0.335,1.298c5.376-1.624,11.22-2.454,17.276-2.366
			c0-0.018,0.009-0.035,0.009-0.053l-3.814-60.16c-0.009-0.141-0.088-0.256-0.106-0.388c-6.506,0.6-12.314,1.43-17.452,2.489
			L180.983,99.104z"/>
	</g>
</g>
<g>
</g>
<g>
</g>
<g>
</g>
<g>
</g>
<g>
</g>
<g>
</g>
<g>
</g>
<g>
</g>
<g>
</g>
<g>
</g>
<g>
</g>
<g>
</g>
<g>
</g>
<g>
</g>
<g>
</g>
</svg>
