<?xml version="1.0" encoding="iso-8859-1"?>
<!-- Generator: Adobe Illustrator 19.0.0, SVG Export Plug-In . SVG Version: 6.00 Build 0)  -->
<svg version="1.1" id="Layer_1" xmlns="http://www.w3.org/2000/svg" xmlns:xlink="http://www.w3.org/1999/xlink" x="0px" y="0px"
	 viewBox="0 0 512 512" style="enable-background:new 0 0 512 512;" xml:space="preserve">
<g transform="translate(0 -1)">
	<path style="fill:#FDD7AD;" d="M273.655,1.047c0,0-17.655-0.106-17.655,0c0-0.106-17.655,0-17.655,0s-1.651,19.818-35.31,35.266
		L256,133.417l52.966-97.103C275.306,20.865,273.655,1.047,273.655,1.047"/>
	<path style="fill:#8697CB;" d="M353.104,53.966c0,0-30.526-11.405-44.138-17.655L256,133.414l-52.966-97.103
		c-13.612,6.25-44.138,17.655-44.138,17.655s44.138,102.621,44.138,141.241s-26.483,38.991-26.483,123.586
		s26.483,176.181,26.483,176.181S216.647,513,256,513s52.966-18.026,52.966-18.026s26.483-91.586,26.483-176.181
		s-26.483-84.966-26.483-123.586S353.104,53.966,353.104,53.966"/>
	<path style="fill:#424B63;" d="M264.828,230.518h-17.655c-4.873,0-8.828-3.955-8.828-8.828v-35.31c0-4.873,3.955-8.828,8.828-8.828
		h17.655c4.873,0,8.828,3.955,8.828,8.828v35.31C273.655,226.563,269.701,230.518,264.828,230.518"/>
	<g>
		<path style="fill:#556080;" d="M273.655,186.38v35.31h40.554c-3.063-7.618-5.244-15.492-5.244-26.483
			c0-2.648,0.229-5.623,0.609-8.828H273.655z"/>
		<path style="fill:#556080;" d="M203.035,195.207c0,10.99-2.18,18.865-5.244,26.483h40.554v-35.31h-35.919
			C202.805,189.584,203.035,192.559,203.035,195.207"/>
	</g>
</g>
<g>
</g>
<g>
</g>
<g>
</g>
<g>
</g>
<g>
</g>
<g>
</g>
<g>
</g>
<g>
</g>
<g>
</g>
<g>
</g>
<g>
</g>
<g>
</g>
<g>
</g>
<g>
</g>
<g>
</g>
</svg>
