<?xml version="1.0" encoding="iso-8859-1"?>
<!-- Generator: Adobe Illustrator 19.0.0, SVG Export Plug-In . SVG Version: 6.00 Build 0)  -->
<svg version="1.1" id="Layer_1" xmlns="http://www.w3.org/2000/svg" xmlns:xlink="http://www.w3.org/1999/xlink" x="0px" y="0px"
	 viewBox="0 0 512.002 512.002" style="enable-background:new 0 0 512.002 512.002;" xml:space="preserve">
<g transform="translate(0 -1)">
	<path style="fill:#CBB292;" d="M330.47,261.363c-7.883-9.269-12.676-20.762-12.676-32.927v-0.371
		c0-8.651,2.269-17.081,6.612-24.567c7.839-13.533,19.871-43.017,19.871-96.565c-22.298-15.89-64.689-12.606-88.276,26.483
		c-23.587-39.089-65.977-42.372-88.276-26.483c0,53.548,12.032,83.032,19.871,96.565c4.343,7.486,6.612,15.916,6.612,24.567v0.371
		c0,12.164-4.793,23.658-12.676,32.927C123.243,329.9,88.277,380.588,88.277,468.864c0,0,70.621,44.138,167.724,44.138
		s167.724-44.138,167.724-44.138C423.725,380.588,388.759,329.9,330.47,261.363"/>
	<path style="fill:#FDD7AD;" d="M291.311,36.31c-9.754,0-17.655-7.91-17.655-17.655V1h-17.655h-17.655v17.655
		c0,9.746-7.901,17.655-17.655,17.655c-61.793,0-79.484,14.892-79.484,35.31c0,8.457,16.808,26.386,26.518,35.31
		c22.298-15.89,64.689-12.606,88.276,26.483c23.587-39.089,65.977-42.372,88.276-26.483c9.71-8.925,26.518-26.854,26.518-35.31
		C370.795,51.202,353.104,36.31,291.311,36.31"/>
	<g>
		<path style="fill:#B2977B;" d="M167.725,106.931c0,23.322,2.313,41.975,5.535,56.841c4.996,3.575,12.376,7.265,20.551,10.62
			c28.954,11.864,61.828-9.684,62.19-40.978C232.414,94.325,190.024,91.041,167.725,106.931"/>
		<path style="fill:#B2977B;" d="M344.277,106.931c0,23.322-2.313,41.975-5.535,56.841c-4.996,3.575-12.376,7.265-20.551,10.62
			c-28.954,11.864-61.828-9.684-62.19-40.978C279.588,94.325,321.978,91.041,344.277,106.931"/>
	</g>
	<path style="fill:#937961;" d="M264.828,257h-17.655c-4.873,0-8.828-3.955-8.828-8.828v-35.31c0-4.873,3.955-8.828,8.828-8.828
		h17.655c4.873,0,8.828,3.955,8.828,8.828v35.31C273.656,253.045,269.701,257,264.828,257"/>
	<g>
		<path style="fill:#B2977B;" d="M317.794,228.436v-0.371c0-5.208,0.918-10.311,2.525-15.201h-46.663v35.31h48.605
			C319.48,241.977,317.794,235.348,317.794,228.436"/>
		<path style="fill:#B2977B;" d="M189.739,248.172h48.605v-35.31h-46.663c1.607,4.89,2.525,9.993,2.525,15.201v0.371
			C194.206,235.346,192.52,241.984,189.739,248.172"/>
	</g>
	<g>
		<path style="fill:#CBB292;" d="M317.314,37.431c-0.018,0.141-0.097,0.247-0.106,0.388l-3.814,60.16
			c0,0.026,0.009,0.035,0.009,0.062c6.065-0.097,11.9,0.733,17.276,2.366c0.097-0.441,0.309-0.839,0.335-1.306l3.752-59.171
			C329.637,38.87,323.82,38.032,317.314,37.431"/>
		<path style="fill:#CBB292;" d="M180.984,99.104c0.026,0.468,0.238,0.856,0.335,1.298c5.376-1.624,11.22-2.454,17.276-2.366
			c0-0.018,0.009-0.035,0.009-0.053l-3.814-60.16c-0.009-0.141-0.088-0.256-0.106-0.388c-6.506,0.6-12.314,1.43-17.452,2.489
			L180.984,99.104z"/>
	</g>
</g>
<g>
</g>
<g>
</g>
<g>
</g>
<g>
</g>
<g>
</g>
<g>
</g>
<g>
</g>
<g>
</g>
<g>
</g>
<g>
</g>
<g>
</g>
<g>
</g>
<g>
</g>
<g>
</g>
<g>
</g>
</svg>
