<?xml version="1.0" encoding="iso-8859-1"?>
<!-- Generator: Adobe Illustrator 19.0.0, SVG Export Plug-In . SVG Version: 6.00 Build 0)  -->
<svg version="1.1" id="Layer_1" xmlns="http://www.w3.org/2000/svg" xmlns:xlink="http://www.w3.org/1999/xlink" x="0px" y="0px"
	 viewBox="0 0 512.003 512.003" style="enable-background:new 0 0 512.003 512.003;" xml:space="preserve">
<g transform="translate(0 -1)">
	<path style="fill:#4482C3;" d="M326.622,186.379c0-35.681,26.483-88.276,26.483-88.276C325.889,67.578,335.45,9.828,335.45,9.828
		L300.139,1c0,0-14.716,35.31-44.138,35.31C226.579,36.31,211.863,1,211.863,1l-35.31,8.828c0,0,9.56,57.75-17.655,88.276
		c0,0,26.483,52.595,26.483,88.276s-68.043,103.724-97.103,132.414c0,0,0.689,41.79,48.711,20.374
		c14.901-6.638,32.742-3.796,46.31,5.252c5.685,3.796,11.502,8.863,16.896,15.651c21.327,26.854,40.086,0,40.086,0
		s4.317-5.967,15.722-5.967c11.405,0,15.722,5.967,15.722,5.967s18.759,26.854,40.086,0c5.394-6.788,11.211-11.855,16.896-15.651
		c13.568-9.048,31.409-11.891,46.31-5.252c48.022,21.416,48.711-20.374,48.711-20.374
		C394.665,290.103,326.622,222.06,326.622,186.379"/>
	<path style="fill:#285680;" d="M328.703,344.422c-5.685,3.787-11.494,8.863-16.887,15.651c-21.336,26.854-40.095,0-40.095,0
		s-4.317-5.967-15.722-5.967c-11.396,0-15.713,5.967-15.713,5.967s-18.759,26.854-40.095,0
		c-5.394-6.788-11.211-11.864-16.887-15.651c-10.602-7.071-23.79-10.275-36.167-8.21c6.153,46.61,20.586,159.135,20.586,159.135
		s52.966,17.655,88.276,17.655s88.276-17.655,88.276-17.655s14.442-112.525,20.586-159.135
		C352.493,334.147,339.305,337.351,328.703,344.422"/>
	<path style="fill:#1D4360;" d="M264.829,230.517h-17.417c-4.943,0-8.942-4.008-8.942-8.951v-35.063
		c0-4.943,3.999-8.951,8.942-8.951h17.417c4.943,0,8.951,4.008,8.951,8.951v35.063C273.78,226.51,269.772,230.517,264.829,230.517"
		/>
	<g>
		<path style="fill:#285680;" d="M273.626,185.754c0.026,0.256,0.15,0.477,0.15,0.742v34.595
			c20.992-1.465,41.684-5.244,60.195-10.055c-4.564-9.11-7.353-17.54-7.353-24.655c0-3.222,0.283-6.612,0.68-10.063
			C311.091,180.661,292.615,184.271,273.626,185.754"/>
		<path style="fill:#285680;" d="M238.466,221.104v-34.604c0-0.265,0.124-0.477,0.15-0.733c-19.068-1.474-37.641-5.085-53.91-9.446
			c0.397,3.443,0.671,6.833,0.671,10.055c0,7.115-2.781,15.545-7.345,24.664C196.615,215.869,217.386,219.647,238.466,221.104"/>
	</g>
</g>
<g>
</g>
<g>
</g>
<g>
</g>
<g>
</g>
<g>
</g>
<g>
</g>
<g>
</g>
<g>
</g>
<g>
</g>
<g>
</g>
<g>
</g>
<g>
</g>
<g>
</g>
<g>
</g>
<g>
</g>
</svg>
