<?xml version="1.0" encoding="iso-8859-1"?>
<!-- Generator: Adobe Illustrator 19.0.0, SVG Export Plug-In . SVG Version: 6.00 Build 0)  -->
<svg version="1.1" id="Layer_1" xmlns="http://www.w3.org/2000/svg" xmlns:xlink="http://www.w3.org/1999/xlink" x="0px" y="0px"
	 viewBox="0 0 512 512" style="enable-background:new 0 0 512 512;" xml:space="preserve">
<g transform="translate(0 -1)">
	<path style="fill:#FDD7AD;" d="M273.655,1H256h-17.655c0,0,0,26.483-26.483,26.483c0,0,17.655,88.276,44.138,88.276
		s44.138-88.276,44.138-88.276C273.655,27.483,273.655,1,273.655,1"/>
	<path style="fill:#C03A2B;" d="M300.138,151.069c0-43.864,52.966-66.754,52.966-96.83c0-30.067-43.308-26.756-52.966-26.756
		c0,0-17.655,88.276-44.138,88.276s-44.138-88.276-44.138-88.276c-9.657,0-52.966-3.31-52.966,26.756
		c0,30.076,52.966,52.966,52.966,96.83s-26.483,61.237-26.483,105.384c0,44.129,17.929,137.649,17.929,165.235
		s-0.274,91.039-0.274,91.039L256,513l52.966-0.274c0,0-0.274-63.453-0.274-91.039s17.929-121.106,17.929-165.235
		C326.621,212.306,300.138,194.933,300.138,151.069"/>
</g>
<g>
</g>
<g>
</g>
<g>
</g>
<g>
</g>
<g>
</g>
<g>
</g>
<g>
</g>
<g>
</g>
<g>
</g>
<g>
</g>
<g>
</g>
<g>
</g>
<g>
</g>
<g>
</g>
<g>
</g>
</svg>
