<?xml version="1.0" encoding="iso-8859-1"?>
<!-- Generator: Adobe Illustrator 19.0.0, SVG Export Plug-In . SVG Version: 6.00 Build 0)  -->
<svg version="1.1" id="Layer_1" xmlns="http://www.w3.org/2000/svg" xmlns:xlink="http://www.w3.org/1999/xlink" x="0px" y="0px"
	 viewBox="0 0 512 512" style="enable-background:new 0 0 512 512;" xml:space="preserve">
<g transform="translate(0 -1)">
	<path style="fill:#424B63;" d="M326.841,212.862l-37.535,110.592l10.028-3.769c8.925-3.363,18.458,3.231,18.458,12.773v32.715
		c0,9.092-8.722,15.642-17.452,13.118l-17.858-5.182c-2.816-0.821-5.367-2.145-7.636-3.805L229.517,513h127.338
		c3.231-27.878,5.076-57.45,5.076-88.276C361.931,341.189,347.321,265.978,326.841,212.862"/>
	<path style="fill:#556080;" d="M185.6,212.862c-22.025,53.38-35.531,124.778-35.531,211.862c0,30.826,1.845,60.398,5.076,88.276
		h74.372l45.33-143.695c-6.144-4.52-10.019-11.741-10.019-19.694c0-10.187,6.312-19.315,15.846-22.899l8.633-3.257l37.535-110.592
		H185.6z"/>
	<g>
		<path style="fill:#8697CB;" d="M282.703,1c0,123.586-26.703,141.241-26.703,141.241S229.738,124.586,229.738,1
			c0,0-61.793,87.252-61.793,122.562c0,0-2.481,22.351,9.313,46.557c6.559,13.453,8.342,25.088,8.342,42.743h141.241
			c0-17.655,1.783-29.29,8.342-42.743c11.794-24.205,9.313-46.557,9.313-46.557C344.497,88.252,282.703,1,282.703,1"/>
		<path style="fill:#8697CB;" d="M247.179,373.107l-17.858,5.182c-8.73,2.534-17.452-4.017-17.452-13.109v-32.724
			c0-9.534,9.534-16.137,18.458-12.773l18.662,7.027c9.534,3.593,15.846,12.712,15.846,22.899
			C264.834,360.492,257.639,370.07,247.179,373.107"/>
		<path style="fill:#8697CB;" d="M282.482,373.107l17.858,5.182c8.73,2.534,17.452-4.017,17.452-13.109v-32.724
			c0-9.534-9.534-16.137-18.458-12.773l-18.662,7.027c-9.534,3.593-15.846,12.712-15.846,22.899
			C264.827,360.492,272.021,370.07,282.482,373.107"/>
	</g>
</g>
<g>
</g>
<g>
</g>
<g>
</g>
<g>
</g>
<g>
</g>
<g>
</g>
<g>
</g>
<g>
</g>
<g>
</g>
<g>
</g>
<g>
</g>
<g>
</g>
<g>
</g>
<g>
</g>
<g>
</g>
</svg>
