<?xml version="1.0" encoding="iso-8859-1"?>
<!-- Generator: Adobe Illustrator 19.0.0, SVG Export Plug-In . SVG Version: 6.00 Build 0)  -->
<svg version="1.1" id="Layer_1" xmlns="http://www.w3.org/2000/svg" xmlns:xlink="http://www.w3.org/1999/xlink" x="0px" y="0px"
	 viewBox="0 0 512.001 512.001" style="enable-background:new 0 0 512.001 512.001;" xml:space="preserve">
<g transform="translate(0 -1)">
	<path style="fill:#E57E25;" d="M335.449,257.116c0,0-51.818,8.704-79.413,8.713l0,0l0,0H256h-0.035l0,0
		c-27.595-0.009-79.413-8.713-79.413-8.713c-16.393,19.668-44.103,70.506-8.792,238.23c0,0,42.973,17.646,88.205,17.655l0,0H256
		h0.035c45.233-0.009,88.205-17.655,88.205-17.655C379.551,327.622,351.842,276.792,335.449,257.116"/>
	<path style="fill:#F0C419;" d="M227.283,49.987l11.096-31.329L211.897,1.003l-35.328,60.619
		c-16.269,27.922-21.363,60.981-14.009,92.451c7.247,30.985,14.813,71.495,14.027,103.044c0,0,51.862,8.713,79.448,8.713
		s79.448-8.713,79.448-8.713v-35.31c-11.935-16.887-37.65-58.977-80.931-87.322C226.957,116.415,216.275,81.078,227.283,49.987"/>
	<path style="fill:#E57E25;" d="M300.171,1l-26.483,17.655l11.123,31.409c11.158,31.514-0.512,66.586-28.337,85.133l-0.441,0.291
		c42.372,28.337,67.655,69.632,79.448,86.316c2.798-25.114,8.66-51.5,14.159-72.633c7.283-27.983,3.275-57.662-11.29-82.644
		L300.171,1z"/>
</g>
<g>
</g>
<g>
</g>
<g>
</g>
<g>
</g>
<g>
</g>
<g>
</g>
<g>
</g>
<g>
</g>
<g>
</g>
<g>
</g>
<g>
</g>
<g>
</g>
<g>
</g>
<g>
</g>
<g>
</g>
</svg>
