<?xml version="1.0" encoding="iso-8859-1"?>
<!-- Generator: Adobe Illustrator 19.0.0, SVG Export Plug-In . SVG Version: 6.00 Build 0)  -->
<svg version="1.1" id="Layer_1" xmlns="http://www.w3.org/2000/svg" xmlns:xlink="http://www.w3.org/1999/xlink" x="0px" y="0px"
	 viewBox="0 0 512.001 512.001" style="enable-background:new 0 0 512.001 512.001;" xml:space="preserve">
<g transform="translate(0 -1)">
	<path style="fill:#35495E;" d="M379.587,301.139C379.587,177.553,256,168.725,256,168.725s-123.586,8.828-123.586,132.414
		c0,0,8.828,185.379-70.621,185.379c0,0,35.31,26.483,194.207,26.483s194.207-26.483,194.207-26.483
		C370.759,486.518,379.587,301.139,379.587,301.139"/>
	<g>
		<path style="fill:#21313F;" d="M216.58,178.161c21.866-8.174,39.424-9.437,39.424-9.437s17.549,1.262,39.415,9.437l40.033-88.885
			c0-44.138,17.655-79.448,17.655-79.448L308.969,1c0,44.138-52.966,44.138-52.966,44.138s-52.966,0-52.966-44.138l-44.138,8.828
			c0,0,17.655,35.31,17.655,79.448L216.58,178.161z"/>
		<path style="fill:#21313F;" d="M393.311,496.829c-24.161-16.102-57.865-58.041-57.865-89.759c0-4.882-3.946-8.828-8.828-8.828
			c-4.873,0-8.828,3.946-8.828,8.828c0,36.22,31.974,78.195,58.518,99.143c7.627-1.033,14.539-2.127,20.763-3.266
			C396.736,500.545,395.491,498.285,393.311,496.829"/>
		<path style="fill:#21313F;" d="M310.289,509.967c-0.892-3.575-1.907-7.265-2.94-11.043c-3.549-12.932-7.212-26.297-7.212-38.885
			c0-4.882-3.955-8.828-8.828-8.828s-8.828,3.946-8.828,8.828c0,14.963,4.167,30.155,7.839,43.546
			c0.83,3.046,1.615,5.985,2.366,8.889c6.091-0.168,12.032-0.38,17.691-0.636C310.36,511.212,310.448,510.602,310.289,509.967"/>
		<path style="fill:#21313F;" d="M220.69,451.208c-4.873,0-8.828,3.946-8.828,8.828c0,10.558-3.831,22.095-7.539,33.245
			c-1.836,5.526-3.725,11.229-5.094,16.684c-0.15,0.591-0.053,1.165-0.079,1.748c5.685,0.274,11.591,0.512,17.735,0.697
			c1.156-4.281,2.604-8.783,4.193-13.568c3.955-11.9,8.439-25.388,8.439-38.806C229.518,455.154,225.563,451.208,220.69,451.208"/>
		<path style="fill:#21313F;" d="M185.38,398.242c-4.873,0-8.828,3.946-8.828,8.828c0,31.718-33.704,73.657-57.865,89.759
			c-2.18,1.457-3.416,3.716-3.761,6.118c6.232,1.139,13.135,2.233,20.762,3.266c26.545-20.948,58.518-62.923,58.518-99.143
			C194.207,402.188,190.253,398.242,185.38,398.242"/>
	</g>
</g>
<g>
</g>
<g>
</g>
<g>
</g>
<g>
</g>
<g>
</g>
<g>
</g>
<g>
</g>
<g>
</g>
<g>
</g>
<g>
</g>
<g>
</g>
<g>
</g>
<g>
</g>
<g>
</g>
<g>
</g>
</svg>
