<?xml version="1.0" encoding="iso-8859-1"?>
<!-- Generator: Adobe Illustrator 19.0.0, SVG Export Plug-In . SVG Version: 6.00 Build 0)  -->
<svg version="1.1" id="Layer_1" xmlns="http://www.w3.org/2000/svg" xmlns:xlink="http://www.w3.org/1999/xlink" x="0px" y="0px"
	 viewBox="0 0 512.188 512.188" style="enable-background:new 0 0 512.188 512.188;" xml:space="preserve">
<g transform="translate(0 -1)">
	<path style="fill:#8697CB;" d="M406.163,495.347c0-88.276-88.399-229.517-88.399-247.172c0-18.441,3.743-36.758,11.688-53.407
		c5.967-12.518,12.482-32.247,14.919-61.352c-9.251-3.416-16.887-6.153-26.483-8.828l20.586-83.836
		c-9.013-2.189-20.277-3.628-34.189-4.167l-21.707,79.175h-26.368l0,0h-26.598l-21.707-79.183
		c-13.912,0.547-25.176,1.986-34.189,4.175l20.586,83.836c-9.596,2.675-17.231,5.411-26.483,8.828
		c2.436,29.105,8.951,48.825,14.919,61.352c7.945,16.64,11.688,34.957,11.688,53.407c0,17.655-88.399,158.897-88.399,247.172
		c0,0,105.86,17.62,150.069,17.655v0.185v-0.009v-0.177C300.303,512.967,406.163,495.347,406.163,495.347"/>
	<g>
		<path style="fill:#FDD7AD;" d="M282.577,115.759L282.577,115.759l21.954-79.175l-13.003-0.274c-9.754,0-17.655-7.91-17.655-17.655
			V1h-17.655h-17.655v17.655c0,9.746-7.901,17.655-17.655,17.655l-13.003,0.274l21.707,79.175H282.577z"/>
		<path style="fill:#FDD7AD;" d="M317.887,124.586C318.02,124.622,318.099,124.648,317.887,124.586
			c3.919,1.095,22.042,7.186,26.483,8.828c8.828-8.828,26.642-53.336,26.642-61.793c0-13.762-8.113-25-32.291-30.87L317.887,124.586
			z"/>
		<path style="fill:#FDD7AD;" d="M194.301,124.586l-20.586-83.836c-24.179,5.87-32.291,17.108-32.291,30.87
			c0,8.439,17.549,52.842,26.394,61.793C174.042,131.119,192.421,125.107,194.301,124.586"/>
	</g>
	<g>
		<path style="fill:#556080;" d="M191.936,257h128.238c-1.536-3.946-2.41-6.912-2.41-8.642v-0.018c0-8.978,0.918-17.911,2.737-26.65
			H191.706c1.801,8.686,2.719,17.567,2.719,26.483C194.425,249.929,193.516,252.966,191.936,257"/>
		<path style="fill:#556080;" d="M256.094,230.517c4.873,0,8.828-3.946,8.828-8.828V115.759h-8.713l0,0h-8.942V221.69
			C247.266,226.571,251.221,230.517,256.094,230.517"/>
	</g>
</g>
<g>
</g>
<g>
</g>
<g>
</g>
<g>
</g>
<g>
</g>
<g>
</g>
<g>
</g>
<g>
</g>
<g>
</g>
<g>
</g>
<g>
</g>
<g>
</g>
<g>
</g>
<g>
</g>
<g>
</g>
</svg>
