<svg id="Capa_1" enable-background="new 0 0 512 512" height="512" viewBox="0 0 512 512" width="512" xmlns="http://www.w3.org/2000/svg"><g><path d="m499.057 305.903h-486.41c-6.985 0-12.647-5.662-12.647-12.647v-74.512c0-6.985 5.662-12.647 12.647-12.647h486.41c7.148 0 12.943 5.795 12.943 12.943v73.919c0 7.149-5.795 12.944-12.943 12.944z" fill="#eab14d"/><path d="m499.057 206.097h-22.361c7.148 0 12.943 5.795 12.943 12.943v73.92c0 7.148-5.795 12.943-12.943 12.943h22.361c7.149 0 12.943-5.795 12.943-12.943v-73.92c0-7.148-5.795-12.943-12.943-12.943z" fill="#e49542"/><path d="m325.075 206.097v99.806h93.477c5.534 0 10.764-2.531 14.197-6.871l11.263-14.237c2.529-3.197 3.905-7.155 3.905-11.231v-35.126c0-4.077-1.376-8.034-3.905-11.231l-11.263-14.237c-3.433-4.34-8.663-6.871-14.197-6.871h-93.477z" fill="#ffe07d"/><path d="m444.012 227.206-11.263-14.237c-3.433-4.34-8.663-6.871-14.197-6.871h-27.239c5.534 0 10.764 2.531 14.197 6.871l11.263 14.237c2.529 3.197 3.905 7.154 3.905 11.231v35.127c0 4.076-1.376 8.034-3.905 11.231l-11.263 14.237c-3.433 4.34-8.663 6.871-14.197 6.871h27.239c5.534 0 10.764-2.531 14.197-6.871l11.263-14.237c2.529-3.197 3.905-7.154 3.905-11.231v-35.127c0-4.077-1.376-8.034-3.905-11.231z" fill="#ffd064"/><path d="m314.7 318.104h-154.437c-5.73 0-10.375-4.645-10.375-10.375v-103.459c0-5.73 4.645-10.375 10.375-10.375h154.437c5.73 0 10.375 4.645 10.375 10.375v103.46c0 5.729-4.645 10.374-10.375 10.374z" fill="#86a0af"/><path d="m314.7 193.896h-22.236c5.73 0 10.375 4.645 10.375 10.374v103.459c0 5.73-4.645 10.375-10.375 10.375h22.236c5.73 0 10.375-4.645 10.375-10.375v-103.459c0-5.729-4.645-10.374-10.375-10.374z" fill="#738b95"/><path d="m227.073 290.557-17.084-28.266c-2.338-3.868-2.338-8.713 0-12.581l17.084-28.266c4.731-7.828 16.085-7.828 20.816 0l17.084 28.266c2.338 3.868 2.338 8.713 0 12.581l-17.084 28.266c-4.731 7.827-16.085 7.827-20.816 0z" fill="#eab14d"/><path d="m264.973 249.71-17.084-28.266c-4.628-7.657-15.575-7.803-20.48-.481.109.164.233.31.336.481l17.084 28.266c2.338 3.868 2.338 8.713 0 12.581l-17.084 28.266c-.103.171-.227.317-.336.481 4.904 7.322 15.852 7.176 20.48-.481l17.084-28.266c2.338-3.868 2.338-8.714 0-12.581z" fill="#e49542"/><g><g><path d="m357.947 267.745c-4.268 0-7.726-3.459-7.726-7.726v-8.037c0-4.268 3.459-7.726 7.726-7.726s7.726 3.459 7.726 7.726v8.037c.001 4.267-3.458 7.726-7.726 7.726z" fill="#738b95"/></g><g><path d="m55.185 267.745c-4.268 0-7.726-3.459-7.726-7.726v-8.037c0-4.268 3.459-7.726 7.726-7.726s7.726 3.459 7.726 7.726v8.037c0 4.267-3.459 7.726-7.726 7.726z" fill="#738b95"/></g><g><path d="m102.536 267.745c-4.268 0-7.726-3.459-7.726-7.726v-8.037c0-4.268 3.459-7.726 7.726-7.726 4.268 0 7.726 3.459 7.726 7.726v8.037c0 4.267-3.459 7.726-7.726 7.726z" fill="#738b95"/></g></g></g></svg>