<svg height="512" viewBox="0 0 34 59" width="512" xmlns="http://www.w3.org/2000/svg"><g id="061---Vest" fill="none"><path id="Shape" d="m25 13s1 6-8 6-8-6-8-6v-9s-1 6 8 6 8-6 8-6z" fill="#2fa8cc"/><path id="Shape" d="m33.83 56c-4.7078802 1.2986175-9.5663839 1.9710747-14.45 2h-.74c-6.2186058.1672861-12.43134369-.5054521-18.47-2 .83-3 5.83-16 2.83-28-1.02597002-3.9317606-1.69534657-7.9480199-2-12 3.13-4.69 4.2-12.6 4.08-15 0-.55228475.44771525-1 1-1h1.92c.55228475 0 1 .44771525 1 1v6c0 4.418278 3.581722 8 8 8s8-3.581722 8-8v-6c0-.55228475.4477153-1 1-1h1.92c.5522847 0 1 .44771525 1 1-.12 2.4.95 10.31 4.08 15-.3046534 4.0519801-.97403 8.0682394-2 12-3 12 2 25 2.83 28z" fill="#2fa8cc"/><path id="Shape" d="m32 56c-4.0857895 1.2820914-8.3380033 1.9559763-12.62 2h-.74c-2.85.05-3.37 0-4 0-4.2887458-.0416256-8.54790474-.7155431-12.64-2 .74-3 5.2-16 2.53-28-.91732145-3.9455602-1.51591682-7.9584901-1.79-12 2.79-4.69 3.74-12.6 3.64-15-.00310623-.51203175.38106506-.94368489.89-1h.73c.55228475 0 1 .44771525 1 1v6c0 4.418278 3.581722 8 8 8s8-3.581722 8-8v-6c0-.55228475.4477153-1 1-1h.73c.5089349.05631511.8931062.48796825.89 1-.1 2.36.85 10.27 3.64 15-.2740832 4.0415099-.8726785 8.0544398-1.79 12-2.67 12 1.79 25 2.53 28z" fill="#67b9cc"/></g></svg>