<svg height="512" viewBox="0 0 40 58" width="512" xmlns="http://www.w3.org/2000/svg"><g id="063---Top" fill="none"><path id="Shape" d="m10 14.61c0-.18 0-4.53-2.06-13-.11426105-.52538092-.43524472-.98262985-.89054608-1.26860426-.45530137-.28597441-1.00656955-.37658615-1.52945392-.25139574-1.0833117.30681799-1.72887276 1.41665241-1.46 2.51 1.04769157 3.92476919 1.69763476 7.9450364 1.94 12z" fill="#ff5364"/><path id="Shape" d="m34 14.61c.2463694-4.0545204.8962482-8.07438974 1.94-12 .2875113-1.10315486-.3620496-2.23321288-1.46-2.54-.5243026-.1249475-1.0768423-.03298898-1.5324141.2550378s-.775607.74773758-.8875859 1.2749622c-2.06 8.48-2.06 12.83-2.06 13.01z" fill="#ff5364"/><path id="Shape" d="m35.92 29.6c.0614756 8.2978851 1.438581 16.5335152 4.08 24.4 0 0-7 4-20 4s-20-4-20-4c2.641419-7.8664848 4.01852435-16.1021149 4.08-24.4l7.45-3.93h16.9z" fill="#df4d60"/><path id="Shape" d="m33.64 29.6c.0461219 8.2543606 1.2203238 16.4636805 3.49 24.4 0 0-6 4-17.13 4s-17.13-4-17.13-4c2.26967617-7.9363195 3.44387807-16.1456394 3.49-24.4l6.38-3.93h14.48z" fill="#ff5364"/><path id="Shape" d="m39 16v8.79c.0568596 2.6296921-1.8807315 4.8779883-4.49 5.21-1.7504769.173059-3.4631274-.5864313-4.51-2 0 2.7614237-2.2385763 5-5 5s-5-2.2385763-5-5c0 2.7614237-2.2385763 5-5 5s-5-2.2385763-5-5c-1.04687261 1.4135687-2.75952309 2.173059-4.51 2-2.60926848-.3320117-4.5468596-2.5803079-4.49-5.21v-8.79c0-1.1045695.8954305-2 2-2h34c1.1045695 0 2 .8954305 2 2z" fill="#fb7b76"/></g></svg>