<svg height="512" viewBox="0 0 40 59" width="512" xmlns="http://www.w3.org/2000/svg"><g id="067---Top" fill="none" transform="translate(0 -1)"><path id="Shape" d="m2.3 15c-.51203175.0031062-.94368489-.3810651-1-.89l-1.22-12c-.06075131-.55228474.33771526-1.04924865.89-1.10999997.55228474-.06075133 1.04924866.33771523 1.11.88999997l1.22 12c.03140242.283696-.05992104.5672904-.25096831.7793529-.19104727.2120624-.46360823.3323798-.74903169.3306471z" fill="#2fa8cc"/><path id="Shape" d="m37.71 15c.5120317.0031062.9436849-.3810651 1-.89l1.22-12c.0392992-.3572656-.1149857-.70835853-.4047372-.92102546-.2897515-.21266692-.6709493-.25459869-1-.11s-.5559636.45375985-.5952628.81102546l-1.23 12c-.0316285.285447.060996.570714.2542788.7831337s.4685644.3314852.7557212.3268663z" fill="#2fa8cc"/><path id="Shape" d="m40 56s-7 4-20 4-20-4-20-4c2.6374636-8.054479 3.98739905-16.4747013 4-24.95-2.5-1.59-4-4.22-4-8-.00453465-4.1861483 1.02604671-8.3084737 3-12 2 5 9 10 17 10s15-5 17-10c1.9739533 3.6915263 3.0045346 7.8138517 3 12 0 3.83-1.5 6.46-4 8.05.0188523 8.4584431 1.3686972 16.8612277 4 24.9z" fill="#67b9cc"/><path id="Shape" d="m12.25 33.37c0 .5522847-.4477153 1-1 1-2.46652678.0490843-4.92192206-.343779-7.25-1.16 0-.82 0-1.54 0-2.15 2.29752519.9420888 4.76806676 1.3884901 7.25 1.31.5522847 0 1 .4477153 1 1z" fill="#2fa8cc"/><path id="Shape" d="m36 33.21c-2.3375542.8197672-4.8034293 1.2126814-7.28 1.16-.5522847 0-1-.4477153-1-1s.4477153-1 1-1c2.4919775.0827416 4.9731863-.3637397 7.28-1.31z" fill="#2fa8cc"/><g fill="#ff5364"><circle id="Oval" cx="19" cy="51" r="5"/><circle id="Oval" cx="24" cy="39" r="2"/><path id="Shape" d="m9 43c-.00071802 1.5260797-.86971625 2.9187765-2.24016311 3.5901892-1.37044687.6714127-3.0035158.5045349-4.20983689-.4301892.47-2.48.8-4.8 1-6.89 1.23105396-.4788251 2.61912315-.3190294 3.70917043.427003 1.09004728.7460323 1.74151152 1.9821008 1.74082957 3.302997z"/><path id="Shape" d="m39.21 53.48c-1.8574302.9198844-4.0898341.5983767-5.6122019-.8082613-1.5223677-1.4066381-2.0190097-3.6067157-1.2485442-5.5309343.7704655-1.9242185 2.648269-3.1735578 4.7207461-3.1408044.5137073 3.2017733 1.2284539 6.3680342 2.14 9.48z"/><path id="Shape" d="m11 27c-2.31381293-.0000819-4.32532844-1.5877085-4.86297015-3.8381911-.53764171-2.2504825.53904901-4.5758836 2.60297015-5.6218089 2.1417222 1.4320642 4.5330754 2.4496613 7.05 3 .4631731 1.5170723.1790284 3.1639267-.765736 4.4380766s-2.4380637 2.0244329-4.024264 2.0219234z"/><path id="Shape" d="m29 23c-.0024061 1.4240249-1.0055766 2.6501421-2.4009221 2.9345077-1.3953454.2843657-2.7983367-.4513856-3.3578265-1.7608984-.5594899-1.3095128-.1212942-2.8319119 1.0487486-3.6436093.6320284-.1444084 1.2561904-.32131 1.87-.53 1.5940595.0851361 2.8422719 1.4036703 2.84 3z"/></g></g></svg>