<svg height="512" viewBox="0 0 48 58" width="512" xmlns="http://www.w3.org/2000/svg"><g id="068---Top" fill="none"><path id="Rectangle-path" d="m17 0h14v8h-14z" fill="#c03a2b"/><path id="Shape" d="m48 53c-7.9446172 3.316921-16.4707824 5.0167147-25.08 5-7.8794086-.2676545-15.64500362-1.9617198-22.92-5 6-11 3-35 3-35 4-4 4.25-11.32 4.12-14.31-.01947141-.96552153.65375357-1.80705275 1.6-2l8.28-1.69c0 2.87 2.81 6 7 6s7-3.09 7-6l8.28 1.66c.9462464.19294725 1.6194714 1.03447847 1.6 2-.13 3.02.12 10.34 4.12 14.34 0 0-3 24 3 35z" fill="#d25627"/><path id="Shape" d="m45.43 53c-7.0376858 3.3212282-14.7280522 5.0294393-22.51 5-7.0478533-.3002128-13.96551366-1.9998836-20.35-5 5.36-11 2.68-35 2.68-35 3.57-4 3.75-11.32 3.68-14.31-.06054926-.92217329.53780806-1.75903667 1.43-2l6.64-1.52c.14 2.75 2.78 5.83 7 5.83s6.85-3 7-5.83l6.65 1.49c.8921919.24096333 1.4905493 1.07782671 1.43 2-.08 3.02.1 10.34 3.67 14.34 0 0-2.68 24 2.68 35z" fill="#e57e25"/><path id="Shape" d="m33.71 16.29c-2.8944064-3.2044219-5.3401-6.78717796-7.27-10.65-1.5912666.47993408-3.2887334.47993408-4.88 0-1.9299 3.86282204-4.3755936 7.4455781-7.27 10.65-.2884599.2860905-.3751619.7182668-.219371 1.0934815.155791.3752147.5231059.6188811.929371.6165185.265803.0015368.5212812-.1028135.71-.29 2.8797698-3.1689722 5.3307404-6.7025388 7.29-10.51v16.8c0 .5522847.4477153 1 1 1s1-.4477153 1-1v-16.8c1.9592596 3.8074612 4.4102302 7.3410278 7.29 10.51.1887188.1871865.444197.2915368.71.29.4062651.0023626.77358-.2413038.929371-.6165185.1557909-.3752147.0690889-.807391-.219371-1.0934815z" fill="#d25627"/></g></svg>