<?xml version="1.0" encoding="iso-8859-1"?>
<!-- Generator: Adobe Illustrator 19.0.0, SVG Export Plug-In . SVG Version: 6.00 Build 0)  -->
<svg version="1.1" id="Layer_1" xmlns="http://www.w3.org/2000/svg" xmlns:xlink="http://www.w3.org/1999/xlink" x="0px" y="0px"
	 viewBox="0 0 512 512" style="enable-background:new 0 0 512 512;" xml:space="preserve">
<g transform="translate(0 -1)">
	<path style="fill:#ECF0F1;" d="M459.034,257c-17.796-44.085-61.793-229.517-61.793-229.517L353.103,1v123.586
		c0,49.752-18.247,81.249-38.921,100.97c-32.3,30.817-84.065,30.817-116.365,0c-20.674-19.721-38.921-51.218-38.921-100.97V1
		l-44.138,26.483c0,0-43.997,185.432-61.793,229.517c-16.331,40.457-8.024,77.206,8.828,105.931
		c16.102,27.454,35.31,70.621,35.31,150.069H256h158.897c0-79.448,19.209-122.615,35.31-150.069
		C467.059,334.206,475.366,297.457,459.034,257"/>
	<path style="fill:#BDC3C7;" d="M256,80.448C167.724,80.448,158.897,1,158.897,1v91.622c58.43,52.957,65.465,112.64,64.318,149.433
		c10.452,4.361,21.601,6.612,32.786,6.612c11.185,0,22.334-2.251,32.786-6.612c-1.148-36.793,5.888-96.477,64.318-149.433V1
		C353.103,1,344.276,80.448,256,80.448"/>
</g>
<g>
</g>
<g>
</g>
<g>
</g>
<g>
</g>
<g>
</g>
<g>
</g>
<g>
</g>
<g>
</g>
<g>
</g>
<g>
</g>
<g>
</g>
<g>
</g>
<g>
</g>
<g>
</g>
<g>
</g>
</svg>
