<?xml version="1.0" encoding="iso-8859-1"?>
<!-- Generator: Adobe Illustrator 19.0.0, SVG Export Plug-In . SVG Version: 6.00 Build 0)  -->
<svg version="1.1" id="Layer_1" xmlns="http://www.w3.org/2000/svg" xmlns:xlink="http://www.w3.org/1999/xlink" x="0px" y="0px"
	 viewBox="0 0 512.002 512.002" style="enable-background:new 0 0 512.002 512.002;" xml:space="preserve">
<g transform="translate(-1 -1)">
	<g>
		<path style="fill:#9B2B23;" d="M162.884,18.198c-3.132,0-6.144-1.724-7.646-4.719c-0.606-1.229-0.896-2.526-0.896-3.814
			c0-3.123,1.724-6.135,4.719-7.637c4.224-2.099,9.472-0.452,11.571,3.755c0.631,1.263,0.939,2.594,0.939,3.908
			c0,3.072-1.664,5.999-4.617,7.475l-0.265,0.137C165.47,17.908,164.164,18.198,162.884,18.198"/>
		<path style="fill:#9B2B23;" d="M274.068,308.202h-34.133c-4.71,0-8.525-3.814-8.533-8.525
			c-0.017-11.955-4.437-21.965-4.471-22.059c-5.965-13.858-15.113-26.53-28.885-40.055c-2.21-2.176-3.072-5.376-2.244-8.363
			c6.528-23.62-8.064-63.966-55.774-154.172c-0.939-1.775-1.229-3.814-0.802-5.777c7.159-33.468,15.65-61.884,15.735-62.165
			c1.084-3.61,4.412-6.084,8.175-6.084h0.026c3.772,0.009,7.091,2.5,8.158,6.127c15.812,53.717,53.069,138.94,85.683,138.94
			s69.862-85.222,85.683-138.94c1.067-3.627,4.386-6.118,8.158-6.127h0.026c3.763,0,7.091,2.475,8.175,6.084
			c0.085,0.282,8.576,28.698,15.735,62.165c0.427,1.963,0.137,4.002-0.802,5.777c-47.71,90.206-62.302,130.551-55.774,154.172
			c0.828,2.987-0.034,6.187-2.244,8.363c-13.773,13.525-22.921,26.197-28.8,39.876c-0.111,0.247-4.54,10.257-4.557,22.238
			C282.592,304.387,278.778,308.202,274.068,308.202"/>
		<path style="fill:#9B2B23;" d="M257.001,513.002c-59.895,0-143.223-16.529-146.739-17.237c-3.985-0.794-6.861-4.292-6.861-8.363
			c0-29.38-8.849-92.075-15.966-142.455l-2.475-17.587c-0.503-3.575,1.297-7.074,4.497-8.747c3.191-1.681,7.091-1.169,9.754,1.297
			c15.659,14.507,40.286,22.306,71.211,22.571c10.718,0.128,20.181-1.101,28.425-3.661c21.888-6.793,32.478-19.584,32.393-39.117
			c-0.009-2.27,0.887-4.446,2.483-6.059c1.604-1.604,3.789-2.509,6.05-2.509h34.458c2.261,0,4.446,0.905,6.05,2.509
			c1.596,1.613,2.492,3.789,2.483,6.059c-0.085,19.533,10.505,32.324,32.393,39.117c8.252,2.56,17.749,3.763,28.425,3.661
			c30.925-0.265,55.552-8.064,71.211-22.571c2.662-2.449,6.571-2.961,9.754-1.297c3.2,1.673,5.001,5.171,4.497,8.747l-2.475,17.587
			c-7.117,50.381-15.966,113.075-15.966,142.455c0,4.07-2.876,7.569-6.861,8.363C400.224,496.473,316.896,513.002,257.001,513.002"
			/>
	</g>
	<g>
		<path style="fill:#C03A2B;" d="M402.068,487.402h0.085H402.068z M257.001,513.002c-59.895,0-143.223-16.529-146.739-17.237
			c-3.985-0.794-6.861-4.292-6.861-8.363c0-7.637-0.614-18.159-1.835-31.283c-0.239-2.637,0.751-5.231,2.697-7.04
			c1.929-1.801,4.582-2.611,7.202-2.167c26.897,4.48,94.908,14.891,145.536,14.891s118.639-10.411,145.536-14.891
			c2.577-0.444,5.265,0.367,7.202,2.167c1.946,1.809,2.935,4.403,2.697,7.04c-1.22,13.124-1.835,23.646-1.835,31.283
			c0,4.07-2.876,7.569-6.861,8.363C400.224,496.473,316.896,513.002,257.001,513.002L257.001,513.002z"/>
		<path style="fill:#C03A2B;" d="M214.334,427.668c-52.591,0-83.157-10.163-115.422-26.573c-4.207-2.133-5.879-7.27-3.746-11.469
			c2.133-4.207,7.262-5.879,11.477-3.746c30.012,15.266,58.505,24.721,107.691,24.721c4.719,0,8.533,3.823,8.533,8.533
			C222.868,423.845,219.053,427.668,214.334,427.668"/>
		<path style="fill:#C03A2B;" d="M299.668,427.668c-4.719,0-8.533-3.823-8.533-8.533c0-4.71,3.814-8.533,8.533-8.533
			c49.186,0,77.679-9.455,107.691-24.721c4.198-2.133,9.335-0.461,11.477,3.746c2.133,4.198,0.461,9.335-3.746,11.469
			C382.825,417.505,352.258,427.668,299.668,427.668"/>
		<path style="fill:#C03A2B;" d="M171.568,359.552h-1.289c-56.303-0.478-92.8-22.605-105.557-64
			c-5.572-18.065-5.444-38.545,0.358-59.204l2.79-9.924c13.141-46.737,40.491-144,52.787-201.6c0.546-2.534,2.21-4.693,4.523-5.854
			l34.133-17.067c3.046-1.51,6.716-1.092,9.31,1.101c2.611,2.193,3.661,5.726,2.688,8.986
			c-0.256,0.836-25.242,84.736-25.242,134.076c0,23.62,18.918,39.791,40.841,58.513c20.156,17.22,43.008,36.753,55.612,66.125
			c0.461,1.024,12.237,28.023,1.015,52.796c-6.767,14.925-20.105,25.566-39.646,31.616
			C194.292,358.101,183.702,359.552,171.568,359.552"/>
		<path style="fill:#C03A2B;" d="M342.434,359.552c-12.134,0-22.724-1.451-32.324-4.437c-19.541-6.05-32.879-16.691-39.646-31.616
			c-11.221-24.772,0.555-51.772,1.058-52.907c12.561-29.261,35.413-48.794,55.569-66.014c21.922-18.722,40.841-34.893,40.841-58.513
			c0-49.374-24.986-133.239-25.242-134.076c-0.973-3.26,0.077-6.793,2.688-8.986c2.594-2.202,6.263-2.62,9.31-1.101l34.133,17.067
			c2.313,1.161,3.977,3.319,4.523,5.854c12.297,57.6,39.646,154.863,52.787,201.6l2.79,9.924
			c5.803,20.659,5.931,41.139,0.358,59.204c-12.757,41.395-49.254,63.522-105.557,64H342.434"/>
	</g>
</g>
<g>
</g>
<g>
</g>
<g>
</g>
<g>
</g>
<g>
</g>
<g>
</g>
<g>
</g>
<g>
</g>
<g>
</g>
<g>
</g>
<g>
</g>
<g>
</g>
<g>
</g>
<g>
</g>
<g>
</g>
</svg>
