<?xml version="1.0" encoding="iso-8859-1"?>
<!-- Generator: Adobe Illustrator 19.0.0, SVG Export Plug-In . SVG Version: 6.00 Build 0)  -->
<svg version="1.1" id="Layer_1" xmlns="http://www.w3.org/2000/svg" xmlns:xlink="http://www.w3.org/1999/xlink" x="0px" y="0px"
	 viewBox="0 0 512.012 512.012" style="enable-background:new 0 0 512.012 512.012;" xml:space="preserve">
<g transform="translate(0 -1)">
	<g>
		<path style="fill:#804169;" d="M93.881,146.077c-0.666,0-1.34-0.077-2.014-0.239c-4.582-1.109-7.398-5.726-6.289-10.3
			c15.462-63.872,7.305-93.082-2.261-106.334C76.089,19.178,67.65,18.06,67.564,18.052c-4.693-0.393-8.183-4.523-7.799-9.216
			c0.393-4.693,4.506-8.218,9.216-7.799c1.638,0.145,16.367,1.809,28.177,18.176c16.964,23.509,18.645,64,5.009,120.337
			C101.22,143.458,97.73,146.077,93.881,146.077"/>
		<path style="fill:#804169;" d="M418.131,146.077c-3.849,0-7.339-2.62-8.286-6.528c-13.636-56.337-11.955-96.828,5.009-120.337
			c11.81-16.367,26.539-18.031,28.177-18.176c4.719-0.435,8.823,3.106,9.216,7.799c0.384,4.651-3.038,8.747-7.672,9.199
			c-0.597,0.077-9.088,1.357-16.299,11.759c-9.276,13.38-17.126,42.598-1.843,105.745c1.109,4.574-1.707,9.19-6.289,10.3
			C419.47,146,418.796,146.077,418.131,146.077"/>
	</g>
	<path style="fill:#CC66A1;" d="M388.685,278.644h0.085H388.685z M418.142,513.012H93.875c-3.183,0-6.101-1.775-7.578-4.591
		c-1.459-2.825-1.246-6.229,0.58-8.832c47.966-68.531,31.753-195.004,28.015-219.665c-1.63-10.761-6.059-20.437-12.791-27.972
		C54.588,198.747,84.924,136.36,86.238,133.731c0.981-1.954,2.671-3.465,4.719-4.207c81.459-29.619,145.28,20.361,165.052,38.69
		c19.772-18.33,83.584-68.318,165.043-38.69c2.056,0.742,3.738,2.253,4.719,4.207c1.314,2.628,31.659,65.015-15.863,118.221
		c-6.733,7.535-11.153,17.212-12.783,27.972c-3.738,24.661-19.959,151.134,28.006,219.665c1.826,2.603,2.048,6.007,0.58,8.832
		C424.243,511.237,421.325,513.012,418.142,513.012L418.142,513.012z"/>
	<g>
		<path style="fill:#804169;" d="M187.739,274.077c-61.491,0-80.836-17.562-82.833-19.567c-3.337-3.337-3.337-8.73,0-12.066
			c3.294-3.285,8.602-3.328,11.938-0.128c0.597,0.521,17.459,14.694,70.895,14.694c4.71,0,8.533,3.823,8.533,8.533
			S192.45,274.077,187.739,274.077"/>
		<path style="fill:#804169;" d="M324.273,274.077c-4.71,0-8.533-3.823-8.533-8.533s3.823-8.533,8.533-8.533
			c54.153,0,70.75-14.558,70.912-14.703c3.422-3.123,8.789-3.004,11.989,0.341c3.2,3.354,3.209,8.585-0.068,11.861
			C405.109,256.516,385.764,274.077,324.273,274.077"/>
		<path style="fill:#804169;" d="M230.406,214.344c-4.71,0-8.533-3.823-8.533-8.533s3.823-8.533,8.533-8.533
			c9.412,0,17.067-7.654,17.067-17.067c0-4.71,3.823-8.533,8.533-8.533c4.71,0,8.533,3.823,8.533,8.533
			C264.539,199.035,249.23,214.344,230.406,214.344"/>
		<path style="fill:#804169;" d="M281.606,214.344c-18.825,0-34.133-15.309-34.133-34.133c0-4.71,3.823-8.533,8.533-8.533
			c4.71,0,8.533,3.823,8.533,8.533c0,9.412,7.654,17.067,17.067,17.067c4.71,0,8.533,3.823,8.533,8.533
			S286.316,214.344,281.606,214.344"/>
	</g>
</g>
<g>
</g>
<g>
</g>
<g>
</g>
<g>
</g>
<g>
</g>
<g>
</g>
<g>
</g>
<g>
</g>
<g>
</g>
<g>
</g>
<g>
</g>
<g>
</g>
<g>
</g>
<g>
</g>
<g>
</g>
</svg>
