<svg id="Capa_1" enable-background="new 0 0 512 512" height="512" viewBox="0 0 512 512" width="512" xmlns="http://www.w3.org/2000/svg"><g><path d="m454.862 279.46h48.285c4.89 0 8.853-3.964 8.853-8.853v-29.214c0-4.89-3.964-8.853-8.853-8.853h-48.285z" fill="#f4c3c6"/><path d="m466.81 207.203c1.437 14.122 2.25 28.243 2.439 42.365l-5.499 14.11 5.296 7.669c-.357 11.15-1.102 22.3-2.237 33.45-1.957 19.236-19.002 33.255-38.278 31.743-7.926-.621-15.852-1.47-23.779-2.545l-5.788-6.691-13.261 3.671c-13.228-2.401-26.455-5.433-39.683-9.097l-4.159-8.342-12.853 3.282c-14.167-4.504-28.335-9.733-42.502-15.687v-90.26c37.834-15.899 75.668-26.631 113.502-32.195l9.101 6.739 16.197-9.689c1.075-.093 2.15-.181 3.225-.265 12.857-1.008 24.721 4.893 31.778 14.642l-1.488 11.689 7.774 3.718c.086.559.157 1.124.215 1.693z" fill="#dd636e"/><path d="m286.507 301.13c13.286 5.583 26.572 10.506 39.858 14.814 2.019-3.7 3.167-7.943 3.167-12.454v-94.98c0-4.511-1.148-8.754-3.167-12.454-13.286 4.309-26.572 9.231-39.858 14.814z" fill="#da4a54"/><g fill="#f9f6f9"><path d="m425.309 175.747c-8.432.727-16.865 1.704-25.297 2.944l-113.505 109.574v12.865c2.088.877 4.176 1.719 6.264 2.565z"/><path d="m346.025 321.859 120.569-116.35c-.861-5.74-3.082-10.967-6.292-15.402l-131.289 126.695c5.671 1.803 11.342 3.486 17.012 5.057z"/><path d="m404.756 333.975 64.281-62.628c.232-7.26.307-14.519.21-21.779l-83.541 81.393c6.35 1.152 12.7 2.152 19.05 3.014z"/></g><path d="m57.138 279.46h-48.285c-4.89 0-8.853-3.964-8.853-8.853v-29.214c0-4.89 3.964-8.853 8.853-8.853h48.285z" fill="#f4c3c6"/><path d="m45.19 207.203c-1.59 15.626-2.416 31.253-2.478 46.879l6.049 7.403-5.674 13.568c.394 9.914 1.095 19.829 2.104 29.743.448 4.404 1.687 8.534 3.562 12.268l9.949 1.499-.124 10.483c6.816 5.339 15.594 8.222 24.891 7.493 7.61-.597 15.22-1.403 22.831-2.417l18.112-11.365 8.985 6.868c30.699-6.096 61.398-15.595 92.098-28.496v-90.26c-9.952-4.182-19.903-8.007-29.855-11.473l-10.937 3.057-5.755-8.537c-13.223-4.075-26.445-7.519-39.668-10.332l-11.547 4.261-7.137-7.816c-12.375-2.076-24.75-3.599-37.125-4.57-19.279-1.51-36.324 12.508-38.281 31.744z" fill="#dd636e"/><path d="m182.469 208.51v94.981c0 4.511 1.148 8.754 3.167 12.454 13.286-4.309 26.572-9.231 39.858-14.814v-90.26c-9.954-4.183-19.907-7.995-29.861-11.456-3.333-1.159-13.164 4.583-13.164 9.095z" fill="#da4a54"/><path d="m120.591 180.044-77.871 74.039c-.028 6.99.093 13.981.37 20.971l96.184-91.45c-6.227-1.326-12.455-2.516-18.683-3.56z" fill="#f9f6f9"/><path d="m178.941 193.933-130.18 123.127c2.365 4.708 5.742 8.782 9.823 11.979l137.048-129.623c-5.564-1.938-11.127-3.769-16.691-5.483z" fill="#f9f6f9"/><path d="m106.296 334.1c9.032-1.204 18.064-2.702 27.095-4.496l92.102-87.882v-21.157c-.412.264-.806.568-1.174.918z" fill="#f9f6f9"/><path d="m290.583 309.547h-69.166c-10.473 0-18.963-8.49-18.963-18.963v-69.166c0-10.473 8.49-18.963 18.963-18.963h69.166c10.473 0 18.963 8.49 18.963 18.963v69.166c.001 10.472-8.49 18.963-18.963 18.963z" fill="#e28086"/></g></svg>