<svg height="512" viewBox="0 0 58 58" width="512" xmlns="http://www.w3.org/2000/svg"><g id="008---Coat" fill="none" transform="translate(-1)"><path id="Shape" d="m14 15.39c-2.8848757.1383409-5.36542035 2.0890604-6.18 4.86l-6.66 26c-.6633239 2.3092968.57901477 4.7371065 2.84 5.55l3.64 1.06c1.10277451.2647802 2.26611092.048989 3.2005591-.5936826.9344482-.6426715 1.5521595-1.6518049 1.6994409-2.7763174.13-.61-.02 2.21 1.46-34.1z" fill="#4c8056"/><path id="Shape" d="m47.45 49.49c.1472814 1.1245125.7649927 2.1336459 1.6994409 2.7763174.9344482.6426716 2.0977846.8584628 3.2005591.5936826l3.65-1.06c2.2847484-.8096731 3.536745-3.2653437 2.85-5.59l-6.66-26c-.8298798-2.7585042-3.3122366-4.6914541-6.19-4.82 1.48 36.3 1.33 33.5 1.45 34.1z" fill="#4c8056"/><path id="Shape" d="m48 20.22c-.76 33-.59 26.34-.77 34.57.039764 1.7079521-1.2932634 3.1342915-3 3.21h-28.46c-1.7067366-.0757085-3.039764-1.5020479-3-3.21-.19-8.64 0-1.59-.77-34.57-.1070507-3.0729401 1.8037426-5.8559639 4.71-6.86l4.53-1.46h17.52l4.53 1.46c2.9062574 1.0040361 4.8170507 3.7870599 4.71 6.86z" fill="#4fba6f"/><path id="Shape" d="m23 36v4h-10.56l-.13-6h8.69c1.1045695 0 2 .8954305 2 2z" fill="#7ed09e"/><path id="Shape" d="m23 40v6c0 3.3137085-2.6862915 6-6 6h-4.29l-.27-12z" fill="#24ae5f"/><path id="Shape" d="m47.69 34-.13 6h-10.56v-4c0-1.1045695.8954305-2 2-2z" fill="#7ed09e"/><g fill="#24ae5f"><path id="Shape" d="m47.56 40-.27 12h-4.29c-3.3137085 0-6-2.6862915-6-6v-6z"/><path id="Shape" d="m26 12v9c0 3.3137085-2.6862915 6-6 6h-7.85l-.15-6.78c-.1070507-3.0729401 1.8037426-5.8559639 4.71-6.86l4.29-1.36z"/><path id="Shape" d="m48 20.22-.15 6.78h-7.85c-3.3137085 0-6-2.6862915-6-6v-9h5l4.28 1.38c2.9029628.9983677 4.8167116 3.7716816 4.72 6.84z"/></g><path id="Shape" d="m31 8v50h-2v-50c0-.55228475.4477153-1 1-1s1 .44771525 1 1z" fill="#547580"/><path id="Shape" d="m21.24 11.9c-1.4380198-.3684304-2.3903598-1.7331676-2.24-3.21v.31s0-9 11-9 11 9 11 9v-.31c.1522769 1.4709046-.7899974 2.8333822-2.22 3.21z" fill="#7ed09e"/><ellipse id="Oval" cx="30" cy="4" fill="#4c8056" rx="8" ry="4"/></g></svg>