<?xml version="1.0" encoding="iso-8859-1"?>
<!-- Generator: Adobe Illustrator 19.0.0, SVG Export Plug-In . SVG Version: 6.00 Build 0)  -->
<svg version="1.1" id="Layer_1" xmlns="http://www.w3.org/2000/svg" xmlns:xlink="http://www.w3.org/1999/xlink" x="0px" y="0px"
	 viewBox="0 0 512.008 512.008" style="enable-background:new 0 0 512.008 512.008;" xml:space="preserve">
<g transform="translate(0 -1)">
	<path style="fill:#1E2D3A;" d="M343.867,345.955l-0.141-0.221c-3.655-5.756-7.459-13.347-9.966-19.624h-0.026
		c-2.18,0.962-4.573,1.518-7.106,1.518h-81.973l26.483,185.379h108.456V468.87C379.592,425.332,367.198,382.704,343.867,345.955"/>
	<path style="fill:#2C3E50;" d="M185.382,327.625c-2.534,0-4.935-0.556-7.115-1.518h-0.018c-2.516,6.276-6.321,13.877-9.975,19.633
		l-0.132,0.212c-23.331,36.758-35.725,79.386-35.725,122.915v44.138h138.717l-26.483-185.379H185.382z"/>
	<path style="fill:#1E2D3A;" d="M378.911,68.477c-0.053-0.433-0.106-0.847-0.15-1.28c2.101-12.482-4.29-24.611-15.351-30.146
		L291.315,1.008l-70.621,158.897l16.393,114.759h89.538v-12.12c13.515-27.039,25.953-55.225,34.198-84.109L462.8,362.939
		l40.377-17.841L378.911,68.477z"/>
	<g>
		<path style="fill:#2C3E50;" d="M185.382,262.544v12.111h51.703l-16.393-114.759l35.31-79.448L220.693,1l-72.095,36.052
			c-11.061,5.535-17.461,17.664-15.351,30.146c-0.053,0.433-0.097,0.847-0.15,1.28L8.831,345.099l40.369,17.832l101.985-184.497
			C159.42,207.318,171.867,235.505,185.382,262.544"/>
		<path style="fill:#2C3E50;" d="M378.911,68.477c-0.053-0.433-0.106-0.847-0.15-1.28c2.101-12.482-4.29-24.611-15.351-30.146
			L291.315,1.008l35.31,52.957l-35.31,8.836l17.655,17.655l-30.111,27.092c17.788,21.186,44.412,34.701,74.249,34.701
			c19.191,0,37.032-5.641,52.092-15.254L378.911,68.477z"/>
	</g>
	<g>
		<path style="fill:#1E2D3A;" d="M203.038,80.453l17.655-17.655l-35.31-8.828l35.31-52.966l-72.095,36.043
			c-11.061,5.535-17.461,17.673-15.351,30.146c-0.053,0.441-0.097,0.847-0.15,1.28l-26.289,58.527
			c15.06,9.604,32.9,15.245,52.092,15.245c33.774,0,63.435-17.284,80.808-43.458L203.038,80.453z"/>
		<path style="fill:#1E2D3A;" d="M252.19,71.871L220.693,1.003L252.19,71.871z"/>
	</g>
	<path style="fill:#3E5A70;" d="M361.934,89.28c0,4.873-3.955,8.828-8.828,8.828c-4.873,0-8.828-3.955-8.828-8.828
		c0-4.873,3.955-8.828,8.828-8.828C357.979,80.453,361.934,84.407,361.934,89.28"/>
	<path style="fill:#2C3E50;" d="M167.727,89.28c0,4.873-3.955,8.828-8.828,8.828c-4.873,0-8.828-3.955-8.828-8.828
		c0-4.873,3.955-8.828,8.828-8.828C163.772,80.453,167.727,84.407,167.727,89.28"/>
	<polygon style="fill:#1E2D3A;" points="220.693,1.004 291.313,1.004 256.003,80.453 	"/>
	<polygon style="fill:#3E5A70;" points="220.693,159.901 256.003,80.453 291.313,1.004 326.624,53.97 291.313,62.798 
		308.969,80.453 	"/>
	<polygon style="fill:#2C3E50;" points="503.176,345.097 486.774,308.586 443.033,327.159 462.807,362.937 	"/>
	<polygon style="fill:#1E2D3A;" points="25.798,307.326 8.832,345.099 49.2,362.94 69.645,325.943 	"/>
	<g>
		<polygon style="fill:#3E5A70;" points="246.373,102.12 256.004,80.448 220.694,1 185.383,53.966 220.694,62.793 203.038,80.448 		
			"/>
		<path style="fill:#3E5A70;" d="M317.796,177.556h-35.31c-4.873,0-8.828-3.946-8.828-8.828c0-4.882,3.955-8.828,8.828-8.828h35.31
			c4.873,0,8.828,3.946,8.828,8.828C326.624,173.61,322.669,177.556,317.796,177.556"/>
	</g>
	<path style="fill:#1E2D3A;" d="M220.693,424.729h-52.966c-4.873,0-8.828-3.946-8.828-8.828s3.955-8.828,8.828-8.828h52.966
		c4.873,0,8.828,3.946,8.828,8.828S225.566,424.729,220.693,424.729"/>
	<path style="fill:#2C3E50;" d="M344.279,424.729h-52.966c-4.873,0-8.828-3.946-8.828-8.828s3.955-8.828,8.828-8.828h52.966
		c4.873,0,8.828,3.946,8.828,8.828S349.152,424.729,344.279,424.729"/>
	<path style="fill:#3E5A70;" d="M326.624,327.625H185.382c-9.754,0-17.655-7.901-17.655-17.655v-17.655
		c0-9.754,7.901-17.655,17.655-17.655h141.241c9.754,0,17.655,7.901,17.655,17.655v17.655
		C344.279,319.724,336.378,327.625,326.624,327.625"/>
	<path style="fill:#1E2D3A;" d="M264.831,301.142c0,4.873-3.955,8.828-8.828,8.828c-4.873,0-8.828-3.955-8.828-8.828
		c0-4.873,3.955-8.828,8.828-8.828C260.876,292.315,264.831,296.27,264.831,301.142"/>
</g>
<g>
</g>
<g>
</g>
<g>
</g>
<g>
</g>
<g>
</g>
<g>
</g>
<g>
</g>
<g>
</g>
<g>
</g>
<g>
</g>
<g>
</g>
<g>
</g>
<g>
</g>
<g>
</g>
<g>
</g>
</svg>
