<?xml version="1.0" encoding="iso-8859-1"?>
<!-- Generator: Adobe Illustrator 19.0.0, SVG Export Plug-In . SVG Version: 6.00 Build 0)  -->
<svg version="1.1" id="Layer_1" xmlns="http://www.w3.org/2000/svg" xmlns:xlink="http://www.w3.org/1999/xlink" x="0px" y="0px"
	 viewBox="0 0 512 512" style="enable-background:new 0 0 512 512;" xml:space="preserve">
<g transform="translate(0 -1)">
	<g>
		<path style="fill:#77757E;" d="M167.495,274.655c-1.121-35.584-8.713-71.724-17.611-96.918c0,0-18.573,43.405-24.647,61.608
			c-6.065,18.211-45.789,238.345-45.789,238.345l-61.793-8.828C38.621,366.798,86.069,90.379,105.931,71.621
			c7.989-7.548,36.864-18.909,61.793-26.483l13.374,72.448c5.782,33.333,22.06,64.335,47.634,86.466
			c9.101,7.865,18.547,14.151,27.268,17.638c8.722-3.487,18.167-9.772,27.26-17.638c25.582-22.131,41.852-53.133,47.634-86.466
			l13.383-72.448c24.92,7.574,53.795,18.935,61.793,26.483c19.862,18.759,67.31,295.177,88.276,397.241l-61.793,8.828
			c0,0-39.724-220.134-45.798-238.345c-6.065-18.202-24.638-61.608-24.638-61.608c-8.898,25.194-16.49,61.334-17.62,96.918
			l10.231,52.966c10.417,46.654,24.858,119.958,24.858,167.724C308.966,495.345,256,454.879,256,389.414
			c0,65.474-52.966,105.931-123.586,105.931c0-47.766,14.442-121.07,24.85-167.724L167.495,274.655z"/>
		<path style="fill:#77757E;" d="M317.79,9.828C308.963,1,282.48,1,255.997,1s-52.966,0-61.793,8.828l8.828,44.138h52.966h52.966
			L317.79,9.828z"/>
	</g>
	<g>
		<path style="fill:#57545C;" d="M228.736,204.052c9.092,7.865,18.538,14.151,27.26,17.638v-44.138
			C238.34,159.897,203.03,71.621,203.03,53.966l-8.828-44.138l-26.483,35.31l13.383,72.448
			C186.884,150.919,203.154,181.921,228.736,204.052"/>
		<path style="fill:#57545C;" d="M283.259,204.052c-9.092,7.865-18.538,14.151-27.26,17.638v-44.138
			c17.655-17.655,52.965-105.931,52.965-123.586l8.828-44.138l26.483,35.31l-13.383,72.448
			C325.11,150.919,308.841,181.921,283.259,204.052"/>
	</g>
	<path style="fill:#3E3B43;" d="M255.997,53.966h-52.966c0,17.655,35.31,105.931,52.966,123.586
		c17.655-17.655,52.966-105.931,52.966-123.586H255.997z"/>
	<g>
		<path style="fill:#57545C;" d="M379.584,495.345c-70.276-0.071-123.586-40.165-123.586-105.931
			c0,65.783-53.292,105.922-123.586,105.931C167.721,513,220.687,513,255.997,513S344.273,513,379.584,495.345"/>
		<path style="fill:#57545C;" d="M255.997,451.207c-4.882,0-8.828-3.946-8.828-8.828V221.69c0-4.882,3.946-8.828,8.828-8.828
			s8.828,3.946,8.828,8.828v220.69C264.825,447.261,260.879,451.207,255.997,451.207"/>
	</g>
</g>
<g>
</g>
<g>
</g>
<g>
</g>
<g>
</g>
<g>
</g>
<g>
</g>
<g>
</g>
<g>
</g>
<g>
</g>
<g>
</g>
<g>
</g>
<g>
</g>
<g>
</g>
<g>
</g>
<g>
</g>
</svg>
