<?xml version="1.0" encoding="iso-8859-1"?>
<!-- Generator: Adobe Illustrator 19.0.0, SVG Export Plug-In . SVG Version: 6.00 Build 0)  -->
<svg version="1.1" id="Layer_1" xmlns="http://www.w3.org/2000/svg" xmlns:xlink="http://www.w3.org/1999/xlink" x="0px" y="0px"
	 viewBox="0 0 512.005 512.005" style="enable-background:new 0 0 512.005 512.005;" xml:space="preserve">
<g transform="translate(0 -1)">
	<path style="fill:#CBB292;" d="M194.21,318.797c-2.904,0-5.614-0.768-8.033-2.013l-0.053,0.009l-17.982,29.158
		c-23.331,36.749-35.725,79.386-35.725,122.915v44.138h123.586v-44.138V318.797H194.21z"/>
	<path style="fill:#B2977B;" d="M343.865,345.952l-18.529-28.866l-0.062-0.009c-2.277,1.077-4.793,1.721-7.477,1.721h-61.793
		v150.069v44.138H379.59v-44.138C379.59,425.33,367.196,382.701,343.865,345.952"/>
	<path style="fill:#CBB292;" d="M185.865,268.017c2.498-1.351,5.305-2.189,8.342-2.189H256V81.278L220.69,1l-72.095,36.052
		c-11.061,5.526-17.461,17.664-15.351,30.146c-0.044,0.433-0.097,0.847-0.15,1.28L8.828,345.099l40.377,17.832l101.976-184.497
		c8.245,28.884,21.133,62.482,34.648,89.521L185.865,268.017z"/>
	<path style="fill:#B2977B;" d="M378.911,68.478c-0.053-0.433-0.097-0.847-0.15-1.28c2.11-12.482-4.29-24.62-15.351-30.146
		L291.315,1l-35.31,79.448v185.379h61.793c2.904,0,5.606,0.777,8.024,2.013l2.445-5.297c13.524-27.039,24.32-55.225,32.556-84.109
		L462.8,362.931l40.377-17.832L378.911,68.478z"/>
	<polygon style="fill:#755F4C;" points="220.693,1.004 291.313,1.004 256.003,80.452 	"/>
	<g>
		<polygon style="fill:#997F67;" points="256.003,159.9 256.003,80.452 291.313,1.004 326.624,53.969 291.313,62.797 
			308.969,80.452 		"/>
		<polygon style="fill:#997F67;" points="256.003,106.935 256.003,80.452 220.693,1.004 185.382,53.969 220.693,62.797 
			203.038,80.452 		"/>
	</g>
	<path style="fill:#755F4C;" d="M317.796,318.797H194.21c-9.754,0-17.655-7.901-17.655-17.655v-17.655
		c0-9.754,7.901-17.655,17.655-17.655h123.586c9.754,0,17.655,7.901,17.655,17.655v17.655
		C335.451,310.896,327.551,318.797,317.796,318.797"/>
	<path style="fill:#FFFFFF;" d="M264.831,292.314c0,4.873-3.955,8.828-8.828,8.828s-8.828-3.955-8.828-8.828
		c0-4.873,3.955-8.828,8.828-8.828S264.831,287.441,264.831,292.314"/>
	<polygon style="fill:#B2977B;" points="220.693,468.866 167.727,468.866 167.727,415.9 194.21,424.728 220.693,415.9 	"/>
	<polygon style="fill:#CBB292;" points="344.279,468.866 291.313,468.866 291.313,415.9 317.796,424.728 344.279,415.9 	"/>
	<polygon style="fill:#997F67;" points="503.176,345.096 486.774,308.585 443.033,327.158 462.807,362.936 	"/>
	<polygon style="fill:#B2977B;" points="25.798,307.325 8.831,345.098 49.2,362.939 69.645,325.943 	"/>
</g>
<g>
</g>
<g>
</g>
<g>
</g>
<g>
</g>
<g>
</g>
<g>
</g>
<g>
</g>
<g>
</g>
<g>
</g>
<g>
</g>
<g>
</g>
<g>
</g>
<g>
</g>
<g>
</g>
<g>
</g>
</svg>
