<?xml version="1.0" encoding="iso-8859-1"?>
<!-- Generator: Adobe Illustrator 19.0.0, SVG Export Plug-In . SVG Version: 6.00 Build 0)  -->
<svg version="1.1" id="Layer_1" xmlns="http://www.w3.org/2000/svg" xmlns:xlink="http://www.w3.org/1999/xlink" x="0px" y="0px"
	 viewBox="0 0 512 512" style="enable-background:new 0 0 512 512;" xml:space="preserve">
<g transform="translate(0 -1)">
	<g>
		<path style="fill:#4482C3;" d="M132.414,504.172c0,0,61.793,8.828,123.586,8.828s123.586-8.828,123.586-8.828
			c0-74.664-35.31-220.69-35.31-220.69c0-38.338,8.21-78.468,17.841-105.746c0,0,18.573,43.396,24.638,61.608
			c6.073,18.211,45.798,238.345,45.798,238.345l61.793-8.828c-20.966-102.073-68.414-378.483-88.276-397.241
			c-7.998-7.548-36.873-18.909-61.793-26.483l-13.374,72.448c-5.791,33.333-22.06,64.335-47.642,86.466
			c-9.092,7.865-18.538,14.151-27.26,17.638c-8.722-3.487-18.167-9.772-27.26-17.638c-25.582-22.131-41.852-53.133-47.643-86.466
			l-13.374-72.448c-24.92,7.574-53.795,18.935-61.793,26.483c-19.862,18.759-67.31,295.168-88.276,397.241l61.793,8.828
			c0,0,39.724-220.134,45.798-238.345c6.065-18.211,24.638-61.608,24.638-61.608c9.631,27.277,17.841,67.407,17.841,105.746
			C167.724,283.483,132.414,429.509,132.414,504.172"/>
		<path style="fill:#4482C3;" d="M317.793,9.828C308.966,1,282.483,1,256,1s-52.966,0-61.793,8.828l8.828,44.138H256h52.966
			L317.793,9.828z"/>
	</g>
	<g>
		<path style="fill:#285680;" d="M228.739,204.052c9.092,7.865,18.538,14.151,27.26,17.638v-44.138
			c-17.655-17.655-52.966-105.931-52.966-123.586l-8.828-44.138l-26.483,35.31l13.383,72.448
			C186.887,150.919,203.156,181.921,228.739,204.052"/>
		<path style="fill:#285680;" d="M283.261,204.052c-9.092,7.865-18.538,14.151-27.26,17.638v-44.138
			c17.655-17.655,52.965-105.931,52.965-123.586l8.828-44.138l26.483,35.31l-13.383,72.448
			C325.113,150.919,308.844,181.921,283.261,204.052"/>
	</g>
	<path style="fill:#1F4460;" d="M256,53.966h-52.966c0,17.655,35.31,105.931,52.966,123.586
		c17.655-17.655,52.966-105.931,52.966-123.586H256z"/>
	<g>
		<path style="fill:#285680;" d="M238.345,248.172c0-4.873-3.955-8.828-8.828-8.828c-4.873,0-8.828,3.955-8.828,8.828
			s3.955,8.828,8.828,8.828C234.39,257,238.345,253.045,238.345,248.172"/>
		<path style="fill:#285680;" d="M238.345,301.138c0-4.873-3.955-8.828-8.828-8.828c-4.873,0-8.828,3.955-8.828,8.828
			s3.955,8.828,8.828,8.828C234.39,309.966,238.345,306.011,238.345,301.138"/>
		<path style="fill:#285680;" d="M238.345,424.724c0-4.873-3.955-8.828-8.828-8.828c-4.873,0-8.828,3.955-8.828,8.828
			c0,4.873,3.955,8.828,8.828,8.828C234.39,433.552,238.345,429.597,238.345,424.724"/>
		<path style="fill:#285680;" d="M238.345,477.69c0-4.873-3.955-8.828-8.828-8.828c-4.873,0-8.828,3.955-8.828,8.828
			c0,4.873,3.955,8.828,8.828,8.828C234.39,486.517,238.345,482.563,238.345,477.69"/>
		<path style="fill:#285680;" d="M291.31,248.172c0-4.873-3.955-8.828-8.828-8.828s-8.828,3.955-8.828,8.828S277.61,257,282.483,257
			S291.31,253.045,291.31,248.172"/>
		<path style="fill:#285680;" d="M291.31,301.138c0-4.873-3.955-8.828-8.828-8.828s-8.828,3.955-8.828,8.828
			s3.955,8.828,8.828,8.828S291.31,306.011,291.31,301.138"/>
		<path style="fill:#285680;" d="M291.31,424.724c0-4.873-3.955-8.828-8.828-8.828s-8.828,3.955-8.828,8.828
			c0,4.873,3.955,8.828,8.828,8.828S291.31,429.597,291.31,424.724"/>
		<path style="fill:#285680;" d="M291.31,477.69c0-4.873-3.955-8.828-8.828-8.828s-8.828,3.955-8.828,8.828
			c0,4.873,3.955,8.828,8.828,8.828S291.31,482.563,291.31,477.69"/>
	</g>
	<g>
		<path style="fill:#F0C419;" d="M282.483,354.103v17.655c0,6.815-2.648,12.959-6.877,17.655h90.695
			c-3.372-18.962-6.974-37.146-10.266-52.966h-80.428C279.834,341.145,282.483,347.289,282.483,354.103"/>
		<path style="fill:#F0C419;" d="M229.517,371.759v-17.655c0-6.815,2.648-12.959,6.877-17.655h-80.428
			c-3.293,15.819-6.894,34.004-10.266,52.966h90.695C232.166,384.718,229.517,378.574,229.517,371.759"/>
	</g>
	<path style="fill:#E57E25;" d="M256,398.241L256,398.241c-14.627,0-26.483-11.855-26.483-26.483v-17.655
		c0-14.627,11.855-26.483,26.483-26.483c14.627,0,26.483,11.855,26.483,26.483v17.655C282.483,386.386,270.627,398.241,256,398.241"
		/>
	<path style="fill:#FFFFFF;" d="M264.828,362.931c0-4.873-3.955-8.828-8.828-8.828s-8.828,3.955-8.828,8.828
		c0,4.873,3.955,8.828,8.828,8.828S264.828,367.804,264.828,362.931"/>
</g>
<g>
</g>
<g>
</g>
<g>
</g>
<g>
</g>
<g>
</g>
<g>
</g>
<g>
</g>
<g>
</g>
<g>
</g>
<g>
</g>
<g>
</g>
<g>
</g>
<g>
</g>
<g>
</g>
<g>
</g>
</svg>
