<?xml version="1.0" encoding="iso-8859-1"?>
<!-- Generator: Adobe Illustrator 19.0.0, SVG Export Plug-In . SVG Version: 6.00 Build 0)  -->
<svg version="1.1" id="Layer_1" xmlns="http://www.w3.org/2000/svg" xmlns:xlink="http://www.w3.org/1999/xlink" x="0px" y="0px"
	 viewBox="0 0 512 512" style="enable-background:new 0 0 512 512;" xml:space="preserve">
<g transform="translate(0 -1)">
	<g>
		<path style="fill:#805333;" d="M406.069,71.621c-7.998-7.548-36.873-18.909-61.793-26.483l-13.374,72.448
			c-5.791,33.333-22.06,64.335-47.642,86.466c-9.092,7.865-18.538,14.151-27.26,17.638c-8.722-3.487-18.167-9.772-27.26-17.638
			c-25.582-22.131-41.852-53.133-47.642-86.466l-13.374-72.448c-24.92,7.574-53.795,18.935-61.793,26.483
			c-19.862,18.759-67.31,295.177-88.276,397.241l61.793,8.828c0,0,39.724-220.142,45.789-238.345
			c6.073-18.211,24.647-61.608,24.647-61.608c9.631,27.277,17.841,67.407,17.841,105.746c0,0-35.31,137.198-35.31,211.862
			C202.214,494.859,256,446.052,256,380.586c0,65.474,53.778,114.247,123.586,114.759c0-74.664-35.31-211.862-35.31-211.862
			c0-38.338,8.21-78.468,17.841-105.746c0,0,18.573,43.396,24.638,61.608c6.073,18.202,45.798,238.345,45.798,238.345l61.793-8.828
			C473.379,366.798,425.931,90.379,406.069,71.621"/>
		<path style="fill:#805333;" d="M317.793,9.828C308.966,1,282.483,1,256,1s-52.966,0-61.793,8.828l8.828,44.138H256h52.966
			L317.793,9.828z"/>
	</g>
	<g>
		<path style="fill:#633E25;" d="M228.739,204.052c9.092,7.865,18.538,14.151,27.26,17.638v-44.138
			c-17.655-17.655-52.966-105.931-52.966-123.586l-8.828-44.138l-26.483,35.31l13.383,72.448
			C186.887,150.919,203.156,181.921,228.739,204.052"/>
		<path style="fill:#633E25;" d="M283.261,204.052c-9.092,7.865-18.538,14.151-27.26,17.638v-44.138
			c17.655-17.655,52.965-105.931,52.965-123.586l8.828-44.138l26.483,35.31l-13.383,72.448
			C325.113,150.919,308.844,181.921,283.261,204.052"/>
	</g>
	<path style="fill:#472C19;" d="M256,53.966h-52.966c0,17.655,35.31,105.931,52.966,123.586
		c17.655-17.655,52.966-105.931,52.966-123.586H256z"/>
	<g>
		<path style="fill:#633E25;" d="M357.853,345.276h-48.887c0,35.972,26.915,65.598,61.696,69.994
			C366.777,390.8,362.152,366.374,357.853,345.276"/>
		<path style="fill:#633E25;" d="M203.034,345.276h-48.887c-4.299,21.098-8.925,45.524-12.809,69.994
			C176.119,410.874,203.034,381.248,203.034,345.276"/>
		<path style="fill:#633E25;" d="M256,380.586c0,65.465-53.786,114.273-123.586,114.759C167.724,512.956,220.716,513,256,513
			c35.31,0,88.276,0.053,123.586-17.602l-0.035-0.053C309.76,494.806,256,446.052,256,380.586"/>
		<path style="fill:#633E25;" d="M273.655,265.823h-35.31c-4.873,0-8.828-3.946-8.828-8.828c0-4.882,3.955-8.828,8.828-8.828h35.31
			c4.873,0,8.828,3.946,8.828,8.828C282.483,261.877,278.528,265.823,273.655,265.823"/>
		<path style="fill:#633E25;" d="M273.655,318.789h-35.31c-4.873,0-8.828-3.946-8.828-8.828c0-4.882,3.955-8.828,8.828-8.828h35.31
			c4.873,0,8.828,3.946,8.828,8.828C282.483,314.843,278.528,318.789,273.655,318.789"/>
		<path style="fill:#633E25;" d="M273.655,371.754h-35.31c-4.873,0-8.828-3.946-8.828-8.828c0-4.882,3.955-8.828,8.828-8.828h35.31
			c4.873,0,8.828,3.946,8.828,8.828C282.483,367.808,278.528,371.754,273.655,371.754"/>
		<path style="fill:#633E25;" d="M256,433.556c-4.873,0-8.828-3.946-8.828-8.828V221.685c0-4.882,3.955-8.828,8.828-8.828
			s8.828,3.946,8.828,8.828v203.043C264.828,429.61,260.873,433.556,256,433.556"/>
	</g>
</g>
<g>
</g>
<g>
</g>
<g>
</g>
<g>
</g>
<g>
</g>
<g>
</g>
<g>
</g>
<g>
</g>
<g>
</g>
<g>
</g>
<g>
</g>
<g>
</g>
<g>
</g>
<g>
</g>
<g>
</g>
</svg>
