<?xml version="1.0" encoding="iso-8859-1"?>
<!-- Generator: Adobe Illustrator 19.0.0, SVG Export Plug-In . SVG Version: 6.00 Build 0)  -->
<svg version="1.1" id="Layer_1" xmlns="http://www.w3.org/2000/svg" xmlns:xlink="http://www.w3.org/1999/xlink" x="0px" y="0px"
	 viewBox="0 0 512.004 512.004" style="enable-background:new 0 0 512.004 512.004;" xml:space="preserve">
<g transform="translate(0 -1)">
	<path style="fill:#805333;" d="M167.497,274.66c-1.121-35.584-8.713-71.724-17.611-96.918c0,0-18.573,43.405-24.647,61.608
		c-6.065,18.211-45.789,238.345-45.789,238.345l-61.793-8.828C38.623,366.802,86.071,90.384,105.933,71.625
		c7.142-6.744,30.199-19.076,52.966-26.483c-1.51,1.88,28.478,38.841,40.483,42.717c11.485,3.708,21.954,0.547,32.433-4.378
		c8.077-3.805,15.969-8.422,24.188-11.953c8.21,3.531,16.102,8.148,24.179,11.953c10.478,4.926,20.948,8.086,32.433,4.378
		c12.006-3.875,41.993-40.836,40.492-42.717c22.758,7.406,45.824,19.738,52.966,26.483c19.862,18.759,67.31,295.177,88.276,397.241
		l-61.793,8.828c0,0-39.724-220.134-45.798-238.345c-6.065-18.202-24.638-61.608-24.638-61.608
		c-8.898,25.194-16.499,61.334-17.62,96.918l10.231,52.966c10.417,46.654,24.858,119.958,24.858,167.724
		c-70.621,0-123.586-40.466-123.586-105.931c0,65.474-52.966,105.931-123.586,105.931c0-47.766,14.442-121.07,24.85-167.724
		L167.497,274.66z"/>
	<g>
		<path style="fill:#633E25;" d="M132.412,495.349c35.31,17.655,88.276,17.655,123.586,17.655s88.276,0,123.586-17.655
			c-0.018,0,0.018,0,0,0c-70.276-0.071-123.586-40.166-123.586-105.931C255.999,455.201,202.707,495.34,132.412,495.349"/>
		<path style="fill:#633E25;" d="M255.999,433.556c-4.882,0-8.828-3.946-8.828-8.828V71.625c0-4.882,3.946-8.828,8.828-8.828
			c4.882,0,8.828,3.946,8.828,8.828v353.103C264.826,429.61,260.88,433.556,255.999,433.556"/>
	</g>
	<polygon style="fill:#472C19;" points="255.999,71.524 317.792,1 194.206,1 	"/>
	<g>
		<path style="fill:#633E25;" d="M194.206,1.004l61.793,70.515c-8.218,3.54-16.102,8.166-24.188,11.961
			c-10.478,4.926-20.948,8.086-32.433,4.378c-11.997-3.875-41.984-40.836-40.483-42.717L194.206,1.004z"/>
		<path style="fill:#633E25;" d="M317.792,1.004l-61.793,70.515c8.218,3.54,16.102,8.166,24.188,11.961
			c10.478,4.926,20.948,8.086,32.433,4.378c11.997-3.875,41.984-40.836,40.483-42.717L317.792,1.004z"/>
		<path style="fill:#633E25;" d="M308.964,374.61c0,27.683,22.44,50.114,50.114,50.114h14.107
			c-5.146-34.56-12.456-70.241-18.458-97.103l-1.704-8.828h-44.059V374.61z"/>
		<path style="fill:#633E25;" d="M203.033,374.61v-55.817h-44.058l-1.704,8.828c-6.003,26.862-13.312,62.543-18.458,97.103h14.106
			C180.593,424.724,203.033,402.293,203.033,374.61"/>
	</g>
</g>
<g>
</g>
<g>
</g>
<g>
</g>
<g>
</g>
<g>
</g>
<g>
</g>
<g>
</g>
<g>
</g>
<g>
</g>
<g>
</g>
<g>
</g>
<g>
</g>
<g>
</g>
<g>
</g>
<g>
</g>
</svg>
