<?xml version="1.0" encoding="iso-8859-1"?>
<!-- Generator: Adobe Illustrator 19.0.0, SVG Export Plug-In . SVG Version: 6.00 Build 0)  -->
<svg version="1.1" id="Layer_1" xmlns="http://www.w3.org/2000/svg" xmlns:xlink="http://www.w3.org/1999/xlink" x="0px" y="0px"
	 viewBox="0 0 512.004 512.004" style="enable-background:new 0 0 512.004 512.004;" xml:space="preserve">
<g transform="translate(0 -1)">
	<g>
		<path style="fill:#F0C419;" d="M167.497,274.66c-1.121-35.584-8.713-71.724-17.611-96.918c0,0-18.573,43.405-24.647,61.608
			c-6.065,18.211-45.789,238.345-45.789,238.345l-61.793-8.828C38.623,366.802,86.071,90.384,105.933,71.625
			c7.133-6.744,30.199-19.076,52.966-26.483c-1.51,1.88,28.478,38.841,40.483,42.717c11.485,3.708,21.954,0.547,32.433-4.378
			c8.077-3.805,15.969-8.422,24.188-11.953c8.21,3.531,16.102,8.148,24.179,11.953c10.478,4.926,20.948,8.086,32.433,4.378
			c12.006-3.875,41.993-40.836,40.492-42.717c22.758,7.406,45.824,19.738,52.966,26.483c19.862,18.759,67.31,295.177,88.276,397.241
			l-61.793,8.828c0,0-39.724-220.134-45.798-238.345c-6.065-18.202-24.647-61.608-24.647-61.608
			c-8.889,25.194-16.49,61.334-17.611,96.918l10.231,52.966c10.417,46.654,24.858,119.958,24.858,167.724
			c-35.31,17.655-88.276,17.655-123.586,17.655s-88.276,0-123.586-17.655c0-47.766,14.442-121.07,24.85-167.724L167.497,274.66z"/>
		<polygon style="fill:#F0C419;" points="255.999,71.524 317.792,1 194.206,1 		"/>
	</g>
	<g>
		<path style="fill:#E57E25;" d="M194.206,1.004l61.793,70.515c-8.218,3.54-16.11,8.166-24.188,11.961
			c-10.47,4.926-20.948,8.086-32.433,4.378c-11.997-3.875-41.984-40.836-40.483-42.717L194.206,1.004z"/>
		<path style="fill:#E57E25;" d="M317.792,1.004l-61.793,70.515c8.218,3.54,16.11,8.166,24.188,11.961
			c10.47,4.926,20.948,8.086,32.433,4.378c11.997-3.875,41.984-40.836,40.483-42.717L317.792,1.004z"/>
		<path style="fill:#E57E25;" d="M264.826,133.418c0-4.873-3.955-8.828-8.828-8.828c-4.873,0-8.828,3.955-8.828,8.828
			c0,4.873,3.955,8.828,8.828,8.828C260.871,142.246,264.826,138.291,264.826,133.418"/>
		<path style="fill:#E57E25;" d="M264.826,186.384c0-4.873-3.955-8.828-8.828-8.828c-4.873,0-8.828,3.955-8.828,8.828
			c0,4.873,3.955,8.828,8.828,8.828C260.871,195.211,264.826,191.257,264.826,186.384"/>
		<path style="fill:#E57E25;" d="M264.826,239.349c0-4.873-3.955-8.828-8.828-8.828c-4.873,0-8.828,3.955-8.828,8.828
			c0,4.873,3.955,8.828,8.828,8.828C260.871,248.177,264.826,244.222,264.826,239.349"/>
		<path style="fill:#E57E25;" d="M264.826,292.315c0-4.873-3.955-8.828-8.828-8.828c-4.873,0-8.828,3.955-8.828,8.828
			c0,4.873,3.955,8.828,8.828,8.828C260.871,301.142,264.826,297.188,264.826,292.315"/>
		<path style="fill:#E57E25;" d="M264.826,345.28c0-4.873-3.955-8.828-8.828-8.828c-4.873,0-8.828,3.955-8.828,8.828
			c0,4.873,3.955,8.828,8.828,8.828C260.871,354.108,264.826,350.153,264.826,345.28"/>
		<path style="fill:#E57E25;" d="M264.826,398.246c0-4.873-3.955-8.828-8.828-8.828c-4.873,0-8.828,3.955-8.828,8.828
			c0,4.873,3.955,8.828,8.828,8.828C260.871,407.073,264.826,403.119,264.826,398.246"/>
		<path style="fill:#E57E25;" d="M264.826,451.211c0-4.873-3.955-8.828-8.828-8.828c-4.873,0-8.828,3.955-8.828,8.828
			c0,4.873,3.955,8.828,8.828,8.828C260.871,460.039,264.826,456.084,264.826,451.211"/>
	</g>
</g>
<g>
</g>
<g>
</g>
<g>
</g>
<g>
</g>
<g>
</g>
<g>
</g>
<g>
</g>
<g>
</g>
<g>
</g>
<g>
</g>
<g>
</g>
<g>
</g>
<g>
</g>
<g>
</g>
<g>
</g>
</svg>
