<svg id="Capa_1" enable-background="new 0 0 512 512" height="512" viewBox="0 0 512 512" width="512" xmlns="http://www.w3.org/2000/svg"><g><g><g><path d="m426.021 80.896c-2.276 0-4.495-1.006-5.996-2.85-2.145-2.638-2.315-6.367-.418-9.188l17.942-26.676c2.382-3.542 7.182-4.48 10.723-2.1 3.541 2.381 4.481 7.183 2.1 10.723l-3.792 5.638 3.36-1.37c3.953-1.613 8.46.287 10.071 4.238s-.287 8.46-4.238 10.071l-26.838 10.942c-.947.385-1.936.572-2.914.572z" fill="#95d6a4"/></g><g><path d="m67.74 173.535c-.956 0-1.928-.179-2.87-.556l-24.57-9.841c-3.961-1.587-5.886-6.083-4.3-10.045 1.587-3.961 6.085-5.885 10.045-4.299l24.57 9.841c3.961 1.587 5.886 6.084 4.3 10.045-1.209 3.019-4.11 4.855-7.175 4.855z" fill="#95d6a4"/></g><g><path d="m121.324 434.866c-2.498 0-4.949-1.209-6.438-3.445-2.365-3.551-1.404-8.348 2.147-10.713l19.34-12.881c3.551-2.367 8.348-1.404 10.714 2.148 2.365 3.551 1.404 8.348-2.147 10.713l-19.34 12.882c-1.316.877-2.805 1.296-4.276 1.296z" fill="#95d6a4"/></g><g><path d="m481.545 368.5c-2.346 0-4.664-1.064-6.182-3.085-2.564-3.41-1.877-8.255 1.534-10.818l20.387-15.324c3.41-2.562 8.255-1.876 10.818 1.534 2.564 3.41 1.877 8.255-1.534 10.818l-20.388 15.325c-1.39 1.045-3.02 1.55-4.635 1.55z" fill="#95d6a4"/></g><g><path d="m10.068 387.863c-4.114.001-7.534-3.242-7.714-7.391-.185-4.264 3.122-7.869 7.385-8.054l5.702-.247-6.614-5.554c-3.268-2.743-3.692-7.618-.948-10.885 2.744-3.268 7.617-3.693 10.885-.948l21.827 18.33c2.44 2.049 3.372 5.385 2.347 8.402s-3.797 5.096-6.981 5.233l-25.549 1.108c-.113.004-.227.006-.34.006z" fill="#95d6a4"/></g></g><path d="m509.03 468.701-58.391-377.13c-4.982-32.178-27.61-58.832-58.552-68.972l-68.96-22.599c-43.349 23.554-86.697 23.554-130.046 0l-68.96 22.599c-30.942 10.14-53.57 36.795-58.552 68.972l-58.39 377.13c-.226 1.459.902 2.775 2.379 2.775h76.676c1.144 0 2.13-.805 2.358-1.927l41.763-205.079v187.83h255.499v-187.83l41.763 205.079c.228 1.121 1.214 1.927 2.358 1.927h76.676c1.476 0 2.604-1.317 2.379-2.775z" fill="#b3e59f"/><g><path d="m509.03 468.701-58.391-377.13c-4.982-32.178-27.61-58.832-58.552-68.972l-68.96-22.599-24.878 13.392 68.96 22.599c30.942 10.14 53.57 36.795 58.552 68.972l56.747 366.513h24.143c1.476 0 2.604-1.317 2.379-2.775z" fill="#95d6a4"/></g><path d="m277.187 437.876c-2.079-1.715-2.016-4.897.062-6.614 8.5-7.024 15.212-15.964 15.212-29.528s-6.713-22.505-15.213-29.529c-2.102-1.737-2.102-4.926 0-6.663 8.5-7.024 15.213-15.965 15.213-29.529 0-13.562-6.712-22.502-15.211-29.524-2.102-1.737-2.102-4.926 0-6.663 8.499-7.023 15.211-15.963 15.211-29.524 0-13.563-6.712-22.503-15.212-29.525-2.102-1.737-2.102-4.926 0-6.663 8.499-7.023 15.212-15.963 15.212-29.525s-6.711-22.501-15.21-29.524c-2.102-1.737-2.102-4.926 0-6.663 8.499-7.022 15.21-15.962 15.21-29.524s-6.713-22.502-15.213-29.525c-2.095-1.731-2.111-4.915-.016-6.646 8.437-6.967 15.118-15.82 15.227-29.204.033-4.009-2.897-7.596-6.884-8.017-4.645-.49-8.567 3.137-8.567 7.682 0 6.679-1.167 11.79-15.567 21.923-1.482 1.043-3.468 1.024-4.95-.019-14.124-9.945-15.495-15.051-15.538-21.558-.028-4.234-3.264-7.945-7.496-8.069-4.373-.128-7.958 3.378-7.958 7.723 0 13.561 6.712 22.501 15.211 29.523 2.102 1.737 2.102 4.926 0 6.663-8.499 7.022-15.211 15.962-15.211 29.523 0 13.562 6.712 22.501 15.211 29.524 2.102 1.737 2.102 4.926 0 6.663-8.499 7.022-15.211 15.962-15.211 29.524s6.712 22.502 15.211 29.525c2.102 1.737 2.102 4.926 0 6.663-8.499 7.023-15.211 15.963-15.211 29.526 0 13.561 6.712 22.501 15.211 29.524 2.102 1.737 2.102 4.926 0 6.663-8.499 7.023-15.211 15.963-15.211 29.525 0 13.564 6.713 22.505 15.213 29.529 2.102 1.737 2.102 4.926 0 6.663-8.5 7.024-15.213 15.965-15.213 29.529s6.712 22.505 15.212 29.528c2.077 1.717 2.141 4.899.062 6.614-4.85 4.001-9.12 8.625-11.904 14.368-.012.026.007.056.035.056h19.085c.01 0 .018-.003.025-.01 2.129-2.005 4.89-4.218 8.477-6.745 1.492-1.051 3.485-1.051 4.978 0 3.587 2.527 6.348 4.74 8.477 6.745.007.007.016.01.025.01h19.085c.028 0 .047-.031.035-.056-2.784-5.745-7.054-10.368-11.904-14.369zm-36.235-298.998c0-6.679 1.167-11.789 15.567-21.922 1.472-1.036 3.451-1.036 4.923 0 14.399 10.133 15.566 15.244 15.566 21.922s-1.167 11.79-15.566 21.923c-1.472 1.036-3.451 1.036-4.923 0-14.4-10.133-15.567-15.244-15.567-21.923zm0 65.711c0-6.679 1.167-11.79 15.566-21.923 1.472-1.036 3.451-1.036 4.923 0 14.399 10.133 15.566 15.244 15.566 21.923s-1.167 11.79-15.566 21.924c-1.472 1.036-3.451 1.036-4.924 0-14.398-10.135-15.565-15.246-15.565-21.924zm0 65.713c0-6.679 1.167-11.791 15.566-21.925 1.472-1.036 3.451-1.036 4.924 0 14.399 10.134 15.567 15.245 15.567 21.925 0 6.679-1.167 11.79-15.566 21.923-1.472 1.036-3.451 1.036-4.923 0-14.401-10.133-15.568-15.244-15.568-21.923zm0 65.711c0-6.679 1.167-11.791 15.566-21.924 1.472-1.036 3.451-1.036 4.923 0 14.4 10.133 15.567 15.245 15.567 21.924 0 6.68-1.167 11.792-15.566 21.927-1.472 1.036-3.452 1.036-4.924 0-14.399-10.134-15.566-15.246-15.566-21.927zm20.49 87.648c-1.472 1.036-3.452 1.036-4.924 0-14.399-10.135-15.566-15.247-15.566-21.927s1.167-11.792 15.566-21.927c1.472-1.036 3.452-1.036 4.924 0 14.399 10.135 15.566 15.247 15.566 21.927s-1.167 11.792-15.566 21.927z" fill="#95d6a4"/><g fill="#d6f6b2"><path d="m323.127 0c-43.349 23.554-86.697 23.554-130.046 0l-29.725 9.741 2.61 16.004c3.562 21.843 14.81 41.767 31.672 56.102 16.861 14.334 38.336 22.228 60.467 22.228s43.605-7.894 60.466-22.229c16.862-14.334 28.11-34.258 31.671-56.1l2.61-16.005z"/><path d="m67.105 512h-51.956c-4.413 0-7.783-3.939-7.101-8.299l5.042-32.225h66.506l-5.389 34.447c-.548 3.498-3.561 6.077-7.102 6.077z"/><path d="m449.103 512h51.956c4.413 0 7.783-3.939 7.101-8.299l-5.042-32.225h-66.507l5.389 34.447c.549 3.498 3.563 6.077 7.103 6.077z"/></g><path d="m503.119 471.476h-22.078l6.34 40.524h13.678c4.413 0 7.783-3.939 7.101-8.299z" fill="#ccf49f"/><path d="m371.539 486.697h-226.869c-7.906 0-14.315-6.409-14.315-14.315v-20.082h255.499v20.082c0 7.906-6.409 14.315-14.315 14.315z" fill="#d6f6b2"/><g><path d="m130.355 272.196c-4.267 0-7.726-3.459-7.726-7.726v-90.937c0-4.268 3.459-7.726 7.726-7.726s7.726 3.459 7.726 7.726v90.937c0 4.268-3.459 7.726-7.726 7.726z" fill="#95d6a4"/></g><g><path d="m385.854 272.196c-4.268 0-7.726-3.459-7.726-7.726v-90.937c0-4.268 3.459-7.726 7.726-7.726 4.268 0 7.726 3.459 7.726 7.726v90.937c0 4.268-3.459 7.726-7.726 7.726z" fill="#95d6a4"/></g><path d="m258.104 73.169c30.611 0 56.709-22.187 61.636-52.399l3.387-20.77c-43.349 23.554-86.697 23.554-130.046 0l3.387 20.771c4.927 30.211 31.026 52.398 61.636 52.398z" fill="#86a0af"/><path d="m256.074 73.123c.676.022 1.351.046 2.031.046 30.611 0 56.709-22.187 61.636-52.399l3.386-20.77c-11.969 6.504-23.938 11.202-35.907 14.114 2.38 22.471-4.882 38.013-31.146 59.009z" fill="#738b95"/><g><g><path d="m168.918 41.023c-3.69 0-6.955-2.652-7.605-6.411-.726-4.205 2.094-8.203 6.298-8.93l27.949-4.829c4.207-.721 8.202 2.094 8.929 6.298.726 4.205-2.094 8.203-6.298 8.93l-27.949 4.829c-.444.076-.887.113-1.324.113z" fill="#ccf49f"/></g><g><path d="m187.582 78.404c-2.367 0-4.704-1.084-6.219-3.134-2.537-3.431-1.811-8.269 1.62-10.806l22.86-16.899c3.431-2.536 8.27-1.811 10.806 1.621 2.537 3.431 1.811 8.269-1.62 10.806l-22.86 16.899c-1.381 1.021-2.991 1.513-4.587 1.513z" fill="#ccf49f"/></g><g><path d="m219.946 103.036c-1.174 0-2.365-.269-3.484-.835-3.807-1.928-5.33-6.576-3.402-10.383l13.282-26.231c1.927-3.807 6.575-5.329 10.383-3.403 3.807 1.928 5.33 6.576 3.402 10.383l-13.282 26.231c-1.361 2.688-4.079 4.238-6.899 4.238z" fill="#ccf49f"/></g><g><path d="m258.982 110.339c-.026 0-.053 0-.079 0-4.267-.043-7.691-3.537-7.648-7.804l.275-27.383c.042-4.24 3.493-7.649 7.724-7.649h.079c4.267.043 7.692 3.537 7.648 7.804l-.275 27.383c-.043 4.241-3.493 7.649-7.724 7.649z" fill="#ccf49f"/></g><g><path d="m297.501 102.165c-2.838 0-5.57-1.569-6.922-4.283l-12.969-26.03c-1.903-3.82-.349-8.459 3.47-10.361 3.822-1.903 8.459-.35 10.361 3.47l12.969 26.03c1.903 3.82.349 8.459-3.47 10.361-1.106.552-2.282.813-3.439.813z" fill="#ccf49f"/></g><g><path d="m328.912 77.614c-1.613 0-3.237-.502-4.627-1.543l-21.904-16.413c-3.415-2.558-4.109-7.401-1.55-10.816s7.401-4.109 10.816-1.55l21.904 16.413c3.415 2.558 4.109 7.401 1.55 10.816-1.517 2.024-3.839 3.093-6.189 3.093z" fill="#ccf49f"/></g><g><path d="m347.901 41.323c-.454 0-.912-.039-1.374-.123l-28.409-5.099c-4.199-.754-6.993-4.77-6.239-8.97.754-4.201 4.774-7.003 8.97-6.239l28.409 5.099c4.199.754 6.993 4.77 6.239 8.97-.672 3.738-3.927 6.362-7.596 6.362z" fill="#ccf49f"/></g></g><g><g><path d="m166.777 346.843c-1.857 0-3.719-.665-5.2-2.014-3.155-2.873-3.383-7.76-.51-10.914l15.866-17.422-15.866-17.423c-2.685-2.949-2.685-7.456.001-10.404l15.866-17.422-15.866-17.423c-2.685-2.949-2.685-7.456 0-10.404l15.867-17.426-15.867-17.426c-2.873-3.156-2.644-8.042.511-10.915 3.155-2.871 8.042-2.643 10.914.511l20.604 22.628c2.685 2.949 2.685 7.456 0 10.404l-15.867 17.426 15.867 17.423c2.685 2.949 2.685 7.456-.001 10.404l-15.866 17.422 15.866 17.423c2.685 2.949 2.685 7.456-.001 10.404l-20.604 22.624c-1.524 1.674-3.615 2.524-5.714 2.524z" fill="#d6f6b2"/></g><g><path d="m349.432 346.843c-2.099 0-4.19-.85-5.714-2.524l-20.604-22.624c-2.685-2.949-2.685-7.456 0-10.404l15.866-17.423-15.866-17.422c-2.685-2.949-2.685-7.456 0-10.404l15.866-17.423-15.867-17.426c-2.684-2.949-2.684-7.456 0-10.404l20.604-22.628c2.874-3.156 7.762-3.382 10.915-.511 3.155 2.873 3.383 7.76.511 10.915l-15.867 17.426 15.867 17.426c2.684 2.949 2.684 7.456-.001 10.404l-15.866 17.423 15.866 17.422c2.685 2.949 2.685 7.456 0 10.404l-15.866 17.423 15.866 17.422c2.873 3.155 2.645 8.041-.51 10.914-1.481 1.349-3.343 2.014-5.2 2.014z" fill="#d6f6b2"/></g></g><g><path d="m261.978 46.24h-7.747c-4.267 0-7.726-3.459-7.726-7.726s3.459-7.726 7.726-7.726h7.747c4.268 0 7.726 3.459 7.726 7.726s-3.458 7.726-7.726 7.726z" fill="#d6f6b2"/></g></g></svg>