<svg id="Capa_1" enable-background="new 0 0 512 512" height="512" viewBox="0 0 512 512" width="512" xmlns="http://www.w3.org/2000/svg"><g><path d="m506.755 468.701-58.391-377.13c-4.982-32.178-27.61-58.832-58.552-68.972l-68.959-22.599c-43.742 29.609-91.504 28.486-130.046 0l-68.96 22.599c-30.942 10.14-53.57 36.795-58.552 68.972l-58.391 377.13c-.226 1.459.902 2.775 2.379 2.775h76.676c1.144 0 2.13-.805 2.358-1.927l41.763-205.079v187.83h255.499v-187.83l41.763 205.079c.228 1.121 1.214 1.927 2.358 1.927h76.676c1.477 0 2.605-1.317 2.379-2.775z" fill="#eab14d"/><g><path d="m506.755 468.701-58.391-377.13c-4.982-32.178-27.61-58.832-58.552-68.972l-68.959-22.599c-23.786 13.75-23.786 13.75-24.878 13.392l68.96 22.599c30.942 10.14 53.57 36.795 58.552 68.972l56.747 366.513h24.143c1.476 0 2.604-1.317 2.378-2.775z" fill="#e49542"/></g><g><path d="m507.096 468.701-58.391-377.13c-4.982-32.178-27.61-58.832-58.552-68.972l-69.3-22.599-24.538 13.392 68.96 22.599c30.942 10.14 53.57 36.795 58.552 68.972l56.747 366.513h24.143c1.476 0 2.604-1.317 2.379-2.775z" fill="#e49542"/></g><path d="m64.441 512h-51.034c-4.692 0-8.276-4.189-7.551-8.824l4.959-31.7h66.506l-5.329 34.062c-.582 3.72-3.786 6.462-7.551 6.462z" fill="#86a0af"/><path d="m447.218 512h51.034c4.692 0 8.276-4.189 7.551-8.824l-4.959-31.7h-66.507l5.329 34.062c.583 3.72 3.787 6.462 7.552 6.462z" fill="#86a0af"/><path d="m500.845 471.476h-22.078l6.34 40.524h13.146c4.692 0 8.276-4.189 7.551-8.824z" fill="#738b95"/><path d="m369.264 486.697h-226.869c-7.906 0-14.315-6.409-14.315-14.315v-20.082h255.499v20.082c0 7.906-6.409 14.315-14.315 14.315z" fill="#86a0af"/><g><path d="m128.08 272.196c-4.268 0-7.726-3.459-7.726-7.726v-90.937c0-4.268 3.459-7.726 7.726-7.726s7.726 3.459 7.726 7.726v90.937c0 4.268-3.458 7.726-7.726 7.726z" fill="#e49542"/></g><g><path d="m383.579 272.196c-4.268 0-7.726-3.459-7.726-7.726v-90.937c0-4.268 3.459-7.726 7.726-7.726s7.726 3.459 7.726 7.726v90.937c0 4.268-3.459 7.726-7.726 7.726z" fill="#e49542"/></g><path d="m255.829 130.446c13.877 0 26.454-7.088 33.64-18.957l61.531-101.609-30.147-9.88c-43.349 23.554-86.697 23.554-130.046 0l-30.149 9.88 61.529 101.607c7.189 11.871 19.765 18.959 33.642 18.959z" fill="#86a0af"/><path d="m263.034 95.481 57.819-95.481c-43.349 23.554-86.697 23.554-130.046 0l57.819 95.481c3.277 5.412 11.13 5.412 14.408 0z" fill="#ffe07d"/><path d="m277.439 15.7c-5.228 16.239-15.874 39.537-37.505 65.427l8.692 14.354c3.278 5.413 11.13 5.413 14.408 0l57.819-95.481c-14.472 7.863-28.943 13.087-43.414 15.7z" fill="#ffd064"/><g><path d="m259.422 50.773h-7.185c-4.268 0-7.726-3.459-7.726-7.726s3.459-7.726 7.726-7.726h7.185c4.268 0 7.726 3.459 7.726 7.726s-3.458 7.726-7.726 7.726z" fill="#e49542"/></g><path d="m314.093 207.175-11.096-18.359c-1.518-2.512-1.518-5.659 0-8.171l11.096-18.359c3.073-5.084 10.447-5.084 13.52 0l11.096 18.359c1.518 2.512 1.518 5.659 0 8.171l-11.096 18.359c-3.073 5.084-10.447 5.084-13.52 0z" fill="#86a0af"/></g></svg>