<svg height="512" viewBox="0 0 58 58" width="512" xmlns="http://www.w3.org/2000/svg"><g id="043---Jumper" fill="none"><path id="Shape" d="m58 32.64v19.36c0 .5522847-.4477153 1-1 1h-7c-.5522847 0-1-.4477153-1-1v-14.7c.0036122-2.1865543-.503163-4.3437734-1.48-6.3l-3.52-7 1 30.83c-4 2.11-8 3.17-16 3.17s-12-1.06-16-3.17l1-30.83-3.52 7c-.97683696 1.9562266-1.48361223 4.1134457-1.48 6.3v14.7c0 .5522847-.44771525 1-1 1h-7c-.55228475 0-1-.4477153-1-1v-19.36c.01583313-1.7471361.35487591-3.4762543 1-5.1l6.7-15.12c.89394119-2.2615707 2.665038-4.06513167 4.91-5 2.3837445-1.03201654 4.8575428-1.84211019 7.39-2.42l.84-4.2c.0964736-.47312322.5172392-.80973571 1-.8h14.34c.4827608-.00973571.9035264.32687678 1 .8l.82 4.2c2.5454076.56905512 5.0326827 1.3724818 7.43 2.4 2.244962.93486833 4.0160588 2.7384293 4.91 5l6.66 15.14c.6451241 1.6237457.9841669 3.3528639 1 5.1z" fill="#f0c419"/><path id="Shape" d="m22.55 7.89c-.4761403-.25533767-.6633673-.84270502-.4228266-1.32648918.2405408-.48378417.8218583-.68902604 1.3128266-.46351082 1.7722743.67710661 3.6646186.98342133 5.56.9 1.895315.08228616 3.7874305-.22399153 5.56-.9.4944641-.23735317 1.0878371-.03212644 1.33.46.2402449.48916396.0445734 1.08062554-.44 1.33-2.96 1.47-9.94 1.47-12.9 0z" fill="#f29c1f"/><path id="Shape" d="m26 0v4c0 .55228475-.4477153 1-1 1s-1-.44771525-1-1v-4z" fill="#f29c1f"/><path id="Shape" d="m30 0v5c0 .55228475-.4477153 1-1 1s-1-.44771525-1-1v-5z" fill="#f29c1f"/><path id="Shape" d="m34 0v4c0 .55228475-.4477153 1-1 1s-1-.44771525-1-1v-4z" fill="#f29c1f"/><path id="Shape" d="m45 54.83c-5.17 2.69-9.78 3.17-16 3.17-6.05 0-10.8-.46-16-3.17l.13-3.94c3.366692 1.7566904 7.0765144 2.7566701 10.87 2.93 4.6707948.3815954 9.370383.2070392 14-.52 2.4061102-.4473391 4.7296437-1.26007 6.89-2.41z" fill="#f29c1f"/><g fill="#e57e25"><path id="Shape" d="m30 54v4h-2v-4z"/><path id="Shape" d="m26 54v3.89c-.7 0-1.36-.06-2-.11 0-4 0-3.82 0-4 2.05.22 2 .07 2 .22z"/><path id="Shape" d="m22 53.62v4c-.7-.1-1.36-.2-2-.31 0-4 0-3.83 0-4 .65.12 1.31.22 2 .31z"/><path id="Shape" d="m18 52.83c0 4 0 3.79-.05 4-.6666667-.1866667-1.3166667-.3966667-1.95-.63 0-3.8 0-3.77.06-4 .62.24 1.26.45 1.94.63z"/><path id="Shape" d="m34 57.83c-.63.05-1.29.08-2 .11v-3.94c0-.14 0 0 2-.18.0734806 1.3356568.0734806 2.6743432 0 4.01z"/><path id="Shape" d="m38 57.32c-.63.11-1.29.22-2 .31 0-.11 0-.44 0-4 .7-.09 1.35-.19 2-.32.0723686 1.3356871.0723686 2.6743129 0 4.01z"/><path id="Shape" d="m42 56.2c-.62.2266667-1.2866667.4366667-2 .63-.07-.21 0 0 0-4 .68-.18 1.32-.39 1.94-.62.06.2.06-.01.06 3.99z"/></g><path id="Shape" d="m9 49v3c0 .5522847-.44771525 1-1 1h-7c-.55228475 0-1-.4477153-1-1v-3z" fill="#f29c1f"/><path id="Shape" d="m58 49v3c0 .5522847-.4477153 1-1 1h-7c-.5522847 0-1-.4477153-1-1v-3z" fill="#f29c1f"/></g></svg>