<svg height="512" viewBox="0 0 59 58" width="512" xmlns="http://www.w3.org/2000/svg"><g id="046---Long-Sleeve-Shirt" fill="none"><path id="Shape" d="m38 8c-2.8277444 1.28686938-5.8933692 1.96811935-9 2-3.1066308-.03188065-6.1722556-.71313062-9-2v-8c2.8277444 1.28686938 5.8933692 1.96811935 9 2 3.1066308-.03188065 6.1722556-.71313062 9-2z" fill="#c03a2b"/><path id="Shape" d="m14.59 1.61c1.7584169-.67743086 3.5673088-1.21575175 5.41-1.61 0 0 1 7 9 7s9-7 9-7c1.8426912.39424825 3.6515831.93256914 5.41 1.61-.92 1.92-2.1 5.17-.91 7.49 1.31 2.57 6 3.63 9.42 2.37 0 .1 0-.09 5.12 13.07.6451241 1.6237457.9841669 3.3528639 1 5.1v19.36c0 .5522847-.4477153 1-1 1h-7.04c-.5522847 0-1-.4477153-1-1v-14.7c.0036122-2.1865543-.503163-4.3437734-1.48-6.3l-3.52-7 1 33.83c-4 2.11-8 3.17-16 3.17s-12-1.06-16-3.17l1-33.83-3.52 7c-.97683696 1.9562266-1.48361223 4.1134457-1.48 6.3v14.7c0 .5522847-.44771525 1-1 1h-7c-.55228475 0-1-.4477153-1-1v-19.36c.01583313-1.7471361.35487591-3.4762543 1-5.1l5.08-13.08c3.45 1.27 8.11.21 9.42-2.36 1.19-2.32.01-5.57-.91-7.49z" fill="#e64c3c"/><path id="Shape" d="m45 54.83c-4 2.11-8 3.17-16 3.17s-12-1.06-16-3.17l.06-2c3.94 2.17 7.94 3.17 15.94 3.17s12-1 15.94-3.14z" fill="#c03a2b"/></g></svg>