<svg id="Capa_1" enable-background="new 0 0 512 512" height="512" viewBox="0 0 512 512" width="512" xmlns="http://www.w3.org/2000/svg"><g><g><g><path d="m88.828 456.676c-4.204 0-7.611-3.407-7.611-7.611v-51.011c0-4.204 3.407-7.612 7.611-7.612s7.611 3.407 7.611 7.612v51.011c0 4.204-3.407 7.611-7.611 7.611z" fill="#cbe2ff"/></g><g><path d="m116.898 456.676c-4.204 0-7.611-3.407-7.611-7.611v-51.011c0-4.204 3.407-7.612 7.611-7.612s7.611 3.407 7.611 7.612v51.011c.001 4.204-3.407 7.611-7.611 7.611z" fill="#cbe2ff"/></g><g><path d="m144.968 456.676c-4.204 0-7.612-3.407-7.612-7.611v-51.011c0-4.204 3.407-7.612 7.612-7.612s7.611 3.407 7.611 7.612v51.011c.001 4.204-3.406 7.611-7.611 7.611z" fill="#cbe2ff"/></g><g><path d="m173.039 456.676c-4.204 0-7.611-3.407-7.611-7.611v-51.011c0-4.204 3.407-7.612 7.611-7.612s7.611 3.407 7.611 7.612v51.011c0 4.204-3.407 7.611-7.611 7.611z" fill="#cbe2ff"/></g></g><g><g><path d="m330.354 512c-4.204 0-7.612-3.407-7.612-7.612v-55.323c0-4.204 3.407-7.612 7.612-7.612s7.611 3.407 7.611 7.612v55.323c0 4.204-3.407 7.612-7.611 7.612z" fill="#cbe2ff"/></g><g><path d="m357.964 512c-4.204 0-7.612-3.407-7.612-7.612v-55.323c0-4.204 3.407-7.612 7.612-7.612s7.611 3.407 7.611 7.612v55.323c.001 4.204-3.406 7.612-7.611 7.612z" fill="#cbe2ff"/></g><g><path d="m385.574 512c-4.204 0-7.612-3.407-7.612-7.612v-55.323c0-4.204 3.407-7.612 7.612-7.612s7.611 3.407 7.611 7.612v55.323c0 4.204-3.407 7.612-7.611 7.612z" fill="#cbe2ff"/></g><g><path d="m413.184 512c-4.204 0-7.612-3.407-7.612-7.612v-55.323c0-4.204 3.407-7.612 7.612-7.612s7.611 3.407 7.611 7.612v55.323c.001 4.204-3.406 7.612-7.611 7.612z" fill="#cbe2ff"/></g><g><path d="m440.795 512c-4.204 0-7.612-3.407-7.612-7.612v-55.323c0-4.204 3.407-7.612 7.612-7.612s7.611 3.407 7.611 7.612v55.323c0 4.204-3.407 7.612-7.611 7.612z" fill="#cbe2ff"/></g></g><g><g><g><path d="m294.413 53.473c-.011 0-.021 0-.033 0-3.461-.015-6.476-2.363-7.339-5.714l-7.146-27.759c-1.048-4.071 1.403-8.221 5.474-9.27 3.961-1.013 7.971 1.26 9.167 5.111l1.106-4.152c1.082-4.061 5.254-6.481 9.315-5.394 4.061 1.082 6.477 5.253 5.394 9.315l-8.584 32.211c-.887 3.334-3.906 5.652-7.354 5.652z" fill="#80b4fb"/></g><g><path d="m102.045 251.683c-1.489 0-2.992-.436-4.31-1.344l-21.553-14.843c-3.462-2.385-4.336-7.124-1.951-10.586 2.384-3.463 7.124-4.335 10.586-1.951l21.553 14.843c3.462 2.385 4.336 7.124 1.951 10.586-1.476 2.144-3.856 3.295-6.276 3.295z" fill="#80b4fb"/></g><g><path d="m213.219 312.09c-1.167 0-2.353-.27-3.463-.838l-22.14-11.337c-2.793-1.43-4.422-4.427-4.103-7.549.319-3.121 2.52-5.727 5.545-6.563l25.36-7.006c4.05-1.119 8.244 1.258 9.364 5.31 1.119 4.052-1.259 8.244-5.31 9.364l-6.522 1.802 4.744 2.429c3.742 1.916 5.222 6.502 3.306 10.244-1.348 2.63-4.015 4.144-6.781 4.144z" fill="#80b4fb"/></g><g><path d="m300.474 398.054c-2.32.001-4.611-1.056-6.105-3.057-2.515-3.369-1.823-8.139 1.545-10.653l8.609-6.426-9.989-3.137c-4.011-1.259-6.242-5.531-4.982-9.541 1.259-4.011 5.536-6.242 9.541-4.982l24.188 7.594c2.727.855 4.744 3.168 5.224 5.985s-.66 5.666-2.949 7.376l-20.533 15.33c-1.368 1.019-2.965 1.511-4.549 1.511z" fill="#80b4fb"/></g><g><path d="m468.979 286.1c-.811 0-1.635-.131-2.446-.405l-24.636-8.358c-2.842-.964-4.852-3.507-5.133-6.496-.281-2.987 1.219-5.861 3.832-7.338l24.636-13.931c3.658-2.069 8.302-.781 10.372 2.879 2.069 3.659.78 8.303-2.879 10.372l-9.833 5.561 8.532 2.894c3.981 1.351 6.114 5.673 4.763 9.653-1.076 3.171-4.036 5.169-7.208 5.169z" fill="#80b4fb"/></g><g><path d="m64.5 102.601c-1.364 0-2.744-.367-3.99-1.135l-24.194-14.93c-3.578-2.208-4.688-6.898-2.481-10.475 2.207-3.579 6.897-4.688 10.475-2.481l24.193 14.931c3.578 2.208 4.688 6.898 2.481 10.475-1.439 2.332-3.932 3.615-6.484 3.615z" fill="#80b4fb"/></g><g><path d="m454.494 124.273c-2.164 0-4.281-.922-5.762-2.635-2.2-2.546-2.468-6.234-.657-9.07l16.965-26.587c2.263-3.544 6.968-4.583 10.51-2.322 3.544 2.261 4.584 6.967 2.322 10.51l-3.255 5.101 1.725-.776c3.835-1.722 8.339-.013 10.063 3.822 1.723 3.834.012 8.34-3.822 10.063l-24.973 11.225c-1.003.451-2.065.669-3.116.669z" fill="#80b4fb"/></g></g><g><path d="m251.058 213.231c-.796 0-1.605-.126-2.401-.39-3.989-1.326-6.149-5.634-4.823-9.623l6.493-19.534c1.326-3.99 5.632-6.148 9.623-4.823 3.989 1.326 6.149 5.634 4.823 9.623l-6.493 19.534c-1.062 3.194-4.033 5.213-7.222 5.213z" fill="#80b4fb"/></g></g><path d="m437.722 469.617h-105.123c-8.847 0-16.173-6.874-16.734-15.704l-21.451-337.251h160.076v336.187c0 9.26-7.507 16.768-16.768 16.768z" fill="#9dc6fb"/><path d="m300.952 219.457c25.861-2.293 51.076-6.435 74.544-12.304 29.271-7.319 55.704-17.164 78.995-29.39v-61.101h-160.078z" fill="#80b4fb"/><path d="m172.566 420.265h-81.493c-9.966 0-17.733-8.641-16.673-18.551l31.691-296.276h115.22l-32.072 299.842c-.912 8.522-8.103 14.985-16.673 14.985z" fill="#9dc6fb"/><path d="m96.331 196.677c11.209 3.925 22.934 7.421 35.153 10.476 24.391 6.099 50.674 10.324 77.603 12.555l12.223-114.271h-115.22z" fill="#80b4fb"/><path d="m454.49 362.337v-56.544h-148.047l3.597 56.544z" fill="#86a0af"/><path d="m83.71 314.671h115.221l5.245-49.044h-115.22z" fill="#86a0af"/><g><path d="m253.49 196.232c-42.134 0-84.322-4.98-122.005-14.403-39.267-9.818-73.435-24.176-101.747-42.74-5.106-3.348-6.349-10.305-2.775-15.256l86.175-119.375c3.217-4.456 9.27-5.768 14.041-3.039 28.364 16.229 76.4 26.437 126.311 26.437s97.947-10.208 126.312-26.437c4.77-2.729 10.824-1.417 14.04 3.039l86.176 119.375c3.574 4.951 2.331 11.908-2.775 15.256-28.312 18.564-62.48 32.922-101.747 42.74-37.685 9.423-79.873 14.403-122.006 14.403z" fill="#9dc6fb"/></g><g><path d="m480.017 123.833-86.175-119.375c-3.217-4.456-9.27-5.768-14.04-3.039-2.976 1.702-6.179 3.334-9.567 4.899l85.463 137.378c1.322 2.125 1.981 4.568 2.033 7 6.776-3.668 13.294-7.53 19.512-11.608 5.106-3.347 6.348-10.304 2.774-15.255z" fill="#80b4fb"/></g><path d="m142.06 184.315c16.091 3.595 32.887 6.41 50.073 8.394l63.148-164.866c-.598.003-1.194.011-1.792.011-17.19 0-34.157-1.211-50.175-3.462z" fill="#86a0af"/><g><path d="m403.218 341.676h-45.503c-4.204 0-7.611-3.407-7.611-7.611s3.407-7.612 7.611-7.612h45.503c4.204 0 7.611 3.407 7.611 7.612s-3.407 7.611-7.611 7.611z" fill="#738b95"/></g><g><path d="m166.695 297.761h-45.503c-4.204 0-7.611-3.407-7.611-7.612s3.407-7.611 7.611-7.611h45.503c4.204 0 7.611 3.407 7.611 7.611s-3.407 7.612-7.611 7.612z" fill="#738b95"/></g></g></svg>