<svg id="Capa_1" enable-background="new 0 0 512 512" height="512" viewBox="0 0 512 512" width="512" xmlns="http://www.w3.org/2000/svg"><g><path d="m63.172 318.846c12.7 13.175 20.797 27.436 23.92 42.87 2.375 11.737 12.781 20.117 24.755 20.117h286.158c13.065 0 23.967-9.949 25.183-22.957 1.972-21.103 10.518-42.206 25.639-63.309l-29.478-28.221-331.292 19.998z" fill="#86a0af"/><path d="m76.541 335.78 360.766-21.777c3.288-6.145 7.117-12.291 11.52-18.436l-385.655 23.279c5.259 5.455 9.715 11.1 13.369 16.934z" fill="#738b95"/><g><g><path d="m135.434 389.559c-4.268 0-7.726-3.459-7.726-7.726v-56.518c0-4.268 3.459-7.726 7.726-7.726s7.726 3.459 7.726 7.726v56.518c.001 4.267-3.458 7.726-7.726 7.726z" fill="#738b95"/></g><g><path d="m193.889 389.559c-4.268 0-7.726-3.459-7.726-7.726v-60.639c0-4.268 3.459-7.726 7.726-7.726s7.726 3.459 7.726 7.726v60.639c0 4.267-3.458 7.726-7.726 7.726z" fill="#738b95"/></g><g><path d="m252.344 389.559c-4.268 0-7.726-3.459-7.726-7.726v-60.639c0-4.268 3.459-7.726 7.726-7.726 4.268 0 7.726 3.459 7.726 7.726v60.639c0 4.267-3.459 7.726-7.726 7.726z" fill="#738b95"/></g><g><path d="m310.798 389.559c-4.268 0-7.726-3.459-7.726-7.726v-68.88c0-4.268 3.459-7.726 7.726-7.726s7.726 3.459 7.726 7.726v68.88c.001 4.267-3.458 7.726-7.726 7.726z" fill="#738b95"/></g><g><path d="m369.253 389.559c-4.268 0-7.726-3.459-7.726-7.726v-70.941c0-4.268 3.459-7.726 7.726-7.726 4.268 0 7.726 3.459 7.726 7.726v70.941c.001 4.267-3.458 7.726-7.726 7.726z" fill="#738b95"/></g></g><path d="m126.676 180.274.001.001c9.5-3.685 19-7.191 28.5-10.522-12.366-11.001-17.25-23.019-18.95-32.683-1.748-9.941-11.552-16.342-21.421-14.224-8.659 1.859-14.665 9.746-14.167 18.588.799 14.205 5.739 33.68 26.037 38.84z" fill="#d6f6b2"/><path d="m126.676 180.274.001.001c9.5-3.685 19-7.191 28.5-10.522-5.043-4.486-8.825-9.14-11.671-13.736-11.438 3.987-22.876 8.231-34.314 12.73 3.914 5.258 9.51 9.5 17.484 11.527z" fill="#ccf49f"/><path d="m475.434 293.961-451.766 27.269c-12.834.775-23.668-9.425-23.668-22.282v-12.984c0-30.764 17.49-58.887 45.125-72.404 133.758-65.425 267.516-98.094 401.277-88.088 36.955 2.764 65.598 33.417 65.598 70.476v59.173c0 20.579-16.024 37.6-36.566 38.84z" fill="#b3e59f"/><path d="m446.402 125.471c-22.091-1.652-44.181-2.134-66.272-1.503 9.728.28 19.457.775 29.185 1.503 36.955 2.764 65.598 33.418 65.598 70.476v66.384c0 13.69-7.096 25.798-17.891 32.74l18.411-1.112c20.543-1.238 36.567-18.259 36.567-38.838v-59.173c0-37.059-28.643-67.712-65.598-70.477z" fill="#95d6a4"/></g></svg>