<svg height="512" viewBox="0 0 32 58" width="512" xmlns="http://www.w3.org/2000/svg"><g id="058---Dress" fill="none"><path id="Shape" d="m30 58c-5.139519.043384-10.1179899-1.7915381-14-5.16-3.8743063 3.3814718-8.85789891 5.2182816-14 5.16 0 0-2-14-1-22 .62296213-4.2880649 2.53000162-8.286921 5.47-11.47.47439261-.544406.98559404-1.0556074 1.53-1.53h16c.5464811.4755143 1.0609357.9866283 1.54 1.53 2.9301026 3.1885746 4.8326271 7.1852699 5.46 11.47 1 8-1 22-1 22z" fill="#ff5364"/><path id="Shape" d="m25.54 24.53c-6.2922243 1.2800601-12.7777757 1.2800601-19.07 0 .47439261-.544406.98559404-1.0556074 1.53-1.53h16c.5464811.4755143 1.0609357.9866283 1.54 1.53z" fill="#df4d60"/><path id="Shape" d="m24 43.06c-1.2508389 4.1342216-3.6841708 7.8120291-7 10.58-.33-.25-.66-.52-1-.81 3.4437579-3.1709034 5.8782204-7.2851449 7-11.83.8446773.2930693 1.2922324 1.2150328 1 2.06z" fill="#df4d60"/><path id="Shape" d="m26 2v12c0 1.5737865-.7409708 3.0557281-2 4v5c-2.6234459.6172752-5.3053308.9525108-8 1-2.6946692-.0474892-5.3765541-.3827248-8-1v-5c-1.25902921-.9442719-2-2.4262135-2-4v-12c.00338536-.80631139.49062584-1.5317303 1.23575754-1.83983461s1.60240256-.13862704 2.17424246.42983461c.37558779.37335029.58776721.88042315.59 1.41v6c0 1.1045695.8954305 2 2 2h8c1.1045695 0 2-.8954305 2-2v-6c.0033854-.80631139.4906258-1.5317303 1.2357575-1.83983461s1.6024026-.13862704 2.1742425.42983461c.3755878.37335029.5877672.88042315.59 1.41z" fill="#f3d55b"/><g fill="#f0c419"><path id="Shape" d="m24 18v2.2c-.9124877.5252655-1.9471295.80117-3 .8-.5522847 0-1-.4477153-1-1s.4477153-1 1-1c.8654809 0 1.7076153-.2807115 2.4-.8.1730962-.1298221.3836298-.2.6-.2z"/><path id="Shape" d="m12 20c0 .5522847-.4477153 1-1 1-1.05287051.00117-2.08751231-.2747345-3-.8v-2.2c.21637021 0 .42690383.0701779.6.2.69238468.5192885 1.5345191.8 2.4.8.5522847 0 1 .4477153 1 1z"/></g></g></svg>