<?xml version="1.0" encoding="iso-8859-1"?>
<!-- Generator: Adobe Illustrator 19.0.0, SVG Export Plug-In . SVG Version: 6.00 Build 0)  -->
<svg version="1.1" id="Layer_1" xmlns="http://www.w3.org/2000/svg" xmlns:xlink="http://www.w3.org/1999/xlink" x="0px" y="0px"
	 viewBox="0 0 511.996 511.996" style="enable-background:new 0 0 511.996 511.996;" xml:space="preserve">
<g transform="translate(-1 -1)">
	<path style="fill:#805333;" d="M337.85,186.551c19.571-40.81,42.143-50.573,42.734-79.625c0.83-40.545-47.448-51.032-61.793-52.966
		c0,0-22.899,35.31-61.793,35.31s-61.793-35.31-61.793-35.31c-14.345,1.933-62.623,12.42-61.793,52.966
		c0.591,29.052,23.164,38.815,42.734,79.625c14.989,31.267,13.321,65.492-1.033,96.918c-9.251,20.277-15.219,54.175-15.219,97.112
		c0,0,6.065,94.076,8.828,114.759c0,0,37.791,17.655,88.276,17.655s88.276-17.655,88.276-17.655
		c2.754-20.683,8.828-114.759,8.828-114.759c0-42.937-5.967-76.835-15.219-97.112C324.529,252.043,322.86,217.819,337.85,186.551"/>
	<path style="fill:#FDD7AD;" d="M274.652,1h-17.655h-17.655c0,0-17.655,44.138-44.138,52.966c0,0,22.899,35.31,61.793,35.31
		s61.793-35.31,61.793-35.31C292.307,45.138,274.652,1,274.652,1"/>
	<path style="fill:#231208;" d="M265.824,257h-17.655c-4.873,0-8.828-3.955-8.828-8.828v-35.31c0-4.873,3.955-8.828,8.828-8.828
		h17.655c4.873,0,8.828,3.955,8.828,8.828v35.31C274.652,253.045,270.697,257,265.824,257"/>
	<g>
		<path style="fill:#3A2113;" d="M185.526,248.172h53.813v-35.31h-54.643C186.903,224.55,187.168,236.396,185.526,248.172"/>
		<path style="fill:#3A2113;" d="M329.302,212.862H274.65v35.31h53.822C326.83,236.396,327.086,224.55,329.302,212.862"/>
	</g>
</g>
<g>
</g>
<g>
</g>
<g>
</g>
<g>
</g>
<g>
</g>
<g>
</g>
<g>
</g>
<g>
</g>
<g>
</g>
<g>
</g>
<g>
</g>
<g>
</g>
<g>
</g>
<g>
</g>
<g>
</g>
</svg>
