<?xml version="1.0" encoding="iso-8859-1"?>
<!-- Generator: Adobe Illustrator 19.0.0, SVG Export Plug-In . SVG Version: 6.00 Build 0)  -->
<svg version="1.1" id="Layer_1" xmlns="http://www.w3.org/2000/svg" xmlns:xlink="http://www.w3.org/1999/xlink" x="0px" y="0px"
	 viewBox="0 0 503.322 503.322" style="enable-background:new 0 0 503.322 503.322;" xml:space="preserve">
<g transform="translate(-1)">
	<path style="fill:#4482C3;" d="M452.254,442.576c0-68.938-63.366-192.191-98.573-255.349
		c-19.933-35.762-19.656-79.516,0.85-114.948c1.501-2.603,2.994-5.068,4.443-7.385c15.265-24.376,2.031-56.441-26.077-62.551
		C322.093,0,313.407,0,313.407,0c-52.068,0-60.746,26.034-60.746,26.034S243.983,0,191.915,0c0,0-8.687,0-19.491,2.343
		c-28.108,6.109-41.342,38.174-26.077,62.551c1.449,2.317,2.942,4.782,4.443,7.385c20.506,35.432,20.784,79.186,0.85,114.948
		c-35.207,63.158-98.573,186.411-98.573,255.349c0,0-8.678,60.746,199.593,60.746S452.254,442.576,452.254,442.576"/>
	<g>
		<path style="fill:#285680;" d="M347.195,173.559c-6.63-16.662-9.034-34.486-7.68-52.068H165.8
			c1.362,17.582-1.05,35.406-7.671,52.068H347.195z"/>
		<path style="fill:#285680;" d="M418.852,474.23c-24.706-16.462-62.056-61.718-62.056-92.394c0-4.799-3.888-8.678-8.678-8.678
			c-4.79,0-8.678,3.879-8.678,8.678c0,37.636,39.303,83.907,64.859,103.311c6.708-2.334,12.505-4.782,17.477-7.281
			C421.126,476.46,420.232,475.15,418.852,474.23"/>
		<path style="fill:#285680;" d="M314.577,499.688c-0.894-3.575-1.9-7.246-2.924-10.986c-3.402-12.357-6.925-25.14-6.925-37.445
			c0-4.799-3.888-8.678-8.678-8.678c-4.79,0-8.678,3.879-8.678,8.678c0,14.64,4.009,29.21,7.541,42.062
			c0.833,3.029,1.631,5.988,2.386,8.921c6.005-0.295,11.793-0.651,17.347-1.067C314.611,500.677,314.698,500.191,314.577,499.688"/>
		<path style="fill:#285680;" d="M190.678,501.172c5.554,0.417,11.342,0.764,17.347,1.067c0.755-2.933,1.553-5.892,2.386-8.93
			c3.532-12.843,7.541-27.414,7.541-42.053c0-4.799-3.888-8.678-8.678-8.678c-4.799,0-8.678,3.879-8.678,8.678
			c0,12.305-3.523,25.079-6.925,37.445c-1.024,3.74-2.031,7.411-2.924,10.986C190.617,500.192,190.712,500.678,190.678,501.172"/>
		<path style="fill:#285680;" d="M101.018,485.143c25.557-19.413,64.859-65.675,64.859-103.311c0-4.799-3.879-8.678-8.678-8.678
			c-4.79,0-8.678,3.879-8.678,8.678c0,30.668-37.35,75.924-62.065,92.394c-1.38,0.929-2.274,2.23-2.916,3.636
			C88.504,480.362,94.31,482.809,101.018,485.143"/>
	</g>
</g>
<g>
</g>
<g>
</g>
<g>
</g>
<g>
</g>
<g>
</g>
<g>
</g>
<g>
</g>
<g>
</g>
<g>
</g>
<g>
</g>
<g>
</g>
<g>
</g>
<g>
</g>
<g>
</g>
<g>
</g>
</svg>
