<?xml version="1.0" encoding="iso-8859-1"?>
<!-- Generator: Adobe Illustrator 19.0.0, SVG Export Plug-In . SVG Version: 6.00 Build 0)  -->
<svg version="1.1" id="Layer_1" xmlns="http://www.w3.org/2000/svg" xmlns:xlink="http://www.w3.org/1999/xlink" x="0px" y="0px"
	 viewBox="0 0 512.004 512.004" style="enable-background:new 0 0 512.004 512.004;" xml:space="preserve">
<g transform="translate(0 -1)">
	<g>
		<path style="fill:#ECF0F1;" d="M256.002,106.825c-52.966,0-70.621-79.342-70.621-79.342C194.209,18.655,211.864,9.828,229.519,1
			C229.519,1,248.966,85.807,256.002,106.825"/>
		<path style="fill:#ECF0F1;" d="M256.002,106.935c52.966,0,70.621-79.342,70.621-79.342c-8.828-8.828-26.483-17.655-44.138-26.483
			C282.485,1.109,263.037,85.916,256.002,106.935"/>
	</g>
	<path style="fill:#C03A2B;" d="M361.933,133.417c0-15.872-3.001-40.254-5.508-57.821c-2.595-18.264-15.89-32.627-32.874-37.235
		c-6.974,21.636-26.765,68.573-67.549,68.573c0,0,0.044-0.141,0.053-0.185l-0.053,0.079l0,0l0,0
		c-40.722,0-60.513-46.786-67.513-68.476c-16.993,4.599-30.305,18.97-32.909,37.244c-2.507,17.567-5.508,41.949-5.508,57.821
		c0,0,18.388,24.276,35.31,17.655c0,0,17.655,32,17.655,61.793s-35.31,37.146-35.31,105.56s17.655,156.69,26.483,185.379
		c0,0,22.802,9.198,61.793,9.198s61.793-9.198,61.793-9.198c8.828-28.69,26.483-116.966,26.483-185.379s-35.31-75.767-35.31-105.56
		s17.655-61.793,17.655-61.793C343.545,157.693,361.933,133.417,361.933,133.417"/>
	<path style="fill:#771A18;" d="M264.829,239.348h-17.655c-4.873,0-8.828-3.955-8.828-8.828v-35.31c0-4.873,3.955-8.828,8.828-8.828
		h17.655c4.873,0,8.828,3.955,8.828,8.828v35.31C273.657,235.394,269.702,239.348,264.829,239.348"/>
	<g>
		<path style="fill:#9B2B23;" d="M201.223,195.21c1.103,5.8,1.81,11.767,1.81,17.655c0,6.709-1.845,12.27-4.617,17.655h39.927
			v-35.31H201.223z"/>
		<path style="fill:#9B2B23;" d="M308.967,212.866c0-5.888,0.706-11.855,1.81-17.655h-37.12v35.31h39.927
			C310.812,225.136,308.967,219.575,308.967,212.866"/>
	</g>
</g>
<g>
</g>
<g>
</g>
<g>
</g>
<g>
</g>
<g>
</g>
<g>
</g>
<g>
</g>
<g>
</g>
<g>
</g>
<g>
</g>
<g>
</g>
<g>
</g>
<g>
</g>
<g>
</g>
<g>
</g>
</svg>
