<?xml version="1.0" encoding="iso-8859-1"?>
<!-- Generator: Adobe Illustrator 19.0.0, SVG Export Plug-In . SVG Version: 6.00 Build 0)  -->
<svg version="1.1" id="Layer_1" xmlns="http://www.w3.org/2000/svg" xmlns:xlink="http://www.w3.org/1999/xlink" x="0px" y="0px"
	 viewBox="0 0 512 512" style="enable-background:new 0 0 512 512;" xml:space="preserve">
<g transform="translate(0 -1)">
	<path style="fill:#4482C3;" d="M282.483,1c0,123.586-26.483,141.241-26.483,141.241S229.517,124.586,229.517,1
		c0,0-61.793,87.252-61.793,122.562c0,0-2.481,22.351,9.313,46.557c6.559,13.453,10.125,28.284,8.342,42.743H326.62
		c-1.783-14.46,1.783-29.29,8.342-42.743c11.794-24.205,9.313-46.557,9.313-46.557C344.276,88.252,282.483,1,282.483,1"/>
	<polygon style="fill:#285680;" points="361.931,442.379 150.069,442.379 185.379,212.862 326.62,212.862 	"/>
	<path style="fill:#4482C3;" d="M226.904,509.805l135.027-67.425H150.069l38.162,57.159
		C196.687,512.224,213.265,516.62,226.904,509.805"/>
	<g>
		<path style="fill:#F0C419;" d="M229.517,257c0,4.873-3.955,8.828-8.828,8.828c-4.873,0-8.828-3.955-8.828-8.828
			s3.955-8.828,8.828-8.828C225.562,248.172,229.517,252.127,229.517,257"/>
		<path style="fill:#F0C419;" d="M264.827,257c0,4.873-3.955,8.828-8.828,8.828s-8.828-3.955-8.828-8.828s3.955-8.828,8.828-8.828
			S264.827,252.127,264.827,257"/>
		<path style="fill:#F0C419;" d="M300.138,257c0,4.873-3.955,8.828-8.828,8.828c-4.873,0-8.828-3.955-8.828-8.828
			s3.955-8.828,8.828-8.828C296.183,248.172,300.138,252.127,300.138,257"/>
		<path style="fill:#F0C419;" d="M211.862,168.724c0,4.873-3.955,8.828-8.828,8.828s-8.828-3.955-8.828-8.828
			c0-4.873,3.955-8.828,8.828-8.828S211.862,163.851,211.862,168.724"/>
		<path style="fill:#F0C419;" d="M247.172,168.724c0,4.873-3.955,8.828-8.828,8.828c-4.873,0-8.828-3.955-8.828-8.828
			c0-4.873,3.955-8.828,8.828-8.828C243.217,159.897,247.172,163.851,247.172,168.724"/>
		<path style="fill:#F0C419;" d="M282.483,168.724c0,4.873-3.955,8.828-8.828,8.828s-8.828-3.955-8.828-8.828
			c0-4.873,3.955-8.828,8.828-8.828S282.483,163.851,282.483,168.724"/>
		<path style="fill:#F0C419;" d="M317.793,168.724c0,4.873-3.955,8.828-8.828,8.828s-8.828-3.955-8.828-8.828
			c0-4.873,3.955-8.828,8.828-8.828S317.793,163.851,317.793,168.724"/>
		<path style="fill:#F0C419;" d="M229.517,133.414c0,4.873-3.955,8.828-8.828,8.828c-4.873,0-8.828-3.955-8.828-8.828
			c0-4.873,3.955-8.828,8.828-8.828C225.562,124.586,229.517,128.541,229.517,133.414"/>
		<path style="fill:#F0C419;" d="M300.138,133.414c0,4.873-3.955,8.828-8.828,8.828c-4.873,0-8.828-3.955-8.828-8.828
			c0-4.873,3.955-8.828,8.828-8.828C296.183,124.586,300.138,128.541,300.138,133.414"/>
		<path style="fill:#F0C419;" d="M335.448,133.414c0,4.873-3.955,8.828-8.828,8.828s-8.828-3.955-8.828-8.828
			c0-4.873,3.955-8.828,8.828-8.828S335.448,128.541,335.448,133.414"/>
		<path style="fill:#F0C419;" d="M194.207,133.414c0,4.873-3.955,8.828-8.828,8.828c-4.873,0-8.828-3.955-8.828-8.828
			c0-4.873,3.955-8.828,8.828-8.828C190.252,124.586,194.207,128.541,194.207,133.414"/>
		<path style="fill:#F0C419;" d="M211.862,98.103c0,4.873-3.955,8.828-8.828,8.828s-8.828-3.955-8.828-8.828
			c0-4.873,3.955-8.828,8.828-8.828S211.862,93.231,211.862,98.103"/>
		<path style="fill:#F0C419;" d="M317.793,98.103c0,4.873-3.955,8.828-8.828,8.828s-8.828-3.955-8.828-8.828
			c0-4.873,3.955-8.828,8.828-8.828S317.793,93.231,317.793,98.103"/>
		<path style="fill:#F0C419;" d="M211.862,292.31c0,4.873-3.955,8.828-8.828,8.828s-8.828-3.955-8.828-8.828
			c0-4.873,3.955-8.828,8.828-8.828S211.862,287.438,211.862,292.31"/>
		<path style="fill:#F0C419;" d="M247.172,292.31c0,4.873-3.955,8.828-8.828,8.828c-4.873,0-8.828-3.955-8.828-8.828
			c0-4.873,3.955-8.828,8.828-8.828C243.217,283.483,247.172,287.438,247.172,292.31"/>
		<path style="fill:#F0C419;" d="M282.483,292.31c0,4.873-3.955,8.828-8.828,8.828s-8.828-3.955-8.828-8.828
			c0-4.873,3.955-8.828,8.828-8.828S282.483,287.438,282.483,292.31"/>
		<path style="fill:#F0C419;" d="M317.793,292.31c0,4.873-3.955,8.828-8.828,8.828s-8.828-3.955-8.828-8.828
			c0-4.873,3.955-8.828,8.828-8.828S317.793,287.438,317.793,292.31"/>
		<path style="fill:#F0C419;" d="M229.517,327.621c0,4.873-3.955,8.828-8.828,8.828c-4.873,0-8.828-3.955-8.828-8.828
			s3.955-8.828,8.828-8.828C225.562,318.793,229.517,322.748,229.517,327.621"/>
		<path style="fill:#F0C419;" d="M194.207,327.621c0,4.873-3.955,8.828-8.828,8.828c-4.873,0-8.828-3.955-8.828-8.828
			s3.955-8.828,8.828-8.828C190.252,318.793,194.207,322.748,194.207,327.621"/>
		<path style="fill:#F0C419;" d="M335.448,327.621c0,4.873-3.955,8.828-8.828,8.828s-8.828-3.955-8.828-8.828
			s3.955-8.828,8.828-8.828S335.448,322.748,335.448,327.621"/>
		<path style="fill:#F0C419;" d="M264.827,327.621c0,4.873-3.955,8.828-8.828,8.828s-8.828-3.955-8.828-8.828
			s3.955-8.828,8.828-8.828S264.827,322.748,264.827,327.621"/>
		<path style="fill:#F0C419;" d="M300.138,327.621c0,4.873-3.955,8.828-8.828,8.828c-4.873,0-8.828-3.955-8.828-8.828
			s3.955-8.828,8.828-8.828C296.183,318.793,300.138,322.748,300.138,327.621"/>
		<path style="fill:#F0C419;" d="M211.862,362.931c0,4.873-3.955,8.828-8.828,8.828s-8.828-3.955-8.828-8.828
			c0-4.873,3.955-8.828,8.828-8.828S211.862,358.058,211.862,362.931"/>
		<path style="fill:#F0C419;" d="M247.172,362.931c0,4.873-3.955,8.828-8.828,8.828c-4.873,0-8.828-3.955-8.828-8.828
			c0-4.873,3.955-8.828,8.828-8.828C243.217,354.103,247.172,358.058,247.172,362.931"/>
		<path style="fill:#F0C419;" d="M282.483,362.931c0,4.873-3.955,8.828-8.828,8.828s-8.828-3.955-8.828-8.828
			c0-4.873,3.955-8.828,8.828-8.828S282.483,358.058,282.483,362.931"/>
		<path style="fill:#F0C419;" d="M317.793,362.931c0,4.873-3.955,8.828-8.828,8.828s-8.828-3.955-8.828-8.828
			c0-4.873,3.955-8.828,8.828-8.828S317.793,358.058,317.793,362.931"/>
		<path style="fill:#F0C419;" d="M229.517,398.241c0,4.873-3.955,8.828-8.828,8.828c-4.873,0-8.828-3.955-8.828-8.828
			c0-4.873,3.955-8.828,8.828-8.828C225.562,389.414,229.517,393.369,229.517,398.241"/>
		<path style="fill:#F0C419;" d="M194.207,398.241c0,4.873-3.955,8.828-8.828,8.828c-4.873,0-8.828-3.955-8.828-8.828
			c0-4.873,3.955-8.828,8.828-8.828C190.252,389.414,194.207,393.369,194.207,398.241"/>
		<path style="fill:#F0C419;" d="M335.448,398.241c0,4.873-3.955,8.828-8.828,8.828s-8.828-3.955-8.828-8.828
			c0-4.873,3.955-8.828,8.828-8.828S335.448,393.369,335.448,398.241"/>
		<path style="fill:#F0C419;" d="M264.827,398.241c0,4.873-3.955,8.828-8.828,8.828s-8.828-3.955-8.828-8.828
			c0-4.873,3.955-8.828,8.828-8.828S264.827,393.369,264.827,398.241"/>
		<path style="fill:#F0C419;" d="M300.138,398.241c0,4.873-3.955,8.828-8.828,8.828c-4.873,0-8.828-3.955-8.828-8.828
			c0-4.873,3.955-8.828,8.828-8.828C296.183,389.414,300.138,393.369,300.138,398.241"/>
	</g>
</g>
<g>
</g>
<g>
</g>
<g>
</g>
<g>
</g>
<g>
</g>
<g>
</g>
<g>
</g>
<g>
</g>
<g>
</g>
<g>
</g>
<g>
</g>
<g>
</g>
<g>
</g>
<g>
</g>
<g>
</g>
</svg>
