<?xml version="1.0" encoding="iso-8859-1"?>
<!-- Generator: Adobe Illustrator 19.0.0, SVG Export Plug-In . SVG Version: 6.00 Build 0)  -->
<svg version="1.1" id="Layer_1" xmlns="http://www.w3.org/2000/svg" xmlns:xlink="http://www.w3.org/1999/xlink" x="0px" y="0px"
	 viewBox="0 0 511.999 511.999" style="enable-background:new 0 0 511.999 511.999;" xml:space="preserve">
<g transform="translate(0 -1)">
	<path style="fill:#35495E;" d="M189.793,45.137c0,0-19.527,51.889-2.807,83.385c11.335,21.372,15.695,45.939,8.13,68.908
		c-4.537,13.789-11.758,30.552-22.978,50.741c0,0-17.655,35.31,0,88.276c0,0,26.483,114.759,26.483,176.552h52.966
		c0,0,44.138-326.621,17.655-379.586C269.241,133.413,242.758,71.62,189.793,45.137"/>
	<g>
		<path style="fill:#21313F;" d="M339.862,248.172c-11.22-20.189-18.441-36.952-22.978-50.741
			c-7.565-22.969-3.204-47.537,8.13-68.908c16.719-31.497-2.807-83.385-2.807-83.385C290.798,60.841,268.782,88.895,256,109.181
			c8.775,13.93,13.241,24.232,13.241,24.232c26.483,52.965-17.655,379.586-17.655,379.586h61.793
			c0-61.793,26.483-176.552,26.483-176.552C357.517,283.482,339.862,248.172,339.862,248.172"/>
		<path style="fill:#21313F;" d="M182.248,115.591c-7.292-30.985,7.548-70.453,7.548-70.453c6.17,3.09,11.953,6.691,17.408,10.584
			l0.009-0.053C207.212,20.359,189.795,1,189.795,1C75.037,1,75.037,45.138,75.037,45.138s89.538-0.168,107.193,70.453H182.248z"/>
	</g>
	<path style="fill:#35495E;" d="M329.751,115.591c7.292-30.985-7.548-70.453-7.548-70.453c-6.171,3.09-11.953,6.691-17.408,10.584
		l-0.009-0.053C304.787,20.359,322.204,1,322.204,1c114.759,0,114.759,44.138,114.759,44.138s-89.538-0.168-107.193,70.453H329.751z
		"/>
</g>
<g>
</g>
<g>
</g>
<g>
</g>
<g>
</g>
<g>
</g>
<g>
</g>
<g>
</g>
<g>
</g>
<g>
</g>
<g>
</g>
<g>
</g>
<g>
</g>
<g>
</g>
<g>
</g>
<g>
</g>
</svg>
