<?xml version="1.0" encoding="iso-8859-1"?>
<!-- Generator: Adobe Illustrator 19.0.0, SVG Export Plug-In . SVG Version: 6.00 Build 0)  -->
<svg version="1.1" id="Layer_1" xmlns="http://www.w3.org/2000/svg" xmlns:xlink="http://www.w3.org/1999/xlink" x="0px" y="0px"
	 viewBox="0 0 511.999 511.999" style="enable-background:new 0 0 511.999 511.999;" xml:space="preserve">
<g transform="translate(0 -1)">
	<g>
		<path style="fill:#B7699D;" d="M189.567,79.478c-3.94,0-7.506-2.708-8.444-6.708c-5.233-22.519-10.795-31.31-21.868-48.814
			c-1.874-2.977-3.896-6.17-6.083-9.702c-2.525-4.07-1.276-9.424,2.794-11.95c4.079-2.534,9.424-1.258,11.95,2.803
			c2.161,3.48,4.148,6.63,6.005,9.563c11.359,17.955,18.206,28.793,24.107,54.159c1.085,4.677-1.814,9.337-6.482,10.422
			C190.878,79.408,190.218,79.478,189.567,79.478"/>
		<path style="fill:#B7699D;" d="M322.432,79.478c-0.651,0-1.31-0.069-1.979-0.226c-4.669-1.085-7.567-5.745-6.482-10.422
			c5.901-25.366,12.748-36.204,24.107-54.159c1.857-2.933,3.844-6.083,6.005-9.563c2.525-4.061,7.871-5.337,11.95-2.803
			c4.07,2.525,5.32,7.88,2.794,11.95c-2.187,3.532-4.209,6.725-6.083,9.702C341.671,41.46,336.109,50.25,330.876,72.77
			C329.939,76.77,326.372,79.478,322.432,79.478"/>
	</g>
	<path style="fill:#E080BC;" d="M361.589,240.715c-6.569-15.412-9.936-31.944-9.936-48.701v-3.003
		c0-16.488,4.712-32.386,11.681-47.347c10.023-21.521,6.934-51.886-14.579-66.369c-24.133-16.245-83.881,12.652-92.559,21.33
		c-8.678-8.678-68.434-37.576-92.568-21.33c-21.513,14.484-24.602,44.848-14.579,66.369c6.968,14.961,11.689,30.859,11.689,47.347
		v3.003c0,16.757-3.376,33.289-9.945,48.701c-22.094,51.86-68.356,159.475-68.356,220.221c0,0,51.86-13.971,82.597-6.743
		c30.737,7.237,68.183,24.099,90.962,24.099s60.234-16.861,90.971-24.099c30.737-7.229,82.588,6.743,82.588,6.743
		C429.555,400.19,383.683,292.575,361.589,240.715"/>
	<g>
		<path style="fill:#B7699D;" d="M187.008,469.613c-4.799,0-8.678-3.879-8.678-8.678c0-25.505,11.385-61.744,23.457-100.118
			l4.782-15.273c1.423-4.565,6.265-7.125,10.865-5.71c4.573,1.423,7.133,6.292,5.71,10.865l-4.808,15.325
			c-11.637,37.064-22.649,72.07-22.649,94.911C195.686,465.734,191.807,469.613,187.008,469.613"/>
		<path style="fill:#B7699D;" d="M225.177,322.088c-0.772,0-1.553-0.104-2.334-0.312c-4.617-1.284-7.316-6.066-6.04-10.691
			c8.982-32.378,13.164-56.45,13.164-75.776c0-4.799,3.879-8.678,8.678-8.678c4.79,0,8.678,3.879,8.678,8.678
			c0,20.931-4.382,46.479-13.789,80.427C232.467,319.571,228.97,322.088,225.177,322.088"/>
		<path style="fill:#B7699D;" d="M143.195,393.02c-0.616,0-1.25-0.069-1.874-0.2c-4.677-1.033-7.637-5.658-6.613-10.344
			c6.318-28.759,15.681-60.52,26.381-89.435c1.658-4.487,6.656-6.804,11.143-5.12c4.495,1.657,6.795,6.647,5.129,11.143
			c-10.422,28.177-19.543,59.123-25.695,87.144C150.771,390.26,147.178,393.02,143.195,393.02"/>
		<path style="fill:#B7699D;" d="M134.186,461.104c-4.799,0-8.678-3.879-8.678-8.678c0-10.353,0.998-22.511,2.968-36.118
			c0.677-4.73,5.111-8.105,9.823-7.35c4.747,0.677,8.027,5.085,7.342,9.823c-1.84,12.8-2.777,24.116-2.777,33.644
			C142.864,457.225,138.985,461.104,134.186,461.104"/>
		<path style="fill:#B7699D;" d="M343.339,322.096c-3.558,0-6.899-2.213-8.166-5.753c-7.576-21.183-16.488-44.422-26.468-69.103
			c-1.796-4.443,0.347-9.502,4.79-11.299c4.443-1.805,9.494,0.338,11.29,4.79c10.075,24.888,19.074,48.362,26.719,69.762
			c1.623,4.521-0.738,9.485-5.241,11.09C345.3,321.931,344.302,322.096,343.339,322.096"/>
		<path style="fill:#B7699D;" d="M377.813,461.104c-4.799,0-8.678-3.879-8.678-8.678c0-21.912-7.463-56.12-22.198-101.654
			c-1.475-4.556,1.033-9.45,5.589-10.926c4.582-1.475,9.459,1.033,10.926,5.589c15.282,47.26,23.04,83.265,23.04,106.991
			C386.491,457.225,382.612,461.104,377.813,461.104"/>
		<path style="fill:#B7699D;" d="M324.991,469.613c-4.799,0-8.678-3.879-8.678-8.678c0-26.442-8.921-68.504-16.705-102.183
			c-1.076-4.669,1.84-9.337,6.508-10.414c4.651-1.085,9.32,1.84,10.405,6.508c11.863,51.365,17.148,84.089,17.148,106.088
			C333.669,465.734,329.79,469.613,324.991,469.613"/>
		<path style="fill:#B7699D;" d="M346.966,454.197c-30.737,7.229-68.183,24.09-90.962,24.09s-60.234-16.861-90.971-24.09
			c-30.729-7.229-82.588,6.734-82.588,6.734c0,28.759,75.307,52.068,173.559,52.068c98.243,0,173.559-23.309,173.559-52.068
			C429.562,460.931,377.703,446.968,346.966,454.197"/>
	</g>
</g>
<g>
</g>
<g>
</g>
<g>
</g>
<g>
</g>
<g>
</g>
<g>
</g>
<g>
</g>
<g>
</g>
<g>
</g>
<g>
</g>
<g>
</g>
<g>
</g>
<g>
</g>
<g>
</g>
<g>
</g>
</svg>
