<?xml version="1.0" encoding="iso-8859-1"?>
<!-- Generator: Adobe Illustrator 19.0.0, SVG Export Plug-In . SVG Version: 6.00 Build 0)  -->
<svg version="1.1" id="Layer_1" xmlns="http://www.w3.org/2000/svg" xmlns:xlink="http://www.w3.org/1999/xlink" x="0px" y="0px"
	 viewBox="0 0 512 512" style="enable-background:new 0 0 512 512;" xml:space="preserve">
<g transform="translate(-1 -1)">
	<path style="fill:#CBB292;" d="M354.103,495.345c19.174-77.109,35.655-165.447-22.634-233.984
		c-7.883-9.269-12.676-20.762-12.676-32.927v-0.362c0-8.66,2.269-17.09,6.612-24.567c7.839-13.542,19.871-43.026,19.871-96.574
		c-22.298-15.89-64.689-12.606-88.276,26.483c-23.587-39.089-65.977-42.372-88.276-26.483c0,53.548,12.032,83.032,19.871,96.574
		c4.343,7.477,6.612,15.907,6.612,24.567v0.362c0,12.164-4.793,23.658-12.676,32.927c-58.289,68.537-41.807,156.875-22.634,233.984
		c0,0,52.966,17.655,97.103,17.655S354.103,495.345,354.103,495.345"/>
	<path style="fill:#FDD7AD;" d="M292.31,36.31c-9.754,0-17.655-7.91-17.655-17.655V1H257h-17.655v17.655
		c0,9.746-7.901,17.655-17.655,17.655c-61.793,0-79.484,14.892-79.484,35.31c0,8.457,16.808,26.386,26.518,35.31
		c22.298-15.89,64.689-12.606,88.276,26.483c23.587-39.089,65.977-42.372,88.276-26.483c9.71-8.925,26.518-26.854,26.518-35.31
		C371.794,51.202,354.103,36.31,292.31,36.31"/>
	<g>
		<path style="fill:#937961;" d="M168.724,106.931c0,23.322,2.313,41.975,5.535,56.841c4.996,3.575,12.376,7.265,20.551,10.62
			c28.954,11.864,61.828-9.684,62.19-40.978C233.413,94.325,191.023,91.041,168.724,106.931"/>
		<path style="fill:#937961;" d="M345.276,106.931c0,23.322-2.313,41.975-5.535,56.841c-4.996,3.575-12.376,7.265-20.551,10.62
			c-28.954,11.864-61.828-9.684-62.19-40.978C280.587,94.325,322.977,91.041,345.276,106.931"/>
	</g>
	<path style="fill:#B2977B;" d="M290.368,260.838c-4.555-9.234-6.886-19.359-6.886-29.652l0,0c0-10.681,2.428-21.213,7.336-30.702
		c2.913-5.623,6.418-13.224,10.01-22.899c-22.925-0.856-43.538-19.43-43.829-44.173c-0.291,24.744-20.904,43.317-43.829,44.173
		c3.593,9.675,7.097,17.276,10.01,22.899c4.908,9.49,7.336,20.021,7.336,30.702l0,0c0,10.293-2.33,20.418-6.886,29.652
		c-34.11,69.146-33.139,172.862-19.756,245.954c16.508,3.381,35.496,6.206,53.124,6.206s36.617-2.825,53.124-6.206
		C323.507,433.7,324.478,329.985,290.368,260.838"/>
	<g>
		<path style="fill:#CBB292;" d="M318.311,37.431c-0.018,0.141-0.097,0.247-0.106,0.388L314.4,97.98c-0.009,0.026,0,0.035,0,0.062
			c6.065-0.097,11.9,0.733,17.276,2.366c0.097-0.441,0.309-0.839,0.344-1.306l3.743-59.171
			C330.634,38.87,324.817,38.032,318.311,37.431"/>
		<path style="fill:#CBB292;" d="M181.983,99.104c0.026,0.468,0.238,0.856,0.335,1.298c5.376-1.624,11.22-2.454,17.276-2.366
			c0-0.018,0.009-0.035,0.009-0.053l-3.814-60.16c-0.009-0.141-0.088-0.256-0.106-0.388c-6.506,0.6-12.314,1.43-17.452,2.489
			L181.983,99.104z"/>
	</g>
</g>
<g>
</g>
<g>
</g>
<g>
</g>
<g>
</g>
<g>
</g>
<g>
</g>
<g>
</g>
<g>
</g>
<g>
</g>
<g>
</g>
<g>
</g>
<g>
</g>
<g>
</g>
<g>
</g>
<g>
</g>
</svg>
