<?xml version="1.0" encoding="iso-8859-1"?>
<!-- Generator: Adobe Illustrator 19.0.0, SVG Export Plug-In . SVG Version: 6.00 Build 0)  -->
<svg version="1.1" id="Layer_1" xmlns="http://www.w3.org/2000/svg" xmlns:xlink="http://www.w3.org/1999/xlink" x="0px" y="0px"
	 viewBox="0 0 511.991 511.991" style="enable-background:new 0 0 511.991 511.991;" xml:space="preserve">
<g transform="translate(0 -1)">
	<path style="fill:#4482C3;" d="M313.375,270.789c9.675-76.676-13.241-128.556-13.241-128.556v-35.302
		c0,0,22.069-10.487,16.278-29.519S300.134,18.655,300.134,1h-17.655l-20.171,40.333c-2.595,5.199-10.028,5.199-12.623,0L229.513,1
		h-17.655c0,17.655-10.487,57.379-16.278,76.412c-5.791,19.032,16.278,29.519,16.278,29.519v35.302c0,0-22.916,51.88-13.241,128.556
		c9.525,75.485,3.134,203.564-4.414,224.547c0,0,38.894,17.655,61.793,17.655s61.793-17.655,61.793-17.655
		C310.241,474.353,303.85,346.273,313.375,270.789"/>
	<polygon style="fill:#F0C419;" points="211.858,142.239 300.134,142.239 300.134,106.928 211.858,106.928 	"/>
</g>
<g>
</g>
<g>
</g>
<g>
</g>
<g>
</g>
<g>
</g>
<g>
</g>
<g>
</g>
<g>
</g>
<g>
</g>
<g>
</g>
<g>
</g>
<g>
</g>
<g>
</g>
<g>
</g>
<g>
</g>
</svg>
