<?xml version="1.0" encoding="iso-8859-1"?>
<!-- Generator: Adobe Illustrator 19.0.0, SVG Export Plug-In . SVG Version: 6.00 Build 0)  -->
<svg version="1.1" id="Layer_1" xmlns="http://www.w3.org/2000/svg" xmlns:xlink="http://www.w3.org/1999/xlink" x="0px" y="0px"
	 viewBox="0 0 512 512" style="enable-background:new 0 0 512 512;" xml:space="preserve">
<g transform="translate(0 -1)">
	<path style="fill:#CBB292;" d="M282.483,1c0,123.586-26.483,141.241-26.483,141.241S229.517,124.586,229.517,1
		c0,0-61.793,87.252-61.793,122.562c0,0-2.481,22.351,9.313,46.557c6.559,13.453,10.125,28.284,8.342,42.743H326.62
		c-1.783-14.46,1.783-29.29,8.342-42.743c11.794-24.205,9.313-46.557,9.313-46.557C344.276,88.252,282.483,1,282.483,1"/>
	<polygon style="fill:#B2977B;" points="361.931,442.379 150.069,442.379 185.379,212.862 326.62,212.862 	"/>
	<path style="fill:#937961;" d="M226.904,509.805l135.027-67.425H150.069l38.162,57.159
		C196.687,512.224,213.265,516.62,226.904,509.805"/>
</g>
<g>
</g>
<g>
</g>
<g>
</g>
<g>
</g>
<g>
</g>
<g>
</g>
<g>
</g>
<g>
</g>
<g>
</g>
<g>
</g>
<g>
</g>
<g>
</g>
<g>
</g>
<g>
</g>
<g>
</g>
</svg>
