<svg height="512" viewBox="0 0 34 58" width="512" xmlns="http://www.w3.org/2000/svg"><g id="066---Vest" fill="none" transform="translate(0 -1)"><path id="Shape" d="m31 29c1.02597-3.9317606 1.6953466-7.9480199 2-12-3.13-4.69-4.2-12.6-4.08-15 0-.55228475-.4477153-1-1-1-2.1 0-2.14-.05-2.44.15-5.6092793 1.14051709-11.3907207 1.14051709-17 0-.25-.15-.32-.15-2.4-.15-.55228475 0-1 .44771525-1 1 .12 2.4-.95 10.31-4.08 15 .30465343 4.0519801.97402998 8.0682394 2 12 3 12-2 25-2.83 28 5.50032568 1.3893973 11.1572398 2.061639 16.83 2 5.6727602.061639 11.3296743-.6106027 16.83-2-.83-3-5.83-16-2.83-28zm-22-17-.00000091-5c3.09072091 3.4136054 4.86346771 7.8171084 5.00000091 12.42-3.0232837-1.222978-5.00154957-4.1587246-5-7.42zm16 0c-.0025244 3.2576306-1.9800943 6.1883891-5 7.41.1388904-4.5994196 1.9114806-8.9989885 5-12.41z" fill="#955ba5"/><path id="Shape" d="m33.83 57c-5.5003257 1.3893973-11.1572398 2.061639-16.83 2-5.6727602.061639-11.32967432-.6106027-16.83-2 .83-3 5.83-16 2.83-28-1.02597002-3.9317606-1.69534657-7.9480199-2-12 3.13-4.69 4.2-12.6 4.08-15 0-.55228475.44771525-1 1-1 2.1 0 2.14-.05 2.44.15.29681562.1806915.47855043.50251356.48.85v10c0 4.418278 3.581722 8 8 8s8-3.581722 8-8v-10c0-.55228475.4477153-1 1-1h1.92c.5522847 0 1 .44771525 1 1-.12 2.4.95 10.31 4.08 15-.3046534 4.0519801-.97403 8.0682394-2 12-3 12 2 25 2.83 28z" fill="#955ba5"/><path id="Shape" d="m25.48 1.15c-.2968156.1806915-.4785504.50251356-.48.85v5c-3.09072 3.4136054-4.8634668 7.8171084-5 12.42-1.9242613.778402-4.0757387.778402-6 0-.1365332-4.6028916-1.90928-9.0063946-5-12.42v-5c-.00144957-.34748644-.18318438-.6693085-.48-.85 5.5963556 1.13510168 11.3636444 1.13510168 16.96 0z" fill="#894b9d"/></g></svg>