<?xml version="1.0" encoding="iso-8859-1"?>
<!-- Generator: Adobe Illustrator 19.0.0, SVG Export Plug-In . SVG Version: 6.00 Build 0)  -->
<svg version="1.1" id="Layer_1" xmlns="http://www.w3.org/2000/svg" xmlns:xlink="http://www.w3.org/1999/xlink" x="0px" y="0px"
	 viewBox="0 0 503.98 503.98" style="enable-background:new 0 0 503.98 503.98;" xml:space="preserve">
<g>
	<g>
		<path style="fill:#BDC3C7;" d="M92.523,126.276c-0.655,0-1.318-0.076-1.981-0.235c-4.507-1.091-7.277-5.632-6.186-10.131
			c15.713-64.915,6.068-86.805-1.074-94.074c-6.312-6.413-14.042-4.902-14.109-4.877c-4.532,1.007-9.015-1.83-10.03-6.354
			s1.83-9.015,6.354-10.03c6.211-1.393,19.473-0.965,29.755,9.493c17.039,17.324,18.86,54.264,5.422,109.786
			C99.742,123.699,96.309,126.276,92.523,126.276"/>
		<path style="fill:#BDC3C7;" d="M411.457,126.276c-3.785,0-7.218-2.577-8.15-6.421c-13.438-55.523-11.617-92.462,5.422-109.786
			c10.282-10.458,23.544-10.886,29.755-9.493c4.524,1.016,7.369,5.506,6.354,10.03c-1.007,4.49-5.464,7.294-9.929,6.379
			c-0.504-0.101-8.234-1.41-14.403,5.061c-7.034,7.361-16.501,29.352-0.881,93.864c1.091,4.499-1.679,9.04-6.186,10.131
			C412.775,126.2,412.112,126.276,411.457,126.276"/>
	</g>
	<path style="fill:#ECF0F1;" d="M285.986,503.98h-67.995c-4.314,0-7.923-3.273-8.351-7.563
		c-3.66-36.881-34.732-76.372-75.155-76.372c-1.435,0-3.248-0.059-5.212-0.134c-3.45-0.126-8.167-0.294-10.29,0.034
		c-2.728,0.42-5.464-0.512-7.353-2.493c-1.897-1.981-2.703-4.759-2.166-7.453c10.92-54.356,9.56-126.028,3.836-151.485
		c-2.854-12.674-6.891-21.605-12.691-28.101C53.874,178.08,83.713,116.715,85.005,114.13c0.965-1.922,2.627-3.408,4.642-4.138
		c80.124-29.125,142.898,20.027,162.346,38.056c19.448-18.029,82.197-67.206,162.346-38.056c2.014,0.73,3.668,2.216,4.633,4.138
		c1.293,2.585,31.14,63.95-15.603,116.283c-6.253,7-10.5,16.35-12.624,27.791c-5.54,29.847-7.395,101.032,3.735,151.644
		c0.596,2.703-0.176,5.531-2.073,7.554c-1.897,2.006-4.7,2.963-7.403,2.543c-2.124-0.327-6.857-0.159-10.299-0.034
		c-1.956,0.076-3.769,0.134-5.204,0.134c-40.423,0-71.495,39.491-75.163,76.372C293.91,500.707,290.3,503.98,285.986,503.98"/>
	<g>
		<path style="fill:#BDC3C7;" d="M184.843,252.177c-60.483,0-79.511-17.274-81.475-19.246c-3.282-3.282-3.282-8.587,0-11.868
			c3.248-3.231,8.461-3.273,11.742-0.126c0.588,0.512,17.173,14.454,69.733,14.454c4.633,0,8.393,3.76,8.393,8.393
			S189.476,252.177,184.843,252.177"/>
		<path style="fill:#BDC3C7;" d="M319.138,252.177c-4.633,0-8.393-3.76-8.393-8.393s3.76-8.393,8.393-8.393
			c53.265,0,69.59-14.319,69.75-14.462c3.366-3.064,8.645-2.954,11.793,0.336c3.148,3.299,3.156,8.444-0.067,11.667
			C398.649,234.904,379.621,252.177,319.138,252.177"/>
		<path style="fill:#BDC3C7;" d="M226.81,193.423c-4.633,0-8.393-3.76-8.393-8.393s3.76-8.393,8.393-8.393
			c9.258,0,16.787-7.529,16.787-16.787c0-4.633,3.76-8.393,8.393-8.393s8.393,3.76,8.393,8.393
			C260.384,178.365,245.326,193.423,226.81,193.423"/>
		<path style="fill:#BDC3C7;" d="M277.171,193.423c-18.516,0-33.574-15.058-33.574-33.574c0-4.633,3.76-8.393,8.393-8.393
			s8.393,3.76,8.393,8.393c0,9.258,7.529,16.787,16.787,16.787c4.633,0,8.393,3.76,8.393,8.393S281.804,193.423,277.171,193.423"/>
	</g>
</g>
<g>
</g>
<g>
</g>
<g>
</g>
<g>
</g>
<g>
</g>
<g>
</g>
<g>
</g>
<g>
</g>
<g>
</g>
<g>
</g>
<g>
</g>
<g>
</g>
<g>
</g>
<g>
</g>
<g>
</g>
</svg>
