<svg height="512" viewBox="0 0 58 58" width="512" xmlns="http://www.w3.org/2000/svg"><g id="001---Coat" fill="none"><path id="Shape" d="m20.24 11.9c-1.4380198-.3684304-2.3903598-1.7331676-2.24-3.21v.31s0-9 11-9 11 9 11 9v-.31c.1522769 1.4709046-.7899974 2.8333822-2.22 3.21l-8.78 2.1z" fill="#3f5c6c"/><path id="Shape" d="m13.74 34.57-4.28 17.87c-.25722886 1.0596449-1.31586094 1.7179539-2.38 1.48l-5.08-1.13c-.52135801-.1166778-.97436228-.4370979-1.258023-.8898279s-.37439568-1.0001321-.251977-1.5201721l7.41-31.3c.40302033-1.7200429 1.88667647-2.9720048 3.65-3.08z" fill="#2c3e50"/><path id="Shape" d="m46.45 16c1.7679995.0982099 3.261032 1.3471499 3.67 3.07l7.41 31.3c.1249475.5243026.032989 1.0768423-.2550378 1.5324141s-.7477376.775607-1.2749622.8875859l-5.1 1.13c-1.0641391.2379539-2.1227711-.4203551-2.38-1.48l-4.26-17.87z" fill="#2c3e50"/><path id="Shape" d="m44 58c.5522847 0 1-.4477153 1-1-.88-19.33-1.09-20-.52-23.84l2.35-15.67c.1311199-.8571242-.3050053-1.7011073-1.08-2.09l-6.75-3.4h-20l-6.7 3.35c-.7749947.3888927-1.2111199 1.2328758-1.08 2.09 2.49 16.63 2.78 17.61 2.65 21.48l-.82 18c0 .5522847.4477153 1 1 1z" fill="#35495e"/><ellipse id="Oval" cx="29" cy="4" fill="#2c3e50" rx="8" ry="4"/><path id="Rectangle-path" d="m26 12h6v46h-6z" fill="#2c3e50"/><g fill="#547580"><path id="Shape" d="m36 23h-14c-.5522847 0-1-.4477153-1-1s.4477153-1 1-1h14c.5522847 0 1 .4477153 1 1s-.4477153 1-1 1z"/><path id="Shape" d="m36 36h-14c-.5522847 0-1-.4477153-1-1s.4477153-1 1-1h14c.5522847 0 1 .4477153 1 1s-.4477153 1-1 1z"/><path id="Shape" d="m36 49h-14c-.5522847 0-1-.4477153-1-1s.4477153-1 1-1h14c.5522847 0 1 .4477153 1 1s-.4477153 1-1 1z"/><path id="Shape" d="m36 24c-.5522847 0-1-.4477153-1-1v-2c0-.5522847.4477153-1 1-1s1 .4477153 1 1v2c0 .5522847-.4477153 1-1 1z"/><path id="Shape" d="m22 24c-.5522847 0-1-.4477153-1-1v-2c0-.5522847.4477153-1 1-1s1 .4477153 1 1v2c0 .5522847-.4477153 1-1 1z"/><path id="Shape" d="m36 37c-.5522847 0-1-.4477153-1-1v-2c0-.5522847.4477153-1 1-1s1 .4477153 1 1v2c0 .5522847-.4477153 1-1 1z"/><path id="Shape" d="m22 37c-.5522847 0-1-.4477153-1-1v-2c0-.5522847.4477153-1 1-1s1 .4477153 1 1v2c0 .5522847-.4477153 1-1 1z"/><path id="Shape" d="m36 50c-.5522847 0-1-.4477153-1-1v-2c0-.5522847.4477153-1 1-1s1 .4477153 1 1v2c0 .5522847-.4477153 1-1 1z"/><path id="Shape" d="m22 50c-.5522847 0-1-.4477153-1-1v-2c0-.5522847.4477153-1 1-1s1 .4477153 1 1v2c0 .5522847-.4477153 1-1 1z"/></g></g></svg>