<svg height="512" viewBox="0 0 58 58" width="512" xmlns="http://www.w3.org/2000/svg"><g id="002---Coat" fill="none" fill-rule="evenodd" transform="translate(-1)"><g fill-rule="nonzero"><path id="Shape" d="m38 41c.16-.08-.18-7 0-7l13.87-.63c.7717824-.1936542 1.5888842-.0727642 2.2715283.3360721.682644.4088363 1.1749032 1.072124 1.3684717 1.8439279l.49 1.94c.1933385.7731624.0710871 1.59148-.3397776 2.2743783-.4108646.6828984-1.0765716 1.1742468-1.8502224 1.3656217l-7.82 2c-.63.15-4.44 2.14-5 1.91l3.17-2.06z" fill="#e57e25"/><path id="Shape" d="m22 41c-.16-.08-2.82-6-3-6l-10.87-1.63c-.77178237-.1936542-1.58888421-.0727642-2.27152826.3360721-.68264404.4088363-1.17490328 1.072124-1.36847174 1.8439279l-.49 1.94c-.19333851.7731624-.07108711 1.59148.33977756 2.2743783.41086468.6828984 1.07657162 1.1742468 1.85022244 1.3656217l7.82 2c.63.15 4.44 2.14 5 1.91l-3.17-2.06z" fill="#e57e25"/><path id="Shape" d="m20 20c-6.31-1.77-4.24-1.22-8-2.15-.7718039-.1935685-1.4350916-.6858277-1.8439279-1.3684717-.40883628-.6826441-.52972631-1.4997459-.3360721-2.2715283l.48-1.94c.1926973-.7851324.6941136-1.4592624 1.3906398-1.8696481.6965261-.4103857 1.5292011-.52228779 2.3093602-.3103519.1.03-.61-1.09 6 9.91z" fill="#f29c1f"/><path id="Shape" d="m16.58 27.24c-.1 0 .09 0-6.51-1.63-1.59253486-.4034503-2.56435519-2.0127491-2.18-3.61l.49-2c.41670077-1.5852536 2.0286066-2.542601 3.62-2.15l2.91.73c.31.09-.53-.53 7.07 5.42z" fill="#e57e25"/><path id="Shape" d="m16.58 27.24c-.1 0 .09 0-6.51-1.63-.77178237-.1936542-1.58888421-.0727642-2.27152826.3360721-.68264404.4088363-1.17490328 1.072124-1.36847174 1.8439279l-.43 1.94c-.19365421.7717824-.07276418 1.5888842.33607209 2.2715283.40883626.682644 1.07212402 1.1749032 1.84392791 1.3684717l7.76 2c.19 0 4.92.68 5.11.68z" fill="#f29c1f"/><path id="Shape" d="m13.63 51.17c-.52 0 .11.09-10.36-2.52-.7740042-.1934487-1.43907443-.687233-1.84816496-1.3721782-.40909052-.6849451-.52850281-1.5046293-.33183504-2.2778218l.49-1.94c.19356846-.7718039.6858277-1.4350916 1.36847174-1.8439279.68264405-.4088363 1.49974589-.5297263 2.27152826-.3360721 1.59.4 8.33 2.1 9.7 2.43.17 0 8.92 4.61 9.08 4.68z" fill="#f29c1f"/><path id="Shape" d="m40 20c6.31-1.77 4.24-1.22 8-2.15.7718039-.1935685 1.4350916-.6858277 1.8439279-1.3684717.4088363-.6826441.5297263-1.4997459.3360721-2.2715283l-.48-1.94c-.1926973-.7851324-.6941136-1.4592624-1.3906398-1.8696481-.6965261-.4103857-1.5292011-.52228779-2.3093602-.3103519-.1.03.61-1.09-6 9.91z" fill="#f29c1f"/><path id="Shape" d="m43.42 27.24c.1 0-.09 0 6.51-1.63 1.5925349-.4034503 2.5643552-2.0127491 2.18-3.61l-.49-2c-.4167008-1.5852536-2.0286066-2.542601-3.62-2.15l-2.91.73c-.31.09.53-.53-7.07 5.42z" fill="#e57e25"/><path id="Shape" d="m43.42 27.24c.1 0-.09 0 6.51-1.63.7717824-.1936542 1.5888842-.0727642 2.2715283.3360721.682644.4088363 1.1749032 1.072124 1.3684717 1.8439279l.48 1.94c.1936542.7717824.0727642 1.5888842-.3360721 2.2715283-.4088363.682644-1.072124 1.1749032-1.8439279 1.3684717l-7.76 2c-.19 0-4.92.68-5.11.68z" fill="#f29c1f"/><path id="Shape" d="m46.37 51.17c.52 0-.11.09 10.36-2.52.7740042-.1934487 1.4390744-.687233 1.848165-1.3721782.4090905-.6849451.5285028-1.5046293.331835-2.2778218l-.49-1.94c-.1935685-.7718039-.6858277-1.4350916-1.3684717-1.8439279-.6826441-.4088363-1.4997459-.5297263-2.2715283-.3360721-1.59.4-8.33 2.1-9.7 2.43-.17 0-8.92 4.61-9.08 4.68z" fill="#f29c1f"/><rect id="Rectangle-path" fill="#f3d55b" height="8" rx="3" width="34" x="13" y="50"/><rect id="Rectangle-path" fill="#f0c419" height="8" rx="3" width="30" x="15" y="42"/><path id="Shape" d="m41 42c1.6568542 0 3-1.3431458 3-3v-2c0-1.6568542-1.3431458-3-3-3h-21.84c-.822991-.0439562-1.6278202.2526007-2.2255275.8200443-.5977073.5674437-.9356455 1.3557925-.9344725 2.1799557v2c0 1.6568542 1.3431458 3 3 3z" fill="#f3d55b"/></g><path id="Shape" d="m38.76 26h-6.76" stroke="#000" stroke-linecap="round" stroke-linejoin="round" stroke-width="2"/><path id="Shape" d="m43 26c1.6568542 0 3-1.3431458 3-3v-2c0-1.6568542-1.3431458-3-3-3h-26c-1.6568542 0-3 1.3431458-3 3v2c0 1.6568542 1.3431458 3 3 3z" fill="#f3d55b" fill-rule="nonzero"/><path id="Shape" d="m41 26c.9566384.0007048 1.8555835.4576067 2.42 1.23.69.93.58 1.64.58 3.77 0 1.6568542-1.3431458 3-3 3h-21.84c-.822991.0439562-1.6278202-.2526007-2.2255275-.8200443-.5977073-.5674437-.9356455-1.3557925-.9344725-2.1799557v-2c-.0001496-.6320642.1993386-1.248028.57-1.76.5643488-.7790212 1.4680418-1.240165 2.43-1.24z" fill="#f0c419" fill-rule="nonzero"/><path id="Shape" d="m39 8.06 4 .47c2.2745679.25886629 3.9943795 2.1807557 4 4.47v2c0 1.6568542-1.3431458 3-3 3h-28c-1.6568542 0-3-1.3431458-3-3 0-2-.22-3.46 1.14-5 .7373759-.82858658 1.7570425-1.35268094 2.86-1.47 5.35-.62 1.08-.47 22-.47z" fill="#f0c419" fill-rule="nonzero"/><path id="Shape" d="m38 2c0-1.1-3.58-2-8-2s-8 .9-8 2c-.51 3.07-.72 4.28-1 6 0 1.66 4 3 9 3s9-1.34 9-3c-.26-1.63-.55-3.33-1-6z" fill="#f3d55b" fill-rule="nonzero"/><ellipse id="Oval" cx="30" cy="2" fill="#e57e25" fill-rule="nonzero" rx="8" ry="2"/><path id="Rectangle-path" d="m28 11h4v47h-4z" fill="#f29c1f" fill-rule="nonzero"/></g></svg>