<svg height="512" viewBox="0 0 59 58" width="512" xmlns="http://www.w3.org/2000/svg"><g id="009---Coat" fill="none" transform="translate(-1)"><ellipse id="Oval" cx="29" cy="7" fill="#285680" rx="10" ry="5"/><path id="Shape" d="m12.55 46.1c-.1472814 1.1245125-.7649927 2.1336459-1.6994409 2.7763174-.93444818.6426716-2.09778459.8584628-3.2005591.5936826l-3.65-1.06c-2.2847484-.8096731-3.536745-3.2653437-2.85-5.59l6.66-26c.55545814-2.5509165 2.6516611-4.4791032 5.24-4.82-.45 36.3-.37 33.44-.5 34.1z" fill="#3b97d3"/><path id="Shape" d="m47 12c2.5873817.3461463 4.6795153 2.2782697 5.23 4.83l6.66 26c.6765663 2.332848-.5942674 4.7865685-2.89 5.58l-3.64 1.06c-2.08.6-4.37-.75-4.94-3.59-.07-.28-.02 2.41-.42-33.88z" fill="#3b97d3"/><path id="Shape" d="m47 12c-1.41-2.24-3.59-2.68-5.35-3.19l-11.65 1.19v7.54c-.6076793-.352507-1.2974804-.5387533-2-.54-1.1045695 0-2-.8954305-2-2v-5l-8.58-.88c-1.5609724.32014064-2.969436 1.1546554-4 2.37-.9491471 1.1602528-1.4527241 2.6213353-1.42 4.12 0 .31.55 29.4.77 39.46.0380309 1.6294544 1.3701019 2.9304438 3 2.93h28.46c1.6298981.0004438 2.9619691-1.3005456 3-2.93.22-10.23.77-39.32.77-39.46.0508354-1.2781205-.298773-2.5402071-1-3.61z" fill="#67b9cc"/><path id="Shape" d="m48 15.61c0 .31-.55 29.4-.77 39.46-.0380309 1.6294544-1.3701019 2.9304438-3 2.93h-12.23v-37c-.0014643-1.4275968-.7636638-2.746202-2-3.46v-7.54l11.6-1.16c1.79.52 3.47.84 5 2.65.9419631 1.163039 1.438353 2.6238438 1.4 4.12z" fill="#2fa8cc"/><path id="Shape" d="m32 21v37.0000001l-16.23-.0000001c-1.6298981.0004438-2.9619691-1.3005456-3-2.93-.22-10.14-.61-31.82-.77-39.46-.0242971-2.9154502 1.9043646-5.4869992 4.71-6.28l.71-.21 8.58.88v5c.0022328.5295768.2144122 1.0366497.59 1.41 1 1 1.8.2 3.41 1.13 1.2363362.713798 1.9985357 2.0324032 2 3.46z" fill="#67b9cc"/><path id="Shape" d="m30 9v8.57c-.6047512-.3630113-1.2947382-.5596576-2-.57-1.1045695 0-2-.8954305-2-2v-6z" fill="#285680"/><path id="Shape" d="m16 27v4.76c.0004027.758944.4303423 1.45227 1.11 1.79l2 1c.5606326.2785851 1.2193674.2785851 1.78 0l2-1c.6796577-.33773 1.1095973-1.031056 1.11-1.79v-4.76z" fill="#90bae1"/><path id="Shape" d="m36 27v4.76c.0004027.758944.4303423 1.45227 1.11 1.79l2 1c.5606326.2785851 1.2193674.2785851 1.78 0l2-1c.6796577-.33773 1.1095973-1.031056 1.11-1.79v-4.76z" fill="#90bae1"/><g fill="#ecf0f1"><circle id="Oval" cx="28" cy="23" r="1"/><circle id="Oval" cx="28" cy="31" r="1"/><circle id="Oval" cx="28" cy="39" r="1"/><circle id="Oval" cx="28" cy="47" r="1"/></g><path id="Shape" d="m43 6c-1.4880355 3.87026033-4.3308905 7.0684722-8 9-.9855483-2.2313781-2.7686219-4.0144517-5-5 2.1781854-.71083354 4.1420272-1.95930041 5.71-3.63.2154154-.248797.4125942-.51281612.59-.79-3.552148-.66491548-7.1872172-.76279571-10.77-.29-.6741049.07419086-1.3423357.19447241-2 .36.5220765 1.60150334 1.3622029 3.08107821 2.47 4.35-2.3253379 1.1236581-3.8571379 3.4213581-4 6-5-3-5-10-5-10l3.41-5.11c.370262-.55496203.9928604-.8887648 1.66-.89h15.86c.6671396.0012352 1.289738.33503797 1.66.89z" fill="#9fc9d3"/><path id="Shape" d="m25.53 5.29c-.6731413.07604322-1.3410392.19292533-2 .35-.167877-.45784566-.3081291-.92535251-.42-1.4-.1017414-.352104-.0027126-.73165424.2580846-.98916804s.6415716-.35172602.9923583-.24553197c.3507868.10619406.6153744.39577738.6895571.75470001.128751.51928282.2890485 1.03023108.48 1.53z" fill="#84b5cb"/><path id="Shape" d="m36.79 4.24c-.1208351.46386141-.2918439.91317864-.51 1.34-.13 0-.4-.12-2.11-.33.2902224-.46379637.5156448-.96510899.67-1.49.0571305-.26269046.2176224-.49131492.445273-.63430213.2276507-.14298721.5032848-.18829307.764727-.12569787.2656724.0610988.4948855.22801083.6345852.46210236.1396998.23409153.1777758.51506925.1054148.77789764z" fill="#84b5cb"/><path id="Shape" d="m47.25 54v1.07c-.0380309 1.6294544-1.3701019 2.9304438-3 2.93l-12.25.0000001v-4.0000001z" fill="#3b97d3"/><path id="Shape" d="m32 54v4.0000001l-16.23-.0000001c-1.6298981.0004438-2.9619691-1.3005456-3-2.93v-1.07z" fill="#2fa8cc"/><path id="Shape" d="m24 25v2l-4 2-4-2v-2c0-.5522847.4477153-1 1-1h6c.5522847 0 1 .4477153 1 1z" fill="#b0d3f0"/><path id="Shape" d="m44 25v2l-4 2-4-2v-2c0-.5522847.4477153-1 1-1h6c.5522847 0 1 .4477153 1 1z" fill="#b0d3f0"/></g></svg>