<svg height="512" viewBox="0 0 58 58" width="512" xmlns="http://www.w3.org/2000/svg"><g id="010---Suit-Jacket" fill="none"><path id="Shape" d="m13.63 30.3c0 .1-.14-.33-4.41 17.92-.0523036.2685702-.21237037.5039787-.44289775.6513651-.23052739.1473863-.51137831.193876-.77710225.1286349l-7-1.59c-.53318105-.1196243-.8716131-.6450846-.76-1.18l7.05-30.86c.30763949-1.4420012 1.61754321-2.4466846 3.09-2.37l10 6.29z" fill="#3f5c6c"/><path id="Shape" d="m44.39 30.17 4.39 18c.0401642.2777419.1951841.5258259.4272098.6836795.2320258.1578536.5197024.2109483.7927902.1463205l7-1.59c.5331811-.1196243.8716131-.6450846.76-1.18l-7-30.86c-.3103099-1.4617897-1.6491432-2.4723104-3.14-2.37l-12.62 3.33z" fill="#3f5c6c"/><g fill="#547580"><path id="Shape" d="m48.73 15.9c-4.56 7.87-4.92 17.72-4.66 26.1.36 12.06 1.93 16 1.93 16h-11.1c-2.2948523-.000634-4.2946458-1.5633592-4.85-3.79-.05-.29.05.19-1.05-4.21-.05.21-1 3.9-1.05 4.21-.5553542 2.2266408-2.5551477 3.789366-4.85 3.79h-11.1s1.57-3.94 1.93-16c.27-8.53-.11-18.24-4.66-26.1-.27988401-.5015889-.33060104-1.0993012-.13923155-1.6408769.1913695-.5415756.60635048-.9747303 1.13923155-1.1891231l5.42-2.26h26.65l5.42 2.26c.5276147.2203952.935665.6560799 1.1210637 1.1969852.1853986.5409054.1304137 1.1352983-.1510637 1.6330148z"/><path id="Shape" d="m41 11-3-8s-2-3-9-3-9 3-9 3l-3 8 5 3-1 5 8 9 8-9-1-5z"/><path id="Shape" d="m38 3c-.8090286 1.11040499-1.5600335 2.26194583-2.25 3.45-4.2951915-1.92003974-9.2048085-1.92003974-13.5 0-.6899665-1.18805417-1.4409714-2.33959501-2.25-3.45 0 0 2-3 9-3s9 3 9 3z"/></g><path id="Shape" d="m30 27v27l-1-4-1 4v-27c0-.5522847.4477153-1 1-1s1 .4477153 1 1z" fill="#3f5c6c"/><circle id="Oval" cx="25" cy="47" fill="#ecf0f1" r="1"/><circle id="Oval" cx="25" cy="40" fill="#ecf0f1" r="1"/><path id="Shape" d="m14 41h5v2c0 1.1045695-.8954305 2-2 2h-3.19z" fill="#7f8c8d"/><path id="Shape" d="m44.05 41h-5.05v2c0 1.1045695.8954305 2 2 2h3.19z" fill="#7f8c8d"/><path id="Shape" d="m21 41c0 .5522847-.4477153 1-1 1h-6.07c0-.64 0-1.31.05-2h6c.2686646-.0053744.5281869.0976051.7200714.2857271.1918845.1881221.2999823.4455545.2999286.7142729z" fill="#3f5c6c"/><path id="Shape" d="m44.07 42h-6.07c-.5522847 0-1-.4477153-1-1s.4477153-1 1-1h6c0 .69.05 1.36.07 2z" fill="#3f5c6c"/><path id="Shape" d="m22 14-1 4.84c-1.4477378 1.0013289-2.5069932 2.4701631-3 4.16-1.34-1.34-4.49-1.78-6.41-1.93-.6094196-1.7923033-1.3861783-3.5232698-2.32-5.17-.27988401-.5015889-.33060104-1.0993012-.13923155-1.6408769.1913695-.5415756.60635048-.9747303 1.13923155-1.1891231l5.42-2.26h1.41l-.1.19z" fill="#2c3e50"/><path id="Shape" d="m48.73 15.9c-.9338217 1.6467302-1.7105804 3.3776967-2.32 5.17-1.92.15-5.07.59-6.41 1.93-.4930068-1.6898369-1.5522622-3.1586711-3-4.16l-1-4.84 5-3-.07-.19h1.41l5.42 2.26c.5276147.2203952.935665.6560799 1.1210637 1.1969852.1853986.5409054.1304137 1.1352983-.1510637 1.6330148z" fill="#2c3e50"/><path id="Shape" d="m36 14 1 5-8 9c.7630487-5.4599197 2.1039043-10.823342 4-16 1.3093918-3.18500818 2.9875019-6.20560645 5-9l3 8z" fill="#7f8c8d"/><path id="Shape" d="m35.75 6.45c-1.0513485 1.78015635-1.9704892 3.6351493-2.75 5.55-1.8960957 5.176658-3.2369513 10.5400803-4 16-.7630487-5.4599197-2.1039043-10.823342-4-16-.7795108-1.9148507-1.6986515-3.76984365-2.75-5.55 4.2951915-1.92003974 9.2048085-1.92003974 13.5 0z" fill="#3f5c6c"/><path id="Shape" d="m21 19 1-5-5-3 3-8c2.0124981 2.79439355 3.6906082 5.81499182 5 9 1.8960957 5.176658 3.2369513 10.5400803 4 16z" fill="#7f8c8d"/></g></svg>