<?xml version="1.0" encoding="iso-8859-1"?>
<!-- Generator: Adobe Illustrator 19.0.0, SVG Export Plug-In . SVG Version: 6.00 Build 0)  -->
<svg version="1.1" id="Layer_1" xmlns="http://www.w3.org/2000/svg" xmlns:xlink="http://www.w3.org/1999/xlink" x="0px" y="0px"
	 viewBox="0 0 512 512" style="enable-background:new 0 0 512 512;" xml:space="preserve">
<g transform="translate(0 -1)">
	<path style="fill:#3E5A70;" d="M256,53.966h-52.966c0,17.655,35.31,105.931,52.966,123.586
		c17.655-17.655,52.966-105.931,52.966-123.586H256z"/>
	<g>
		<path style="fill:#2C3E50;" d="M132.414,504.172c0,0,61.793,8.828,123.586,8.828s123.586-8.828,123.586-8.828
			c0-74.664-35.31-220.69-35.31-220.69c0-38.338,8.21-78.468,17.841-105.746c0,0,18.573,43.396,24.638,61.608
			c6.073,18.211,45.798,238.345,45.798,238.345l61.793-8.828c-20.966-102.073-68.414-378.483-88.276-397.241
			c-7.998-7.548-36.873-18.909-61.793-26.483l-13.374,72.448c-5.791,33.333-22.06,64.335-47.642,86.466
			c-9.092,7.865-18.538,14.151-27.26,17.638c-8.722-3.487-18.167-9.772-27.26-17.638c-25.582-22.131-41.852-53.133-47.643-86.466
			l-13.374-72.448c-24.92,7.574-53.795,18.935-61.793,26.483c-19.862,18.759-67.31,295.168-88.276,397.241l61.793,8.828
			c0,0,39.724-220.134,45.798-238.345c6.065-18.211,24.638-61.608,24.638-61.608c9.631,27.277,17.841,67.407,17.841,105.746
			C167.724,283.483,132.414,429.509,132.414,504.172"/>
		<path style="fill:#2C3E50;" d="M317.793,9.828C308.966,1,282.483,1,256,1s-52.966,0-61.793,8.828l8.828,44.138H256h52.966
			L317.793,9.828z"/>
	</g>
	<g>
		<path style="fill:#1E2D3A;" d="M228.739,204.052c9.092,7.865,18.538,14.151,27.26,17.638v-44.138
			c-17.655-17.655-52.966-105.931-52.966-123.586l-8.828-44.138l-26.483,35.31l13.383,72.448
			C186.887,150.919,203.156,181.921,228.739,204.052"/>
		<path style="fill:#1E2D3A;" d="M283.261,204.052c-9.092,7.865-18.538,14.151-27.26,17.638v-44.138
			c17.655-17.655,52.965-105.931,52.965-123.586l8.828-44.138l26.483,35.31l-13.383,72.448
			C325.113,150.919,308.844,181.921,283.261,204.052"/>
	</g>
	<g>
		<path style="fill:#3E5A70;" d="M264.828,274.655c0-4.873-3.955-8.828-8.828-8.828s-8.828,3.955-8.828,8.828
			s3.955,8.828,8.828,8.828S264.828,279.528,264.828,274.655"/>
		<path style="fill:#3E5A70;" d="M264.828,327.621c0-4.873-3.955-8.828-8.828-8.828s-8.828,3.955-8.828,8.828
			s3.955,8.828,8.828,8.828S264.828,332.494,264.828,327.621"/>
		<path style="fill:#3E5A70;" d="M264.828,380.586c0-4.873-3.955-8.828-8.828-8.828s-8.828,3.955-8.828,8.828
			s3.955,8.828,8.828,8.828S264.828,385.459,264.828,380.586"/>
		<path style="fill:#3E5A70;" d="M264.828,433.552c0-4.873-3.955-8.828-8.828-8.828s-8.828,3.955-8.828,8.828
			s3.955,8.828,8.828,8.828S264.828,438.425,264.828,433.552"/>
	</g>
</g>
<g>
</g>
<g>
</g>
<g>
</g>
<g>
</g>
<g>
</g>
<g>
</g>
<g>
</g>
<g>
</g>
<g>
</g>
<g>
</g>
<g>
</g>
<g>
</g>
<g>
</g>
<g>
</g>
<g>
</g>
</svg>
