<?xml version="1.0" encoding="iso-8859-1"?>
<!-- Generator: Adobe Illustrator 19.0.0, SVG Export Plug-In . SVG Version: 6.00 Build 0)  -->
<svg version="1.1" id="Layer_1" xmlns="http://www.w3.org/2000/svg" xmlns:xlink="http://www.w3.org/1999/xlink" x="0px" y="0px"
	 viewBox="0 0 512.004 512.004" style="enable-background:new 0 0 512.004 512.004;" xml:space="preserve">
<g transform="translate(0 -1)">
	<path style="fill:#ECF0F1;" d="M379.588,495.349L379.588,495.349c0-47.766-14.442-121.07-24.858-167.724l-10.222-52.966
		c1.121-35.584,8.713-71.724,17.611-96.918c0,0,18.573,43.405,24.638,61.608c6.073,18.211,45.798,238.345,45.798,238.345
		l61.793-8.828c-20.966-102.073-68.414-378.483-88.276-397.241c-7.142-6.744-30.199-19.076-52.966-26.483
		c1.501,1.88-28.487,38.841-40.483,42.717c-11.485,3.708-21.963,0.547-32.433-4.378c-8.077-3.805-15.969-8.422-24.188-11.953
		c-8.218,3.531-16.11,8.148-24.188,11.953c-10.47,4.926-20.948,8.086-32.433,4.378c-11.997-3.875-41.984-40.836-40.483-42.717
		c-22.766,7.406-45.824,19.738-52.966,26.483c-19.862,18.759-67.31,295.168-88.276,397.241l61.793,8.828
		c0,0,39.724-220.134,45.798-238.345c6.065-18.202,24.638-61.608,24.638-61.608c8.898,25.194,16.49,61.334,17.611,96.918
		l-10.222,52.966c-10.417,46.654-24.858,119.958-24.858,167.724c35.31,17.655,88.276,17.655,123.586,17.655
		S344.278,513.004,379.588,495.349C379.571,495.349,379.606,495.349,379.588,495.349"/>
	<polygon style="fill:#8F979B;" points="256.002,71.524 317.795,1 194.209,1 	"/>
	<g>
		<path style="fill:#BDC3C7;" d="M194.209,1.004l61.793,70.515c-8.218,3.54-16.11,8.166-24.188,11.961
			c-10.47,4.926-20.948,8.086-32.433,4.378c-11.997-3.875-41.984-40.836-40.483-42.717L194.209,1.004z"/>
		<path style="fill:#BDC3C7;" d="M317.795,1.004l-61.793,70.515c8.218,3.54,16.11,8.166,24.188,11.961
			c10.47,4.926,20.948,8.086,32.433,4.378c11.997-3.875,41.984-40.836,40.483-42.717L317.795,1.004z"/>
		<path style="fill:#BDC3C7;" d="M247.175,142.246c0-4.873-3.955-8.828-8.828-8.828s-8.828,3.955-8.828,8.828
			s3.955,8.828,8.828,8.828S247.175,147.119,247.175,142.246"/>
		<path style="fill:#BDC3C7;" d="M282.485,142.246c0-4.873-3.955-8.828-8.828-8.828s-8.828,3.955-8.828,8.828
			s3.955,8.828,8.828,8.828S282.485,147.119,282.485,142.246"/>
		<path style="fill:#BDC3C7;" d="M247.175,195.211c0-4.873-3.955-8.828-8.828-8.828s-8.828,3.955-8.828,8.828
			s3.955,8.828,8.828,8.828S247.175,200.084,247.175,195.211"/>
		<path style="fill:#BDC3C7;" d="M282.485,195.211c0-4.873-3.955-8.828-8.828-8.828s-8.828,3.955-8.828,8.828
			s3.955,8.828,8.828,8.828S282.485,200.084,282.485,195.211"/>
		<path style="fill:#BDC3C7;" d="M247.175,248.177c0-4.873-3.955-8.828-8.828-8.828s-8.828,3.955-8.828,8.828
			c0,4.873,3.955,8.828,8.828,8.828S247.175,253.05,247.175,248.177"/>
		<path style="fill:#BDC3C7;" d="M282.485,248.177c0-4.873-3.955-8.828-8.828-8.828s-8.828,3.955-8.828,8.828
			c0,4.873,3.955,8.828,8.828,8.828S282.485,253.05,282.485,248.177"/>
		<path style="fill:#BDC3C7;" d="M247.175,301.142c0-4.873-3.955-8.828-8.828-8.828s-8.828,3.955-8.828,8.828
			c0,4.873,3.955,8.828,8.828,8.828S247.175,306.015,247.175,301.142"/>
		<path style="fill:#BDC3C7;" d="M282.485,301.142c0-4.873-3.955-8.828-8.828-8.828s-8.828,3.955-8.828,8.828
			c0,4.873,3.955,8.828,8.828,8.828S282.485,306.015,282.485,301.142"/>
		<path style="fill:#BDC3C7;" d="M247.175,354.108c0-4.873-3.955-8.828-8.828-8.828s-8.828,3.955-8.828,8.828
			c0,4.873,3.955,8.828,8.828,8.828S247.175,358.981,247.175,354.108"/>
		<path style="fill:#BDC3C7;" d="M282.485,354.108c0-4.873-3.955-8.828-8.828-8.828s-8.828,3.955-8.828,8.828
			c0,4.873,3.955,8.828,8.828,8.828S282.485,358.981,282.485,354.108"/>
		<path style="fill:#BDC3C7;" d="M247.175,407.073c0-4.873-3.955-8.828-8.828-8.828s-8.828,3.955-8.828,8.828
			c0,4.873,3.955,8.828,8.828,8.828S247.175,411.946,247.175,407.073"/>
		<path style="fill:#BDC3C7;" d="M282.485,407.073c0-4.873-3.955-8.828-8.828-8.828s-8.828,3.955-8.828,8.828
			c0,4.873,3.955,8.828,8.828,8.828S282.485,411.946,282.485,407.073"/>
		<path style="fill:#BDC3C7;" d="M247.175,460.039c0-4.873-3.955-8.828-8.828-8.828s-8.828,3.955-8.828,8.828
			c0,4.873,3.955,8.828,8.828,8.828S247.175,464.912,247.175,460.039"/>
		<path style="fill:#BDC3C7;" d="M282.485,460.039c0-4.873-3.955-8.828-8.828-8.828s-8.828,3.955-8.828,8.828
			c0,4.873,3.955,8.828,8.828,8.828S282.485,464.912,282.485,460.039"/>
		<path style="fill:#BDC3C7;" d="M316.927,85.582c-1.58,1.042-3.054,1.871-4.308,2.269c-4.281,1.386-8.422,1.81-12.482,1.554
			v422.162c0,0.194,0.106,0.353,0.115,0.547c5.8-0.318,11.661-0.724,17.54-1.315V89.281
			C317.792,87.948,317.456,86.712,316.927,85.582"/>
		<path style="fill:#BDC3C7;" d="M211.864,511.565V89.403c-4.052,0.256-8.201-0.168-12.482-1.554
			c-1.245-0.397-2.719-1.227-4.299-2.269c-0.53,1.13-0.874,2.366-0.874,3.699v421.517c5.879,0.591,11.75,1.006,17.54,1.315
			C211.767,511.927,211.864,511.759,211.864,511.565"/>
	</g>
</g>
<g>
</g>
<g>
</g>
<g>
</g>
<g>
</g>
<g>
</g>
<g>
</g>
<g>
</g>
<g>
</g>
<g>
</g>
<g>
</g>
<g>
</g>
<g>
</g>
<g>
</g>
<g>
</g>
<g>
</g>
</svg>
