<?xml version="1.0" encoding="iso-8859-1"?>
<!-- Generator: Adobe Illustrator 19.0.0, SVG Export Plug-In . SVG Version: 6.00 Build 0)  -->
<svg version="1.1" id="Layer_1" xmlns="http://www.w3.org/2000/svg" xmlns:xlink="http://www.w3.org/1999/xlink" x="0px" y="0px"
	 viewBox="0 0 512.004 512.004" style="enable-background:new 0 0 512.004 512.004;" xml:space="preserve">
<g transform="translate(0 -1)">
	<g>
		<path style="fill:#E4C05C;" d="M194.209,9.828c-9.251,3.743-17.346,11.555-24.55,18.591c-0.088,0.088-0.177,0.177-0.265,0.265
			c-20.895,20.18-10.487,60.354,24.814,60.593c6.268,0.044,9.454,0,17.655,0l-31.311,23.066
			c-14.23,10.134-17.152,30.517-5.614,43.635c0.177,0.194,0.353,0.397,0.538,0.6c18.211,20.136,56.797,65.112,80.525,65.112v-44.138
			C217.938,154.565,194.209,9.828,194.209,9.828"/>
		<path style="fill:#E4C05C;" d="M317.795,9.828c9.251,3.743,17.346,11.555,24.549,18.591c0.088,0.088,0.177,0.177,0.265,0.265
			c20.895,20.18,10.487,60.354-24.814,60.593c-6.268,0.044-9.454,0-17.655,0l31.311,23.066c14.23,10.134,17.152,30.517,5.614,43.635
			c-0.177,0.194-0.353,0.397-0.538,0.6c-18.211,20.136-56.797,65.112-80.525,65.112v-44.138
			C294.067,154.565,317.795,9.828,317.795,9.828"/>
	</g>
	<g>
		<path style="fill:#B19046;" d="M256.002,221.69c23.729,0,62.314-44.977,80.525-65.112c0.185-0.203,0.362-0.406,0.538-0.6
			c11.538-13.118,8.616-33.501-5.614-43.635L300.14,89.276c8.201,0,11.388,0.044,17.655,0c25.962-0.177,38.4-21.945,34.887-41.472
			c22.669,7.398,46.283,17.108,53.389,23.817c19.862,18.759,67.31,295.168,88.276,397.241l-61.793,8.828
			c0,0-39.724-220.142-45.789-238.345c-6.073-18.202-24.647-61.608-24.647-61.608c-9.631,27.277-17.841,67.407-17.841,105.746
			c0,0,35.31,146.026,35.31,220.69c0,0-61.793,8.828-123.586,8.828s-123.586-8.828-123.586-8.828
			c0-74.664,35.31-220.69,35.31-220.69c0-38.338-8.21-78.468-17.841-105.746c0,0-18.573,43.405-24.647,61.608
			C119.175,257.547,79.45,477.69,79.45,477.69l-61.793-8.828C38.623,366.789,86.071,90.379,105.933,71.621
			c7.106-6.709,30.72-16.419,53.389-23.817c-3.513,19.527,8.925,41.295,34.887,41.472c6.268,0.044,9.454,0,17.655,0l-31.311,23.066
			c-14.23,10.134-17.152,30.517-5.614,43.635c0.177,0.194,0.353,0.397,0.538,0.6C193.688,176.713,232.274,221.69,256.002,221.69"/>
		<path style="fill:#B19046;" d="M256.002,1c-26.483,0-50.158,4.361-61.793,8.828l8.828,44.138h52.966h52.966l8.828-44.138
			C306.161,5.361,282.485,1,256.002,1"/>
	</g>
	<path style="fill:#937438;" d="M256.002,53.966h-52.93c10.169,44.579,28.61,108.906,52.93,123.586
		c24.32-14.68,42.761-79.007,52.93-123.586H256.002z"/>
	<g>
		<path style="fill:#E4C05C;" d="M273.563,265.828h-35.31c-4.873,0-8.828-3.946-8.828-8.828s3.955-8.828,8.828-8.828h35.31
			c4.873,0,8.828,3.946,8.828,8.828S278.436,265.828,273.563,265.828"/>
		<path style="fill:#E4C05C;" d="M273.563,318.793h-35.31c-4.873,0-8.828-3.946-8.828-8.828s3.955-8.828,8.828-8.828h35.31
			c4.873,0,8.828,3.946,8.828,8.828S278.436,318.793,273.563,318.793"/>
		<path style="fill:#E4C05C;" d="M273.563,371.759h-35.31c-4.873,0-8.828-3.946-8.828-8.828c0-4.882,3.955-8.828,8.828-8.828h35.31
			c4.873,0,8.828,3.946,8.828,8.828C282.391,367.813,278.436,371.759,273.563,371.759"/>
		<path style="fill:#E4C05C;" d="M273.563,424.724h-35.31c-4.873,0-8.828-3.946-8.828-8.828c0-4.882,3.955-8.828,8.828-8.828h35.31
			c4.873,0,8.828,3.946,8.828,8.828C282.391,420.778,278.436,424.724,273.563,424.724"/>
		<path style="fill:#E4C05C;" d="M273.563,477.69h-35.31c-4.873,0-8.828-3.946-8.828-8.828c0-4.882,3.955-8.828,8.828-8.828h35.31
			c4.873,0,8.828,3.946,8.828,8.828C282.391,473.744,278.436,477.69,273.563,477.69"/>
		<path style="fill:#E4C05C;" d="M357.855,345.276h-48.79c0,35.972,26.915,66.295,61.696,70.691h0.018
			C366.868,391.268,362.189,366.568,357.855,345.276"/>
		<path style="fill:#E4C05C;" d="M141.23,415.967h0.009c34.781-4.396,61.705-34.719,61.705-70.691h-48.79
			C149.811,366.568,145.141,391.268,141.23,415.967"/>
		<path style="fill:#E4C05C;" d="M264.83,512.925V221.694c0-0.591-0.23-1.112-0.335-1.668c-2.975,1.024-5.835,1.668-8.492,1.668
			s-5.517-0.644-8.492-1.668c-0.106,0.556-0.335,1.077-0.335,1.668v291.231c2.94,0.035,5.879,0.079,8.828,0.079
			C258.951,513.004,261.89,512.96,264.83,512.925"/>
	</g>
</g>
<g>
</g>
<g>
</g>
<g>
</g>
<g>
</g>
<g>
</g>
<g>
</g>
<g>
</g>
<g>
</g>
<g>
</g>
<g>
</g>
<g>
</g>
<g>
</g>
<g>
</g>
<g>
</g>
<g>
</g>
</svg>
