<?xml version="1.0" encoding="iso-8859-1"?>
<!-- Generator: Adobe Illustrator 19.0.0, SVG Export Plug-In . SVG Version: 6.00 Build 0)  -->
<svg version="1.1" id="Layer_1" xmlns="http://www.w3.org/2000/svg" xmlns:xlink="http://www.w3.org/1999/xlink" x="0px" y="0px"
	 viewBox="0 0 512.003 512.003" style="enable-background:new 0 0 512.003 512.003;" xml:space="preserve">
<g transform="translate(0 -1)">
	<path style="fill:#B19046;" d="M256.001,71.524c-8.218,3.531-16.11,8.157-24.188,11.953c-10.47,4.935-20.948,8.086-32.433,4.378
		c-11.997-3.875-41.984-40.828-40.483-42.717c-22.766,7.415-45.824,19.747-52.966,26.483
		C86.07,90.379,38.622,366.798,17.657,468.862l61.793,8.828c0,0,39.724-220.134,45.789-238.345
		c6.073-18.202,24.647-61.608,24.647-61.608c8.898,25.194,16.49,61.343,17.611,96.918h-8.598
		c-3.293,15.819-5.455,34.013-8.828,52.966h7.203c-10.417,46.663-24.858,119.967-24.858,167.724h1.315
		c69.8-0.477,122.271-40.457,122.271-105.931c0,65.483,52.489,105.419,122.297,105.931h1.289
		c0-47.757-14.442-121.062-24.858-167.724h7.203c-3.372-18.953-5.535-37.146-8.828-52.966h-8.598
		c1.121-35.575,8.713-71.724,17.611-96.918c0,0,18.573,43.405,24.647,61.608c6.065,18.211,45.789,238.345,45.789,238.345
		l61.793-8.828C473.381,366.798,425.932,90.379,406.07,71.621c-7.141-6.735-30.199-19.068-52.966-26.483
		c1.501,1.889-28.487,38.841-40.483,42.717c-11.485,3.708-21.963,0.556-32.433-4.378C272.112,79.68,264.22,75.055,256.001,71.524"/>
	<g>
		<path style="fill:#937438;" d="M379.215,495.392C308.939,495.321,256,455.182,256,389.416
			c0,65.783-52.957,105.966-123.251,105.975h-0.009l-0.327-0.044c35.31,17.655,88.276,17.655,123.586,17.655
			s88.276,0,123.586-17.655l-0.318,0.044H379.215"/>
		<path style="fill:#937438;" d="M256.001,460.039c-4.873,0-8.828-3.946-8.828-8.828V336.453c0-4.882,3.955-8.828,8.828-8.828
			c4.873,0,8.828,3.946,8.828,8.828v114.759C264.829,456.093,260.874,460.039,256.001,460.039"/>
		<path style="fill:#937438;" d="M256.001,274.66c-4.873,0-8.828-3.946-8.828-8.828V71.625c0-4.882,3.955-8.828,8.828-8.828
			c4.873,0,8.828,3.946,8.828,8.828v194.207C264.829,270.714,260.874,274.66,256.001,274.66"/>
	</g>
	<polygon style="fill:#B19046;" points="256.001,71.524 317.794,1 194.208,1 	"/>
	<g>
		<path style="fill:#E4C05C;" d="M194.208,1.004l61.793,70.515c-8.218,3.54-16.11,8.166-24.188,11.961
			c-10.47,4.926-20.948,8.086-32.433,4.378c-11.997-3.875-41.984-40.836-40.483-42.717L194.208,1.004z"/>
		<path style="fill:#E4C05C;" d="M317.794,1.004l-61.793,70.515c8.218,3.54,16.11,8.166,24.188,11.961
			c10.47,4.926,20.948,8.086,32.433,4.378c11.997-3.875,41.984-40.836,40.483-42.717L317.794,1.004z"/>
	</g>
	<path style="fill:#937438;" d="M256.001,336.453L256.001,336.453c-14.627,0-26.483-11.855-26.483-26.483v-17.655
		c0-14.627,11.855-26.483,26.483-26.483c14.627,0,26.483,11.855,26.483,26.483v17.655
		C282.484,324.597,270.629,336.453,256.001,336.453"/>
	<g>
		<path style="fill:#E4C05C;" d="M229.519,309.97v-17.655c0-6.815,2.648-12.959,6.877-17.655h-77.497
			c-3.293,15.819-5.455,34.004-8.828,52.966h86.325C232.167,322.929,229.519,316.785,229.519,309.97"/>
		<path style="fill:#E4C05C;" d="M282.484,309.97v-17.655c0-6.815-2.648-12.959-6.877-17.655h77.497
			c3.293,15.819,5.455,34.004,8.828,52.966h-86.325C279.836,322.929,282.484,316.785,282.484,309.97"/>
	</g>
	<path style="fill:#FFFFFF;" d="M264.829,301.142c0-4.873-3.955-8.828-8.828-8.828c-4.873,0-8.828,3.955-8.828,8.828
		c0,4.873,3.955,8.828,8.828,8.828C260.874,309.97,264.829,306.015,264.829,301.142"/>
</g>
<g>
</g>
<g>
</g>
<g>
</g>
<g>
</g>
<g>
</g>
<g>
</g>
<g>
</g>
<g>
</g>
<g>
</g>
<g>
</g>
<g>
</g>
<g>
</g>
<g>
</g>
<g>
</g>
<g>
</g>
</svg>
