<?xml version="1.0" encoding="iso-8859-1"?>
<!-- Generator: Adobe Illustrator 19.0.0, SVG Export Plug-In . SVG Version: 6.00 Build 0)  -->
<svg version="1.1" id="Layer_1" xmlns="http://www.w3.org/2000/svg" xmlns:xlink="http://www.w3.org/1999/xlink" x="0px" y="0px"
	 viewBox="0 0 511.755 511.755" style="enable-background:new 0 0 511.755 511.755;" xml:space="preserve">
<g>
	<path style="fill:#CBB292;" d="M354.058,326.621c10.24,48.154,25.406,118.731,25.406,167.477
		c-70.294-0.009-123.586-40.148-123.586-105.931c0,65.783-53.292,105.922-123.586,105.931c0-48.605,14.963-118.36,25.406-167.477
		l9.675-52.966c-1.121-35.584-8.713-71.724-17.611-96.918c0,0-18.573,43.396-24.638,61.608
		C119.05,256.556,79.326,476.69,79.326,476.69l-61.793-8.828C38.498,365.789,85.946,89.379,105.808,70.621
		c7.106-6.709,30.72-16.419,53.389-23.817c-3.513,19.527,8.925,41.295,34.887,41.472c6.268,0.044,9.454,0,17.655,0l-31.303,23.066
		c-14.23,10.134-17.161,30.517-5.623,43.635c0.177,0.194,0.362,0.397,0.538,0.6c18.211,20.136,56.806,65.112,80.525,65.112
		c23.729,0,62.323-44.977,80.525-65.112c0.185-0.203,0.362-0.406,0.538-0.6c11.538-13.118,8.616-33.501-5.614-43.635l-31.311-23.066
		c8.201,0,11.388,0.044,17.655,0c25.962-0.177,38.4-21.945,34.887-41.472c22.669,7.398,46.283,17.108,53.389,23.817
		c19.862,18.759,67.31,295.168,88.276,397.241l-61.793,8.828c0,0-39.724-220.134-45.789-238.345
		c-6.073-18.211-24.647-61.608-24.647-61.608c-8.898,25.194-16.49,61.334-17.611,96.918L354.058,326.621z"/>
	<g>
		<path style="fill:#7F6E5D;" d="M194.086,8.828c-9.251,3.743-17.346,11.555-24.55,18.591c-0.088,0.088-0.177,0.177-0.265,0.265
			c-20.895,20.18-10.487,60.354,24.814,60.593c6.268,0.044,9.454,0,17.655,0l-31.311,23.066
			c-14.23,10.134-17.152,30.517-5.614,43.635c0.177,0.194,0.353,0.397,0.538,0.6c18.211,20.136,56.797,65.112,80.525,65.112v-44.138
			C217.814,153.565,194.086,8.828,194.086,8.828"/>
		<path style="fill:#7F6E5D;" d="M317.672,8.828c9.251,3.743,17.346,11.555,24.549,18.591c0.088,0.088,0.177,0.177,0.265,0.265
			c20.895,20.18,10.496,60.354-24.814,60.593c-6.268,0.044-9.454,0-17.655,0l31.311,23.066c14.23,10.134,17.152,30.517,5.614,43.635
			c-0.177,0.194-0.353,0.397-0.538,0.6c-18.211,20.136-56.797,65.112-80.525,65.112v-44.138
			C293.944,153.565,317.672,8.828,317.672,8.828"/>
	</g>
	<path style="fill:#CBB292;" d="M255.879,0c-26.483,0-50.158,4.361-61.793,8.828l8.828,44.138h52.966h52.966l8.828-44.138
		C306.037,4.361,282.362,0,255.879,0"/>
	<path style="fill:#5E4F41;" d="M255.879,52.966h-52.93c10.169,44.579,28.61,108.906,52.93,123.586
		c24.32-14.68,42.761-79.007,52.93-123.586H255.879z"/>
	<g>
		<path style="fill:#7F6E5D;" d="M255.879,388.168c0,65.783-53.292,105.922-123.586,105.931
			c35.31,17.655,88.276,17.655,123.586,17.655s88.276,0,123.586-17.655C309.171,494.091,255.879,453.952,255.879,388.168"/>
		<path style="fill:#7F6E5D;" d="M255.879,441.134c-4.882,0-8.828-3.946-8.828-8.828V220.691c0-4.873,3.946-8.828,8.828-8.828
			s8.828,3.955,8.828,8.828v211.615C264.707,437.188,260.761,441.134,255.879,441.134"/>
		<path style="fill:#7F6E5D;" d="M157.7,326.621c-6.506,30.588-14.76,69.182-20.056,105.684h15.078
			c27.674,0,50.114-22.44,50.114-50.114v-55.817h-45.091L157.7,326.621z"/>
		<path style="fill:#7F6E5D;" d="M354.058,326.621l-0.044-0.247h-45.091v55.817c0,27.674,22.44,50.114,50.114,50.114h15.078
			C368.773,395.52,360.458,356.696,354.058,326.621"/>
	</g>
</g>
<g>
</g>
<g>
</g>
<g>
</g>
<g>
</g>
<g>
</g>
<g>
</g>
<g>
</g>
<g>
</g>
<g>
</g>
<g>
</g>
<g>
</g>
<g>
</g>
<g>
</g>
<g>
</g>
<g>
</g>
</svg>
