<?xml version="1.0" encoding="iso-8859-1"?>
<!-- Generator: Adobe Illustrator 19.0.0, SVG Export Plug-In . SVG Version: 6.00 Build 0)  -->
<svg version="1.1" id="Layer_1" xmlns="http://www.w3.org/2000/svg" xmlns:xlink="http://www.w3.org/1999/xlink" x="0px" y="0px"
	 viewBox="0 0 511.755 511.755" style="enable-background:new 0 0 511.755 511.755;" xml:space="preserve">
<g transform="translate(0 -1)">
	<path style="fill:#805333;" d="M405.946,71.621c-7.106-6.709-30.72-16.419-53.389-23.817c3.513,19.527-8.925,41.295-34.887,41.472
		c-6.268,0.044-9.454,0-17.655,0l31.311,23.066c14.23,10.134,17.152,30.517,5.614,43.635c-0.177,0.194-0.353,0.397-0.538,0.6
		c-18.211,20.136-56.806,65.112-80.525,65.112s-62.314-44.977-80.525-65.112c-0.185-0.203-0.362-0.406-0.538-0.6
		c-11.538-13.118-8.616-33.501,5.614-43.635l31.311-23.066c-8.201,0-11.388,0.044-17.655,0c-25.962-0.177-38.4-21.945-34.887-41.472
		c-22.669,7.398-46.283,17.108-53.389,23.817c-19.862,18.759-67.31,295.177-88.276,397.241l61.793,8.828
		c0,0,39.724-220.142,45.798-238.345c6.065-18.211,24.638-61.608,24.638-61.608c8.898,25.194,16.49,70.162,17.611,105.746h-8.598
		c-3.293,15.819-5.455,34.004-8.828,52.966h7.751c-10.443,49.117-25.406,110.045-25.406,158.649
		c70.294-0.009,123.586-40.148,123.586-105.931c0,65.783,53.292,105.922,123.586,105.931c0-48.605-14.963-109.533-25.406-158.649
		h7.751c-3.372-18.962-5.535-37.146-8.828-52.966h-8.598c1.121-35.584,8.713-80.552,17.611-105.746c0,0,18.573,43.396,24.638,61.608
		c6.073,18.202,45.798,238.345,45.798,238.345l61.793-8.828C473.257,366.798,425.808,90.379,405.946,71.621"/>
	<g>
		<path style="fill:#633E25;" d="M194.084,9.828c-9.251,3.743-17.346,11.555-24.55,18.591c-0.088,0.088-0.177,0.177-0.265,0.265
			c-20.895,20.18-10.487,60.354,24.814,60.593c6.268,0.044,9.454,0,17.655,0l-31.311,23.066
			c-14.23,10.134-17.152,30.517-5.614,43.635c0.177,0.194,0.353,0.397,0.538,0.6c18.211,20.136,56.797,65.112,80.525,65.112v-44.138
			C217.813,154.565,194.084,9.828,194.084,9.828"/>
		<path style="fill:#633E25;" d="M317.67,9.828c9.251,3.743,17.346,11.555,24.549,18.591c0.088,0.088,0.177,0.177,0.265,0.265
			c20.895,20.18,10.487,60.354-24.814,60.593c-6.268,0.044-9.454,0-17.655,0l31.311,23.066c14.23,10.134,17.152,30.517,5.614,43.635
			c-0.177,0.194-0.353,0.397-0.538,0.6c-18.211,20.136-56.797,65.112-80.525,65.112v-44.138
			C293.942,154.565,317.67,9.828,317.67,9.828"/>
	</g>
	<path style="fill:#805333;" d="M255.877,1c-26.483,0-50.158,4.361-61.793,8.828l8.828,44.138h52.966h52.966l8.828-44.138
		C306.036,5.361,282.36,1,255.877,1"/>
	<path style="fill:#472C19;" d="M255.877,53.966h-52.93c10.169,44.579,28.61,108.906,52.93,123.586
		c24.32-14.68,42.761-79.007,52.93-123.586H255.877z"/>
	<g>
		<path style="fill:#633E25;" d="M255.877,389.168c0,65.783-53.292,105.922-123.586,105.931
			c35.31,17.655,88.276,17.655,123.586,17.655s88.276,0,123.586-17.655C309.169,495.091,255.877,454.952,255.877,389.168"/>
		<path style="fill:#633E25;" d="M229.395,248.172c0-4.873-3.955-8.828-8.828-8.828c-4.873,0-8.828,3.955-8.828,8.828
			s3.955,8.828,8.828,8.828C225.44,257,229.395,253.045,229.395,248.172"/>
		<path style="fill:#633E25;" d="M300.015,248.172c0-4.873-3.955-8.828-8.828-8.828s-8.828,3.955-8.828,8.828
			s3.955,8.828,8.828,8.828S300.015,253.045,300.015,248.172"/>
		<path style="fill:#633E25;" d="M229.395,371.759c0-4.873-3.955-8.828-8.828-8.828c-4.873,0-8.828,3.955-8.828,8.828
			c0,4.873,3.955,8.828,8.828,8.828C225.44,380.586,229.395,376.631,229.395,371.759"/>
		<path style="fill:#633E25;" d="M300.015,371.759c0-4.873-3.955-8.828-8.828-8.828s-8.828,3.955-8.828,8.828
			c0,4.873,3.955,8.828,8.828,8.828S300.015,376.631,300.015,371.759"/>
		<path style="fill:#633E25;" d="M229.395,415.897c0-4.873-3.955-8.828-8.828-8.828c-4.873,0-8.828,3.955-8.828,8.828
			c0,4.873,3.955,8.828,8.828,8.828C225.44,424.724,229.395,420.769,229.395,415.897"/>
		<path style="fill:#633E25;" d="M300.015,415.897c0-4.873-3.955-8.828-8.828-8.828s-8.828,3.955-8.828,8.828
			c0,4.873,3.955,8.828,8.828,8.828S300.015,420.769,300.015,415.897"/>
		<path style="fill:#633E25;" d="M229.395,318.793v-17.655c0-6.815,2.648-12.959,6.877-17.655h-77.497
			c-3.293,15.819-5.455,34.004-8.828,52.966h86.325C232.043,331.752,229.395,325.608,229.395,318.793"/>
		<path style="fill:#633E25;" d="M282.36,318.793v-17.655c0-6.815-2.648-12.959-6.877-17.655h77.497
			c3.293,15.819,5.455,34.004,8.828,52.966h-86.325C279.712,331.752,282.36,325.608,282.36,318.793"/>
		<path style="fill:#633E25;" d="M255.877,283.483c-4.882,0-8.828-3.946-8.828-8.828V221.69c0-4.882,3.946-8.828,8.828-8.828
			c4.882,0,8.828,3.946,8.828,8.828v52.966C264.705,279.537,260.759,283.483,255.877,283.483"/>
		<path style="fill:#633E25;" d="M255.877,486.517c-4.882,0-8.828-3.946-8.828-8.828V345.276c0-4.882,3.946-8.828,8.828-8.828
			c4.882,0,8.828,3.946,8.828,8.828V477.69C264.705,482.571,260.759,486.517,255.877,486.517"/>
	</g>
	<path style="fill:#472C19;" d="M255.877,345.276L255.877,345.276c-14.627,0-26.483-11.855-26.483-26.483v-17.655
		c0-14.627,11.855-26.483,26.483-26.483s26.483,11.855,26.483,26.483v17.655C282.36,333.42,270.505,345.276,255.877,345.276"/>
	<path style="fill:#805333;" d="M264.705,309.966c0-4.873-3.955-8.828-8.828-8.828c-4.873,0-8.828,3.955-8.828,8.828
		c0,4.873,3.955,8.828,8.828,8.828C260.75,318.793,264.705,314.838,264.705,309.966"/>
</g>
<g>
</g>
<g>
</g>
<g>
</g>
<g>
</g>
<g>
</g>
<g>
</g>
<g>
</g>
<g>
</g>
<g>
</g>
<g>
</g>
<g>
</g>
<g>
</g>
<g>
</g>
<g>
</g>
<g>
</g>
</svg>
