<svg height="512" viewBox="0 0 34 58" width="512" xmlns="http://www.w3.org/2000/svg"><g id="029---Dungarees" fill="none" transform="translate(0 -1)"><path id="Shape" d="m4 3c.00223279-.52957685.21441221-1.03664971.59-1.41.67693291-.54261803 1.55896351-.75855083 2.41-.59h3c0 12.6.4 5.79-2 31h-4z" fill="#2fa8cc"/><path id="Shape" d="m28 1c1.1045695 0 2 .8954305 2 2v28.65l-5 .35v-31z" fill="#2fa8cc"/><path id="Shape" d="m12 3v13h-4v-13c0-1.1045695-.8954305-2-2-2h4c1.1045695 0 2 .8954305 2 2z" fill="#67b9cc"/><path id="Shape" d="m22 3v13h4v-13c0-1.1045695.8954305-2 2-2h-4c-1.1045695 0-2 .8954305-2 2z" fill="#67b9cc"/><path id="Shape" d="m34 34v24c0 .5522847-.4477153 1-1 1h-12c-.5522847 0-1-.4477153-1-1v-10c-.0016676-.7387322-.275843-1.4508762-.77-2-.8300978-.9224465-2.1424627-1.2385963-3.3015575-.7953478s-1.9256482 1.5543957-1.9284425 2.7953478v10c0 .5522847-.4477153 1-1 1h-12c-.55228475 0-1-.4477153-1-1v-24c0-1.1045695.8954305-2 2-2 3.3137085 0 6-2.6862915 6-6v-12h18v12c0 3.3137085 2.6862915 6 6 6 1.1045695 0 2 .8954305 2 2z" fill="#3b97d3"/><path id="Shape" d="m6 36v3c0 2.7614237-2.23857625 5-5 5h-1v-2h1c1.65685425 0 3-1.3431458 3-3v-3c0-.5522847.44771525-1 1-1s1 .4477153 1 1z" fill="#2980ba"/><path id="Shape" d="m34 42v2h-1c-2.7614237 0-5-2.2385763-5-5v-3c0-.5522847.4477153-1 1-1s1 .4477153 1 1v3c0 1.6568542 1.3431458 3 3 3z" fill="#2980ba"/><path id="Shape" d="m12 20c-.5522847 0-1-.4477153-1-1v-1c0-.5522847.4477153-1 1-1s1 .4477153 1 1v1c0 .5522847-.4477153 1-1 1z" fill="#285680"/><path id="Shape" d="m22 20c-.5522847 0-1-.4477153-1-1v-1c0-.5522847.4477153-1 1-1s1 .4477153 1 1v1c0 .5522847-.4477153 1-1 1z" fill="#285680"/><path id="Shape" d="m12 23h10v7.38c-.1083177 2.6549276-2.3448006 4.7214378-5 4.62-2.6551994.1014378-4.8916823-1.9650724-5-4.62z" fill="#67b9cc"/><path id="Shape" d="m22 46h-10c-.5522847 0-1-.4477153-1-1s.4477153-1 1-1h10c.5522847 0 1 .4477153 1 1s-.4477153 1-1 1z" fill="#2980ba"/></g></svg>