<svg id="Capa_1" enable-background="new 0 0 512 512" height="512" viewBox="0 0 512 512" width="512" xmlns="http://www.w3.org/2000/svg"><g><path d="m169.781 118.732c.398.663.785 1.33 1.162 2.001 9.619 17.116 11.563 36.76 6.764 54.823 6.263 1.126 6.903 18.197 13.166 19.052 40.946 5.593 81.893 5.413 122.839-.54 4.986-.725 15.596-17.616 20.583-18.512-4.8-18.063-2.855-37.707 6.764-54.823.377-.671.765-1.338 1.162-2.001l5.494-9.156c14.086-23.477 14.127-52.988-.472-76.15-6.971-11.058-16.691-21.743-29.083-32.064-2.275-1.895-5.613-1.802-7.784.212l-29.162 27.049c-14.22 13.191-36.204 13.191-50.424 0l-29.164-27.049c-2.171-2.013-5.509-2.107-7.784-.212-12.391 10.32-22.11 21.004-29.081 32.061-14.602 23.162-14.561 52.675-.474 76.153z" fill="#f4c3c6"/><path d="m474.124 444.187c-22.568-95.061-58.7-176.218-118.635-232.972-1.506-1.426-2.941-2.906-4.311-4.43.001.001.001.002.002.003-10.616 2.32-21.232-6.089-31.849-4.546-40.559 5.897-81.117 6.129-121.676.697-12.279-1.645-24.558 6.532-36.838 3.849.001-.001.001-.002.002-.003-1.369 1.525-2.804 3.004-4.311 4.43-59.933 56.754-96.064 137.911-118.632 232.972-4.659 19.625 9.053 38.843 29.125 40.837 126 12.518 251.999 12.518 377.998 0 20.072-1.994 33.785-21.212 29.125-40.837z" fill="#f4c3c6"/><path d="m421.531 485.024h23.468c8.154-.81 15.259-4.463 20.509-9.831.908-.928 1.753-1.912 2.545-2.936 4.497-5.814 7.082-13.087 6.981-20.763-.032-2.408-.327-4.855-.91-7.308-22.568-95.061-58.7-176.218-118.635-232.972-.39-.369-.762-.752-1.143-1.128-1.09-1.076-2.152-2.172-3.167-3.301 0 .001.001.001.001.002-9.107 1.99-18.214-3.91-27.321-4.655 2.448 3.204 5.167 6.247 8.162 9.083 59.935 56.754 96.066 137.911 118.635 232.972 4.66 19.625-9.052 38.843-29.125 40.837z" fill="#eab1b7"/><path d="m331.802 158.359c-.413-13.85 3.249-27.765 10.417-39.628l5.494-9.156c7.043-11.739 10.575-24.986 10.521-38.194s-3.694-26.376-10.995-37.957c-6.97-11.057-16.69-21.741-29.08-32.061-2.275-1.895-5.614-1.803-7.785.211l-5.722 5.307-1.816 1.684c8.397 7.896 15.274 15.999 20.589 24.314 14.872 23.264 15.025 53.02.82 76.696l-5.494 9.156c-.397.663-.785 1.33-1.162 2.001-12.633 22.479-12.044 49.321-.295 71.207 5.428-4.726 13.011-15.667 16.999-16.384-1.493-5.62-2.334-11.392-2.491-17.196z" fill="#eab1b7"/><g><path d="m199.536 139.991c-5.909 0-12.004-1.284-18.136-3.857-9.224-3.871-15.406-9.42-15.666-9.655-3.174-2.875-3.415-7.779-.539-10.954 2.875-3.175 7.779-3.416 10.954-.539.696.62 17.758 15.563 34.64 6.7 3.79-1.988 8.479-.531 10.471 3.262 1.99 3.793.53 8.48-3.262 10.471-5.803 3.046-12.022 4.572-18.462 4.572z" fill="#eab1b7"/></g><g><path d="m312.464 139.991c-6.44 0-12.658-1.525-18.463-4.572-3.792-1.991-5.252-6.679-3.262-10.471 1.99-3.794 6.679-5.253 10.471-3.262 17.047 8.949 34.467-6.543 34.64-6.7 3.177-2.876 8.08-2.635 10.954.539 2.876 3.175 2.635 8.079-.539 10.954-.259.234-6.441 5.784-15.666 9.655-6.13 2.572-12.226 3.857-18.135 3.857z" fill="#eab1b7"/></g><path d="m214.081 306.63c-21.551 62.634-28.093 125.268-19.627 187.902 1.35 9.991 9.841 17.468 19.923 17.468h41.623 41.624c10.082 0 18.572-7.478 19.923-17.468 8.466-62.634 1.923-125.268-19.627-187.902-2.196-6.383-8.247-10.634-14.997-10.634h-53.844c-6.751 0-12.802 4.251-14.998 10.634z" fill="#eab1b7"/><g><g><path d="m180.787 258.011c-.493 0-.994-.046-1.495-.145-4.204-.821-6.945-4.894-6.123-9.098 5.568-28.493 22.882-46.572 23.616-47.328 2.985-3.072 7.895-3.142 10.966-.158 3.067 2.98 3.141 7.879.172 10.952-.203.212-14.889 15.752-19.532 39.508-.725 3.701-3.969 6.269-7.604 6.269z" fill="#eab1b7"/></g><g><path d="m331.213 258.011c-3.635 0-6.88-2.567-7.603-6.269-4.652-23.802-19.385-39.354-19.533-39.509-2.962-3.083-2.878-7.988.196-10.958 3.076-2.969 7.964-2.901 10.943.165.734.755 18.048 18.835 23.616 47.328.822 4.204-1.92 8.277-6.123 9.098-.502.099-1.003.145-1.496.145z" fill="#eab1b7"/></g></g><g><g><path d="m137.605 498.611c-4.153 0-7.594-3.289-7.745-7.473-.158-4.337-3.533-106.952 24.465-170.751 1.722-3.923 6.298-5.704 10.218-3.986 3.922 1.722 5.706 6.296 3.986 10.218-26.588 60.582-23.206 162.929-23.169 163.955.156 4.28-3.189 7.876-7.468 8.032-.096.003-.192.005-.287.005z" fill="#eab1b7"/></g><g><path d="m374.395 498.611c-.095 0-.19-.002-.286-.005-4.279-.155-7.624-3.75-7.469-8.031.037-1.027 3.395-103.427-23.169-163.956-1.721-3.922.064-8.496 3.986-10.218 3.919-1.719 8.496.063 10.218 3.986 6.532 14.884 11.877 33.174 15.886 54.362 3.175 16.778 5.533 35.433 7.008 55.451 2.505 34.009 1.611 59.854 1.571 60.938-.152 4.183-3.592 7.473-7.745 7.473z" fill="#eab1b7"/></g></g><path d="m334.294 175.556c-52.196 9.381-104.391 9.381-156.587 0-3.025 11.383-8.721 22.138-16.888 31.231 63.454 13.864 126.908 13.864 190.362 0-8.166-9.093-13.863-19.848-16.887-31.231z" fill="#dd636e"/><path d="m334.294 175.556c-7.489 1.346-14.979 2.476-22.468 3.436 3.724 11.744 10.346 22.683 19.617 31.651 6.579-1.139 13.159-2.419 19.738-3.857-.952-1.352-11.814-12.134-16.887-31.23z" fill="#da4a54"/></g></svg>