<svg height="512" viewBox="0 0 26 59" width="512" xmlns="http://www.w3.org/2000/svg"><g id="053---Dress" fill="none" transform="translate(-1 -1)"><path id="Shape" d="m5 10c-.50193203.0049401-.92975042-.36298374-1-.86l-1-7c-.07731986-.55228475.30771525-1.06268014.86-1.14s1.06268014.30771525 1.14.86l1 7c.04080594.28849836-.04624518.5804464-.23838552.79948638-.19214034.21903999-.47025872.34338522-.76161448.34051362z" fill="#2fa8cc"/><path id="Shape" d="m23 10c-.2913558.0028716-.5694741-.12147363-.7616145-.34051362-.1921403-.21903998-.2791914-.51098802-.2383855-.79948638l1-7c.0773199-.55228472.5877153-.9373198 1.14-.85999994s.9373198.58771521.86 1.13999994l-1 7c-.0702496.49701626-.498068.8649401-1 .86z" fill="#2fa8cc"/><path id="Shape" d="m22 25c3.3101714 3.0980542 5.131029 7.4681123 5 12 0 6-2 17-6 23h-14c-4-6-6-17-6-23-.13102896-4.5318877 1.68982859-8.9019458 5-12z" fill="#2980ba"/><path id="Shape" d="m20.77 25s4.23 4 4.23 12c0 6-1.69 17-5.08 23h-11.84c-3.39-6-5.08-17-5.08-23 0-8 4.23-12 4.23-12z" fill="#3b97d3"/><g fill="#2980ba"><path id="Shape" d="m14 34c-.5522847 0-1-.4477153-1-1v-7c0-.5522847.4477153-1 1-1s1 .4477153 1 1v7c0 .5522847-.4477153 1-1 1z"/><path id="Shape" d="m9 31c-.35930486-.0000627-.69095652-.1928829-.86877613-.505101-.17781961-.3122182-.17446936-.6958342.00877613-1.004899l2.47-4.12c.1572029-.3478371.4987108-.5758412.8802382-.5876816.3815275-.0118403.7365164.1945486.9149856.5319684.1784693.3374198.1492845.7470071-.0752238 1.0557132l-2.47 4.12c-.17500511.3113964-.502821.5057988-.86.51z"/><path id="Shape" d="m19 31c-.3530673-.0000616-.6799357-.1863005-.86-.49l-2.47-4.12c-.2111896-.4672916-.0346812-1.0186013.408637-1.2763444.4433181-.2577431 1.0097539-.1383777 1.311363.2763444l2.47 4.12c.1730625.3078262.1709358.6841081-.0055953.9899584-.176531.3058504-.5012891.4959155-.8544047.5000416z"/></g><path id="Shape" d="m24 9v7c0 1.5737865-.7409708 3.0557281-2 4v5c-2.6234459.6172752-5.3053308.9525108-8 1-2.6946692-.0474892-5.37655408-.3827248-8-1v-5c-1.25902921-.9442719-2-2.4262135-2-4v-7c3.88815451.18621457 7.5181356 2.0012051 10 5 2.4818644-2.9987949 6.1118455-4.81378543 10-5z" fill="#67b9cc"/><path id="Shape" d="m10 22c0 .5522847-.44771525 1-1 1-1.05287051.00117-2.08751231-.2747345-3-.8v-2.2c.21637021 0 .42690383.0701779.6.2.69238468.5192885 1.53451915.8 2.4.8.55228475 0 1 .4477153 1 1z" fill="#2fa8cc"/><path id="Shape" d="m22 20v2.2c-.9124877.5252655-1.9471295.80117-3 .8-.5522847 0-1-.4477153-1-1s.4477153-1 1-1c.8654809 0 1.7076153-.2807115 2.4-.8.1730962-.1298221.3836298-.2.6-.2z" fill="#2fa8cc"/></g></svg>