<svg height="512" viewBox="0 0 45 58" width="512" xmlns="http://www.w3.org/2000/svg"><g id="056---Jumpsuit" fill="none"><path id="Rectangle-path" d="m14.48 0h15.04v13h-15.04z" fill="#ff5364"/><path id="Shape" d="m30 27s10 11 11 23c0 0-1.22 7-16 8l-3-8-3 8c-14.78-1-16-8-16-8 1-12 11-23 11-23z" fill="#ff5364"/><g fill="#df4d60"><path id="Shape" d="m22 36c-.5522847 0-1-.4477153-1-1v-6c0-.5522847.4477153-1 1-1s1 .4477153 1 1v6c0 .5522847-.4477153 1-1 1z"/><path id="Shape" d="m18 33c-.3465932-.0010489-.6679286-.1814922-.8492369-.4768822-.1813084-.2953899-.1967323-.6635996-.0407631-.9731178l1.55-3.1c.2700473-.4487927.8406385-.6131719 1.3080622-.3768341s.6732882.7933069.4719378 1.2768341l-1.55 3.1c-.1694502.3362797-.5134418.5488587-.89.55z"/><path id="Shape" d="m26 33c-.3765582-.0011413-.7205498-.2137203-.89-.55l-1.55-3.1c-.1932607-.3211808-.1906728-.7234705.0067041-1.0421383.1973768-.3186678.5563928-.5001928.9300368-.4702434s.6991617.2663431.8432591.6123817l1.55 3.1c.1559692.3095182.1405453.6777279-.0407631.9731178-.1813083.29539-.5026437.4758333-.8492369.4768822z"/></g><path id="Shape" d="m7 3.75c-3.41050896 2.5410065-5.87427003 6.14865664-7 10.25 0 0 5 5 10.75 2 0 0-.75 7 3.25 11 0 0 1 2 8 2s8-2 8-2c4-4 3.25-11 3.25-11 3.7938928 1.792452 8.3063627.9902351 11.25-2-1.4096332-4.09456363-4.0239431-7.66745372-7.5-10.25-2.3424141-1.54304915-4.8601122-2.80189821-7.5-3.75-1.25 5-7.5 11-7.5 11s-6.25-6-7.5-11c-2.6398878.94810179-5.1575859 2.20695085-7.5 3.75z" fill="#fb7b76"/><path id="Shape" d="m22 18c-.5522847 0-1-.4477153-1-1v-8.08c0-.55228475.4477153-1 1-1s1 .44771525 1 1v8.08c0 .5522847-.4477153 1-1 1z" fill="#ff5364"/></g></svg>