<?xml version="1.0" encoding="iso-8859-1"?>
<!-- Generator: Adobe Illustrator 19.0.0, SVG Export Plug-In . SVG Version: 6.00 Build 0)  -->
<svg version="1.1" id="Layer_1" xmlns="http://www.w3.org/2000/svg" xmlns:xlink="http://www.w3.org/1999/xlink" x="0px" y="0px"
	 viewBox="0 0 512.328 512.328" style="enable-background:new 0 0 512.328 512.328;" xml:space="preserve">
<g transform="translate(-1 -1)">
	<path style="fill:#FDD7AD;" d="M292.508,36.31c-9.754,0-17.655-7.91-17.655-17.655V1h-17.655h-17.655v17.655
		c0,9.746-7.901,17.655-17.655,17.655c-61.793,0-79.484,14.892-79.484,35.31c0,8.457,16.808,26.386,26.518,35.31
		c22.298-15.89,64.689-12.606,88.276,26.483c23.587-39.089,65.977-42.372,88.276-26.483c9.71-8.925,26.518-26.854,26.518-35.31
		C371.992,51.202,354.301,36.31,292.508,36.31"/>
	<path style="fill:#C03A2B;" d="M387.458,485.539c-14.301-31.382-24.364-64.53-24.364-99.019v-58.898
		c0-21.186-17.655-52.966-35.31-70.621c-7.918-8.916-8.863-16.137-8.863-28.063v-1.421c0-8.289,2.136-16.402,6.338-23.543
		c7.83-13.312,20.145-42.858,20.145-97.042c-22.281-15.881-64.644-12.606-88.241,26.43c-23.587-39.036-65.951-42.311-88.241-26.43
		c0,54.184,12.314,83.73,20.153,97.042c4.202,7.142,6.329,15.254,6.329,23.543v1.421c0,11.926-0.945,19.147-8.863,28.063
		c-17.655,17.655-35.31,49.434-35.31,70.621v58.898c0,34.489-10.063,67.637-24.364,99.019c-1.448,3.196-2.278,6.497-2.119,9.807
		c0.768,15.439,70.409,24.488,110.354,12.359c14.389-4.37,29.731-4.37,44.12,0c39.954,12.129,109.594,3.081,110.354-12.359
		C389.745,492.036,388.915,488.735,387.458,485.539"/>
	<g>
		<path style="fill:#9B2B23;" d="M168.922,106.931c0,23.322,2.313,41.975,5.535,56.841c4.996,3.575,12.376,7.265,20.551,10.62
			c28.954,11.864,61.828-9.684,62.19-40.978C233.61,94.325,191.22,91.041,168.922,106.931"/>
		<path style="fill:#9B2B23;" d="M345.473,106.931c0,23.322-2.313,41.975-5.535,56.841c-4.996,3.575-12.376,7.265-20.551,10.62
			c-28.954,11.864-61.828-9.684-62.19-40.978C280.785,94.325,323.175,91.041,345.473,106.931"/>
	</g>
</g>
<g>
</g>
<g>
</g>
<g>
</g>
<g>
</g>
<g>
</g>
<g>
</g>
<g>
</g>
<g>
</g>
<g>
</g>
<g>
</g>
<g>
</g>
<g>
</g>
<g>
</g>
<g>
</g>
<g>
</g>
</svg>
