<?xml version="1.0" encoding="iso-8859-1"?>
<!-- Generator: Adobe Illustrator 19.0.0, SVG Export Plug-In . SVG Version: 6.00 Build 0)  -->
<svg version="1.1" id="Layer_1" xmlns="http://www.w3.org/2000/svg" xmlns:xlink="http://www.w3.org/1999/xlink" x="0px" y="0px"
	 viewBox="0 0 512 512" style="enable-background:new 0 0 512 512;" xml:space="preserve">
<g transform="translate(0 -1)">
	<path style="fill:#C03A2B;" d="M317.793,204.034c0-117.336,36.043-100.043,35.31-128c-0.733-27.957-20.047-34.578-44.323-39.724
		c0,33.836-52.78,44.023-52.78,44.023s-52.78-10.187-52.78-44.023c-24.276,5.146-43.591,11.767-44.323,39.724
		c-0.733,27.957,35.31,10.664,35.31,128S123.586,385,123.586,477.69C167.724,504.172,194.207,513,256,513
		s88.276-8.828,132.414-35.31C388.414,385,317.793,321.371,317.793,204.034"/>
	<path style="fill:#FDD7AD;" d="M273.655,1H256h-17.655c0,0-8.828,26.483-35.125,35.31l1.359,8.607
		C212.533,71.815,256,80.448,256,80.448s43.467-8.633,51.421-35.531l1.359-8.607C282.483,27.483,273.655,1,273.655,1"/>
	<path style="fill:#BF9717;" d="M264.828,239.345h-17.655c-4.873,0-8.828-3.955-8.828-8.828v-35.31c0-4.873,3.955-8.828,8.828-8.828
		h17.655c4.873,0,8.828,3.955,8.828,8.828v35.31C273.655,235.39,269.7,239.345,264.828,239.345"/>
	<g>
		<path style="fill:#F0C419;" d="M317.793,204.034c0-3.054,0.035-5.959,0.088-8.828h-44.226v35.31h45.497
			C318.349,221.954,317.793,213.215,317.793,204.034"/>
		<path style="fill:#F0C419;" d="M194.207,204.034c0,9.181-0.556,17.92-1.359,26.483h45.497v-35.31h-44.226
			C194.172,198.076,194.207,200.98,194.207,204.034"/>
	</g>
</g>
<g>
</g>
<g>
</g>
<g>
</g>
<g>
</g>
<g>
</g>
<g>
</g>
<g>
</g>
<g>
</g>
<g>
</g>
<g>
</g>
<g>
</g>
<g>
</g>
<g>
</g>
<g>
</g>
<g>
</g>
</svg>
