<?xml version="1.0" encoding="iso-8859-1"?>
<!-- Generator: Adobe Illustrator 19.0.0, SVG Export Plug-In . SVG Version: 6.00 Build 0)  -->
<svg version="1.1" id="Layer_1" xmlns="http://www.w3.org/2000/svg" xmlns:xlink="http://www.w3.org/1999/xlink" x="0px" y="0px"
	 viewBox="0 0 512 512" style="enable-background:new 0 0 512 512;" xml:space="preserve">
<g transform="translate(0 -1)">
	<path style="fill:#1C8E73;" d="M308.966,1c0,44.138-52.966,44.138-52.966,44.138s-52.966,0-52.966-44.138l-44.138,8.828
		c0,0,6.78,13.559,11.935,34.366c10.161,40.995,27.471,79.89,49.858,115.703l0,0H256h35.31l0,0
		c22.387-35.814,39.698-74.708,49.858-115.703c5.155-20.807,11.935-34.366,11.935-34.366L308.966,1z"/>
	<path style="fill:#26B99A;" d="M353.103,513H158.897l30.755-307.518c2.586-25.874,24.364-45.586,50.37-45.586h31.956
		c26.006,0,47.784,19.712,50.37,45.586L353.103,513z"/>
	<path style="fill:#1C8E73;" d="M158.897,513C212.568,513,256,469.568,256,415.897C256,469.568,299.432,513,353.103,513H158.897z"/>
</g>
<g>
</g>
<g>
</g>
<g>
</g>
<g>
</g>
<g>
</g>
<g>
</g>
<g>
</g>
<g>
</g>
<g>
</g>
<g>
</g>
<g>
</g>
<g>
</g>
<g>
</g>
<g>
</g>
<g>
</g>
</svg>
