<?xml version="1.0" encoding="iso-8859-1"?>
<!-- Generator: Adobe Illustrator 19.0.0, SVG Export Plug-In . SVG Version: 6.00 Build 0)  -->
<svg version="1.1" id="Layer_1" xmlns="http://www.w3.org/2000/svg" xmlns:xlink="http://www.w3.org/1999/xlink" x="0px" y="0px"
	 viewBox="0 0 512 512" style="enable-background:new 0 0 512 512;" xml:space="preserve">
<g transform="translate(0 -1)">
	<path style="fill:#26B99A;" d="M317.793,80.448c-17.655,0-46.804,10.355-61.793,35.196c-14.989-24.841-44.138-35.196-61.793-35.196
		c5.208,15.378,17.655,55.093,17.655,79.448c0,35.31-26.483,0-26.483,158.897l17.655,185.379c0,0,26.483,8.828,52.966,8.828
		s52.966-8.828,52.966-8.828l17.655-185.379c0-158.897-26.483-123.586-26.483-158.897
		C300.138,135.541,312.585,95.826,317.793,80.448"/>
	<path style="fill:#FDD7AD;" d="M335.448,45.138c-17.655-17.655-61.793-17.655-61.793-17.655V1H256h-17.655v26.483
		c0,0-44.138,0-61.793,17.655s17.655,35.31,17.655,35.31c17.655,0,46.804,10.355,61.793,35.196
		c14.989-24.841,44.138-35.196,61.793-35.196C317.793,80.448,353.103,62.793,335.448,45.138"/>
</g>
<g>
</g>
<g>
</g>
<g>
</g>
<g>
</g>
<g>
</g>
<g>
</g>
<g>
</g>
<g>
</g>
<g>
</g>
<g>
</g>
<g>
</g>
<g>
</g>
<g>
</g>
<g>
</g>
<g>
</g>
</svg>
