<?xml version="1.0" encoding="iso-8859-1"?>
<!-- Generator: Adobe Illustrator 19.0.0, SVG Export Plug-In . SVG Version: 6.00 Build 0)  -->
<svg version="1.1" id="Layer_1" xmlns="http://www.w3.org/2000/svg" xmlns:xlink="http://www.w3.org/1999/xlink" x="0px" y="0px"
	 viewBox="0 0 511.993 511.993" style="enable-background:new 0 0 511.993 511.993;" xml:space="preserve">
<g transform="translate(0 -1)">
	<path style="fill:#955BA5;" d="M351.564,229.954l-30.552,13.162c-15.642,8.192-35.337,5.782-48.075-5.897l0,0
		c-4.679-4.29-10.814-6.435-16.94-6.435c-6.135,0-12.262,2.145-16.94,6.435l0,0c-12.738,11.679-32.433,14.089-48.075,5.897
		l-30.552-13.162c-20.78,23.508-76.438,92.151-98.639,230.073c0,0,37.658,52.966,194.207,52.966s194.207-52.966,194.207-52.966
		C428.002,322.105,372.335,253.462,351.564,229.954"/>
	<path style="fill:#FDD7AD;" d="M162.074,101.458c27.48-8.739,71.812-1.633,93.917,31.956
		c22.113-33.589,66.445-40.695,93.926-31.956c9.454-9.498,20.868-22.855,20.868-29.837c0-20.418-17.69-35.31-79.484-35.31
		c-9.746,0-17.655-7.91-17.655-17.655V1h-17.655h-17.655v17.655c0,9.746-7.901,17.655-17.655,17.655
		c-61.793,0-79.475,14.892-79.475,35.31C141.206,78.603,152.62,91.959,162.074,101.458"/>
	<g>
		<path style="fill:#F0C419;" d="M235.835,239.712c-19.491-8.395-28.107-30.897-19.924-50.485
			c2.719-6.506,4.573-13.506,4.573-20.506c0-17.382-7.609-38.568-12.835-51.076c-3.275-7.83-8.669-14.663-15.793-19.279
			l-0.132-0.088c-16.349-1.086-31.673,2.127-41.657,8.651c0,0,17.655,35.31,17.655,61.793c0,14.583-8.033,29.166-15.245,39.327
			c-5.191,7.3-2.136,17.567,6.091,21.107l32.406,13.965C205.38,250.667,223.15,249.113,235.835,239.712"/>
		<path style="fill:#F0C419;" d="M276.154,239.712c19.491-8.395,28.107-30.897,19.924-50.485
			c-2.719-6.506-4.573-13.506-4.573-20.506c0-17.382,7.609-38.568,12.835-51.076c3.275-7.83,8.669-14.663,15.793-19.279l0.132-0.088
			c16.349-1.086,31.673,2.127,41.657,8.651c0,0-17.655,35.31-17.655,61.793c0,14.583,8.033,29.166,15.245,39.327
			c5.191,7.3,2.136,17.567-6.091,21.107l-32.406,13.965C306.609,250.667,288.84,249.113,276.154,239.712"/>
	</g>
	<path style="fill:#D25627;" d="M276.154,239.712c19.491-8.395,28.107-30.897,19.924-50.485c-2.719-6.506-4.573-13.506-4.573-20.506
		c0-17.382,7.609-38.568,12.835-51.076c3.275-7.83,8.669-14.663,15.784-19.279l0.132-0.088
		c-23.473,1.571-49.099,12.094-64.265,35.134c-15.166-23.04-40.783-33.562-64.265-35.134c0.044,0.035,0.088,0.062,0.132,0.088
		c7.124,4.617,12.518,11.449,15.793,19.279c5.226,12.509,12.826,33.695,12.826,51.076c0,7-1.845,14.001-4.573,20.515
		c-8.183,19.58,0.441,42.081,19.933,50.476c-1.562,1.148,0.768-0.247,3.213-2.498l0,0c4.679-4.29,10.814-6.426,16.94-6.426
		c6.135,0,12.262,2.136,16.94,6.426l0,0C275.386,239.465,277.708,240.86,276.154,239.712"/>
</g>
<g>
</g>
<g>
</g>
<g>
</g>
<g>
</g>
<g>
</g>
<g>
</g>
<g>
</g>
<g>
</g>
<g>
</g>
<g>
</g>
<g>
</g>
<g>
</g>
<g>
</g>
<g>
</g>
<g>
</g>
</svg>
