<?xml version="1.0" encoding="iso-8859-1"?>
<!-- Generator: Adobe Illustrator 19.0.0, SVG Export Plug-In . SVG Version: 6.00 Build 0)  -->
<svg version="1.1" id="Layer_1" xmlns="http://www.w3.org/2000/svg" xmlns:xlink="http://www.w3.org/1999/xlink" x="0px" y="0px"
	 viewBox="0 0 511.999 511.999" style="enable-background:new 0 0 511.999 511.999;" xml:space="preserve">
<g transform="translate(0 -1)">
	<path style="fill:#CBB292;" d="M317.917,206.728c2.456-21.608,8.357-42.027,13.789-57.353c8.669-24.42,0.911-52.25-20.567-66.751
		C285.73,65.459,256,61.745,256,61.745s-29.731,3.714-55.14,20.879c-21.478,14.501-29.236,42.331-20.567,66.751
		c5.432,15.325,11.333,35.745,13.789,57.353c1.215,10.683-1.05,21.452-6.717,30.599c-10.24,16.532-26.824,53.491-26.824,119.47
		l8.678,138.847c0,0,0,17.356,86.78,17.356s86.78-17.356,86.78-17.356l8.678-138.847c0-65.979-16.584-102.938-26.824-119.47
		C318.967,228.18,316.702,217.41,317.917,206.728"/>
	<g>
		<path style="fill:#B2977B;" d="M255.999,70.424c-38.279,0-69.424-27.257-69.424-60.746c0-4.799,3.879-8.678,8.678-8.678
			c4.799,0,8.678,3.879,8.678,8.678c0,23.925,23.352,43.39,52.068,43.39c4.799,0,8.678,3.879,8.678,8.678
			S260.798,70.424,255.999,70.424"/>
		<path style="fill:#B2977B;" d="M255.999,70.424c-4.799,0-8.678-3.879-8.678-8.678s3.879-8.678,8.678-8.678
			c28.715,0,52.068-19.465,52.068-43.39c0-4.799,3.879-8.678,8.678-8.678c4.799,0,8.678,3.879,8.678,8.678
			C325.422,43.166,294.277,70.424,255.999,70.424"/>
		<path style="fill:#B2977B;" d="M221.287,287.373c-4.799,0-8.678-3.879-8.678-8.678c0-4.799,3.879-8.678,8.678-8.678
			c14.353,0,26.034-11.681,26.034-26.034c0-4.799,3.879-8.678,8.678-8.678c4.799,0,8.678,3.879,8.678,8.678
			C264.677,267.908,245.212,287.373,221.287,287.373"/>
		<path style="fill:#B2977B;" d="M290.711,287.373c-23.925,0-43.39-19.465-43.39-43.39c0-4.799,3.879-8.678,8.678-8.678
			c4.799,0,8.678,3.879,8.678,8.678c0,14.353,11.681,26.034,26.034,26.034c4.799,0,8.678,3.879,8.678,8.678
			C299.389,283.494,295.509,287.373,290.711,287.373"/>
		<path style="fill:#B2977B;" d="M309.126,508.848c-0.903-3.619-1.918-7.298-2.951-11.03c-3.341-12.114-6.786-24.628-6.786-36.881
			c0-4.799-3.879-8.678-8.678-8.678s-8.678,3.879-8.678,8.678c0,14.605,3.766,28.273,7.411,41.489
			c0.876,3.159,1.718,6.257,2.508,9.329c6.543-0.512,12.253-1.163,17.217-1.9C309.126,509.516,309.213,509.186,309.126,508.848"/>
		<path style="fill:#B2977B;" d="M221.287,452.254c-4.799,0-8.678,3.879-8.678,8.678c0,12.279-3.454,24.819-6.804,36.951
			c-1.024,3.714-2.039,7.359-2.933,10.96c-0.087,0.338-0.009,0.668-0.052,1.007c4.972,0.746,10.683,1.388,17.234,1.9
			c0.781-3.046,1.605-6.118,2.482-9.251c3.645-13.243,7.428-26.928,7.428-41.567C229.965,456.133,226.086,452.254,221.287,452.254"
			/>
		<path style="fill:#B2977B;" d="M321.599,231.331c-3.003-6.925-4.235-14.458-3.766-22.042c-4.756,0.052-8.591,3.896-8.591,8.661
			c0,5.953-20.732,17.356-53.239,17.356c-32.516,0-53.248-11.403-53.248-17.356c0-4.764-3.836-8.609-8.591-8.661
			c0.469,7.585-0.764,15.117-3.766,22.042c11.064,13.919,38.947,21.33,65.605,21.33S310.535,245.251,321.599,231.331"/>
	</g>
</g>
<g>
</g>
<g>
</g>
<g>
</g>
<g>
</g>
<g>
</g>
<g>
</g>
<g>
</g>
<g>
</g>
<g>
</g>
<g>
</g>
<g>
</g>
<g>
</g>
<g>
</g>
<g>
</g>
<g>
</g>
</svg>
