<?xml version="1.0" encoding="iso-8859-1"?>
<!-- Generator: Adobe Illustrator 19.0.0, SVG Export Plug-In . SVG Version: 6.00 Build 0)  -->
<svg version="1.1" id="Layer_1" xmlns="http://www.w3.org/2000/svg" xmlns:xlink="http://www.w3.org/1999/xlink" x="0px" y="0px"
	 viewBox="0 0 503.605 503.605" style="enable-background:new 0 0 503.605 503.605;" xml:space="preserve">
<g transform="translate(0 -1)">
	<g>
		<path style="fill:#21313F;" d="M173.701,70.427c-3.662,0-7.064-2.334-8.253-6.005c-6.994-21.591-13.911-35.449-24.663-49.456
			c-2.924-3.801-2.204-9.242,1.597-12.167c3.818-2.933,9.259-2.196,12.167,1.597c12.071,15.707,19.751,31.041,27.405,54.68
			c1.475,4.565-1.024,9.45-5.58,10.926C175.488,70.288,174.586,70.427,173.701,70.427"/>
		<path style="fill:#21313F;" d="M329.904,70.427c-0.885,0-1.788-0.139-2.673-0.425c-4.556-1.475-7.055-6.361-5.58-10.926
			c7.654-23.639,15.334-38.973,27.405-54.68c2.933-3.784,8.374-4.521,12.166-1.597c3.801,2.924,4.521,8.366,1.597,12.167
			c-10.752,14.006-17.668,27.865-24.663,49.456C336.968,68.092,333.566,70.427,329.904,70.427"/>
	</g>
	<path style="fill:#35495E;" d="M173.701,53.071c16.636,13.017,104.136,64,104.136,147.525s-19.881,230.305-22.415,261.042
		c-2.534,30.737-3.619,27.587-3.619,42.774c0,0-48.675,3.306-69.424-17.443c0,0-6.508-51.348-17.356-86.78
		c0,0-39.511-158.651,0.269-182.237c0,0,49.247-28.386,11.663-73.763C178.777,146.055,151.511,119.57,173.701,53.071"/>
	<path style="fill:#21313F;" d="M338.31,217.952c0,0-49.247-28.386-11.663-73.763c-1.814,1.866,25.444-24.619,3.254-91.119
		c-10.726,8.392-50.905,32.603-78.102,71.116c14.978,21.209,26.034,46.748,26.034,76.409c0,83.525-19.881,230.305-22.415,261.042
		c-2.525,30.737-3.619,27.587-3.619,42.774c0,0,48.683,3.306,69.424-17.443c0,0,6.508-51.348,17.356-86.78
		C338.579,400.189,378.09,241.539,338.31,217.952"/>
</g>
<g>
</g>
<g>
</g>
<g>
</g>
<g>
</g>
<g>
</g>
<g>
</g>
<g>
</g>
<g>
</g>
<g>
</g>
<g>
</g>
<g>
</g>
<g>
</g>
<g>
</g>
<g>
</g>
<g>
</g>
</svg>
