<?xml version="1.0" encoding="iso-8859-1"?>
<!-- Generator: Adobe Illustrator 19.0.0, SVG Export Plug-In . SVG Version: 6.00 Build 0)  -->
<svg version="1.1" id="Layer_1" xmlns="http://www.w3.org/2000/svg" xmlns:xlink="http://www.w3.org/1999/xlink" x="0px" y="0px"
	 viewBox="0 0 503.64 503.64" style="enable-background:new 0 0 503.64 503.64;" xml:space="preserve">
<g transform="translate(-1 -1)">
	<g>
		<path style="fill:#B19046;" d="M374.311,391.51c0-106.548-44.084-143.811-52.068-173.559h-52.068c0,4.79-3.888,8.678-8.678,8.678
			h-17.356c-4.79,0-8.678-3.888-8.678-8.678h-52.068c-8.01,29.739-52.068,67.046-52.068,173.559c0,0-0.364,76.297,14.466,96.542
			c14.822,20.246,86.78,16.271,107.025,16.271s92.203,3.975,107.025-16.271C374.675,467.807,374.311,391.51,374.311,391.51"/>
		<path style="fill:#B19046;" d="M389.836,35.478c-4.139-10.344-14.154-17.122-25.288-17.122h-12.002
			c-2.829,0-5.58-0.443-8.279-1.31C318.738,8.828,285.779,1,252.82,1s-65.918,7.828-91.448,16.046
			c-2.699,0.868-5.45,1.31-8.287,1.31h-11.993c-11.143,0-21.157,6.777-25.288,17.122c-5.259,13.147,0.391,28.195,13.095,34.443
			c8.183,4.027,16.132,9.65,19.421,17.139c6.222,14.128,27.544,61.11,35.076,96.178h52.068c0-4.79,3.888-8.678,8.678-8.678h17.356
			c4.79,0,8.678,3.888,8.678,8.678h52.068c7.533-35.068,28.854-82.05,35.076-96.178c3.289-7.489,11.238-13.112,19.413-17.139
			C389.446,63.672,395.095,48.625,389.836,35.478"/>
	</g>
	<path style="fill:#937438;" d="M320.61,10.285C299.792,5.018,276.335,1,252.818,1s-46.974,4.018-67.792,9.285
		c6.812,19.499,34.556,34.104,67.792,34.104S313.807,29.785,320.61,10.285"/>
	<path style="fill:#4F3A18;" d="M261.497,226.629h-17.356c-4.79,0-8.678-3.888-8.678-8.678v-34.712c0-4.79,3.888-8.678,8.678-8.678
		h17.356c4.79,0,8.678,3.888,8.678,8.678v34.712C270.175,222.741,266.287,226.629,261.497,226.629"/>
	<g>
		<polygon style="fill:#705628;" points="270.175,217.953 322.243,217.953 322.243,183.241 270.175,183.241 		"/>
		<polygon style="fill:#705628;" points="183.395,217.953 235.463,217.953 235.463,183.241 183.395,183.241 		"/>
	</g>
	<path style="fill:#937438;" d="M270.175,217.951c0,4.79-3.888,8.678-8.678,8.678h-17.356c-4.79,0-8.678-3.888-8.678-8.678h-18.224
		c-5.163,29.757-33.844,66.586-33.844,173.559c0,0,0.703,76.297,9.051,96.542c5.545,13.468,25.296,16.202,41.272,16.532
		c7.836-0.078,14.466-0.252,18.805-0.26h0.165h0.043h0.087v-0.252h0.087h0.043h0.165c4.339,0.009,10.969,0.174,18.805,0.26
		c15.976-0.33,35.727-3.072,41.272-16.531c8.348-20.254,9.051-96.542,9.051-96.542c0-106.67-28.516-143.594-33.792-173.308H270.175z
		"/>
</g>
<g>
</g>
<g>
</g>
<g>
</g>
<g>
</g>
<g>
</g>
<g>
</g>
<g>
</g>
<g>
</g>
<g>
</g>
<g>
</g>
<g>
</g>
<g>
</g>
<g>
</g>
<g>
</g>
<g>
</g>
</svg>
