<?xml version="1.0" encoding="iso-8859-1"?>
<!-- Generator: Adobe Illustrator 19.0.0, SVG Export Plug-In . SVG Version: 6.00 Build 0)  -->
<svg version="1.1" id="Layer_1" xmlns="http://www.w3.org/2000/svg" xmlns:xlink="http://www.w3.org/1999/xlink" x="0px" y="0px"
	 viewBox="0 0 512.003 512.003" style="enable-background:new 0 0 512.003 512.003;" xml:space="preserve">
<g transform="translate(0 -1)">
	<path style="fill:#35495E;" d="M344.277,337.184c-9.931-79.819-35.31-97.836-35.31-97.836v-35.31
		c23.729,0,26.483-34.578,26.483-34.578v-2.136c0-30.323-4.52-61.078-0.565-91.154c2.375-18.097-11.229-25.653-25.918-31.029
		c0,0-14.071,44.138-52.966,44.138s-52.965-44.138-52.965-44.138c-14.689,5.376-28.292,12.932-25.918,31.029
		c3.955,30.076-0.565,60.831-0.565,91.154v2.136c0,0,2.763,34.578,26.483,34.578v35.31c0,0-25.379,18.017-35.31,97.836
		S150.07,469.597,150.07,469.597s23.543,43.405,105.931,43.405s105.931-43.405,105.931-43.405S354.208,417.003,344.277,337.184"/>
	<path style="fill:#FDD7AD;" d="M273.656,1h-17.655h-17.655c0,0-8.828,35.31-35.31,44.138c0,0,14.071,44.138,52.965,44.138
		s52.966-44.138,52.966-44.138C282.484,36.31,273.656,1,273.656,1"/>
	<path style="fill:#121D26;" d="M264.829,248.172h-17.655c-4.873,0-8.828-3.955-8.828-8.828v-35.31c0-4.873,3.955-8.828,8.828-8.828
		h17.655c4.873,0,8.828,3.955,8.828,8.828v35.31C273.656,244.218,269.702,248.172,264.829,248.172"/>
	<g>
		<polygon style="fill:#21313F;" points="203.036,239.347 238.346,239.347 238.346,204.036 203.036,204.036 		"/>
		<polygon style="fill:#21313F;" points="273.656,239.347 308.967,239.347 308.967,204.036 273.656,204.036 		"/>
	</g>
</g>
<g>
</g>
<g>
</g>
<g>
</g>
<g>
</g>
<g>
</g>
<g>
</g>
<g>
</g>
<g>
</g>
<g>
</g>
<g>
</g>
<g>
</g>
<g>
</g>
<g>
</g>
<g>
</g>
<g>
</g>
</svg>
