<?xml version="1.0" encoding="iso-8859-1"?>
<!-- Generator: Adobe Illustrator 19.0.0, SVG Export Plug-In . SVG Version: 6.00 Build 0)  -->
<svg version="1.1" id="Layer_1" xmlns="http://www.w3.org/2000/svg" xmlns:xlink="http://www.w3.org/1999/xlink" x="0px" y="0px"
	 viewBox="0 0 512.001 512.001" style="enable-background:new 0 0 512.001 512.001;" xml:space="preserve">
<g transform="translate(0 -1)">
	<g>
		<path style="fill:#1C8E73;" d="M368.91,406.791c-3.046-0.703-6.292-1.597-9.884-2.82c-13.477-4.591-28.16-4.738-41.012,1.71
			c-5.268,2.638-10.604,6.439-15.455,11.863c0,0-13.442-15.265-46.557-17.356c-33.124,2.091-46.557,17.356-46.557,17.356
			c-4.851-5.424-10.188-9.225-15.464-11.863c-12.852-6.448-27.535-6.3-41.003-1.71c-3.593,1.224-6.847,2.117-9.884,2.82
			l-32.004,66.274c-2.577,5.337-3.471,11.897-1.666,17.694c2.933,9.442,12.765,19.144,43.555,8.669
			c13.468-4.591,28.151-4.738,41.003,1.71c5.276,2.638,10.613,6.439,15.464,11.863c0,0,13.434-15.265,46.557-17.356
			c33.115,2.091,46.557,17.356,46.557,17.356c4.851-5.424,10.188-9.225,15.455-11.863c12.852-6.448,27.535-6.3,41.012-1.71
			c30.789,10.474,40.613,0.772,43.555-8.669c1.805-5.797,0.902-12.357-1.675-17.694L368.91,406.791z"/>
		<path style="fill:#1C8E73;" d="M186.576,87.78c-4.799,0-8.678-3.879-8.678-8.678c0-32.924-15.898-60.746-34.712-60.746
			c-4.799,0-8.678-3.879-8.678-8.678S138.387,1,143.186,1c29.193,0,52.068,34.304,52.068,78.102
			C195.254,83.901,191.375,87.78,186.576,87.78"/>
		<path style="fill:#1C8E73;" d="M325.423,87.78c-4.799,0-8.678-3.879-8.678-8.678C316.745,35.304,339.62,1,368.813,1
			c4.799,0,8.678,3.879,8.678,8.678s-3.879,8.678-8.678,8.678c-18.814,0-34.712,27.822-34.712,60.746
			C334.101,83.901,330.222,87.78,325.423,87.78"/>
	</g>
	<path style="fill:#26B99A;" d="M350.184,315.683c-14.97-18.267-23.83-40.873-24.645-64.477
		c-0.963-28.082,3.966-60.069,16.141-81.243l0.469-0.72c5.719-8.73,7.671-19.404,5.406-29.592l-11.169-50.271
		c-1.336-6.005-6.656-10.275-12.809-10.275c-4.278,0-8.296,2.083-10.752,5.597l-56.823,81.182L199.17,84.702
		c-2.456-3.515-6.465-5.597-10.743-5.597c-6.153,0-11.481,4.27-12.809,10.275l-11.177,50.271
		c-2.265,10.188-0.312,20.862,5.406,29.592l0.477,0.72c14.631,17.096,18.97,56.468,14.674,92.334
		c-2.378,19.873-10.969,38.478-23.647,53.96L111.089,377.6c-2.577,5.337-3.471,11.906-1.666,17.703
		c2.933,9.442,12.765,19.144,43.546,8.669c13.477-4.591,28.16-4.738,41.012,1.701c5.276,2.647,10.613,6.448,15.464,11.871
		c0,0,13.434-15.265,46.557-17.356c33.115,2.091,46.557,17.356,46.557,17.356c4.851-5.424,10.179-9.225,15.455-11.871
		c12.852-6.439,27.535-6.292,41.012-1.701c30.789,10.474,40.613,0.772,43.555-8.669c1.805-5.797,0.902-12.366-1.675-17.703
		L350.184,315.683z"/>
	<g>
		<path style="fill:#1C8E73;" d="M221.288,330.763c-4.799,0-8.678-3.879-8.678-8.678c0-4.799,3.879-8.678,8.678-8.678
			c14.353,0,26.034-11.681,26.034-26.034c0-4.799,3.879-8.678,8.678-8.678s8.678,3.879,8.678,8.678
			C264.677,311.298,245.213,330.763,221.288,330.763"/>
		<path style="fill:#1C8E73;" d="M290.711,330.763c-23.925,0-43.39-19.465-43.39-43.39c0-4.799,3.879-8.678,8.678-8.678
			s8.678,3.879,8.678,8.678c0,14.353,11.681,26.034,26.034,26.034c4.799,0,8.678,3.879,8.678,8.678
			C299.389,326.884,295.51,330.763,290.711,330.763"/>
		<path style="fill:#1C8E73;" d="M256,296.051c-4.799,0-8.678-3.879-8.678-8.678v-26.034c0-4.799,3.879-8.678,8.678-8.678
			s8.678,3.879,8.678,8.678v26.034C264.677,292.172,260.798,296.051,256,296.051"/>
		<path style="fill:#1C8E73;" d="M186.351,226.627c0.503,11.342,0.078,23.188-1.25,34.712h141.338
			c-0.451-3.35-0.781-6.725-0.894-10.136c-0.278-7.992-0.017-16.289,0.694-24.576H186.351z"/>
	</g>
</g>
<g>
</g>
<g>
</g>
<g>
</g>
<g>
</g>
<g>
</g>
<g>
</g>
<g>
</g>
<g>
</g>
<g>
</g>
<g>
</g>
<g>
</g>
<g>
</g>
<g>
</g>
<g>
</g>
<g>
</g>
</svg>
