<svg height="512" viewBox="0 0 58 48" width="512" xmlns="http://www.w3.org/2000/svg"><g id="086---Shorts" fill="none" transform="translate(-1)"><path id="Shape" d="m7 0h46c1.1045695 0 2 .8954305 2 2v7h-50v-7c0-1.1045695.8954305-2 2-2z" fill="#2c3e50"/><path id="Shape" d="m59 29c.0869485 5.967535-.7565024 11.9121765-2.5 17.62-.2681957.8225279-1.0348522 1.3793627-1.9 1.38h-19.2c-.8420602-.0003583-1.5936996-.5281051-1.88-1.32l-3.52-9.68-3.52 9.68c-.2863004.7918949-1.0379398 1.3196417-1.88 1.32h-19.2c-.86514781-.0006373-1.63180434-.5574721-1.9-1.38-1.74349761-5.7078235-2.58694845-11.652465-2.5-17.62.04749272-7.1847778 1.40293597-14.3008548 4-21h50c2.5921336 6.7005568 3.9474032 13.8157219 4 21z" fill="#2c3e50"/><path id="Shape" d="m59 27.88c.0168301 5.6742325-.826067 11.318271-2.5 16.74-.2681957.8225279-1.0348522 1.3793627-1.9 1.38h-19.2c-.8420602-.0003583-1.5936996-.5281051-1.88-1.32l-3.52-9.68-3.52 9.68c-.2863004.7918949-1.0379398 1.3196417-1.88 1.32h-19.2c-.86514781-.0006373-1.63180434-.5574721-1.9-1.38-1.67665069-5.4211099-2.51961001-11.0655656-2.5-16.74.09609543-6.8166228 1.45224164-13.5566695 4-19.88h50c2.5477584 6.3233305 3.9039046 13.0633772 4 19.88z" fill="#35495e"/><path id="Shape" d="m25 25c-.5522847 0-1-.4477153-1-1v-12c0-.5522847.4477153-1 1-1s1 .4477153 1 1v12c0 .5522847-.4477153 1-1 1z" fill="#547580"/><path id="Shape" d="m35 25c-.5522847 0-1-.4477153-1-1v-12c0-.5522847.4477153-1 1-1s1 .4477153 1 1v12c0 .5522847-.4477153 1-1 1z" fill="#547580"/><path id="Shape" d="m59 29c.0869485 5.967535-.7565024 11.9121765-2.5 17.62-.2681957.8225279-1.0348522 1.3793627-1.9 1.38h-2.6c1.993694-5.8777415 3.0072173-12.0433415 3-18.25-.0283835-7.4302687-1.3829649-14.7958052-4-21.75h4c2.6118713 6.6948943 3.9678404 13.813732 4 21z" fill="#f0c419"/><path id="Shape" d="m5 29.75c-.00721734 6.2066585 1.00630596 12.3722585 3 18.25h-2.6c-.86514781-.0006373-1.63180434-.5574721-1.9-1.38-1.74349761-5.7078235-2.58694845-11.652465-2.5-17.62.03215957-7.186268 1.38812866-14.3051057 4-21h4c-2.61703511 6.9541948-3.97161654 14.3197313-4 21.75z" fill="#f0c419"/><g fill="#3f5c6c"><path id="Shape" d="m26 13h-2c-.5522847 0-1-.4477153-1-1s.4477153-1 1-1h2c.5522847 0 1 .4477153 1 1s-.4477153 1-1 1z"/><path id="Shape" d="m36 13h-2c-.5522847 0-1-.4477153-1-1s.4477153-1 1-1h2c.5522847 0 1 .4477153 1 1s-.4477153 1-1 1z"/></g></g></svg>