<svg height="512" viewBox="0 0 58 49" width="512" xmlns="http://www.w3.org/2000/svg"><g id="087---Shorts" fill="none"><path id="Shape" d="m54 2v8h-50v-8c0-1.1045695.8954305-2 2-2h46c1.1045695 0 2 .8954305 2 2z" fill="#67b9cc"/><path id="Shape" d="m58 27c-.0257968 4.8370773-.6607951 9.6516415-1.89 14.33l-23.91.8c-1.6723227-3.1545981-2.7566516-6.5871771-3.2-10.13-.44747 3.5419206-1.5315694 6.9737728-3.2 10.13l-23.91-.8c-1.22920485-4.6783585-1.8642032-9.4929227-1.89-14.33.13050843-6.5280817 1.48741905-12.9734072 4-19h50c2.5030759 6.0295421 3.8596042 12.4730516 4 19z" fill="#3b97d3"/><g fill="#2980ba"><path id="Shape" d="m26 41c0 .94.05.62-.2 1.13l-23.91-.8c-.13-.5-.27-1-.4-1.63.37773062-.4416304.92887214-.6971265 1.51-.7h21c1.1045695 0 2 .8954305 2 2z"/><path id="Shape" d="m56.51 39.7c-.13.59-.27 1.13-.4 1.63l-23.91.8c-.25-.5-.2-.19-.2-1.13 0-1.1045695.8954305-2 2-2h21c.5811279.0028735 1.1322694.2583696 1.51.7z"/><path id="Shape" d="m29 8v13h2c2.209139 0 4-1.790861 4-4v-9z"/></g><circle id="Oval" cx="34" cy="4" fill="#35495e" r="1"/><path id="Shape" d="m11 12v3c0 4.9705627-4.02943725 9-9 9-.78 0-1.78 0-1.88 0 0-.67.11-1.34.19-2h1.69c3.86599325 0 7-3.1340068 7-7v-3c0-.5522847.44771525-1 1-1 .5522847 0 1 .4477153 1 1z" fill="#2980ba"/><path id="Shape" d="m57.88 24c-.1 0-.71 0-1.88 0-4.9705627 0-9-4.0294373-9-9v-3c0-.5522847.4477153-1 1-1s1 .4477153 1 1v3c0 3.8659932 3.1340068 7 7 7h1.69c.08.65.14 1.32.19 2z" fill="#2980ba"/><rect id="Rectangle-path" fill="#67b9cc" height="8" rx="2" width="25" x="1" y="41"/><rect id="Rectangle-path" fill="#67b9cc" height="8" rx="2" width="25" x="32" y="41"/><path id="Shape" d="m31 0v11c0 .5522847-.4477153 1-1 1s-1-.4477153-1-1v-11z" fill="#2980ba"/></g></svg>