<?xml version="1.0" encoding="iso-8859-1"?>
<!-- Generator: Adobe Illustrator 19.0.0, SVG Export Plug-In . SVG Version: 6.00 Build 0)  -->
<svg version="1.1" id="Layer_1" xmlns="http://www.w3.org/2000/svg" xmlns:xlink="http://www.w3.org/1999/xlink" x="0px" y="0px"
	 viewBox="0 0 512 512" style="enable-background:new 0 0 512 512;" xml:space="preserve">
<g transform="translate(0 -1)">
	<path style="fill:#35495E;" d="M476.451,173.138c-42.364,15.395-109.215,27.374-182.351,30.755
		c-7.627,13.215-21.742,22.21-38.1,22.21c-16.349,0-30.464-8.995-38.091-22.21c-73.145-3.381-139.988-15.36-182.351-30.755
		L0,340.862c0,0,18.97,52.966,123.26,52.966c104.298,0,115.085-26.483,115.085-26.483v-52.966H256h17.655v52.966
		c0,0,10.796,26.483,115.085,26.483c104.298,0,123.26-52.966,123.26-52.966L476.451,173.138z"/>
	<g>
		<path style="fill:#21313F;" d="M211.865,181.966c0-13.93,6.585-26.209,16.666-34.295c-82.017-1.536-150.484-9.613-184.391-27.498
			l-8.589,53.884c39.353,14.301,110.733,26.474,182.351,29.828C214.169,197.405,211.865,189.99,211.865,181.966"/>
		<path style="fill:#21313F;" d="M291.313,181.966c0-13.93,2.242-26.209-7.839-34.295c82.017-1.536,150.722-9.613,184.629-27.498
			l8.589,53.884c-39.353,14.301-110.972,26.474-182.59,29.828C297.837,197.405,291.313,189.99,291.313,181.966"/>
		<path style="fill:#21313F;" d="M293.899,290.483c-7.927,7.927-14.883,12.597-23.225,15.59c-3.602,1.289-5.764,4.687-5.764,8.307
			h8.748v8.828c0.989,0,2.004-0.168,2.984-0.521c10.814-3.875,19.986-9.958,29.74-19.721c3.452-3.452,3.452-9.031,0-12.482
			C302.93,287.031,297.351,287.031,293.899,290.483"/>
		<path style="fill:#21313F;" d="M247.093,314.379c0-3.619-2.163-7.018-5.764-8.307c-8.342-2.993-15.289-7.662-23.225-15.59
			c-3.443-3.452-9.031-3.452-12.482,0c-3.443,3.452-3.443,9.031,0,12.482c9.763,9.763,18.935,15.846,29.74,19.721
			c0.989,0.353,1.995,0.521,2.984,0.521v-8.828H247.093z"/>
	</g>
	<path style="fill:#131F28;" d="M300.141,181.966c0-24.373-19.765-44.138-44.138-44.138s-44.138,19.765-44.138,44.138
		s19.765,44.138,44.138,44.138S300.141,206.338,300.141,181.966"/>
</g>
<g>
</g>
<g>
</g>
<g>
</g>
<g>
</g>
<g>
</g>
<g>
</g>
<g>
</g>
<g>
</g>
<g>
</g>
<g>
</g>
<g>
</g>
<g>
</g>
<g>
</g>
<g>
</g>
<g>
</g>
</svg>
