<?xml version="1.0" encoding="iso-8859-1"?>
<!-- Generator: Adobe Illustrator 19.0.0, SVG Export Plug-In . SVG Version: 6.00 Build 0)  -->
<svg version="1.1" id="Layer_1" xmlns="http://www.w3.org/2000/svg" xmlns:xlink="http://www.w3.org/1999/xlink" x="0px" y="0px"
	 viewBox="0 0 512.004 512.004" style="enable-background:new 0 0 512.004 512.004;" xml:space="preserve">
<g transform="translate(-1 -1)">
	<path style="fill:#C03A2B;" d="M490.756,158.68c-56.85,9.295-189.034,23.287-233.754,23.287
		c-44.712,0-176.896-13.992-233.746-23.287C13.193,210.737,1.011,297.247,1.011,411.485c-1.465-2.339,146.644-38.532,238.345,0
		l-0.018-62.87l0,0c6.356,0.706,12.367,1.077,17.664,1.077c5.297,0,11.317-0.371,17.664-1.077h0.009l-0.026,62.87
		c91.71-38.532,239.81-2.339,238.345,0C512.993,297.247,500.82,210.737,490.756,158.68"/>
	<g>
		<path style="fill:#9B2B23;" d="M257.005,358.517c-27.18,0-74.47-9.013-94.517-29.069c-3.452-3.452-3.452-9.031,0-12.482
			c3.452-3.452,9.031-3.452,12.482,0c14.292,14.292,53.954,23.896,82.035,23.896c27.304,0,76.279-9.313,90.862-23.896
			c3.452-3.452,9.031-3.452,12.482,0c3.452,3.452,3.452,9.031,0,12.482C339.807,349.989,282.905,358.517,257.005,358.517"/>
		<path style="fill:#9B2B23;" d="M490.756,158.68c-7.062-36.582-13.074-56.161-13.074-56.161
			c-35.31,8.828-176.543,26.483-220.681,26.483c-44.147,0-185.379-17.655-220.69-26.483c0,0-6.012,19.571-13.074,56.161
			c56.85,9.295,189.052,23.287,233.763,23.287C301.723,181.967,433.907,167.976,490.756,158.68"/>
		<path style="fill:#9B2B23;" d="M498.794,206.311c-0.653,0.088-1.307,0.088-1.942,0.327
			c-24.417,9.401-67.787,19.447-116.277,19.447c-4.882,0-8.828,3.955-8.828,8.828s3.946,8.828,8.828,8.828
			c49.726,0,94.446-10.161,120.638-19.924C500.427,217.778,499.615,211.917,498.794,206.311"/>
		<path style="fill:#9B2B23;" d="M133.418,243.741c4.882,0,8.828-3.955,8.828-8.828c0-4.873-3.946-8.828-8.828-8.828
			c-48.49,0-91.851-10.046-116.268-19.447c-0.636-0.238-1.289-0.23-1.933-0.327c-0.821,5.614-1.633,11.476-2.428,17.505
			C38.99,233.581,83.701,243.741,133.418,243.741"/>
	</g>
</g>
<g>
</g>
<g>
</g>
<g>
</g>
<g>
</g>
<g>
</g>
<g>
</g>
<g>
</g>
<g>
</g>
<g>
</g>
<g>
</g>
<g>
</g>
<g>
</g>
<g>
</g>
<g>
</g>
<g>
</g>
</svg>
