<svg height="512" viewBox="0 0 59 52" width="512" xmlns="http://www.w3.org/2000/svg"><g id="041---Jumper" fill="none" transform="translate(-1)"><path id="Shape" d="m9.86 39.75-.86 3.5c-.05825765.2720898-.22724936.5076025-.46635337.6499263-.23910401.1423239-.52669645.1785874-.79364663.1000737l-5.81-1.52c-.25750666-.0659011-.47818129-.2316107-.61327795-.4605245s-.17349825-.5021944-.10672205-.7594755l.9-3.5z" fill="#5d4c72"/><path id="Shape" d="m57.89 37.77.9 3.49c.0667762.2572811.0283746.5305617-.1067221.7594755-.1350966.2289138-.3557712.3946234-.6132779.4605245l-5.81 1.52c-.2669502.0785137-.5545426.0422502-.7936466-.1000737-.239104-.1423238-.4080958-.3778365-.4663534-.6499263l-.9-3.5z" fill="#5d4c72"/><path id="Shape" d="m13.1 6.46c-2.4843657.20053742-4.58604151 1.91610993-5.28 4.31l-6.66 23.13c-.30497992 1.0414667-.17371472 2.162152.36368112 3.1049518.53739584.9427997 1.43479502 1.6267887 2.48631888 1.8950482l3.64.94c1.87474461.4803992 3.8245179-.4502701 4.63-2.21z" fill="#894b9d"/><path id="Shape" d="m47.72 37.61c.8054821 1.7597299 2.7552554 2.6903992 4.63 2.21 3.71-.94 4.54-1 5.54-2 1.0001735-1.0190527 1.3812916-2.4939796 1-3.87l-6.71-23.18c-.6939585-2.39389007-2.7956343-4.10946258-5.28-4.31z" fill="#894b9d"/><path id="Shape" d="m15 47h30v4c0 .5522847-.4477153 1-1 1h-28c-.5522847 0-1-.4477153-1-1z" fill="#5d4c72"/><path id="Shape" d="m37.87 1.36 2.94.88c5.3729627 1.61321815 8.91123 6.73373874 8.52 12.33l-2.14 30.64c-.1104691 1.5743263-1.4218074 2.793871-3 2.79h-28.39c-1.5781926.003871-2.8895309-1.2156737-3-2.79l-2.13-30.64c-.39123-5.59626126 3.1470373-10.71678185 8.52-12.33l2.94-.88z" fill="#955ba5"/><path id="Shape" d="m40.81 2.24c-3.38-1-2.83-.88-3.23-.88.26.19-1.32-1.36-7.58-1.36-3.52 0-6.5.57-7.57 1.36h-.3c-1.3977.35951546-2.7761568.79007459-4.13 1.29.49 3.51 4.6 5.35 12 5.35s11.51-1.84 12-5.35c-.3886677-.15886484-.7859616-.29574759-1.19-.41z" fill="#894b9d"/><ellipse id="Oval" cx="30" cy="2" fill="#3d324c" rx="8" ry="2"/><path id="Shape" d="m42 2.65c-.49 3.51-4.6 5.35-12 5.35s-11.51-1.84-12-5.35c.71-.31 1.47-.5 4.09-1.29h.3c-.2221103.14141256-.3661443.37777608-.39.64 0 1.1 3.58 2 8 2s8-.9 8-2c-.0321007-.2673159-.1875373-.50417165-.42-.64h.29c1.3977.35951546 2.7761568.79007459 4.13 1.29z" fill="#894b9d"/></g></svg>