<svg height="512" viewBox="0 0 58 58" width="512" xmlns="http://www.w3.org/2000/svg"><g id="048---Hoodie" fill="none" transform="translate(-1)"><path id="Shape" d="m9.86 52.31-.86 3.5c-.06590106.2575067-.2316107.4781813-.46052449.6132779-.22891379.1350967-.5021944.1734983-.75947551.1067221l-5.85-1.53c-.25750666-.0659011-.47818129-.2316107-.61327795-.4605245s-.17349825-.5021944-.10672205-.7594755l.9-3.49z" fill="#33907c"/><path id="Shape" d="m57.89 50.33.9 3.49c.114247.5225988-.2030167 1.0425587-.72 1.18l-5.81 1.49c-.257271.0804331-.5361179.0535988-.773329-.0744199-.237211-.1280186-.4126948-.3463787-.486671-.6055801l-.9-3.5z" fill="#33907c"/><g fill="#14a085"><path id="Shape" d="m12.55 49.38c-.2365439 1.0566071-.8913307 1.9721828-1.8147649 2.5375506-.92343423.5653679-2.03662034.7322246-3.0852351.4624494l-3.65-.94c-1.05152386-.2682595-1.94892304-.9522485-2.48631888-1.8950482-.53739584-.9427998-.66866104-2.0634851-.36368112-3.1049518l6.67-23.11c.66565412-2.295056 2.6297363-3.9763103 5-4.28-.21 32.4-.15 29.79-.27 30.33z"/><path id="Shape" d="m47.18 19.05c2.3702637.3036897 4.3343459 1.984944 5 4.28l6.66 23.13c.3049799 1.0414667.1737147 2.162152-.3636811 3.1049518-.5373959.9427997-1.434795 1.6267887-2.4863189 1.8950482-3.52.9-4.43 1.33-5.85.87-1.3531276-.4300354-2.3768895-1.5451366-2.69-2.93-.12-.56-.07 1.94-.27-30.35z"/><path id="Shape" d="m45 53v4c0 .5522847-.4477153 1-1 1h-28c-.5522847 0-1-.4477153-1-1v-4z"/></g><path id="Shape" d="m19.59 15.45c-2.56.69-4.53.95-6.15 2.78-.9456148 1.0255565-1.461123 2.3751856-1.44 3.77 1.1 40.65.44 16.87.77 29.25.1017896 1.5663675 1.4313796 2.7674305 3 2.71h28.46c1.5686204.0574305 2.8982104-1.1436325 3-2.71.34-13-.31 10.63.77-29.25.0325393-1.4087355-.4838258-2.7749515-1.44-3.81-1.63-1.83-3.54-2.07-6.15-2.78z" fill="#26b99a"/><path id="Shape" d="m40 49c1.1045695 0 2-.8954305 2-2v-3.48c.0112532-.8150282-.4881631-1.5501689-1.25-1.84-2.93-1.08-3.65-3.9-3.79-5.81-.0674628-1.0382638-.9197134-1.8513804-1.96-1.87h-10c-1.0557307-.0022324-1.9313797.8164994-2 1.87-.14 1.91-.86 4.73-3.79 5.81-.7460972.3027951-1.227597 1.034993-1.21 1.84v3.48c0 1.1045695.8954305 2 2 2z" fill="#81ccb8"/><path id="Shape" d="m30.46 22.09c1.7-1.93 7.83-4.38 9.54-6.09 2.55-2.55 2-16-10-16s-12.55 13.45-10 16c1.71 1.71 7.84 4.16 9.54 6.09z" fill="#14a085"/><path id="Shape" d="m41.09 9.67c-5.19-6.23-17-6.26-22.18 0 .62-4.52 3.67-9.67 11.09-9.67s10.47 5.15 11.09 9.67z" fill="#81ccb8"/><path id="Shape" d="m30 22c1.14-4 5.68-5 6.82-10 2.12-9.32-15.76-9.32-13.64 0 1.14 5 5.68 6 6.82 10z" fill="#33907c"/><path id="Shape" d="m31 26v32h-2v-32c0-.5522847.4477153-1 1-1s1 .4477153 1 1z" fill="#3f5c6c"/><path id="Shape" d="m32 26h-4l.76-3c.1450143-.5663727.6553572-.9625098 1.24-.9625098s1.0949857.3961371 1.24.9625098z" fill="#547580"/></g></svg>