<svg id="Capa_1" enable-background="new 0 0 512 512" height="512" viewBox="0 0 512 512" width="512" xmlns="http://www.w3.org/2000/svg"><g><path d="m65.481 90.345c-16.045 119.408 4.165 374.465 7.608 417.313.251 3.122 3.434 5.152 6.357 4.029 24.837-9.547 21.336-30.897 50.604-38.598 31.391-8.26 37.695 15.701 69.086 7.442 31.387-8.258 25.082-32.219 56.469-40.477 31.388-8.259 37.692 15.702 69.08 7.443 31.386-8.258 25.082-32.219 56.468-40.477 30.211-7.949 37.183 13.953 65.653 8.24 2.01-.403 3.531-2.047 3.709-4.089 9.952-114.446 21.488-248.275 10.623-320.826z" fill="#f4c3c6"/><path d="m450.23 74.529h-376.657s-3.987 10.422-9.646 28.839c-8.194 77.569-3.85 200.14 1.366 291.17 141.468-136.464 275.184-45.281 397.438-142.327 3.664-64.922 4.422-124.503-1.983-164.437-3.107-5.273-6.594-9.78-10.518-13.245z" fill="#eab1b7"/><g fill="#e28086"><path d="m110.917 483.01.005.008c10.511-9.46 28.742-14.801 45.227-9.45l.002-.005-16.318-206.755z"/><path d="m281.648 440.515-16.208-205.706-28.692 214.932c10.536-9.327 28.619-14.494 44.9-9.226z"/><path d="m402.659 406.242-14.36-188.13-25.792 198.415c10.118-8.843 26.604-13.28 40.152-10.285z"/></g><path d="m73.573 51.763s-64.043 167.378-43.191 346.534c.449 3.86 5.305 5.333 7.826 2.376 159.996-187.701 310.508-54.793 446.278-190.688.837-.838 1.308-1.98 1.308-3.164-.006-15.571-1.283-124.786-35.563-155.058z" fill="#dd636e"/><g><g><g><path d="m132.351 77.768c-1.117 0-2.251-.243-3.325-.757-3.851-1.839-5.481-6.452-3.642-10.302 4.513-9.447.132-18.563.087-18.652-1.936-3.803-.423-8.456 3.379-10.391 3.806-1.936 8.456-.422 10.391 3.379.327.643 7.921 15.924.087 32.324-1.326 2.776-4.094 4.399-6.977 4.399z" fill="#da4a54"/></g><g><path d="m156.493 103.644c-.924 0-1.863-.167-2.778-.519-3.981-1.535-5.965-6.007-4.43-9.989 10.455-27.117-1.145-43.246-1.644-43.921-2.61-3.376-1.966-8.198 1.41-10.808 3.377-2.61 8.254-1.957 10.861 1.419.722.934 17.514 23.273 3.791 58.869-1.182 3.068-4.108 4.949-7.21 4.949z" fill="#da4a54"/></g></g><g><g><path d="m391.452 77.768c-2.883 0-5.651-1.622-6.977-4.398-7.834-16.4-.24-31.681.087-32.324 1.937-3.802 6.589-5.313 10.391-3.379 3.785 1.928 5.302 6.545 3.405 10.338-.23.478-4.398 9.371.06 18.705 1.839 3.85.209 8.463-3.642 10.302-1.073.512-2.207.756-3.324.756z" fill="#da4a54"/></g><g><path d="m367.31 103.644c-3.103 0-6.028-1.881-7.211-4.949-13.723-35.597 3.068-57.936 3.791-58.869 2.611-3.375 7.465-3.996 10.838-1.387 3.359 2.596 3.991 7.412 1.428 10.786-.587.797-12.05 16.905-1.638 43.911 1.535 3.982-.449 8.454-4.43 9.989-.914.352-1.854.519-2.778.519z" fill="#da4a54"/></g></g></g><path d="m450.23 51.763h-376.657v-45.642c0-3.38 2.74-6.121 6.121-6.121h364.416c3.38 0 6.121 2.74 6.121 6.121v45.642z" fill="#dd636e"/><path d="m450.23 51.763h-20.604-13.329-342.724s-1.076 2.814-2.901 8.091h335.428c11.789 0 22.508 7.046 26.97 17.958 9.38 22.939 14.087 53.691 16.444 79.623 2.951 32.48-15.041 63.313-44.907 76.412-132.186 57.976-240.682 6.844-376.479 141.077.599 7.76 1.347 15.556 2.256 23.374.449 3.86 5.304 5.332 7.825 2.375 159.997-187.702 310.51-54.791 446.281-190.692.835-.836 1.306-1.974 1.305-3.156-.008-15.55-1.281-124.786-35.565-155.062z" fill="#da4a54"/><path d="m416.297 0v51.763h33.933v-45.642c0-3.38-2.74-6.121-6.121-6.121z" fill="#da4a54"/></g></svg>