<svg id="Capa_1" enable-background="new 0 0 512 512" height="512" viewBox="0 0 512 512" width="512" xmlns="http://www.w3.org/2000/svg"><g><path d="m415.847 54.281c33.922 80.369 47.829 226.556 59.717 379.382.374 4.809-2.794 9.191-7.481 10.332-38.776 9.439-67.496 19.554-107.186 41.314-4.788 2.625-10.795.882-13.408-3.912l-68.073-124.921-71.382-60.693 65.642-208.287 72.458-33.215z" fill="#ac80dd"/><path d="m475.564 433.663c-11.888-152.826-25.794-299.012-59.717-379.382h-36.65c32.834 77.791 48.386 247.048 60.181 397.449 9.135-2.755 18.58-5.269 28.712-7.736 4.685-1.141 7.848-5.524 7.474-10.331z" fill="#9d66d5"/><path d="m415.847 54.281h-342.953v-32.09c0-12.256 9.935-22.191 22.191-22.191h298.571c12.256 0 22.191 9.935 22.191 22.191z" fill="#e4d5f4"/><path d="m379.197 0v54.281h36.65v-32.09c0-12.256-9.935-22.191-22.191-22.191z" fill="#ddc8f1"/><path d="m346.133 54.281h-273.239c-32.398 79.789-34.074 253.52-36.487 425.002-.084 5.983 5.141 10.65 11.078 9.905 64.217-8.059 126.092 1.3 186.407 22.257 5.586 1.941 11.616-1.391 12.891-7.165z" fill="#bc95e2"/><path d="m343.972 474.943c-29.322-3.356-61.833-.573-94.973 19.302l30.417-137.769z" fill="#ddc8f1"/><g><g><path d="m302.071 121.307c-.555 0-1.119-.06-1.684-.185-4.192-.925-6.841-5.075-5.915-9.268l1.707-7.731c.925-4.192 5.07-6.849 9.268-5.915 4.192.925 6.841 5.075 5.915 9.268l-1.707 7.731c-.801 3.628-4.016 6.1-7.584 6.1z" fill="#9d66d5"/></g><g><path d="m287.497 179.844c-.555 0-1.119-.06-1.684-.185-4.193-.925-6.841-5.075-5.915-9.268l1.707-7.73c.925-4.192 5.069-6.849 9.268-5.915 4.193.925 6.841 5.075 5.915 9.268l-1.707 7.73c-.8 3.628-4.016 6.1-7.584 6.1z" fill="#9d66d5"/></g><g><path d="m273.683 238.192c-.555 0-1.119-.06-1.684-.185-4.192-.925-6.841-5.075-5.915-9.268l1.707-7.731c.925-4.192 5.069-6.846 9.268-5.915 4.192.925 6.841 5.075 5.915 9.268l-1.707 7.731c-.801 3.628-4.016 6.1-7.584 6.1z" fill="#9d66d5"/></g><g><path d="m257.71 303.56c-.555 0-1.119-.06-1.684-.185-4.192-.925-6.841-5.075-5.915-9.268l1.707-7.731c.925-4.192 5.071-6.848 9.268-5.915 4.192.925 6.841 5.075 5.915 9.268l-1.707 7.731c-.8 3.628-4.016 6.1-7.584 6.1z" fill="#9d66d5"/></g></g></g></svg>