<svg height="512" viewBox="0 0 54 58" width="512" xmlns="http://www.w3.org/2000/svg"><g id="075---Skirt" fill="none"><path id="Shape" d="m43 1v6h-32v-6c0-.55228475.4477153-1 1-1h30c.5522847 0 1 .44771525 1 1z" fill="#67b9cc"/><path id="Shape" d="m54 51s-8 6.22-24 6.93c-13.91.64-25.45-3.39-30-6.93.58868334-15.5891309 4.330668-30.8972499 11-45h32c6.669332 14.1027501 10.4113167 29.4108691 11 45z" fill="#2fa8cc"/><path id="Shape" d="m21 6c-1.9652757 6.142764-2.9770323 12.5505558-3 19 0 .5522847-.4477153 1-1 1s-1-.4477153-1-1c-.0009427-5.2602179.6507005-10.5002353 1.94-15.6-4.23 4.68-5 8.72-5 8.76-.0883656.5522847-.6077153.9283656-1.16.84s-.9283656-.6077153-.84-1.16c.05-.25 1.06-5.93 7.48-11.84z" fill="#2980ba"/><path id="Shape" d="m43 17.84c.091127.5522847-.2827153 1.073873-.835 1.1649999-.5522847.091127-1.073873-.2827152-1.165-.8349999-.1986205-.9145815-.5005587-1.8036218-.9-2.65-1.0070378-2.2355577-2.3565896-4.3003721-4-6.12 1.2744003 5.1017183 1.9125829 10.3415338 1.9 15.6 0 .5522847-.4477153 1-1 1s-1-.4477153-1-1c.0044245-6.4516133-1.0079964-12.8636122-3-19h2.51c6.42 5.91 7.43 11.59 7.49 11.84z" fill="#2980ba"/><path id="Shape" d="m30 0v57.93c-.65 0-1.32 0-2 .06v-57.99z" fill="#2980ba"/><g fill="#35495e"><circle id="Oval" cx="25" cy="11" r="1"/><circle id="Oval" cx="25" cy="19" r="1"/><circle id="Oval" cx="25" cy="27" r="1"/><circle id="Oval" cx="25" cy="35" r="1"/><circle id="Oval" cx="25" cy="43" r="1"/><circle id="Oval" cx="25" cy="51" r="1"/></g></g></svg>