<svg height="512" viewBox="0 0 58 40" width="512" xmlns="http://www.w3.org/2000/svg"><g id="077---Skirt" fill="none"><path id="Shape" d="m13 0h32c.5522847 0 1 .44771525 1 1v5h-34v-5c0-.55228475.4477153-1 1-1z" fill="#fb7b76"/><path id="Shape" d="m58 26c-1.0870786 2.1006295-2.5320432 3.9956651-4.27 5.6-7.85 7.47-20.37 9.4-31 8-6.65-.74-13.58-3.35-18.49-8-1.73106563-1.6033343-3.16630921-3.498939-4.24-5.6 9-7 12-20 12-20h34s3 13 12 20z" fill="#ff5364"/><g fill="#df4d60"><path id="Shape" d="m13.86 21.51c-2.3655442 4.0655702-5.64979791 7.5210571-9.59 10.09-.53-.5-1-1-1.4-1.45 3.81321841-2.4382315 6.99089227-5.7495939 9.27-9.66.3016091-.4147221.8680449-.5340875 1.311363-.2763444.4433182.2577431.6198266.8090528.408637 1.2763444z"/><path id="Shape" d="m24 17.14c-1.26 8.85-6.65 15.7-11.07 20-.66-.27-1.29-.56-1.89-.86.0488789-.1103293.1204294-.2091371.21-.29 3.53-3.25 9.5-10.18 10.77-19.1.0773199-.5522847.5877153-.9373199 1.14-.86s.9373199.5877153.86 1.14z"/><path id="Shape" d="m26 32.16c-.5516034 2.6825171-1.6512334 5.2222198-3.23 7.46-.72-.08-1.41-.18-2.09-.3.0222239-.1468528.0768808-.2869112.16-.41 1.5502284-2.1015762 2.6281482-4.5132512 3.16-7.07.039191-.2667921.1844672-.5064494.4028724-.6646048.2184051-.1581555.4914262-.2214032.7571276-.1753952.2667921.039191.5064494.1844672.6646048.4028724.1581555.2184051.2214032.4914262.1753952.7571276z"/><path id="Shape" d="m55.13 30.15c-.41.47-.87 1-1.4 1.45-3.9402021-2.5689429-7.2244558-6.0244298-9.59-10.09-.2245083-.3087061-.2536931-.7182934-.0752238-1.0557132.1784692-.3374198.5334581-.5438087.9149856-.5319684.3815274.0118404.7230353.2398445.8802382.5876816 2.2530387 3.841834 5.3855023 7.0942497 9.14 9.49.0523931.0413669.0964998.0922592.13.15z"/><path id="Shape" d="m47 36.25c-.6.3-1.23.59-1.89.86-4.45-4.27-9.84-11.11-11.11-19.97-.0500172-.3572656.0943639-.7140765.3787564-.9360254.2843925-.221949.6655904-.2753167 1.0000001-.1400001.3344096.1353167.5712263.4387599.6212435.7960255 1.62 11.46 10.65 18.68 11 19.39z"/><path id="Shape" d="m37.33 39.32c-.68.12-1.37.22-2.09.3-1.5823096-2.2369537-2.6853671-4.7767095-3.24-7.46-.0571625-.3572656.0806161-.7178884.3614359-.9460254.2808199-.228137.6620177-.2891286 1-.16.3379824.1291286.5814016.4287598.6385641.7860254.5378631 2.5583774 1.6226588 4.9701715 3.18 7.07.0795867.123951.1308072.2639537.15.41z"/></g></g></svg>