<svg height="512" viewBox="0 0 48 59" width="512" xmlns="http://www.w3.org/2000/svg"><g id="078---Skirt" fill="none"><path id="Shape" d="m6 0h36c.5522847 0 1 .44771525 1 1v6h-38v-6c0-.55228475.44771525-1 1-1z" fill="#f3d55b"/><path id="Shape" d="m42.57 26.69c2.96 9.09 1.43 21.31 1.43 21.31 1.0000732 3.4571635 2.3399403 6.8068311 4 10 0 0-13.59.76-23.71-6.27z" fill="#e57e25"/><path id="Shape" d="m48 58s-13.59.76-23.71-6.27l6-8.24.71.51c5 3 13 4 13 4 1.0000732 3.4571635 2.3399403 6.8068311 4 10z" fill="#d25627"/><path id="Shape" d="m5 6s-2 13-2 21 1 21 1 21c-1.00007324 3.4571635-2.3399403 6.8068311-4 10 0 0 28.91 1.34 40-24 7-16 3-28 3-28z" fill="#f0c419"/><path id="Shape" d="m40 34c-11.09 25.34-40 24-40 24 1.6600597-3.1931689 2.99992676-6.5428365 4-10 0 0 15.33-.71 25-12 6-7 11-14 11-30h3s4 12-3 28z" fill="#f29c1f"/></g></svg>