<?xml version="1.0" encoding="iso-8859-1"?>
<!-- Generator: Adobe Illustrator 19.0.0, SVG Export Plug-In . SVG Version: 6.00 Build 0)  -->
<svg version="1.1" id="Layer_1" xmlns="http://www.w3.org/2000/svg" xmlns:xlink="http://www.w3.org/1999/xlink" x="0px" y="0px"
	 viewBox="0 0 512 512" style="enable-background:new 0 0 512 512;" xml:space="preserve">
<g transform="translate(0 -1)">
	<path style="fill:#492956;" d="M273.655,93.69h-35.31c-14.627,0-26.483-11.855-26.483-26.483l0,0
		c0-14.627,11.855-26.483,26.483-26.483h35.31c14.627,0,26.483,11.855,26.483,26.483l0,0
		C300.138,81.834,288.283,93.69,273.655,93.69"/>
	<g>
		<path style="fill:#6D407C;" d="M211.862,67.207c0-6.815,2.648-12.959,6.877-17.655h-68.67v35.31h68.67
			C214.51,80.166,211.862,74.022,211.862,67.207"/>
		<path style="fill:#6D407C;" d="M293.265,49.552c4.228,4.696,6.877,10.84,6.877,17.655c0,6.815-2.648,12.959-6.877,17.655h68.67
			v-35.31H293.265z"/>
	</g>
	<path style="fill:#955BA5;" d="M361.931,84.862h-68.67c-4.846,5.385-11.794,8.828-19.606,8.828h-35.31
		c-7.812,0-14.76-3.443-19.606-8.828h-68.67C141.241,93.69,26.483,217.276,0,340.862c0,0,52.966,132.414,256,132.414
		s256-132.414,256-132.414C485.517,217.276,370.759,93.69,361.931,84.862"/>
	<g>
		<path style="fill:#F0C419;" d="M282.483,270.241c0-34.127-27.666-61.793-61.793-61.793s-61.793,27.666-61.793,61.793
			c0,34.127,27.666,61.793,61.793,61.793S282.483,304.369,282.483,270.241"/>
		<path style="fill:#F0C419;" d="M70.621,243.759c43.882,0,79.448-35.575,79.448-79.448c0-21.266-8.404-40.536-22.016-54.793
			c-22.987,27.162-59.26,73.896-88.223,128.044C49.302,241.552,59.701,243.759,70.621,243.759"/>
		<path style="fill:#F0C419;" d="M97.103,393.828c0-49.329-36.811-89.971-84.445-96.185C7.45,311.925,3.098,326.394,0,340.862
			c0,0,21.38,53.248,88.77,92.213C94.093,421.061,97.103,407.81,97.103,393.828"/>
		<path style="fill:#F0C419;" d="M186.317,467.509c20.983,3.663,44.138,5.764,69.685,5.764c73.843,0,127.762-17.54,166.568-39.83
			c-18.891-44.05-62.632-74.929-113.602-74.929C245.656,358.515,193.547,406.148,186.317,467.509"/>
		<path style="fill:#F0C419;" d="M353.103,190.793c27.798,0,52.798-11.741,70.506-30.464
			c-30.464-42.319-57.565-71.353-61.678-75.467h-68.67c-4.846,5.385-11.794,8.828-19.606,8.828H256
			C256,147.317,299.476,190.793,353.103,190.793"/>
		<path style="fill:#F0C419;" d="M423.724,296.724c0,39.786,23.958,73.94,58.209,88.947C503.861,361.068,512,340.862,512,340.862
			c-8.987-41.949-28.16-83.889-49.894-121.344C438.819,237.253,423.724,265.192,423.724,296.724"/>
	</g>
</g>
<g>
</g>
<g>
</g>
<g>
</g>
<g>
</g>
<g>
</g>
<g>
</g>
<g>
</g>
<g>
</g>
<g>
</g>
<g>
</g>
<g>
</g>
<g>
</g>
<g>
</g>
<g>
</g>
<g>
</g>
</svg>
