<svg id="Capa_1" enable-background="new 0 0 512 512" height="512" viewBox="0 0 512 512" width="512" xmlns="http://www.w3.org/2000/svg"><g><path d="m441.358 157.563c-.745-27.949-15.901-53.521-40.06-67.593l-70.113-40.838-75.185 3.36-75.185-3.359-70.113 40.837c-24.159 14.072-39.315 39.644-40.06 67.593l-7.076 317.037h58.383v31.062c0 3.501 2.838 6.338 6.338 6.338h102.98c2.177 0 4.201-1.117 5.362-2.959l19.371-30.731 19.37 30.731c1.161 1.842 3.185 2.959 5.362 2.959h102.98c3.501 0 6.338-2.838 6.338-6.338v-31.062h58.384z" fill="#9dc6fb"/><g><path d="m307.145 63.798 70.113 40.838c24.159 14.072 39.315 39.644 40.06 67.593l6.749 302.371h24.367l-7.077-317.037c-.745-27.949-15.901-53.521-40.06-67.593l-70.113-40.838-75.184 3.36z" fill="#80b4fb"/></g><path d="m312.738 6.026c-37.826-8.035-75.651-8.035-113.477 0-1.874.398-3.566 1.41-4.823 2.857l-20.309 23.36c-2.277 2.619-2.822 6.324-1.387 9.483 11.373 25.033 27.844 50.639 49.455 67.308 2.868 2.212 6.788 2.475 9.915.647l19.413-11.352c2.763-1.616 6.183-1.616 8.946 0l19.413 11.352c3.127 1.828 7.047 1.565 9.915-.647 21.612-16.669 38.083-42.275 49.455-67.308 1.435-3.159.89-6.864-1.387-9.483l-20.309-23.36c-1.254-1.446-2.945-2.459-4.82-2.857z" fill="#cbe2ff"/><path d="m352.195 225.232-19.727 10.19c-1.471.76-3.218.76-4.689 0l-19.727-10.19c-1.698-.877-2.764-2.628-2.764-4.539v-35.609c0-2.065 1.674-3.74 3.74-3.74h42.193c2.065 0 3.74 1.674 3.74 3.74v35.609c-.001 1.91-1.068 3.662-2.766 4.539z" fill="#cbe2ff"/><g><g><path d="m275.839 153.958c-4.268 0-7.727-3.459-7.727-7.727v-1.186c0-4.267 3.459-7.727 7.727-7.727s7.727 3.459 7.727 7.727v1.186c0 4.267-3.459 7.727-7.727 7.727z" fill="#cbe2ff"/></g><g><path d="m275.839 204.021c-4.268 0-7.727-3.459-7.727-7.727v-1.187c0-4.267 3.459-7.727 7.727-7.727s7.727 3.459 7.727 7.727v1.187c0 4.267-3.459 7.727-7.727 7.727z" fill="#cbe2ff"/></g><g><path d="m275.839 254.083c-4.268 0-7.727-3.459-7.727-7.727v-1.186c0-4.267 3.459-7.727 7.727-7.727s7.727 3.459 7.727 7.727v1.186c0 4.268-3.459 7.727-7.727 7.727z" fill="#cbe2ff"/></g><g><path d="m275.839 304.146c-4.268 0-7.727-3.459-7.727-7.727v-1.186c0-4.268 3.459-7.727 7.727-7.727s7.727 3.459 7.727 7.727v1.186c0 4.268-3.459 7.727-7.727 7.727z" fill="#cbe2ff"/></g><g><path d="m275.839 354.208c-4.268 0-7.727-3.459-7.727-7.727v-1.186c0-4.268 3.459-7.727 7.727-7.727s7.727 3.459 7.727 7.727v1.186c0 4.268-3.459 7.727-7.727 7.727z" fill="#cbe2ff"/></g></g><g><g><path d="m230.693 46.982c-3.167 0-6.138-1.962-7.271-5.115l-3.931-10.936c-1.444-4.016.642-8.442 4.657-9.885 4.012-1.438 8.442.641 9.885 4.658l3.931 10.936c1.444 4.016-.642 8.442-4.657 9.885-.863.31-1.745.457-2.614.457z" fill="#bed8fb"/></g><g><path d="m281.307 46.982c-.868 0-1.751-.147-2.614-.457-4.015-1.444-6.101-5.87-4.657-9.885l3.931-10.936c1.444-4.016 5.874-6.098 9.885-4.658 4.015 1.444 6.101 5.87 4.657 9.885l-3.931 10.936c-1.133 3.152-4.104 5.115-7.271 5.115z" fill="#bed8fb"/></g></g><g><path d="m256 486.038c-4.268 0-7.727-3.459-7.727-7.727v-403.202c0-4.267 3.459-7.727 7.727-7.727s7.727 3.459 7.727 7.727v403.202c-.001 4.268-3.46 7.727-7.727 7.727z" fill="#80b4fb"/></g><g><path d="m221.409 43.236c6.349 16.833 17.259 33.044 31.287 48.83 1.756 1.976 4.851 1.976 6.607 0 14.029-15.785 24.938-31.996 31.287-48.83.844-2.238-.276-4.752-2.497-5.638-21.396-8.537-42.792-8.537-64.188 0-2.221.886-3.34 3.4-2.496 5.638z" fill="#9dc6fb"/><path d="m244.272 82.047c2.661 3.36 5.474 6.699 8.424 10.019 1.756 1.976 4.851 1.976 6.607 0 14.029-15.786 24.938-31.997 31.288-48.831.843-2.234-.27-4.748-2.488-5.633-8.422-3.361-16.845-5.399-25.267-6.115-.937 13.802-4.937 33.652-18.564 50.56z" fill="#80b4fb"/></g><g><path d="m114.223 488.739c-4.268 0-7.727-3.459-7.727-7.727l7.727-305.901c0-4.267 3.459-7.727 7.727-7.727s7.727 3.459 7.727 7.727l-7.727 305.901c0 4.268-3.459 7.727-7.727 7.727z" fill="#80b4fb"/></g><g><path d="m397.777 489.528c-4.268 0-7.727-3.459-7.727-7.727l-7.727-306.69c0-4.267 3.459-7.727 7.727-7.727s7.727 3.459 7.727 7.727l7.727 306.69c0 4.268-3.459 7.727-7.727 7.727z" fill="#80b4fb"/></g><path d="m390.051 502.878h53.821c3.055 0 5.5-2.536 5.389-5.589l-.827-22.689h-58.384v28.278z" fill="#cbe2ff"/><path d="m390.051 502.878h53.821c3.055 0 5.5-2.536 5.389-5.589l-.827-22.689h-58.384v28.278z" fill="#cbe2ff"/><path d="m448.434 474.6h-24.194l.647 28.278h18.984c3.055 0 5.5-2.536 5.389-5.589z" fill="#bed8fb"/><path d="m121.949 502.878h-53.821c-3.055 0-5.5-2.536-5.389-5.589l.827-22.689h58.383z" fill="#cbe2ff"/></g></svg>