<svg height="512" viewBox="0 0 58 58" width="512" xmlns="http://www.w3.org/2000/svg"><g id="020---Long-Sleeve-Shirt" fill="none"><g fill="#df4d60"><path id="Shape" d="m9 5c-.08.15-.08.17-8 17-.64512409 1.6237457-.98416687 3.3528639-1 5.1v22.9c0 .5522847.44771525 1 1 1h7c.55228475 0 1-.4477153 1-1v-17.74c.00076869-2.1732547.50747593-4.3164894 1.48-6.26l2-2.88z"/><path id="Shape" d="m49 5 8 17c.6451241 1.6237457.9841669 3.3528639 1 5.1v22.9c0 .5522847-.4477153 1-1 1h-7c-.5522847 0-1-.4477153-1-1v-18c.0029011-2.0907131-.5051699-4.1504605-1.48-6l-2.08-3z"/><path id="Shape" d="m38.67 10.22h-19.34v-10.22h19.34z"/></g><path id="Shape" d="m48.89 7.35c-.0646989 3.0237904-.399362 6.0357584-1 9-.53 2.51-1.13 5.32-2.9 7.29-.0370713.0490993-.077148.0958555-.12.14h.06c-1.3 3.28-1.41 11.38-.8 14.79l2 16.11c-4.37 2.25-8.62 3.32-17.13 3.32s-12.76-1.07-17-3.22l2-16.11c.61-3.36.52-11.44-.8-14.8 0 0-.05-.05-.05-.06-1.84-1.84-2.52-5.06-3-7.43-.60063796-2.9642416-.93530106-5.9762096-1-9-.15-.38-.37-2.21-.15-2.38 3.1002849-2.35891104 6.6493679-4.06029313 10.43-5 0 0 1.06 8 9.57 8s9.57-8 9.57-8c3.758515.95019877 7.2859397 2.65098212 10.37 5 .18.17-.05 2-.05 2.35z" fill="#ff5364"/><path id="Shape" d="m21.68 27.69c0 .5522847-.4477153 1-1 1-2.3924466.1140348-4.7632907-.4995954-6.8-1.76-.1356526-1.0436907-.3837613-2.0696537-.74-3.06 0 0 0-.06-.17-.19.1032072.0373319.1958447.0990903.27.18 1.8019529 1.8195712 4.259182 2.8392132 6.82 2.83h.63c.5483755.005484.9900274.451597.99 1z" fill="#df4d60"/><path id="Shape" d="m44.8 23.86h.06c-.3454694.9723497-.5900879 1.9776314-.73 3-2.0586224 1.3006273-4.4676994 1.936065-6.9 1.82-.5522847 0-1-.4477153-1-1s.4477153-1 1-1h.63c2.560818.0092132 5.0180471-1.0104288 6.82-2.83.0788514-.0778553.1700946-.1420635.27-.19-.0370713.0490993-.077148.0958555-.12.14s-.03.05-.03.06z" fill="#df4d60"/><path id="Shape" d="m42 1c-.5212782 6.23403649-5.7442452 11.0217562-12 11h-2c-6.2365598-.0042933-11.430288-4.78513102-11.95-11 1.0930174-.43800637 2.2246144-.77279837 3.38-1 0 0 1.06 8 9.57 8s9.57-8 9.57-8c1.1723733.22416005 2.3208476.55899221 3.43 1z" fill="#fb7b76"/></g></svg>