<svg id="Capa_1" enable-background="new 0 0 512 512" height="512" viewBox="0 0 512 512" width="512" xmlns="http://www.w3.org/2000/svg"><g><path d="m437.226 158.584c-.745-27.947-15.9-53.518-40.057-67.589l-65.988-41.865-75.181 3.359-75.18-3.359-70.11 40.835c-24.158 14.071-39.313 39.642-40.057 67.589l-7.076 317.019h58.38v27.096c89.362 13.775 178.724 13.775 268.086 0v-27.096l54.259 1.03z" fill="#86a0af"/><path d="m115.399 511.97h-43.312c-5.226 0-9.422-4.313-9.278-9.537l.767-27.86h58.38v30.84c.001 3.621-2.935 6.557-6.557 6.557z" fill="#d0e2e7"/><path d="m396.601 511.97h43.312c5.226 0 9.422-4.313 9.278-9.537l-.767-27.86h-58.38v30.84c-.001 3.621 2.935 6.557 6.557 6.557z" fill="#d0e2e7"/><path d="m448.423 474.573h-24.366l.82 37.398h15.035c5.226 0 9.422-4.313 9.278-9.537z" fill="#b4d0d5"/><path d="m70.653 157.554-.657 29.441h361.706l-.657-29.441c-.139-5.213-.78-10.343-1.887-15.331h-356.618c-1.107 4.988-1.748 10.118-1.887 15.331z" fill="#d0e2e7"/><path d="m439.46 142.222h-28.801c4.058 9.342 6.37 19.501 6.65 29.996l.33 14.776h24.366c-.946-23.98.311-31.897-2.545-44.772z" fill="#b4d0d5"/><path d="m439.46 142.222c-4.826-21.755-18.519-40.811-38.17-52.257l-70.11-40.835-75.18 3.359 51.142 11.306 70.109 40.835c15.086 8.787 26.66 22.058 33.407 37.592z" fill="#738b95"/><g fill="#d0e2e7"><path d="m204.183 50.173-23.363-1.043-12.909 7.519v450.879c12.091 1.225 24.181 2.201 36.272 2.922z"/><path d="m307.817 50.173v460.277c12.091-.721 24.181-1.697 36.272-2.922v-450.88l-12.909-7.519z"/><path d="m67.318 306.954h367.062l-1-44.773h-365.062z"/></g><path d="m420.316 306.954h24.366c-.113-5.078-.898-40.233-.999-44.773h-24.366z" fill="#b4d0d5"/><path d="m443.682 262.181-1.678-75.186h-24.366l1.678 75.186z" fill="#738b95"/><path d="m64.641 426.913h372.417l-1-44.773h-370.418z" fill="#d0e2e7"/><path d="m422.993 426.913h24.366c-.346-15.506-.691-30.949-.999-44.773h-24.366z" fill="#b4d0d5"/><path d="m446.36 382.14-1.678-75.186h-24.366l1.678 75.186z" fill="#738b95"/><path d="m422.993 426.912 1.064 47.661h24.366l-1.064-47.661z" fill="#738b95"/><g fill="#b4d0d5"><g><path d="m307.817 142.222h36.272v44.773h-36.272z"/><path d="m167.911 142.222h36.272v44.773h-36.272z"/></g><g><path d="m307.817 261.916h36.272v44.773h-36.272z"/><path d="m167.911 261.916h36.272v44.773h-36.272z"/></g><g><path d="m307.817 381.61h36.272v44.773h-36.272z"/><path d="m167.911 381.61h36.272v44.773h-36.272z"/></g></g><path d="m313.957 6.288c-38.638-8.384-77.276-8.384-115.914 0-1.08.234-2.056.817-2.781 1.651l-22.703 26.114c-1.294 1.489-1.63 3.593-.831 5.397 11.761 26.564 29.282 54.102 52.614 71.188 1.649 1.207 3.856 1.328 5.62.296l23.459-13.718c1.593-.932 3.565-.932 5.158 0l23.459 13.718c1.764 1.032 3.971.911 5.62-.296 23.332-17.086 40.853-44.624 52.614-71.188.799-1.804.463-3.908-.831-5.397l-22.703-26.114c-.725-.834-1.701-1.416-2.781-1.651z" fill="#b4d0d5"/><g><g><path d="m230.815 46.979c-3.168 0-6.138-1.963-7.272-5.115l-3.93-10.935c-1.443-4.016.642-8.442 4.658-9.884 4.016-1.446 8.441.643 9.884 4.657l3.93 10.935c1.443 4.016-.642 8.442-4.658 9.884-.863.311-1.745.458-2.612.458z" fill="#d0e2e7"/></g><g><path d="m281.185 46.979c-.868 0-1.751-.147-2.614-.458-4.015-1.444-6.101-5.868-4.657-9.884l3.931-10.935c1.444-4.016 5.873-6.102 9.884-4.657 4.015 1.444 6.101 5.868 4.657 9.884l-3.931 10.935c-1.132 3.152-4.103 5.115-7.27 5.115z" fill="#d0e2e7"/></g></g><g><path d="m121.957 483.823c-4.267 0-7.726-3.459-7.726-7.726v-300.995c0-4.268 3.459-7.726 7.726-7.726s7.726 3.459 7.726 7.726v300.995c0 4.267-3.459 7.726-7.726 7.726z" fill="#738b95"/></g><g><path d="m390.043 484.349c-4.268 0-7.726-3.459-7.726-7.726v-301.521c0-4.268 3.459-7.726 7.726-7.726s7.726 3.459 7.726 7.726v301.521c0 4.267-3.458 7.726-7.726 7.726z" fill="#738b95"/></g><g><g><path d="m256 172.493c-4.267 0-7.726-3.459-7.726-7.726v-1.187c0-4.268 3.459-7.726 7.726-7.726s7.727 3.459 7.727 7.726v1.187c0 4.267-3.46 7.726-7.727 7.726z" fill="#b4d0d5"/></g><g><path d="m256 232.854c-4.267 0-7.726-3.459-7.726-7.726v-1.186c0-4.268 3.459-7.726 7.726-7.726s7.727 3.459 7.727 7.726v1.186c0 4.267-3.46 7.726-7.727 7.726z" fill="#b4d0d5"/></g><g><path d="m256 293.215c-4.267 0-7.726-3.459-7.726-7.726v-1.186c0-4.268 3.459-7.726 7.726-7.726s7.727 3.459 7.727 7.726v1.186c0 4.268-3.46 7.726-7.727 7.726z" fill="#b4d0d5"/></g><g><path d="m256 353.576c-4.267 0-7.726-3.459-7.726-7.726v-1.186c0-4.268 3.459-7.726 7.726-7.726s7.727 3.459 7.727 7.726v1.186c0 4.268-3.46 7.726-7.727 7.726z" fill="#b4d0d5"/></g><g><path d="m256 413.938c-4.267 0-7.726-3.459-7.726-7.726v-1.186c0-4.268 3.459-7.726 7.726-7.726s7.727 3.459 7.727 7.726v1.186c0 4.267-3.46 7.726-7.727 7.726z" fill="#b4d0d5"/></g></g><g><path d="m220.965 42.03c6.425 17.67 17.893 34.651 32.75 51.17 1.217 1.353 3.354 1.353 4.571 0 14.856-16.519 26.325-33.5 32.75-51.17.573-1.576-.2-3.308-1.75-3.949-22.19-9.183-44.38-9.183-66.571 0-1.55.641-2.323 2.372-1.75 3.949z" fill="#86a0af"/><path d="m244.273 82.042c2.966 3.744 6.119 7.462 9.442 11.157 1.217 1.353 3.354 1.353 4.57 0 14.856-16.518 26.325-33.499 32.749-51.168.572-1.574-.196-3.308-1.743-3.948-8.818-3.65-17.637-5.849-26.455-6.598-.938 13.801-4.937 33.651-18.563 50.557z" fill="#738b95"/></g></g></svg>