<svg id="Capa_1" enable-background="new 0 0 512 512" height="512" viewBox="0 0 512 512" width="512" xmlns="http://www.w3.org/2000/svg"><g><path d="m480.852 473.2-51.756-334.279c-4.857-31.368-26.014-57.794-55.561-69.395l-41.578-16.325-75.777-19.126v-.124l-.18.062-.18-.062v.124l-75.778 19.126-41.578 16.325c-29.546 11.601-50.704 38.026-55.561 69.395l-51.755 334.279c-.202 1.307.809 2.487 2.132 2.487h68.708c1.025 0 1.909-.722 2.113-1.726l37.424-183.77v168.313h228.95v-168.313l37.424 183.77c.205 1.005 1.088 1.726 2.113 1.726h68.708c1.323 0 2.334-1.18 2.132-2.487z" fill="#86a0af"/><g><path d="m480.852 473.2-51.756-334.279c-4.857-31.368-26.014-57.794-55.56-69.395l-41.578-16.325-75.778-19.126v-.124l-.18.062-.18-.062v.124l-23.063 12.624v-.124l.18.062.18-.062v.124l75.778 19.126 41.578 16.325c29.546 11.601 50.704 38.026 55.561 69.395l50.187 324.142h22.5c1.322 0 2.333-1.18 2.131-2.487z" fill="#738b95"/></g><path d="m84.582 512h-45.93c-4.144 0-7.31-3.7-6.669-7.794l4.462-28.519h59.595l-4.788 30.606c-.514 3.285-3.344 5.707-6.67 5.707z" fill="#d0e2e7"/><path d="m427.418 512h45.931c4.144 0 7.31-3.7 6.669-7.794l-4.462-28.519h-59.596l4.788 30.606c.514 3.285 3.344 5.707 6.67 5.707z" fill="#d0e2e7"/><path d="m475.556 475.687h-19.784l5.681 36.313h11.895c4.144 0 7.31-3.7 6.669-7.794z" fill="#b4d0d5"/><path d="m357.648 489.326h-203.296c-7.084 0-12.827-5.743-12.827-12.827v-17.995h228.95v17.995c0 7.084-5.743 12.827-12.827 12.827z" fill="#d0e2e7"/><g><path d="m141.525 297.802c-4.204 0-7.611-3.407-7.611-7.612v-81.488c0-4.204 3.407-7.611 7.611-7.611s7.611 3.407 7.611 7.611v81.488c0 4.204-3.407 7.612-7.611 7.612z" fill="#738b95"/></g><g><path d="m370.475 297.802c-4.204 0-7.611-3.407-7.611-7.612v-81.488c0-4.204 3.407-7.611 7.611-7.611s7.612 3.407 7.612 7.611v81.488c0 4.204-3.407 7.612-7.612 7.612z" fill="#738b95"/></g><path d="m332.316 53.201c-37.226 9.453-115.047 9.453-152.273 0v-38.691c0-3.81 3.089-6.899 6.899-6.899h138.476c3.81 0 6.899 3.089 6.899 6.899z" fill="#d0e2e7"/><g><g><path d="m207.579 63.843c-4.204 0-7.611-3.407-7.611-7.611v-48.621c0-4.204 3.407-7.611 7.611-7.611s7.611 3.407 7.611 7.611v48.62c.001 4.205-3.406 7.612-7.611 7.612z" fill="#b4d0d5"/></g><g><path d="m239.98 65.873c-4.204 0-7.611-3.407-7.611-7.611v-50.651c0-4.204 3.407-7.611 7.611-7.611s7.611 3.407 7.611 7.611v50.65c0 4.205-3.407 7.612-7.611 7.612z" fill="#b4d0d5"/></g><g><path d="m272.379 65.873c-4.204 0-7.612-3.407-7.612-7.611v-50.651c0-4.204 3.407-7.611 7.612-7.611s7.611 3.407 7.611 7.611v50.65c.001 4.205-3.407 7.612-7.611 7.612z" fill="#b4d0d5"/></g><g><path d="m304.78 63.843c-4.204 0-7.611-3.407-7.611-7.611v-48.621c0-4.204 3.407-7.611 7.611-7.611s7.612 3.407 7.612 7.611v48.62c-.001 4.205-3.408 7.612-7.612 7.612z" fill="#b4d0d5"/></g></g></g></svg>