<svg height="512" viewBox="0 0 58 58" width="512" xmlns="http://www.w3.org/2000/svg"><g id="044---Long-Sleeve-Top" fill="none"><path id="Shape" d="m38 8c-2.8277444 1.28686938-5.8933692 1.96811935-9 2-3.1066308-.03188065-6.1722556-.71313062-9-2v-8c2.8277444 1.28686938 5.8933692 1.96811935 9 2 3.1066308-.03188065 6.1722556-.71313062 9-2z" fill="#2980ba"/><path id="Shape" d="m44 21 3.52 7c.976837 1.9562266 1.4836122 4.1134457 1.48 6.3v14.7c0 .5522847.4477153 1 1 1h7c.5522847 0 1-.4477153 1-1v-19.36c-.0158331-1.7471361-.3548759-3.4762543-1-5.1l-6.66-17.12c-.8939412-2.26157072-2.665038-4.06513167-4.91-5-2.3966325-1.03434979-4.8839245-1.84447718-7.43-2.42 0 0-1 7-9 7s-9-7-9-7c-2.5454076.56905512-5.0326827 1.3724818-7.43 2.4-2.244962.93486833-4.01605881 2.73842928-4.91 5l-6.66 17.14c-.64512409 1.6237457-.98416687 3.3528639-1 5.1v19.36c0 .5522847.44771525 1 1 1h7c.55228475 0 1-.4477153 1-1v-14.7c-.00361223-2.1865543.50316304-4.3437734 1.48-6.3l3.52-7-1 33.83c4 2.11 8 3.17 16 3.17s12-1.06 16-3.17z" fill="#3b97d3"/><path id="Shape" d="m45 54.83c-4 2.11-8 3.17-16 3.17s-12-1.06-16-3.17l.06-2c3.94 2.17 7.94 3.17 15.94 3.17s12-1 15.94-3.14z" fill="#2980ba"/><g fill="#35495e"><path id="Shape" d="m20.9 8.13c.0550903.49685828-.265195.95806903-.75 1.08l-6.41 1.61c-.4389632.1121968-.8985127-.084753-1.12-.48l-3.24-5.68c.8785812-.98505828 1.9693239-1.75781012 3.19-2.26 2.3973173-1.0275182 4.8845924-1.83094488 7.43-2.4 0 .12 0 .57.9 8.13z"/><path id="Shape" d="m48.62 4.66-3.24 5.68c-.2214873.395247-.6810368.5921968-1.12.48l-6.41-1.61c-.484805-.12193097-.8050903-.58314172-.75-1.08 0-.28.88-8 .9-8.13 2.5454076.56905512 5.0326827 1.3724818 7.43 2.4 1.2206761.50218988 2.3114188 1.27494172 3.19 2.26z"/></g></g></svg>