<svg height="512" viewBox="0 0 58 58" width="512" xmlns="http://www.w3.org/2000/svg"><g id="016---Long-Sleeve-Shirt" fill="none"><path id="Shape" d="m14 20-3.52 7c-.97683696 1.9562266-1.48361223 4.1134457-1.48 6.3v15.7c0 .5522847-.44771525 1-1 1h-7c-.55228475 0-1-.4477153-1-1v-20.36c.01583313-1.7471361.35487591-3.4762543 1-5.1l8-19.54z" fill="#df4d60"/><path id="Shape" d="m49 4 8 19.54c.6451241 1.6237457.9841669 3.3528639 1 5.1v20.36c0 .5522847-.4477153 1-1 1h-7c-.5522847 0-1-.4477153-1-1v-15.7c.0036122-2.1865543-.503163-4.3437734-1.48-6.3l-3.52-7z" fill="#df4d60"/><path id="Shape" d="m38 8.89h-18v-8.89h18z" fill="#59474e"/><path id="Shape" d="m29 7c8 0 9-7 9-7 3.7946708.9508385 7.4809181 2.29129207 11 4-1 6.33-5 16-5 16l1 34.84c-4 2.16-8 3.16-16 3.16s-12-1-16-3.16l1-34.84s-4-9.67-5-16c3.5190819-1.70870793 7.2053292-3.0491615 11-4 0 0 1 7 9 7z" fill="#ff5364"/><path id="Shape" d="m40 22v5c0 2.209139-1.790861 4-4 4s-4-1.790861-4-4v-5c0-.5522847.4477153-1 1-1h6c.5522847 0 1 .4477153 1 1z" fill="#fb7b76"/><path id="Shape" d="m37 25c0 .5522847-.4477153 1-1 1h-4v-2h4c.5522847 0 1 .4477153 1 1z" fill="#df4d60"/><path id="Shape" d="m42 1.1c-.55 6-5.7 9.9-12 9.9h-2c-6.27 0-11.4-3.89-11.95-9.9 1.293916-.44393911 2.6128689-.81124244 3.95-1.1 0 0 1 7 9 7s9-7 9-7c1.3540103.28684279 2.6897136.6541612 4 1.1z" fill="#fb7b76"/></g></svg>