<svg height="512" viewBox="0 0 58 58" width="512" xmlns="http://www.w3.org/2000/svg"><g id="012---T-Shirt" fill="none"><path id="Shape" d="m9 4.22s-4.82 5.08-8.78 18.23c-.14163732.4496742.05003724.9371942.46 1.17 4.05976878 2.2482457 8.82740419 2.8531484 13.32 1.69z" fill="#f29c1f"/><path id="Shape" d="m49 4.22s4.82 5.08 8.78 18.23c.1416373.4496742-.0500372.9371942-.46 1.17-4.0597688 2.2482457-8.8274042 2.8531484-13.32 1.69z" fill="#f29c1f"/><path id="Shape" d="m38 0s-1 10.85-9 10.85-9-10.85-9-10.85z" fill="#d25627"/><path id="Shape" d="m44 25.31 1 28.89c.0143292.3908871-.20056.7542452-.55.93-3.84 1.92-7.83 2.87-15.45 2.87s-11.61-1-15.43-2.87c-.3572284-.1699641-.5806803-.5345435-.57-.93l1-28.89s-4-14.76-5-21.09c3.4833113-1.84458591 7.1767457-3.26152165 11-4.22 0 0 1 8 9 8s9-8 9-8c3.8232543.95847835 7.5166887 2.37541409 11 4.22-1 6.33-5 21.09-5 21.09z" fill="#f0c419"/><path id="Shape" d="m36 27c2.209139 0 4-1.790861 4-4v-5c0-.5522847-.4477153-1-1-1h-6c-.5522847 0-1 .4477153-1 1v5c0 2.209139 1.790861 4 4 4z" fill="#f3d55b"/><path id="Shape" d="m45 54.2c.0143292.3908871-.20056.7542452-.55.93-3.84 1.92-7.83 2.87-15.45 2.87s-11.61-1-15.43-2.87c-.3572284-.1699641-.5806803-.5345435-.57-.93l.11-3.29c3.98 2.09 7.98 3.09 15.89 3.09s11.91-1 15.87-3.09z" fill="#f29c1f"/><path id="Shape" d="m40 18v3h-8v-3c0-.5522847.4477153-1 1-1h6c.5522847 0 1 .4477153 1 1z" fill="#f9eab0"/></g></svg>