<svg id="Capa_1" enable-background="new 0 0 512 512" height="512" viewBox="0 0 512 512" width="512" xmlns="http://www.w3.org/2000/svg"><g><path d="m453.916 132.029c-2.182-12.88-10.334-23.967-21.978-29.89l-88.648-45.096-87.29 8.067-87.29-8.067-88.649 45.097c-11.644 5.923-19.796 17.01-21.978 29.89l-12.45 73.478 54.732 15.521v278.822c0 6.71 5.439 12.149 12.149 12.149h286.968c6.71 0 12.149-5.439 12.149-12.149v-278.823l54.733-15.521z" fill="#b3e59f"/><path d="m453.916 132.029c-2.182-12.88-10.334-23.967-21.978-29.89l-88.648-45.096-49.538 4.578 32.509 13.207 79.93 45.646c8.266 4.72 13.977 12.901 15.559 22.287l4.488 26.623c1.837 10.896-4.293 21.568-14.63 25.471l-13.26 5.007c-8.998 3.397-14.952 12.01-14.952 21.628v290.51h16.089c6.71 0 12.149-5.439 12.149-12.149v-278.823l54.733-15.521z" fill="#95d6a4"/><path d="m271.958 213.599h-31.915c-2.468 0-4.468-2-4.468-4.468v-121.991h40.851v121.991c0 2.468-2.001 4.468-4.468 4.468z" fill="#d3f9e2"/><path d="m320.015 6.607c-42.676-8.81-85.353-8.81-128.029 0-3.319.685-6.333 2.411-8.556 4.969l-20.356 23.415c-3.967 4.563-4.887 11.036-2.324 16.513 12.608 26.935 30.289 54.109 53.084 72.762 4.941 4.043 11.885 4.565 17.397 1.342l17.047-9.968c4.771-2.79 10.676-2.79 15.447 0l17.047 9.968c5.511 3.223 12.456 2.701 17.397-1.342 22.795-18.653 40.476-45.827 53.084-72.762 2.563-5.476 1.643-11.949-2.324-16.513l-20.356-23.415c-2.225-2.557-5.24-4.284-8.558-4.969z" fill="#d6f6b2"/><path d="m45.634 205.507-3.452 18.767c-.89 4.84 2.098 9.549 6.857 10.804l51.327 13.534v-27.584z" fill="#d6f6b2"/><path d="m466.366 205.507 3.452 18.767c.89 4.84-2.098 9.549-6.857 10.804l-51.327 13.534v-27.584z" fill="#ccf49f"/><g><path d="m92.468 229.813c-.327 0-.656-.021-.989-.063-4.232-.54-7.225-4.409-6.685-8.642 6.771-53.039 8.467-92.06-10.558-113.892-2.804-3.217-2.468-8.098.749-10.901 3.216-2.803 8.098-2.468 10.9.749 22.358 25.658 21.693 67.584 14.236 126-.497 3.901-3.822 6.749-7.653 6.749z" fill="#d6f6b2"/></g><g><g><path d="m256 150.94c-4.268 0-7.726-3.459-7.726-7.726v-1.559c0-4.267 3.459-7.726 7.726-7.726s7.726 3.459 7.726 7.726v1.559c0 4.267-3.459 7.726-7.726 7.726z" fill="#86a0af"/></g><g><path d="m256 192.162c-4.268 0-7.726-3.459-7.726-7.726v-1.559c0-4.267 3.459-7.726 7.726-7.726s7.726 3.459 7.726 7.726v1.559c0 4.267-3.459 7.726-7.726 7.726z" fill="#86a0af"/></g></g><g><g><path d="m225.208 53.301c-3.167 0-6.138-1.963-7.271-5.115l-4.563-12.696c-1.444-4.016.642-8.441 4.657-9.884 4.012-1.44 8.442.642 9.884 4.658l4.563 12.696c1.444 4.016-.642 8.441-4.657 9.884-.862.31-1.744.457-2.613.457z" fill="#ccf49f"/></g><g><path d="m286.792 53.301c-.868 0-1.749-.147-2.614-.457-4.015-1.444-6.101-5.869-4.657-9.884l4.563-12.696c1.444-4.017 5.867-6.101 9.884-4.658 4.015 1.444 6.101 5.869 4.657 9.884l-4.563 12.696c-1.133 3.152-4.104 5.115-7.27 5.115z" fill="#ccf49f"/></g></g><g><path d="m419.288 228.755c-3.831 0-7.156-2.848-7.654-6.749-7.459-58.414-7.879-99.283 14.48-124.943 2.802-3.218 7.684-3.553 10.9-.749 3.217 2.803 3.553 7.684.749 10.901-19.024 21.834-17.573 59.796-10.802 112.834.54 4.232-2.453 8.102-6.685 8.642-.331.044-.662.064-.988.064z" fill="#ccf49f"/></g><path d="m336.737 249.504-11.096-18.359c-1.518-2.512-1.518-5.659 0-8.171l11.096-18.359c3.073-5.084 10.447-5.084 13.52 0l11.096 18.359c1.518 2.512 1.518 5.659 0 8.171l-11.096 18.359c-3.073 5.084-10.448 5.084-13.52 0z" fill="#86a0af"/><g><path d="m411.633 482.791h-311.266c-4.268 0-7.726-3.459-7.726-7.726s3.459-7.726 7.726-7.726h311.267c4.268 0 7.726 3.459 7.726 7.726s-3.459 7.726-7.727 7.726z" fill="#d6f6b2"/></g><g><path d="m215.835 50.186c7.372 19.55 20.041 38.377 36.335 56.709 2.036 2.291 5.624 2.291 7.66 0 16.293-18.332 28.963-37.159 36.335-56.709.975-2.585-.305-5.497-2.87-6.522-24.863-9.929-49.726-9.929-74.589 0-2.566 1.025-3.845 3.937-2.871 6.522z" fill="#b3e59f"/><path d="m236.238 87.139c4.804 6.656 10.141 13.24 15.937 19.761 2.034 2.289 5.621 2.284 7.655-.005 16.293-18.332 28.963-37.159 36.335-56.709.975-2.585-.306-5.498-2.872-6.523-5.502-2.197-11.004-3.907-16.506-5.132-5.342 13.349-16.881 33.761-40.549 48.608z" fill="#95d6a4"/></g></g></svg>