<svg id="Capa_1" enable-background="new 0 0 512 512" height="512" viewBox="0 0 512 512" width="512" xmlns="http://www.w3.org/2000/svg"><g><path d="m453.916 132.029c-2.182-12.88-10.334-23.967-21.978-29.89l-88.648-45.096-87.29 8.067-87.29-8.067-88.649 45.097c-11.644 5.923-19.796 17.01-21.978 29.89l-12.45 73.478 54.732 15.521v278.822c0 6.71 5.439 12.149 12.149 12.149h111.816c4.341 0 8.351-2.316 10.522-6.075l21.148-36.627 21.147 36.628c2.17 3.759 6.181 6.075 10.522 6.075h111.816c6.71 0 12.149-5.439 12.149-12.149v-278.824l54.733-15.521z" fill="#eab14d"/><path d="m453.916 132.029c-2.182-12.88-10.334-23.967-21.978-29.89l-88.648-45.096-49.538 4.578 32.509 13.207 79.93 45.646c8.266 4.72 13.977 12.901 15.559 22.287l4.488 26.623c1.837 10.896-4.293 21.568-14.63 25.471l-13.26 5.007c-8.998 3.397-14.952 12.01-14.952 21.628v290.51h16.089c6.71 0 12.149-5.439 12.149-12.149v-278.823l54.733-15.521z" fill="#e49542"/><path d="m321.098 6.833c-43.399-9.11-86.798-9.11-130.197 0-2.681.563-5.097 2.011-6.895 4.079l-22.056 25.37c-3.285 3.778-4.017 9.126-1.921 13.672 12.95 28.087 31.42 56.617 55.458 75.643 4.06 3.214 9.701 3.544 14.171.93l19.947-11.664c3.95-2.31 8.839-2.31 12.79 0l19.947 11.664c4.47 2.614 10.111 2.284 14.171-.93 24.037-19.027 42.508-47.556 55.458-75.643 2.096-4.546 1.363-9.894-1.921-13.672l-22.056-25.37c-1.798-2.068-4.215-3.516-6.896-4.079z" fill="#ffe07d"/><path d="m45.634 205.507-3.75 20.387c-.722 3.926 1.702 7.746 5.563 8.764l52.92 13.954v-27.584z" fill="#ffe07d"/><path d="m466.366 205.507 3.75 20.387c.722 3.926-1.702 7.746-5.562 8.764l-52.92 13.954v-27.584z" fill="#ffd064"/><g><path d="m92.64 228.754c-4.267 0-7.726-3.459-7.726-7.726v-24.9c0-4.267 3.459-7.726 7.726-7.726s7.726 3.459 7.726 7.726v24.9c0 4.267-3.459 7.726-7.726 7.726z" fill="#ffe07d"/></g><g><path d="m419.36 228.754c-4.268 0-7.726-3.459-7.726-7.726v-24.9c0-4.267 3.459-7.726 7.726-7.726s7.726 3.459 7.726 7.726v24.9c0 4.267-3.459 7.726-7.726 7.726z" fill="#ffd064"/></g><g><path d="m256 477.024c-4.267 0-7.726-3.459-7.726-7.726v-368.476c0-4.267 3.459-7.726 7.726-7.726s7.727 3.459 7.727 7.726v368.476c0 4.268-3.46 7.726-7.727 7.726z" fill="#e49542"/></g><path d="m370.893 231.003c0 15.925-12.91 28.834-28.834 28.834-15.925 0-28.834-12.91-28.834-28.834v-26.822c0-1.112.901-2.013 2.013-2.013h53.644c1.112 0 2.013.901 2.013 2.013v26.822z" fill="#ffe07d"/><path d="m349.178 202.168v28.835c0 12.083-7.435 22.423-17.977 26.713 3.352 1.364 7.015 2.122 10.858 2.122 15.925 0 28.834-12.91 28.834-28.834v-26.822c0-1.112-.901-2.013-2.013-2.013h-19.702z" fill="#ffd064"/><g><g><path d="m279.033 177.502c-4.268 0-7.726-3.459-7.726-7.726v-1.378c0-4.267 3.459-7.726 7.726-7.726s7.726 3.459 7.726 7.726v1.378c0 4.267-3.459 7.726-7.726 7.726z" fill="#ffe07d"/></g><g><path d="m279.033 235.625c-4.268 0-7.726-3.459-7.726-7.726v-1.378c0-4.267 3.459-7.726 7.726-7.726s7.726 3.459 7.726 7.726v1.378c0 4.266-3.459 7.726-7.726 7.726z" fill="#ffe07d"/></g><g><path d="m279.033 293.747c-4.268 0-7.726-3.459-7.726-7.726v-1.377c0-4.268 3.459-7.726 7.726-7.726s7.726 3.459 7.726 7.726v1.377c0 4.267-3.459 7.726-7.726 7.726z" fill="#ffe07d"/></g><g><path d="m279.033 351.87c-4.268 0-7.726-3.459-7.726-7.726v-1.377c0-4.268 3.459-7.726 7.726-7.726s7.726 3.459 7.726 7.726v1.377c0 4.267-3.459 7.726-7.726 7.726z" fill="#ffe07d"/></g><g><path d="m279.033 409.992c-4.268 0-7.726-3.459-7.726-7.726v-1.377c0-4.268 3.459-7.726 7.726-7.726s7.726 3.459 7.726 7.726v1.377c0 4.268-3.459 7.726-7.726 7.726z" fill="#ffe07d"/></g></g><g><g><path d="m224.163 53.301c-3.168 0-6.138-1.963-7.272-5.115l-4.563-12.696c-1.443-4.016.642-8.441 4.658-9.884 4.016-1.442 8.441.643 9.884 4.658l4.563 12.696c1.443 4.016-.642 8.441-4.658 9.884-.862.31-1.745.457-2.612.457z" fill="#ffd064"/></g><g><path d="m287.838 48.669c-.868 0-1.75-.147-2.614-.457-4.015-1.444-6.101-5.869-4.657-9.884l4.563-12.696c1.444-4.017 5.868-6.101 9.884-4.658 4.015 1.444 6.101 5.869 4.657 9.884l-4.563 12.696c-1.133 3.152-4.103 5.115-7.27 5.115z" fill="#ffd064"/></g></g><g><path d="m215.302 48.745c7.266 20.013 20.107 39.266 36.736 58.001 2.105 2.371 5.82 2.371 7.924 0 16.629-18.735 29.47-37.988 36.736-58.001.651-1.792-.218-3.771-1.979-4.501-25.813-10.703-51.626-10.703-77.439 0-1.76.73-2.629 2.709-1.978 4.501z" fill="#eab14d"/><path d="m236.238 87.139c4.767 6.606 10.06 13.14 15.805 19.612 2.103 2.369 5.816 2.364 7.919-.005 16.629-18.735 29.47-37.988 36.736-58.001.651-1.792-.218-3.771-1.98-4.501-5.977-2.478-11.954-4.381-17.931-5.712-5.342 13.348-16.881 33.76-40.549 48.607z" fill="#e49542"/></g></g></svg>