<svg height="512" viewBox="0 0 58 58" width="512" xmlns="http://www.w3.org/2000/svg"><g id="018---Polo-Shirt" fill="none"><path id="Shape" d="m9.64 8.62s-6.64 6.57-8.71 13.82c0 0 3.43 6.81 13.08 4.39z" fill="#894b9d"/><path id="Shape" d="m44 26.83c9.65 2.42 13.08-4.39 13.08-4.39-2.08-7.25-8.72-13.82-8.72-13.82z" fill="#894b9d"/><path id="Shape" d="m48.25 10.88c-.0622532 2.9247743-.3970351 5.8373764-1 8.7-.49 2.36-1.15 5.4-2.93 7.18h.06c-1.26 3.12-1.37 11-.77 14.26l1.79 13.1c.0435513.4154956-.1757795.8142789-.55 1-3.95 1.96-8.05 2.88-15.85 2.88s-11.9-.92-15.82-2.78c-.3742205-.1857211-.5935513-.5845044-.55-1l1.79-13.1c.485344-3.7590978.4651647-7.5662582-.06-11.32-.1204629-1.0239848-.3587059-2.0306452-.71-3-1.8-1.91-2.4-4.69-2.92-7.18-.5923287-2.8643411-.92699826-5.7759661-1-8.7 0-.31-.23-2.1 0-2.26 2.2420811-1.64473478 4.6894651-2.98945125 7.28-4 26.6 0 24-.08 24.61.18 2.3700106.97133599 4.6131349 2.22721695 6.68 3.74.18.2-.04 1.99-.05 2.3z" fill="#955ba5"/><path id="Shape" d="m42 6s-2 7-9 9c0 0 0-3-4-5 0 0 4.42-1.47 6.3-4.42-4.1642431-.77505862-8.4357569-.77505862-12.6 0 1.88 2.95 6.3 4.42 6.3 4.42-4 2-4 5-4 5-7-2-9-9-9-9l3.41-5.11c.370262-.55496203.9928604-.8887648 1.66-.89h15.86c.6671396.0012352 1.289738.33503797 1.66.89z" fill="#b49aca"/><path id="Shape" d="m22.26 30.32c0 .5522847-.4477153 1-1 1-2.3983025.1084452-4.7816059-.4303887-6.9-1.56-.1221859-.9784472-.3501872-1.9407466-.68-2.87 1.9469982 1.5954465 4.392939 2.4555965 6.91 2.43h.67c.5522847 0 1 .4477153 1 1z" fill="#894b9d"/><path id="Shape" d="m44.35 26.82c-.3017094.8225987-.5194833 1.6735922-.65 2.54-2.2155769.9832171-4.6281956 1.4417857-7.05 1.34-.5522847 0-1-.4477153-1-1s.4477153-1 1-1h.73c2.4429111.0356882 4.8447135-.6307079 6.92-1.92z" fill="#894b9d"/><path id="Shape" d="m23.7 6.27c-.3399921-.0005664-.6564045-.17383986-.84-.46-.3943309-.57523074-.6853548-1.21480649-.86-1.89-.0839574-.35726559.0290616-.73218337.296484-.98352542.2674224-.25134206.6486202-.34092355 1-.23500001.3513798.10592355.6195586.39125983.703516.74852543.1158457.4528599.3086514.88244454.57 1.27.2060688.31240531.22045.71372719.0372707 1.040081-.1831792.32635381-.5332554.5231093-.9072707.509919z" fill="#7d6599"/><path id="Shape" d="m34.47 6c-.3653473-.00060799-.7012839-.20040927-.8762314-.52114648-.1749476-.32073722-.1610569-.71135339.0362314-1.01885352.2592491-.38746496.4487683-.81726753.56-1.27.0616246-.25899989.2239836-.48273479.4511066-.62163646s.5002585-.18150222.7588934-.11836354c.2589999.06162459.4827348.22398363.6216365.45110663.1389016.227123.1815022.50025842.1183635.75889337-.1673954.67735715-.4516552 1.32032573-.84 1.9-.1862704.27557882-.4973739.44050114-.83.44z" fill="#7d6599"/><path id="Shape" d="m35.3 5.58c-1.88 2.95-6.3 4.42-6.3 4.42s-4.42-1.47-6.3-4.42c4.1642431-.77505862 8.4357569-.77505862 12.6 0z" fill="#3d324c"/></g></svg>