<svg height="512" viewBox="0 0 58 58" width="512" xmlns="http://www.w3.org/2000/svg"><g id="019---T-Shirt" fill="none"><path id="Shape" d="m38.67 10.11h-19.34v-10.11h19.34z" fill="#285680"/><path id="Shape" d="m9 5s-6.85 6.81-9 14.33c0 0 3.53 7.07 13.5 4.56z" fill="#2fa8cc"/><path id="Shape" d="m44.5 23.89c10 2.51 13.5-4.56 13.5-4.56-2.15-7.52-9-14.33-9-14.33z" fill="#2fa8cc"/><path id="Shape" d="m48.89 7.35c-.0646989 3.0237904-.399362 6.0357584-1 9-.49 2.33-1.19 5.62-3 7.45h.06c-1.31 3.35-1.41 11.38-.8 14.79l2 16.11c-4.39 2.23-8.64 3.3-17.15 3.3s-12.76-1.07-17-3.22l2-16.11c.59-3.31.54-11.36-.8-14.8-1.85-1.85-2.53-4.93-3.07-7.49-.60063796-2.9642416-.93530106-5.9762096-1-9-.13-.38-.35-2.21-.13-2.38 3.1002849-2.35891104 6.6493679-4.06029313 10.43-5 0 0 1.06 8 9.57 8s9.57-8 9.57-8c3.758515.95019877 7.2859397 2.65098212 10.37 5 .18.17-.05 2-.05 2.35z" fill="#67b9cc"/><path id="Shape" d="m22.08 27.5c0 .5522847-.4477153 1-1 1-2.5123491.1164342-5.0078768-.465048-7.21-1.68-.1447001-1.0051481-.3892426-1.9933677-.73-2.95 2.0200803 1.7228838 4.5951321 2.657006 7.25 2.63h.69c.5522847 0 1 .4477153 1 1z" fill="#2fa8cc"/><path id="Shape" d="m44.86 23.88c-.3405938.9525936-.5818743 1.9378224-.72 2.94-2.0919841 1.208403-4.4866593 1.7914544-6.9 1.68-.5522847 0-1-.4477153-1-1s.4477153-1 1-1h.66c2.5557453.0130928 5.0227278-.9365705 6.91-2.66z" fill="#2fa8cc"/><path id="Shape" d="m27 17h-1c-.5522847 0-1-.4477153-1-1s.4477153-1 1-1h1c.5522847 0 1-.4477153 1-1v-6c0-.55228475.4477153-1 1-1s1 .44771525 1 1v6c0 1.6568542-1.3431458 3-3 3z" fill="#285680"/><circle id="Oval" cx="25" cy="12" fill="#2980ba" r="1"/></g></svg>