<svg id="Capa_1" enable-background="new 0 0 512 512" height="512" viewBox="0 0 512 512" width="512" xmlns="http://www.w3.org/2000/svg"><g><path d="m387.984 496.609c2.248 8.086-6.064 15.158-13.64 11.547-7.652-3.647-12.958-8.575-27.295-8.575-22.76 0-22.76 12.419-45.52 12.419-22.761 0-22.761-12.419-45.522-12.419-22.76 0-22.76 12.419-45.521 12.419-22.764 0-22.764-12.419-45.527-12.419-14.341 0-19.648 4.929-27.303 8.577-7.576 3.61-15.888-3.462-13.64-11.547 38.097-137.022-5.071-241.003 16.147-286.661 1.827-3.932 1.688-8.501-.451-12.272-21.081-37.157-52.556 6.805-80.083-12.069-6.332-4.341-9.131-12.291-7.179-19.716l32.18-122.43c4.513-17.17 17.894-30.598 35.048-35.17l29.504-7.865c5.991-1.597 12.256 1.389 14.789 7.048l26.039 58.184c1.935 4.324 6.23 7.108 10.968 7.108h110.048c4.737 0 9.033-2.784 10.968-7.108l26.039-58.184c2.533-5.66 8.798-8.645 14.789-7.048l29.504 7.865c17.154 4.573 30.535 18 35.048 35.17l32.18 122.43c1.952 7.425-.847 15.374-7.179 19.716-27.527 18.874-59.002-25.088-80.083 12.069-2.139 3.771-2.278 8.341-.451 12.272 21.214 45.658-21.953 149.638 16.143 286.659z" fill="#eab14d"/><path d="m371.838 209.95c-1.827-3.932-24.574 10.329-23.598 16.446 8.234 51.616-22.662 147.709 11.397 270.213.452 1.626.471 3.21.161 4.676 5.818 1.761 9.717 4.57 14.546 6.871 7.576 3.611 15.888-3.461 13.64-11.547-38.096-137.021 5.071-241.001-16.146-286.659z" fill="#e49542"/><path d="m459.551 165.893-32.18-122.43c-4.513-17.17-17.894-30.597-35.048-35.17l-29.503-7.865c-5.991-1.597-12.256 1.389-14.789 7.048l-4.218 9.425 23.997 6.397c17.154 4.573 30.535 18 35.048 35.17l28.346 107.424c1.952 7.425-.847 15.374-7.179 19.716-1.272.872-2.553 1.609-3.84 2.227 10.776 3.056 21.765 4.92 32.187-2.227 6.332-4.341 9.131-12.29 7.179-19.715z" fill="#e49542"/><path d="m347.004 98.444c-3.347 7.48-12.963 9.635-19.166 4.279-3.573-3.085-7.168-6.152-14.313-6.152-14.38 0-14.38 12.419-28.76 12.419s-14.38-12.419-28.759-12.419c-14.38 0-14.38 12.419-28.761 12.419-14.382 0-14.382-12.419-28.765-12.419-7.149 0-10.744 3.068-14.319 6.154-6.202 5.355-15.817 3.2-19.165-4.28l-40.874-91.337 25.058-6.68c5.991-1.597 12.256 1.389 14.789 7.048l26.039 58.184c1.935 4.324 6.23 7.108 10.968 7.108h110.048c4.737 0 9.033-2.784 10.968-7.108l26.039-58.184c2.533-5.66 8.798-8.645 14.789-7.048l25.058 6.68z" fill="#ffe07d"/><path d="m343.813 16.902 23.997 6.397c3.836 1.023 7.469 2.51 10.871 4.361l9.197-20.552-25.058-6.68c-5.955-1.587-12.24 1.353-14.789 7.048z" fill="#ffd064"/><g><path d="m172.962 239.9c-1.255.001-2.527-.304-3.707-.947-29.692-16.178-39.168-39.859-41.89-56.875-2.923-18.274 1.186-32.765 1.362-33.372 1.194-4.119 5.505-6.484 9.616-5.293 4.109 1.192 6.477 5.483 5.3 9.592-.546 1.932-12.772 47.356 33.04 72.316 3.764 2.051 5.152 6.765 3.102 10.53-1.409 2.584-4.073 4.049-6.823 4.049z" fill="#e49542"/></g><g><path d="m339.038 239.9c-2.75 0-5.414-1.464-6.823-4.049-2.051-3.765-.662-8.478 3.102-10.53 45.816-24.964 33.583-70.395 33.04-72.316-1.163-4.115 1.218-8.41 5.328-9.586 4.114-1.177 8.397 1.179 9.588 5.287.176.607 4.284 15.098 1.362 33.372-2.722 17.016-12.198 40.696-41.89 56.875-1.18.643-2.453.947-3.707.947z" fill="#e49542"/></g><path d="m133.977 251.053c.11 8.964.699 18.752 1.479 29.315 80.361 23.434 160.723 23.435 241.087.003.781-10.564 1.369-20.352 1.48-29.315-81.35 24.01-162.699 24.01-244.046-.003z" fill="#86a0af"/><path d="m376.543 280.371c.591-8.602 1.347-18.572 1.48-29.315-9.511 2.807-19.023 5.273-28.534 7.424-.334 9.032-1.038 18.816-1.858 29.301 9.637-2.136 19.275-4.6 28.912-7.41z" fill="#738b95"/></g></svg>