<svg id="Capa_1" enable-background="new 0 0 512 512" height="512" viewBox="0 0 512 512" width="512" xmlns="http://www.w3.org/2000/svg"><g><path d="m401.78 504.542c.475 4.208-3.44 7.542-7.538 6.473-10.526-2.746-13.256-10.286-28.247-10.286-18.329 0-18.329 11.271-36.658 11.271-18.331 0-18.331-11.271-36.662-11.271s-18.331 11.271-36.663 11.271-18.332-11.271-36.664-11.271-18.332 11.271-36.663 11.271c-18.334 0-18.334-11.271-36.668-11.271-14.998 0-17.727 7.542-28.259 10.287-4.097 1.068-8.012-2.266-7.537-6.473 8.07-71.505 6.471-131.618-.872-217.699-25.545-17.73-50.329-22.506-74.322-13.896-13.493 4.842-27.988-4.078-29.854-18.291-3.151-24.009-4.768-47.511-4.516-70.393.486-44.054 36.242-79.552 80.299-79.552 18.464 0 36.463-5.784 51.471-16.54l25.941-18.592 97.632-7.985 97.633 7.983 25.942 18.592c15.007 10.756 33.007 16.54 51.47 16.54 44.057 0 79.814 35.498 80.299 79.552.252 22.882-1.365 46.384-4.516 70.393-1.865 14.214-16.361 23.133-29.854 18.291-23.993-8.609-48.777-3.834-74.322 13.896-7.343 86.082-8.942 146.195-.872 217.7z" fill="#e28086"/><path d="m511.342 184.078c-.504-43.982-36.312-79.367-80.297-79.367-18.464 0-36.463-5.784-51.47-16.54l-25.941-18.592-97.634-7.984-31.536 16.035 97.633 7.983 25.941 18.592c15.007 10.756 33.007 16.54 51.47 16.54 43.985 0 79.793 35.385 80.297 79.367.263 22.942-1.355 46.506-4.515 70.581-.07.537-.165 1.065-.271 1.586.653.214 1.305.434 1.957.668 13.491 4.842 27.985-4.077 29.85-18.289 3.161-24.074 4.779-47.639 4.516-70.58z" fill="#dd636e"/><g><path d="m109.345 294.569c-4.197 0-7.639-3.361-7.721-7.573h-.001c-.005-.272-.739-27.561-15.034-67.961-1.424-4.023.684-8.438 4.706-9.861 4.022-1.427 8.438.682 9.861 4.706 15.206 42.976 15.895 71.624 15.918 72.822.077 4.267-3.318 7.788-7.585 7.866-.048.001-.096.001-.144.001z" fill="#dd636e"/></g><g><path d="m402.655 294.569c-.048 0-.096 0-.144-.001-4.267-.078-7.662-3.6-7.585-7.866.022-1.198.711-29.846 15.918-72.822 1.424-4.022 5.84-6.13 9.861-4.706 4.023 1.424 6.13 5.838 4.706 9.861-14.379 40.635-15.03 67.68-15.035 67.949-.077 4.218-3.52 7.585-7.721 7.585z" fill="#dd636e"/></g><g><g><path d="m227.776 294.524c-4.268 0-7.726-3.459-7.726-7.726v-157.98c0-4.268 3.459-7.726 7.726-7.726 4.268 0 7.726 3.459 7.726 7.726v157.98c.001 4.267-3.458 7.726-7.726 7.726z" fill="#eab1b7"/></g><g><path d="m284.224 294.524c-4.268 0-7.726-3.459-7.726-7.726v-157.98c0-4.268 3.459-7.726 7.726-7.726 4.268 0 7.726 3.459 7.726 7.726v157.98c0 4.267-3.458 7.726-7.726 7.726z" fill="#eab1b7"/></g></g><path d="m328.605 7.769c-48.403-10.358-96.806-10.358-145.21 0-2.033.435-3.868 1.533-5.233 3.102l-26.841 30.873c-2.467 2.838-3.063 6.849-1.519 10.278 14.619 32.461 35.994 65.812 64.183 87.179 3.121 2.365 7.349 2.647 10.729.67l26.424-15.451c3.003-1.756 6.72-1.756 9.723 0l26.424 15.451c3.38 1.977 7.609 1.695 10.729-.67 28.189-21.367 49.563-54.718 64.183-87.179 1.544-3.428.948-7.44-1.519-10.278l-26.841-30.873c-1.364-1.57-3.199-2.667-5.232-3.102z" fill="#f4c3c6"/><g><g><path d="m221.095 57.589c-3.167 0-6.138-1.963-7.271-5.115l-4.993-13.891c-1.444-4.016.642-8.442 4.657-9.884 4.012-1.445 8.441.641 9.884 4.657l4.993 13.891c1.444 4.016-.642 8.442-4.657 9.884-.862.311-1.744.458-2.613.458z" fill="#eab1b7"/></g><g><path d="m290.905 57.589c-.868 0-1.75-.147-2.613-.458-4.016-1.443-6.102-5.868-4.659-9.883l4.993-13.891c1.444-4.017 5.872-6.103 9.883-4.658 4.016 1.443 6.102 5.868 4.659 9.883l-4.993 13.891c-1.132 3.153-4.103 5.116-7.27 5.116z" fill="#eab1b7"/></g></g><g><path d="m256 256.824c-4.268 0-7.726-3.459-7.726-7.726v-137.823c0-4.268 3.459-7.726 7.726-7.726s7.726 3.459 7.726 7.726v137.823c0 4.267-3.459 7.726-7.726 7.726z" fill="#dd636e"/></g><path d="m114.928 443.436 141.072-52.501 141.072 52.501c-.698-17.462-.837-34.901-.48-52.941l-131.969-49.113c-5.563-2.07-11.684-2.07-17.247 0l-131.968 49.113c.357 18.04.218 35.479-.48 52.941z" fill="#f4c3c6"/><path d="m396.59 390.657c.001-.054.001-.108.002-.162l-30.643-11.404c-.802 18.119-1.178 35.391-1.063 52.367l32.186 11.978c-.667-16.902-.85-34.028-.482-52.779z" fill="#eab1b7"/><g><path d="m211.694 53.932c8.126 22.057 22.431 43.27 40.914 63.913 1.809 2.02 4.975 2.02 6.784 0 18.483-20.643 32.788-41.856 40.914-63.913.846-2.296-.295-4.853-2.559-5.778-27.831-11.372-55.663-11.372-83.494 0-2.265.925-3.405 3.482-2.559 5.778z" fill="#e28086"/><path d="m234.379 95.336c5.472 7.583 11.577 15.079 18.222 22.502 1.811 2.023 4.978 2.031 6.79.008 18.483-20.643 32.789-41.857 40.915-63.914.846-2.296-.295-4.853-2.56-5.779-6.334-2.588-12.669-4.586-19.003-5.996-5.846 14.604-18.47 36.935-44.364 53.179z" fill="#dd636e"/></g></g></svg>