<svg height="512" viewBox="0 0 53 59" width="512" xmlns="http://www.w3.org/2000/svg"><g id="070---Top" fill="none"><path id="Rectangle-path" d="m19 0h16v10.26h-16z" fill="#46b29d"/><path id="Shape" d="m47.43 16c.7969579 1.3345453.7486126 3.0099435-.1239743 4.2963124-.8725869 1.286369-2.4113867 1.9507422-3.9460257 1.7036876-.32 0-.27-.11-.27 0 .33 6.28 1.75 21.23 7.91 32 0 0-2.68 1.78-9.82 3-9.403329 1.3750748-18.956671 1.3750748-28.36 0-7.14-1.22-9.82-3-9.82-3 6.16-10.79 7.58-25.74 7.91-32 0-.15.05-.08-.27 0-1.53463903.2470546-3.07343878-.4173186-3.94602569-1.7036876-.87258692-1.2863689-.92093218-2.9617671-.12397431-4.2963124-1.82070093.2594423-3.58369557-.75603-4.27283769-2.4611239-.68914213-1.705094-.12682835-3.66037841 1.36283769-4.7388761-1.88493613-.61768382-3.03248871-2.52344869-2.69664291-4.47837199.3358458-1.95492329 2.05363348-3.3684374 4.03664291-3.32162801 15.12-1.08 14-1 14-.95 0 5.13 2.89 7 8 7s8-1.85 8-7l14 .95c1.9372374.01186153 3.5875227 1.41025611 3.9171732 3.31927679.3296505 1.90902069-.7560996 3.77987499-2.5771732 4.44072321 1.5378316 1.06249116 2.134799 3.0483534 1.4377149 4.7826796-.6970842 1.7343262-2.5023406 2.7546538-4.3477149 2.4573204z" fill="#65ddb9"/><g fill="#46b29d"><path id="Shape" d="m28 38v20h-2v-20c0-.5522847.4477153-1 1-1s1 .4477153 1 1z"/><path id="Shape" d="m20 45.12c-.6440105 4.3564313-2.335769 8.4914598-4.93 12.05l-.08.11c-.76-.1-1.48-.2-2.16-.32.13-.79 4-3.7 5.19-12.08.0428719-.3572656.273086-.6645207.603923-.8060254.3308371-.1415047.7120349-.0957609 1 .12.2879652.2157609.4389489.5687598.396077.9260254z"/><path id="Shape" d="m41.18 57c-.68.12-1.4.22-2.16.32l-.08-.11c-2.6037539-3.5691932-4.2992579-7.718716-4.94-12.09-.0662742-.5522847.3277153-1.0537258.88-1.12.5522847-.0662741 1.0537258.3277153 1.12.88 1.27 8.71 5 11.12 5.18 12.12z"/></g></g></svg>