<svg height="512" viewBox="0 0 58 58" width="512" xmlns="http://www.w3.org/2000/svg"><g id="013---T-shirt" fill="none"><path id="Shape" d="m9 4.22s-4.82 5.08-8.78 18.23c-.14163732.4496742.05003724.9371942.46 1.17 4.05976878 2.2482457 8.82740419 2.8531484 13.32 1.69z" fill="#2fa8cc"/><path id="Shape" d="m49 4.22s4.82 5.08 8.78 18.23c.1416373.4496742-.0500372.9371942-.46 1.17-4.0597688 2.2482457-8.8274042 2.8531484-13.32 1.69z" fill="#2fa8cc"/><path id="Shape" d="m57.32 23.62c-4.0581461 2.2532046-8.8277371 2.8583554-13.32 1.69l.91-3.84c4.0806862.6083292 8.2464968-.2036509 11.8-2.3.36 1 .72 2.13 1.07 3.28.1416373.4496742-.0500372.9371942-.46 1.17z" fill="#3b97d3"/><path id="Shape" d="m14 25.31c-4.49226292 1.1683554-9.26185394.5632046-13.32-1.69-.40996276-.2328058-.60163732-.7203258-.46-1.17.35-1.15.71-2.25 1.07-3.28 3.4985579 2.1532412 7.65473911 2.9766691 11.71 2.32.14-.03 0-.49 1 3.82z" fill="#3b97d3"/><path id="Shape" d="m38 0s-1 10.85-9 10.85-9-10.85-9-10.85z" fill="#285680"/><path id="Shape" d="m44 25.31 1 28.89c.0143292.3908871-.20056.7542452-.55.93-3.84 1.92-7.83 2.87-15.45 2.87s-11.61-1-15.43-2.87c-.3572284-.1699641-.5806803-.5345435-.57-.93l1-28.89s-4-14.76-5-21.09c3.4833113-1.84458591 7.1767457-3.26152165 11-4.22 0 0 1 8 9 8s9-8 9-8c3.8232543.95847835 7.5166887 2.37541409 11 4.22-1 6.33-5 21.09-5 21.09z" fill="#67b9cc"/><path id="Shape" d="m45 54.2c.0143292.3908871-.20056.7542452-.55.93-3.84 1.92-7.83 2.87-15.45 2.87s-11.61-1-15.43-2.87c-.3572284-.1699641-.5806803-.5345435-.57-.93l.11-3.29c3.98 2.09 7.98 3.09 15.89 3.09s11.91-1 15.87-3.09z" fill="#2fa8cc"/><path id="Shape" d="m28 20h-1c-.5522847 0-1-.4477153-1-1s.4477153-1 1-1h1v-10c0-.55228475.4477153-1 1-1s1 .44771525 1 1v10c0 1.1045695-.8954305 2-2 2z" fill="#285680"/><g fill="#2c3e50"><circle id="Oval" cx="25" cy="12" r="1"/><circle id="Oval" cx="25" cy="16" r="1"/></g></g></svg>