<?xml version="1.0" encoding="iso-8859-1"?>
<!-- Generator: Adobe Illustrator 19.0.0, SVG Export Plug-In . SVG Version: 6.00 Build 0)  -->
<svg version="1.1" id="Layer_1" xmlns="http://www.w3.org/2000/svg" xmlns:xlink="http://www.w3.org/1999/xlink" x="0px" y="0px"
	 viewBox="0 0 503.879 503.879" style="enable-background:new 0 0 503.879 503.879;" xml:space="preserve">
<g transform="translate(0 -1)">
	<path style="fill:#4482C3;" d="M349.043,204.034c0-17.655,15.166-32.803,25-53.036c15.545-32.009,26.394-85.786,27.966-114.688
		c0.539-9.869-7.812-16.737-17.655-17.655C370.759,17.384,336.005,7.727,322.56,1c0,24.373-31.62,44.138-70.621,44.138
		S181.319,25.373,181.319,1c-13.444,6.727-48.199,16.384-61.793,17.655c-9.843,0.918-18.194,7.786-17.655,17.655
		c1.571,28.902,12.42,82.679,27.966,114.688c9.834,20.233,25,35.381,25,53.036c0,35.31,0.282,61.555-8.73,91.533
		c-10.364,34.481-26.58,99.787-26.58,199.777c0,0,54.369,18.123,103.142,4.396c9.543-2.692,19.412-4.034,29.272-4.034
		c9.86,0,19.73,1.342,29.272,4.034c48.772,13.727,103.142-4.396,103.142-4.396c0-99.99-16.216-165.297-26.58-199.777
		C348.76,265.589,349.043,239.345,349.043,204.034"/>
	<g>
		<path style="fill:#285680;" d="M129.835,150.995c-15.545-32-26.394-85.786-27.966-114.688
			c-0.459-8.439,5.597-14.645,13.515-16.852l-41.613,8.024c0,0-69.005,17.655-69.005,44.138c0,0,35.31,17.655,35.31,35.31
			c0,0-1.615,44.138,24.867,44.138h35.319h29.608C129.862,151.048,129.844,151.021,129.835,150.995"/>
		<path style="fill:#285680;" d="M374.044,150.995c15.545-32,26.395-85.786,27.966-114.688c0.459-8.439-5.597-14.645-13.515-16.852
			l41.613,8.024c0,0,69.005,17.655,69.005,44.138c0,0-35.31,17.655-35.31,35.31c0,0,1.615,44.138-24.867,44.138h-35.319h-29.608
			C374.017,151.048,374.035,151.021,374.044,150.995"/>
	</g>
</g>
<g>
</g>
<g>
</g>
<g>
</g>
<g>
</g>
<g>
</g>
<g>
</g>
<g>
</g>
<g>
</g>
<g>
</g>
<g>
</g>
<g>
</g>
<g>
</g>
<g>
</g>
<g>
</g>
<g>
</g>
</svg>
