<?xml version="1.0" encoding="iso-8859-1"?>
<!-- Generator: Adobe Illustrator 19.0.0, SVG Export Plug-In . SVG Version: 6.00 Build 0)  -->
<svg version="1.1" id="Layer_1" xmlns="http://www.w3.org/2000/svg" xmlns:xlink="http://www.w3.org/1999/xlink" x="0px" y="0px"
	 viewBox="0 0 504.017 504.017" style="enable-background:new 0 0 504.017 504.017;" xml:space="preserve">
<g transform="translate(0 -1)">
	<path style="fill:#ECF0F1;" d="M351.64,210.391c0.529-3.393,1.102-6.569,1.684-9.528c3.003-15.065,8.452-29.687,17.538-42.071
		c20.766-28.29,26.494-84.723,28.073-113.69c0.529-9.693-6.682-17.955-16.358-18.857c-13.355-1.25-29.201-4.252-42.409-10.873
		C320.799,5.677,299.312,1,277.652,1h-25.643h-25.643c-21.66,0-43.147,4.677-62.516,14.371
		c-13.208,6.621-29.045,9.624-42.409,10.873c-9.676,0.903-16.887,9.164-16.358,18.857c1.579,28.967,7.307,85.4,28.073,113.69
		c9.086,12.383,16.584,26.745,19.586,41.81c0.59,2.959,1.154,6.135,1.684,9.528c4.721,30.182,1.753,61.015-6.951,90.294
		c-10.153,34.182-25.635,98.035-25.635,195.22c0,0,53.448,17.816,101.393,4.322c18.77-5.285,38.79-5.285,57.552,0
		c47.946,13.494,101.393-4.322,101.393-4.322c0-97.185-13.434-160.777-23.587-194.959
		C349.887,271.397,346.919,240.573,351.64,210.391"/>
	<g>
		<path style="fill:#BDC3C7;" d="M252.008,122.495c51.235,0,69.137-110.956,69.693-114.488c-14.18-4.599-29.054-7.003-44.049-7.003
			h-25.643h-25.643c-15.117,0-30.104,2.43-44.388,7.099C182.506,11.4,200.713,122.495,252.008,122.495"/>
		<path style="fill:#BDC3C7;" d="M105.083,45.104c-0.286-5.285,1.779-10.101,5.233-13.572l-0.026-0.061
			c0,0-75.229,64.989-75.229,134.413l78.102,26.034l19.985-33.124C112.382,130.504,106.663,74.071,105.083,45.104"/>
		<path style="fill:#BDC3C7;" d="M398.933,45.104c0.286-5.285-1.779-10.101-5.233-13.572l0.026-0.061
			c0,0,75.229,64.989,75.229,134.413l-78.102,26.034l-19.985-33.124C391.635,130.504,397.354,74.071,398.933,45.104"/>
	</g>
</g>
<g>
</g>
<g>
</g>
<g>
</g>
<g>
</g>
<g>
</g>
<g>
</g>
<g>
</g>
<g>
</g>
<g>
</g>
<g>
</g>
<g>
</g>
<g>
</g>
<g>
</g>
<g>
</g>
<g>
</g>
</svg>
