<?xml version="1.0" encoding="iso-8859-1"?>
<!-- Generator: Adobe Illustrator 19.0.0, SVG Export Plug-In . SVG Version: 6.00 Build 0)  -->
<svg version="1.1" id="Layer_1" xmlns="http://www.w3.org/2000/svg" xmlns:xlink="http://www.w3.org/1999/xlink" x="0px" y="0px"
	 viewBox="0 0 512 512" style="enable-background:new 0 0 512 512;" xml:space="preserve">
<g transform="translate(0 -1)">
	<path style="fill:#CC66A1;" d="M105.931,36.31C121.009,26.75,189.793,5.414,203.034,1c0,0-6.621,86.802,52.966,123.586
		C315.586,87.802,308.966,1,308.966,1c13.241,4.414,82.026,25.75,97.103,35.31s55.614,76.138,61.793,123.586
		c0,0-26.483,35.31-70.621,35.31l-17.655-52.966c0,0-35.31,71.724-35.31,141.241c0,0,35.31,137.198,35.31,211.862
		c0,0-76.871,17.655-123.586,17.655s-123.586-17.655-123.586-17.655c0-74.664,35.31-211.862,35.31-211.862
		c0-69.517-35.31-141.241-35.31-141.241l-17.655,52.966c-44.138,0-70.621-35.31-70.621-35.31
		C50.317,112.448,90.854,45.871,105.931,36.31"/>
	<g>
		<path style="fill:#804169;" d="M308.966,1C294.25,1,274.759,9.828,256,9.828S217.75,1,203.034,1c0,0-6.621,86.802,52.966,123.586
			C315.586,87.802,308.966,1,308.966,1"/>
		<path style="fill:#804169;" d="M300.138,204.034c-4.873,0-8.828-3.946-8.828-8.828c0-9.737-7.918-17.655-17.655-17.655
			c-4.873,0-8.828-3.946-8.828-8.828c0-4.882,3.955-8.828,8.828-8.828c10.531,0,20.012,4.634,26.483,11.979
			c6.471-7.345,15.951-11.979,26.483-11.979c4.873,0,8.828,3.946,8.828,8.828c0,4.882-3.955,8.828-8.828,8.828
			c-9.737,0-17.655,7.918-17.655,17.655C308.966,200.089,305.011,204.034,300.138,204.034"/>
	</g>
</g>
<g>
</g>
<g>
</g>
<g>
</g>
<g>
</g>
<g>
</g>
<g>
</g>
<g>
</g>
<g>
</g>
<g>
</g>
<g>
</g>
<g>
</g>
<g>
</g>
<g>
</g>
<g>
</g>
<g>
</g>
</svg>
