<svg id="Capa_1" enable-background="new 0 0 512 512" height="512" viewBox="0 0 512 512" width="512" xmlns="http://www.w3.org/2000/svg"><g><g><g><path d="m203.646 53.176c-1.569 0-3.141-.477-4.488-1.438l-23.624-16.867c-3.472-2.478-4.277-7.303-1.797-10.775 2.477-3.47 7.302-4.276 10.775-1.797l1.19.849c-.155-3.082 1.559-6.086 4.542-7.431 3.89-1.752 8.463-.021 10.217 3.868l10.228 22.692c1.434 3.182.556 6.932-2.143 9.146-1.419 1.165-3.158 1.753-4.9 1.753z" fill="#dddaec"/></g><g><path d="m321.562 63.473c-3.035 0-5.912-1.799-7.142-4.778-1.629-3.943.247-8.46 4.19-10.088l24.924-10.296c3.943-1.628 8.46.247 10.088 4.19 1.629 3.943-.247 8.46-4.19 10.088l-24.924 10.296c-.965.399-1.964.588-2.946.588z" fill="#dddaec"/></g><g><path d="m383.686 189.134c-1.612 0-3.223-.503-4.586-1.509-2.698-1.99-3.804-5.493-2.738-8.672l10.308-30.737c1.357-4.044 5.737-6.226 9.78-4.867 4.044 1.356 6.224 5.734 4.867 9.78l-2.692 8.028 2.308-1.66c3.462-2.489 8.289-1.702 10.781 1.763 2.49 3.464 1.701 8.291-1.763 10.781l-21.757 15.641c-1.347.969-2.928 1.452-4.508 1.452z" fill="#da4a54"/></g><g><path d="m62.893 305.538c-3.422 0-6.55-2.291-7.464-5.755-1.088-4.125 1.373-8.351 5.498-9.441l4.439-1.171-5.926-2.968c-3.815-1.91-5.358-6.552-3.448-10.366 1.912-3.814 6.552-5.358 10.366-3.448l24.211 12.125c2.873 1.439 4.555 4.506 4.224 7.703-.331 3.195-2.605 5.853-5.712 6.674l-24.211 6.39c-.662.174-1.326.257-1.977.257z" fill="#da4a54"/></g><g><path d="m442.414 410.813c-1.066 0-2.148-.222-3.182-.691l-18.147-8.222c-2.944-1.334-4.747-4.359-4.517-7.584.229-3.224 2.442-5.965 5.545-6.869l23.897-6.96c4.102-1.187 8.385 1.163 9.577 5.256 1.193 4.097-1.161 8.385-5.256 9.578l-3.931 1.145c3.32 1.991 4.691 6.198 3.055 9.808-1.292 2.852-4.101 4.539-7.041 4.539z" fill="#da4a54"/></g><g><path d="m128.915 183.116c-2.72 0-5.356-1.438-6.766-3.986l-13.086-23.651c-2.065-3.733-.713-8.434 3.019-10.499 3.735-2.065 8.434-.712 10.499 3.02l13.086 23.651c2.065 3.733.713 8.434-3.02 10.499-1.184.655-2.467.966-3.732.966z" fill="#da4a54"/></g></g><path d="m224.415 153.602c-9.579-3.963-11.217-19.691-18.117-26.591-7.153-7.153-22.794-8.901-26.609-18.101s6-21.503 5.992-31.619c-.007-9.759-9.979-22.03-6.016-31.609s19.691-11.217 26.591-18.117c7.153-7.153 8.901-22.794 18.101-26.609s21.503 6 31.619 5.992c9.759-.007 22.03-9.979 31.609-6.016s11.217 19.691 18.117 26.591c7.153 7.153 22.794 8.901 26.609 18.101s-6 21.503-5.992 31.619c.007 9.759 9.979 22.03 6.016 31.609-3.964 9.579-19.691 11.217-26.591 18.117-7.153 7.153-8.901 22.794-18.101 26.609s-21.503-6-31.619-5.992c-9.759.007-22.031 9.979-31.609 6.016z" fill="#f9f6f9"/><path d="m206.297 127.011c6.9 6.901 8.538 22.628 18.117 26.591s21.85-6.009 31.609-6.016c10.116-.008 22.419 9.807 31.619 5.992s10.948-19.456 18.101-26.609c6.901-6.9 22.628-8.538 26.591-18.117.628-1.518.904-3.103.928-4.735-23.532-11.064-49.76-17.218-77.262-17.218-27.472 0-53.673 6.142-77.186 17.183-.012 1.678.239 3.296.874 4.827 3.815 9.2 19.456 10.948 26.609 18.102z" fill="#dddaec"/><path d="m445.788 512h-379.576c-10.612 0-19.214-8.602-19.214-19.214v-30.9c0-10.612 8.602-19.214 19.214-19.214h379.577c10.612 0 19.214 8.602 19.214 19.214v30.9c0 10.612-8.603 19.214-19.215 19.214z" fill="#f9f6f9"/><path d="m445.788 442.672h-25.953c10.612 0 19.214 8.603 19.214 19.214v30.9c0 10.612-8.602 19.214-19.214 19.214h25.953c10.612 0 19.214-8.602 19.214-19.214v-30.9c.001-10.611-8.602-19.214-19.214-19.214z" fill="#dddaec"/><path d="m256 105.831c-92.726 0-170.985 69.953-180.199 162.22-5.984 59.917-2.546 120.032 10.314 174.621h339.77c1.315-56.706 3.984-114.704-1.999-174.621-9.215-92.267-75.54-156.078-167.886-162.22z" fill="#dd636e"/><path d="m411.224 193.123c-11.682 6.426-22.313 17.732-34.736 19.828-15.834 2.671-33.595-9.473-49.428-7.866-15.941 1.618-30.909 17.076-46.85 17.616-15.977.542-31.954-13.87-47.932-14.411-15.941-.54-32.854 12.759-48.794 11.141-15.834-1.607-29.74-18.028-45.573-20.699-13.526-2.281-29.175 5.579-43.28 5.396-5.691 11.087-10.266 22.86-13.573 35.183 2.235 1.17 4.56 2.1 7.019 2.679 15.662 3.682 34.173-7.284 49.834-4.642 15.834 2.67 29.74 19.092 45.574 20.699 15.941 1.618 32.854-11.681 48.795-11.141 15.977.541 31.955 14.953 47.932 14.411 15.941-.54 30.909-15.998 46.85-17.616 15.833-1.607 33.594 10.536 49.428 7.866 15.662-2.642 28.474-19.931 44.136-23.613 2.103-.494 4.305-.746 6.576-.834-4.155-11.978-9.53-23.356-15.978-33.997z" fill="#eab14d"/><path d="m383.685 210.718c9.48-4.164 18.173-12.443 27.54-17.595-31.908-52.663-89.985-87.292-155.224-87.292-6.221 0-12.374.325-18.448.94 64.474 6.532 119.753 46.914 146.132 103.947z" fill="#da4a54"/><path d="m411.224 193.123c-9.366 5.152-18.059 13.431-27.539 17.595 4.704 10.171 8.493 20.869 11.247 32.001 12.015-8.36 19.445-15.105 32.268-15.6-4.153-11.977-9.528-23.355-15.976-33.996z" fill="#e49542"/><path d="m438.695 305.698c-6.152-1.011-12.24-1.599-18.07-.229-15.662 3.682-28.474 20.972-44.136 23.613-15.834 2.671-33.595-9.473-49.428-7.866-15.941 1.618-30.909 17.076-46.85 17.616-15.977.541-31.954-13.87-47.932-14.411-15.941-.54-32.854 12.759-48.794 11.141-15.834-1.607-29.74-18.028-45.573-20.699-15.662-2.642-34.172 8.324-49.834 4.642-5.146-1.21-10.09-4.061-14.968-7.492-.297 12.923-.134 25.783.454 38.535 4.5 3.435 9.194 6.321 14.514 7.571 15.662 3.682 34.173-7.284 49.834-4.642 15.834 2.671 29.74 19.092 45.574 20.699 15.941 1.618 32.854-11.681 48.795-11.141 15.977.542 31.955 14.953 47.932 14.411 15.941-.54 30.909-15.998 46.85-17.616 15.833-1.607 33.594 10.536 49.428 7.866 15.662-2.642 28.474-19.931 44.136-23.613 5.517-1.297 11.707-.962 18.088-.211.425-12.641.415-25.384-.02-38.174z" fill="#eab14d"/><path d="m438.695 305.698c-6.152-1.011-12.24-1.599-18.07-.229-6.551 1.54-12.604 5.463-18.575 9.697.228 13.119-.004 26.172-.688 39.104 6.195-4.419 12.46-8.586 19.263-10.185 5.517-1.297 11.707-.962 18.088-.211.427-12.643.417-25.386-.018-38.176z" fill="#e49542"/><g fill="#da4a54"><path d="m438.695 305.698c-6.152-1.011-12.24-1.599-18.07-.229-6.551 1.54-12.604 5.463-18.575 9.697v.011c-.272-15.654-1.176-31.396-2.747-47.126-.864-8.652-2.345-17.104-4.379-25.324 8.352-5.811 16.539-12.619 25.701-14.773 2.103-.494 4.305-.746 6.576-.834 0 0 0 0 .203.586 4.43 12.811 7.396 26.325 8.796 40.346z"/><path d="m420.624 344.084c-6.803 1.6-13.068 5.767-19.263 10.185-1.608 30.416-5.718 60.152-12.373 88.402h36.897c7.411-31.462 11.674-64.762 12.827-98.798-6.381-.75-12.571-1.086-18.088.211z"/></g><g><g><path d="m237.552 478.529h-149.16c-4.267 0-7.725-3.458-7.725-7.725s3.458-7.725 7.725-7.725h149.159c4.267 0 7.725 3.458 7.725 7.725s-3.458 7.725-7.724 7.725z" fill="#dddaec"/></g><g><path d="m427.201 493.196h-149.16c-4.267 0-7.725-3.458-7.725-7.725s3.458-7.725 7.725-7.725h149.159c4.267 0 7.725 3.458 7.725 7.725s-3.458 7.725-7.724 7.725z" fill="#dddaec"/></g></g></g></svg>