<svg id="Capa_1" enable-background="new 0 0 512 512" height="512" viewBox="0 0 512 512" width="512" xmlns="http://www.w3.org/2000/svg"><g><path d="m258.403 203.548-31.109 31.109c-17.153 17.153-26.802 40.425-26.802 64.695v121.127h-170.933v-312.024c0-5.906 2.394-11.248 6.257-15.111 3.873-3.863 9.214-6.257 15.111-6.257 11.802 0 21.368 9.566 21.368 21.368v-32.513c0-5.906 2.394-11.248 6.257-15.111 3.873-3.863 9.215-6.257 15.111-6.257 11.802 0 21.368 9.566 21.368 21.368v-37.764c0-12.061 9.991-21.784 22.144-21.349 11.58.407 20.591 10.277 20.591 21.867v29.871c0-5.906 2.394-11.248 6.257-15.111 3.932-3.923 9.379-6.33 15.383-6.255 11.782.147 21.087 10.128 21.087 21.91v109.336c0 8.327 10.074 12.505 15.961 6.608l11.728-11.728c8.346-8.336 21.876-8.336 30.222 0 8.345 8.345 8.345 21.875-.001 30.221z" fill="#f4c3c6"/><path d="m175.076 68.566v109.88c0 8.327 10.074 12.505 15.961 6.608l9.455-9.455v-107.033c0-11.802-9.566-21.368-21.359-21.368-4.759 0-9.155 1.561-12.711 4.193 5.25 3.894 8.654 10.136 8.654 17.175z" fill="#eab1b7"/><path d="m258.403 173.326c-7.589-7.58-19.452-8.244-27.819-2.038.834.619 1.646 1.282 2.403 2.038 8.345 8.346 8.345 21.876 0 30.222l-31.109 31.109c-17.153 17.153-26.802 40.425-26.802 64.695v105.24c0 8.771-7.107 15.887-15.878 15.887h41.294v-121.127c0-24.27 9.649-47.541 26.802-64.695l31.109-31.109c8.346-8.346 8.346-21.876 0-30.222z" fill="#eab1b7"/><path d="m230.051 436.198c0 8.992-9.549 14.732-17.516 10.562-5.411-2.833-10.141-6.032-20.823-6.032-19.17 0-19.17 10.302-38.34 10.302-19.171 0-19.171-10.302-38.341-10.302s-19.17 10.302-38.34 10.302c-19.173 0-19.173-10.302-38.345-10.302-10.687 0-15.417 3.201-20.83 6.034-7.967 4.169-17.516-1.571-17.516-10.563v-83.225c0-18.708 15.166-33.874 33.874-33.874h13.206c13.945 0 26.71 7.829 33.031 20.26 6.321 12.431 19.085 20.26 33.031 20.26h83.036c18.708 0 33.874 15.166 33.874 33.874v42.704z" fill="#e28086"/><g><path d="m196.178 359.621h-27.499c18.708 0 33.874 15.166 33.874 33.874v42.703c0 2.067-.523 3.95-1.397 5.592 4.687 1.176 7.897 3.146 11.379 4.97 7.966 4.17 17.516-1.57 17.516-10.562v-42.703c0-18.708-15.165-33.874-33.873-33.874z" fill="#dd636e"/></g><path d="m107.457 287.913-17.084-28.266c-2.338-3.868-2.338-8.713 0-12.581l17.084-28.266c4.731-7.828 16.085-7.828 20.816 0l17.084 28.266c2.338 3.868 2.338 8.713 0 12.581l-17.084 28.266c-4.731 7.827-16.085 7.827-20.816 0z" fill="#e28086"/><path d="m145.357 247.065-17.084-28.266c-4.628-7.657-15.575-7.803-20.48-.481.109.164.233.31.336.481l17.084 28.266c2.338 3.868 2.338 8.713 0 12.581l-17.084 28.266c-.103.171-.227.317-.336.481 4.905 7.322 15.852 7.176 20.48-.481l17.084-28.266c2.338-3.868 2.338-8.713 0-12.581z" fill="#dd636e"/><g><path d="m135.993 411.61h-86.868c-4.267 0-7.726-3.459-7.726-7.726s3.459-7.726 7.726-7.726h86.867c4.267 0 7.726 3.459 7.726 7.726s-3.458 7.726-7.725 7.726z" fill="#f4c3c6"/></g><path d="m253.597 308.452 31.109-31.109c17.153-17.153 26.802-40.425 26.802-64.695v-121.127h170.933v312.023c0 5.906-2.394 11.248-6.257 15.111-3.873 3.863-9.214 6.257-15.111 6.257-11.802 0-21.368-9.566-21.368-21.368v32.514c0 5.906-2.394 11.248-6.257 15.111-3.873 3.863-9.215 6.257-15.111 6.257-11.802 0-21.368-9.566-21.368-21.368v37.763c0 12.061-9.991 21.784-22.144 21.349-11.58-.407-20.591-10.277-20.591-21.867v-29.871c0 5.906-2.394 11.248-6.257 15.111-3.932 3.923-9.379 6.33-15.383 6.255-11.782-.147-21.087-10.128-21.087-21.91v-109.334c0-8.327-10.074-12.505-15.961-6.608l-11.728 11.728c-8.346 8.336-21.876 8.336-30.222 0-8.345-8.346-8.345-21.876.001-30.222z" fill="#f4c3c6"/><g><path d="m462.099 91.521v312.024c0 5.905-2.394 11.247-6.257 15.111-1.456 1.452-3.12 2.696-4.942 3.684 3.025 1.641 6.49 2.573 10.173 2.573 5.897 0 11.238-2.394 15.111-6.257 3.863-3.863 6.257-9.205 6.257-15.111v-312.024z" fill="#eab1b7"/></g><g><g><path d="m157.762 161.325c-4.267 0-7.726-3.459-7.726-7.726v-85.035c0-4.268 3.459-7.726 7.726-7.726s7.726 3.459 7.726 7.726v85.035c.001 4.267-3.459 7.726-7.726 7.726z" fill="#eab1b7"/></g><g><path d="m115.028 168.461c-4.267 0-7.726-3.459-7.726-7.726v-84.797c0-4.268 3.459-7.726 7.726-7.726s7.726 3.459 7.726 7.726v84.797c0 4.267-3.459 7.726-7.726 7.726z" fill="#eab1b7"/></g><g><path d="m72.293 176.889c-4.267 0-7.726-3.459-7.726-7.726v-60.705c0-4.268 3.459-7.726 7.726-7.726s7.726 3.459 7.726 7.726v60.705c.001 4.268-3.458 7.726-7.726 7.726z" fill="#eab1b7"/></g><g><path d="m354.238 451.163c-4.268 0-7.726-3.459-7.726-7.726v-85.035c0-4.268 3.459-7.726 7.726-7.726s7.726 3.459 7.726 7.726v85.035c0 4.267-3.458 7.726-7.726 7.726z" fill="#eab1b7"/></g><g><path d="m396.972 443.788c-4.268 0-7.726-3.459-7.726-7.726v-84.796c0-4.268 3.459-7.726 7.726-7.726s7.726 3.459 7.726 7.726v84.796c.001 4.267-3.458 7.726-7.726 7.726z" fill="#eab1b7"/></g><g><path d="m439.707 411.269c-4.268 0-7.726-3.459-7.726-7.726v-60.706c0-4.268 3.459-7.726 7.726-7.726s7.726 3.459 7.726 7.726v60.706c0 4.267-3.459 7.726-7.726 7.726z" fill="#eab1b7"/></g></g><path d="m281.949 75.802c0-8.992 9.549-14.732 17.516-10.562 5.411 2.833 10.141 6.032 20.823 6.032 19.17 0 19.17-10.302 38.34-10.302 19.171 0 19.171 10.302 38.341 10.302s19.17-10.302 38.34-10.302c19.173 0 19.173 10.302 38.345 10.302 10.687 0 15.417-3.201 20.83-6.034 7.967-4.169 17.516 1.571 17.516 10.563v83.225c0 18.708-15.166 33.874-33.874 33.874h-13.206c-13.945 0-26.71-7.829-33.031-20.26-6.321-12.431-19.085-20.26-33.031-20.26h-83.036c-18.708 0-33.874-15.166-33.874-33.874v-42.704z" fill="#e28086"/><g><path d="m494.485 65.238c-3.136 1.641-6.05 3.402-10.018 4.596.998 1.724 1.585 3.744 1.585 5.966v83.225c0 16.562-11.89 30.339-27.597 33.284 2.114.375 4.273.59 6.466.59h13.207c18.708 0 33.874-15.165 33.874-33.873v-83.225c-.002-8.992-9.551-14.732-17.517-10.563z" fill="#dd636e"/></g><path d="m383.727 224.087-17.084 28.266c-2.338 3.868-2.338 8.713 0 12.581l17.084 28.266c4.731 7.828 16.085 7.828 20.816 0l17.084-28.266c2.338-3.868 2.338-8.713 0-12.581l-17.084-28.266c-4.732-7.827-16.085-7.827-20.816 0z" fill="#e28086"/><path d="m421.626 264.935-17.084 28.266c-4.628 7.657-15.575 7.803-20.48.481.109-.164.233-.31.336-.481l17.084-28.266c2.338-3.868 2.338-8.713 0-12.581l-17.084-28.266c-.103-.171-.227-.317-.336-.481 4.905-7.322 15.852-7.176 20.48.481l17.084 28.266c2.338 3.868 2.338 8.713 0 12.581z" fill="#dd636e"/><g><path d="m462.875 115.843h-86.867c-4.268 0-7.726-3.459-7.726-7.726s3.459-7.726 7.726-7.726h86.867c4.268 0 7.726 3.459 7.726 7.726s-3.459 7.726-7.726 7.726z" fill="#f4c3c6"/></g></g></svg>